<svg width="748" height="651" viewBox="0 0 748 651" fill="none" xmlns="http://www.w3.org/2000/svg">
<rect width="748" height="651" fill="white"/>
<rect x="36" y="384" width="458" height="243" fill="white" stroke="#0055DC" stroke-width="2"/>
<rect x="60" y="437" width="217" height="145" stroke="#757575" stroke-width="2" stroke-dasharray="10 10"/>
<rect x="20" y="42" width="706" height="93" fill="white" stroke="#FF8200" stroke-width="2" stroke-dasharray="10 10"/>
<rect x="20" y="196" width="706" height="116" stroke="#6ECCE5" stroke-width="2" stroke-dasharray="10 10"/>
<rect x="193" y="135" width="234" height="24" transform="rotate(90 193 135)" fill="#E2F5FA" stroke="#F6821F" stroke-width="2"/>
<line x1="225" y1="474" x2="225" y2="525" stroke="#757575" stroke-width="2"/>
<line x1="135" y1="474" x2="135" y2="525" stroke="#757575" stroke-width="2"/>
<line x1="352" y1="479" x2="352" y2="502" stroke="#757575" stroke-width="2"/>
<line x1="203" y1="525" x2="203" y2="548" stroke="#757575" stroke-width="2"/>
<line x1="146" y1="525" x2="146" y2="548" stroke="#757575" stroke-width="2"/>
<line x1="106" y1="525" x2="106" y2="548" stroke="#757575" stroke-width="2"/>
<line x1="86" y1="503" x2="86" y2="526" stroke="#757575" stroke-width="2"/>
<path d="M212.707 257.293C212.317 256.902 211.683 256.902 211.293 257.293L204.929 263.657C204.538 264.047 204.538 264.681 204.929 265.071C205.319 265.462 205.953 265.462 206.343 265.071L212 259.414L217.657 265.071C218.047 265.462 218.681 265.462 219.071 265.071C219.462 264.681 219.462 264.047 219.071 263.657L212.707 257.293ZM211 258L211 420L213 420L213 258L211 258Z" fill="#757575"/>
<line x1="253" y1="525" x2="253" y2="548" stroke="#757575" stroke-width="2"/>
<line x1="384" y1="502" x2="384" y2="525" stroke="#757575" stroke-width="2"/>
<line x1="415" y1="479" x2="415" y2="502" stroke="#757575" stroke-width="2"/>
<line x1="156" y1="526" x2="70" y2="526" stroke="#757575" stroke-width="2"/>
<line x1="224" y1="475" x2="135" y2="475" stroke="#757575" stroke-width="2"/>
<line x1="264" y1="526" x2="178" y2="526" stroke="#757575" stroke-width="2"/>
<line x1="674" y1="99" x2="181" y2="99" stroke="#757575" stroke-width="2"/>
<line x1="445" y1="501" x2="321" y2="501" stroke="#757575" stroke-width="2"/>
<line x1="383" y1="420" x2="211" y2="420" stroke="#757575" stroke-width="2"/>
<rect x="47" y="369" width="64" height="28" fill="white"/>
<path d="M65.7326 378.71C65.6872 378.252 65.4921 377.896 65.1474 377.642C64.8027 377.388 64.3349 377.261 63.744 377.261C63.3425 377.261 63.0034 377.318 62.7269 377.432C62.4504 377.542 62.2383 377.695 62.0906 377.892C61.9466 378.089 61.8747 378.312 61.8747 378.562C61.8671 378.771 61.9106 378.953 62.0053 379.108C62.1038 379.263 62.2383 379.398 62.4088 379.511C62.5792 379.621 62.7762 379.718 62.9997 379.801C63.2231 379.881 63.4618 379.949 63.7156 380.006L64.761 380.256C65.2686 380.369 65.7345 380.521 66.1588 380.71C66.583 380.9 66.9504 381.133 67.261 381.409C67.5716 381.686 67.8122 382.011 67.9826 382.386C68.1569 382.761 68.2459 383.191 68.2497 383.676C68.2459 384.388 68.0641 385.006 67.7042 385.528C67.3481 386.047 66.833 386.451 66.1588 386.739C65.4883 387.023 64.6796 387.165 63.7326 387.165C62.7932 387.165 61.975 387.021 61.2781 386.733C60.5849 386.445 60.0432 386.019 59.6531 385.455C59.2667 384.886 59.0641 384.184 59.0451 383.347H61.4258C61.4523 383.737 61.5641 384.062 61.761 384.324C61.9618 384.581 62.2288 384.777 62.5622 384.909C62.8993 385.038 63.28 385.102 63.7042 385.102C64.1209 385.102 64.4826 385.042 64.7894 384.92C65.1 384.799 65.3406 384.631 65.511 384.415C65.6815 384.199 65.7667 383.951 65.7667 383.67C65.7667 383.409 65.6891 383.189 65.5338 383.011C65.3822 382.833 65.1588 382.682 64.8633 382.557C64.5716 382.432 64.2137 382.318 63.7894 382.216L62.5224 381.898C61.5413 381.659 60.7667 381.286 60.1985 380.778C59.6303 380.271 59.3481 379.587 59.3519 378.727C59.3481 378.023 59.5356 377.407 59.9144 376.881C60.297 376.354 60.8216 375.943 61.4883 375.648C62.155 375.352 62.9125 375.205 63.761 375.205C64.6247 375.205 65.3784 375.352 66.0224 375.648C66.6701 375.943 67.1739 376.354 67.5338 376.881C67.8936 377.407 68.0792 378.017 68.0906 378.71H65.7326ZM69.683 387V378.273H72.1035V387H69.683ZM70.8989 377.148C70.5391 377.148 70.2304 377.028 69.9728 376.79C69.719 376.547 69.5921 376.258 69.5921 375.92C69.5921 375.587 69.719 375.301 69.9728 375.062C70.2304 374.82 70.5391 374.699 70.8989 374.699C71.2588 374.699 71.5656 374.82 71.8194 375.062C72.077 375.301 72.2058 375.587 72.2058 375.92C72.2058 376.258 72.077 376.547 71.8194 376.79C71.5656 377.028 71.2588 377.148 70.8989 377.148ZM78.5085 378.273V380.091H73.2528V378.273H78.5085ZM74.446 376.182H76.8664V384.318C76.8664 384.542 76.9005 384.716 76.9687 384.841C77.0369 384.962 77.1316 385.047 77.2528 385.097C77.3778 385.146 77.5217 385.17 77.6846 385.17C77.7982 385.17 77.9119 385.161 78.0255 385.142C78.1391 385.119 78.2263 385.102 78.2869 385.091L78.6675 386.892C78.5463 386.93 78.3759 386.973 78.1562 387.023C77.9365 387.076 77.6694 387.108 77.355 387.119C76.7717 387.142 76.2603 387.064 75.821 386.886C75.3853 386.708 75.0463 386.432 74.8039 386.057C74.5615 385.682 74.4422 385.208 74.446 384.636V376.182ZM83.7927 387.17C82.895 387.17 82.1222 386.989 81.4745 386.625C80.8306 386.258 80.3343 385.739 79.9859 385.068C79.6374 384.394 79.4631 383.597 79.4631 382.676C79.4631 381.778 79.6374 380.991 79.9859 380.312C80.3343 379.634 80.8249 379.106 81.4575 378.727C82.0938 378.348 82.84 378.159 83.6961 378.159C84.2718 378.159 84.8078 378.252 85.304 378.438C85.804 378.619 86.2397 378.894 86.6109 379.261C86.9859 379.629 87.2775 380.091 87.4859 380.648C87.6942 381.201 87.7984 381.848 87.7984 382.591V383.256H80.429V381.756H85.52C85.52 381.407 85.4442 381.098 85.2927 380.83C85.1412 380.561 84.9309 380.35 84.662 380.199C84.3968 380.044 84.0881 379.966 83.7359 379.966C83.3684 379.966 83.0427 380.051 82.7586 380.222C82.4783 380.388 82.2586 380.614 82.0995 380.898C81.9404 381.178 81.859 381.491 81.8552 381.835V383.261C81.8552 383.693 81.9347 384.066 82.0938 384.381C82.2567 384.695 82.4859 384.938 82.7813 385.108C83.0768 385.278 83.4272 385.364 83.8325 385.364C84.1014 385.364 84.3476 385.326 84.5711 385.25C84.7946 385.174 84.9859 385.061 85.145 384.909C85.304 384.758 85.4253 384.572 85.5086 384.352L87.7472 384.5C87.6336 385.038 87.4006 385.508 87.0484 385.909C86.6999 386.307 86.2491 386.617 85.6961 386.841C85.1468 387.061 84.5124 387.17 83.7927 387.17ZM97.7688 375.364V387H95.3086V377.699H95.2404L92.5756 379.369V377.188L95.4563 375.364H97.7688Z" fill="#222222"/>
<path d="M66.3239 601.71C66.2784 601.252 66.0833 600.896 65.7386 600.642C65.3939 600.388 64.9261 600.261 64.3352 600.261C63.9337 600.261 63.5947 600.318 63.3182 600.432C63.0417 600.542 62.8295 600.695 62.6818 600.892C62.5379 601.089 62.4659 601.312 62.4659 601.562C62.4583 601.771 62.5019 601.953 62.5966 602.108C62.6951 602.263 62.8295 602.398 63 602.511C63.1705 602.621 63.3674 602.718 63.5909 602.801C63.8144 602.881 64.053 602.949 64.3068 603.006L65.3523 603.256C65.8598 603.369 66.3258 603.521 66.75 603.71C67.1742 603.9 67.5417 604.133 67.8523 604.409C68.1629 604.686 68.4034 605.011 68.5739 605.386C68.7481 605.761 68.8371 606.191 68.8409 606.676C68.8371 607.388 68.6553 608.006 68.2955 608.528C67.9394 609.047 67.4242 609.451 66.75 609.739C66.0795 610.023 65.2708 610.165 64.3239 610.165C63.3845 610.165 62.5663 610.021 61.8693 609.733C61.1761 609.445 60.6345 609.019 60.2443 608.455C59.858 607.886 59.6553 607.184 59.6364 606.347H62.017C62.0436 606.737 62.1553 607.062 62.3523 607.324C62.553 607.581 62.8201 607.777 63.1534 607.909C63.4905 608.038 63.8712 608.102 64.2955 608.102C64.7121 608.102 65.0739 608.042 65.3807 607.92C65.6913 607.799 65.9318 607.631 66.1023 607.415C66.2727 607.199 66.358 606.951 66.358 606.67C66.358 606.409 66.2803 606.189 66.125 606.011C65.9735 605.833 65.75 605.682 65.4545 605.557C65.1629 605.432 64.8049 605.318 64.3807 605.216L63.1136 604.898C62.1326 604.659 61.358 604.286 60.7898 603.778C60.2216 603.271 59.9394 602.587 59.9432 601.727C59.9394 601.023 60.1269 600.407 60.5057 599.881C60.8883 599.354 61.4129 598.943 62.0795 598.648C62.7462 598.352 63.5038 598.205 64.3523 598.205C65.2159 598.205 65.9697 598.352 66.6136 598.648C67.2614 598.943 67.7652 599.354 68.125 599.881C68.4848 600.407 68.6705 601.017 68.6818 601.71H66.3239ZM74.2516 610.17C73.3538 610.17 72.5811 609.989 71.9334 609.625C71.2894 609.258 70.7932 608.739 70.4447 608.068C70.0963 607.394 69.922 606.597 69.922 605.676C69.922 604.778 70.0963 603.991 70.4447 603.312C70.7932 602.634 71.2838 602.106 71.9163 601.727C72.5527 601.348 73.2989 601.159 74.155 601.159C74.7307 601.159 75.2667 601.252 75.7629 601.438C76.2629 601.619 76.6985 601.894 77.0697 602.261C77.4447 602.629 77.7364 603.091 77.9447 603.648C78.1531 604.201 78.2572 604.848 78.2572 605.591V606.256H70.8879V604.756H75.9788C75.9788 604.407 75.9031 604.098 75.7516 603.83C75.6 603.561 75.3898 603.35 75.1209 603.199C74.8557 603.044 74.547 602.966 74.1947 602.966C73.8273 602.966 73.5016 603.051 73.2175 603.222C72.9372 603.388 72.7175 603.614 72.5584 603.898C72.3993 604.178 72.3178 604.491 72.3141 604.835V606.261C72.3141 606.693 72.3936 607.066 72.5527 607.381C72.7156 607.695 72.9447 607.938 73.2402 608.108C73.5356 608.278 73.886 608.364 74.2913 608.364C74.5603 608.364 74.8065 608.326 75.03 608.25C75.2535 608.174 75.4447 608.061 75.6038 607.909C75.7629 607.758 75.8841 607.572 75.9675 607.352L78.2061 607.5C78.0925 608.038 77.8595 608.508 77.5072 608.909C77.1588 609.307 76.708 609.617 76.155 609.841C75.6057 610.061 74.9713 610.17 74.2516 610.17ZM83.5926 613.455C82.8085 613.455 82.1362 613.347 81.5756 613.131C81.0187 612.919 80.5756 612.629 80.246 612.261C79.9165 611.894 79.7025 611.481 79.604 611.023L81.8426 610.722C81.9108 610.896 82.0187 611.059 82.1665 611.21C82.3142 611.362 82.5093 611.483 82.7517 611.574C82.9979 611.669 83.2971 611.716 83.6494 611.716C84.1759 611.716 84.6096 611.587 84.9506 611.33C85.2953 611.076 85.4676 610.65 85.4676 610.051V608.455H85.3653C85.2593 608.697 85.1002 608.926 84.8881 609.142C84.6759 609.358 84.4032 609.534 84.0699 609.67C83.7365 609.807 83.3388 609.875 82.8767 609.875C82.2214 609.875 81.6248 609.723 81.0869 609.42C80.5528 609.114 80.1267 608.646 79.8085 608.017C79.4941 607.384 79.3369 606.585 79.3369 605.619C79.3369 604.631 79.4979 603.805 79.8199 603.142C80.1418 602.479 80.5699 601.983 81.104 601.653C81.6418 601.324 82.2309 601.159 82.871 601.159C83.3596 601.159 83.7687 601.242 84.0983 601.409C84.4278 601.572 84.693 601.777 84.8937 602.023C85.0983 602.265 85.2555 602.504 85.3653 602.739H85.4562V601.273H87.8596V610.085C87.8596 610.828 87.6778 611.449 87.3142 611.949C86.9506 612.449 86.4468 612.824 85.8028 613.074C85.1627 613.328 84.4259 613.455 83.5926 613.455ZM83.6437 608.057C84.0339 608.057 84.3634 607.96 84.6324 607.767C84.9051 607.57 85.1134 607.29 85.2574 606.926C85.4051 606.559 85.479 606.119 85.479 605.608C85.479 605.097 85.407 604.653 85.2631 604.278C85.1191 603.9 84.9108 603.606 84.6381 603.398C84.3653 603.189 84.0339 603.085 83.6437 603.085C83.246 603.085 82.9108 603.193 82.6381 603.409C82.3653 603.621 82.1589 603.917 82.0187 604.295C81.8786 604.674 81.8085 605.112 81.8085 605.608C81.8085 606.112 81.8786 606.547 82.0187 606.915C82.1627 607.278 82.3691 607.561 82.6381 607.761C82.9108 607.958 83.246 608.057 83.6437 608.057ZM89.6098 610V601.273H91.9166V602.812H92.0189C92.2007 602.301 92.5037 601.898 92.928 601.602C93.3522 601.307 93.8598 601.159 94.4507 601.159C95.0492 601.159 95.5586 601.309 95.9791 601.608C96.3996 601.903 96.6799 602.305 96.82 602.812H96.9109C97.089 602.312 97.4109 601.913 97.8768 601.614C98.3465 601.311 98.9015 601.159 99.5416 601.159C100.356 601.159 101.017 601.419 101.525 601.938C102.036 602.453 102.292 603.184 102.292 604.131V610H99.8768V604.608C99.8768 604.123 99.748 603.759 99.4905 603.517C99.2329 603.275 98.9109 603.153 98.5246 603.153C98.0852 603.153 97.7424 603.294 97.4961 603.574C97.2499 603.85 97.1268 604.216 97.1268 604.67V610H94.7802V604.557C94.7802 604.129 94.6571 603.788 94.4109 603.534C94.1685 603.28 93.8484 603.153 93.4507 603.153C93.1818 603.153 92.9393 603.222 92.7234 603.358C92.5113 603.491 92.3427 603.678 92.2177 603.92C92.0927 604.159 92.0302 604.439 92.0302 604.761V610H89.6098ZM108.005 610.17C107.107 610.17 106.334 609.989 105.687 609.625C105.043 609.258 104.546 608.739 104.198 608.068C103.85 607.394 103.675 606.597 103.675 605.676C103.675 604.778 103.85 603.991 104.198 603.312C104.546 602.634 105.037 602.106 105.67 601.727C106.306 601.348 107.052 601.159 107.908 601.159C108.484 601.159 109.02 601.252 109.516 601.438C110.016 601.619 110.452 601.894 110.823 602.261C111.198 602.629 111.49 603.091 111.698 603.648C111.906 604.201 112.01 604.848 112.01 605.591V606.256H104.641V604.756H109.732C109.732 604.407 109.656 604.098 109.505 603.83C109.353 603.561 109.143 603.35 108.874 603.199C108.609 603.044 108.3 602.966 107.948 602.966C107.581 602.966 107.255 603.051 106.971 603.222C106.69 603.388 106.471 603.614 106.312 603.898C106.153 604.178 106.071 604.491 106.067 604.835V606.261C106.067 606.693 106.147 607.066 106.306 607.381C106.469 607.695 106.698 607.938 106.993 608.108C107.289 608.278 107.639 608.364 108.045 608.364C108.314 608.364 108.56 608.326 108.783 608.25C109.007 608.174 109.198 608.061 109.357 607.909C109.516 607.758 109.637 607.572 109.721 607.352L111.959 607.5C111.846 608.038 111.613 608.508 111.26 608.909C110.912 609.307 110.461 609.617 109.908 609.841C109.359 610.061 108.725 610.17 108.005 610.17ZM115.834 604.955V610H113.414V601.273H115.721V602.812H115.823C116.016 602.305 116.34 601.903 116.795 601.608C117.249 601.309 117.8 601.159 118.448 601.159C119.054 601.159 119.583 601.292 120.033 601.557C120.484 601.822 120.834 602.201 121.084 602.693C121.334 603.182 121.459 603.765 121.459 604.443V610H119.039V604.875C119.043 604.341 118.906 603.924 118.63 603.625C118.353 603.322 117.973 603.17 117.488 603.17C117.162 603.17 116.874 603.241 116.624 603.381C116.378 603.521 116.185 603.725 116.045 603.994C115.908 604.259 115.838 604.58 115.834 604.955ZM127.833 601.273V603.091H122.578V601.273H127.833ZM123.771 599.182H126.191V607.318C126.191 607.542 126.225 607.716 126.293 607.841C126.362 607.962 126.456 608.047 126.578 608.097C126.703 608.146 126.846 608.17 127.009 608.17C127.123 608.17 127.237 608.161 127.35 608.142C127.464 608.119 127.551 608.102 127.612 608.091L127.992 609.892C127.871 609.93 127.701 609.973 127.481 610.023C127.261 610.076 126.994 610.108 126.68 610.119C126.096 610.142 125.585 610.064 125.146 609.886C124.71 609.708 124.371 609.432 124.129 609.057C123.886 608.682 123.767 608.208 123.771 607.636V599.182ZM137.801 598.364V610H135.341V600.699H135.272L132.608 602.369V600.188L135.488 598.364H137.801Z" fill="#222222"/>
<path d="M303.324 601.71C303.278 601.252 303.083 600.896 302.739 600.642C302.394 600.388 301.926 600.261 301.335 600.261C300.934 600.261 300.595 600.318 300.318 600.432C300.042 600.542 299.83 600.695 299.682 600.892C299.538 601.089 299.466 601.312 299.466 601.562C299.458 601.771 299.502 601.953 299.597 602.108C299.695 602.263 299.83 602.398 300 602.511C300.17 602.621 300.367 602.718 300.591 602.801C300.814 602.881 301.053 602.949 301.307 603.006L302.352 603.256C302.86 603.369 303.326 603.521 303.75 603.71C304.174 603.9 304.542 604.133 304.852 604.409C305.163 604.686 305.403 605.011 305.574 605.386C305.748 605.761 305.837 606.191 305.841 606.676C305.837 607.388 305.655 608.006 305.295 608.528C304.939 609.047 304.424 609.451 303.75 609.739C303.08 610.023 302.271 610.165 301.324 610.165C300.384 610.165 299.566 610.021 298.869 609.733C298.176 609.445 297.634 609.019 297.244 608.455C296.858 607.886 296.655 607.184 296.636 606.347H299.017C299.044 606.737 299.155 607.062 299.352 607.324C299.553 607.581 299.82 607.777 300.153 607.909C300.491 608.038 300.871 608.102 301.295 608.102C301.712 608.102 302.074 608.042 302.381 607.92C302.691 607.799 302.932 607.631 303.102 607.415C303.273 607.199 303.358 606.951 303.358 606.67C303.358 606.409 303.28 606.189 303.125 606.011C302.973 605.833 302.75 605.682 302.455 605.557C302.163 605.432 301.805 605.318 301.381 605.216L300.114 604.898C299.133 604.659 298.358 604.286 297.79 603.778C297.222 603.271 296.939 602.587 296.943 601.727C296.939 601.023 297.127 600.407 297.506 599.881C297.888 599.354 298.413 598.943 299.08 598.648C299.746 598.352 300.504 598.205 301.352 598.205C302.216 598.205 302.97 598.352 303.614 598.648C304.261 598.943 304.765 599.354 305.125 599.881C305.485 600.407 305.67 601.017 305.682 601.71H303.324ZM311.252 610.17C310.354 610.17 309.581 609.989 308.933 609.625C308.289 609.258 307.793 608.739 307.445 608.068C307.096 607.394 306.922 606.597 306.922 605.676C306.922 604.778 307.096 603.991 307.445 603.312C307.793 602.634 308.284 602.106 308.916 601.727C309.553 601.348 310.299 601.159 311.155 601.159C311.731 601.159 312.267 601.252 312.763 601.438C313.263 601.619 313.699 601.894 314.07 602.261C314.445 602.629 314.736 603.091 314.945 603.648C315.153 604.201 315.257 604.848 315.257 605.591V606.256H307.888V604.756H312.979C312.979 604.407 312.903 604.098 312.752 603.83C312.6 603.561 312.39 603.35 312.121 603.199C311.856 603.044 311.547 602.966 311.195 602.966C310.827 602.966 310.502 603.051 310.217 603.222C309.937 603.388 309.717 603.614 309.558 603.898C309.399 604.178 309.318 604.491 309.314 604.835V606.261C309.314 606.693 309.394 607.066 309.553 607.381C309.716 607.695 309.945 607.938 310.24 608.108C310.536 608.278 310.886 608.364 311.291 608.364C311.56 608.364 311.806 608.326 312.03 608.25C312.253 608.174 312.445 608.061 312.604 607.909C312.763 607.758 312.884 607.572 312.967 607.352L315.206 607.5C315.092 608.038 314.86 608.508 314.507 608.909C314.159 609.307 313.708 609.617 313.155 609.841C312.606 610.061 311.971 610.17 311.252 610.17ZM320.593 613.455C319.809 613.455 319.136 613.347 318.576 613.131C318.019 612.919 317.576 612.629 317.246 612.261C316.916 611.894 316.702 611.481 316.604 611.023L318.843 610.722C318.911 610.896 319.019 611.059 319.166 611.21C319.314 611.362 319.509 611.483 319.752 611.574C319.998 611.669 320.297 611.716 320.649 611.716C321.176 611.716 321.61 611.587 321.951 611.33C322.295 611.076 322.468 610.65 322.468 610.051V608.455H322.365C322.259 608.697 322.1 608.926 321.888 609.142C321.676 609.358 321.403 609.534 321.07 609.67C320.737 609.807 320.339 609.875 319.877 609.875C319.221 609.875 318.625 609.723 318.087 609.42C317.553 609.114 317.127 608.646 316.809 608.017C316.494 607.384 316.337 606.585 316.337 605.619C316.337 604.631 316.498 603.805 316.82 603.142C317.142 602.479 317.57 601.983 318.104 601.653C318.642 601.324 319.231 601.159 319.871 601.159C320.36 601.159 320.769 601.242 321.098 601.409C321.428 601.572 321.693 601.777 321.894 602.023C322.098 602.265 322.255 602.504 322.365 602.739H322.456V601.273H324.86V610.085C324.86 610.828 324.678 611.449 324.314 611.949C323.951 612.449 323.447 612.824 322.803 613.074C322.163 613.328 321.426 613.455 320.593 613.455ZM320.644 608.057C321.034 608.057 321.363 607.96 321.632 607.767C321.905 607.57 322.113 607.29 322.257 606.926C322.405 606.559 322.479 606.119 322.479 605.608C322.479 605.097 322.407 604.653 322.263 604.278C322.119 603.9 321.911 603.606 321.638 603.398C321.365 603.189 321.034 603.085 320.644 603.085C320.246 603.085 319.911 603.193 319.638 603.409C319.365 603.621 319.159 603.917 319.019 604.295C318.879 604.674 318.809 605.112 318.809 605.608C318.809 606.112 318.879 606.547 319.019 606.915C319.163 607.278 319.369 607.561 319.638 607.761C319.911 607.958 320.246 608.057 320.644 608.057ZM326.61 610V601.273H328.917V602.812H329.019C329.201 602.301 329.504 601.898 329.928 601.602C330.352 601.307 330.86 601.159 331.451 601.159C332.049 601.159 332.559 601.309 332.979 601.608C333.4 601.903 333.68 602.305 333.82 602.812H333.911C334.089 602.312 334.411 601.913 334.877 601.614C335.347 601.311 335.901 601.159 336.542 601.159C337.356 601.159 338.017 601.419 338.525 601.938C339.036 602.453 339.292 603.184 339.292 604.131V610H336.877V604.608C336.877 604.123 336.748 603.759 336.49 603.517C336.233 603.275 335.911 603.153 335.525 603.153C335.085 603.153 334.742 603.294 334.496 603.574C334.25 603.85 334.127 604.216 334.127 604.67V610H331.78V604.557C331.78 604.129 331.657 603.788 331.411 603.534C331.168 603.28 330.848 603.153 330.451 603.153C330.182 603.153 329.939 603.222 329.723 603.358C329.511 603.491 329.343 603.678 329.218 603.92C329.093 604.159 329.03 604.439 329.03 604.761V610H326.61ZM345.005 610.17C344.107 610.17 343.334 609.989 342.687 609.625C342.043 609.258 341.546 608.739 341.198 608.068C340.85 607.394 340.675 606.597 340.675 605.676C340.675 604.778 340.85 603.991 341.198 603.312C341.546 602.634 342.037 602.106 342.67 601.727C343.306 601.348 344.052 601.159 344.908 601.159C345.484 601.159 346.02 601.252 346.516 601.438C347.016 601.619 347.452 601.894 347.823 602.261C348.198 602.629 348.49 603.091 348.698 603.648C348.906 604.201 349.01 604.848 349.01 605.591V606.256H341.641V604.756H346.732C346.732 604.407 346.656 604.098 346.505 603.83C346.353 603.561 346.143 603.35 345.874 603.199C345.609 603.044 345.3 602.966 344.948 602.966C344.581 602.966 344.255 603.051 343.971 603.222C343.69 603.388 343.471 603.614 343.312 603.898C343.153 604.178 343.071 604.491 343.067 604.835V606.261C343.067 606.693 343.147 607.066 343.306 607.381C343.469 607.695 343.698 607.938 343.993 608.108C344.289 608.278 344.639 608.364 345.045 608.364C345.314 608.364 345.56 608.326 345.783 608.25C346.007 608.174 346.198 608.061 346.357 607.909C346.516 607.758 346.637 607.572 346.721 607.352L348.959 607.5C348.846 608.038 348.613 608.508 348.26 608.909C347.912 609.307 347.461 609.617 346.908 609.841C346.359 610.061 345.725 610.17 345.005 610.17ZM352.834 604.955V610H350.414V601.273H352.721V602.812H352.823C353.016 602.305 353.34 601.903 353.795 601.608C354.249 601.309 354.8 601.159 355.448 601.159C356.054 601.159 356.583 601.292 357.033 601.557C357.484 601.822 357.834 602.201 358.084 602.693C358.334 603.182 358.459 603.765 358.459 604.443V610H356.039V604.875C356.043 604.341 355.906 603.924 355.63 603.625C355.353 603.322 354.973 603.17 354.488 603.17C354.162 603.17 353.874 603.241 353.624 603.381C353.378 603.521 353.185 603.725 353.045 603.994C352.908 604.259 352.838 604.58 352.834 604.955ZM364.833 601.273V603.091H359.578V601.273H364.833ZM360.771 599.182H363.191V607.318C363.191 607.542 363.225 607.716 363.293 607.841C363.362 607.962 363.456 608.047 363.578 608.097C363.703 608.146 363.846 608.17 364.009 608.17C364.123 608.17 364.237 608.161 364.35 608.142C364.464 608.119 364.551 608.102 364.612 608.091L364.992 609.892C364.871 609.93 364.701 609.973 364.481 610.023C364.261 610.076 363.994 610.108 363.68 610.119C363.096 610.142 362.585 610.064 362.146 609.886C361.71 609.708 361.371 609.432 361.129 609.057C360.886 608.682 360.767 608.208 360.771 607.636V599.182ZM369.738 610V608.227L373.88 604.392C374.233 604.051 374.528 603.744 374.767 603.472C375.009 603.199 375.193 602.932 375.318 602.67C375.443 602.405 375.505 602.119 375.505 601.812C375.505 601.472 375.428 601.178 375.272 600.932C375.117 600.682 374.905 600.491 374.636 600.358C374.367 600.222 374.062 600.153 373.721 600.153C373.365 600.153 373.055 600.225 372.789 600.369C372.524 600.513 372.32 600.72 372.176 600.989C372.032 601.258 371.96 601.578 371.96 601.949H369.625C369.625 601.187 369.797 600.527 370.142 599.966C370.486 599.405 370.969 598.972 371.591 598.665C372.212 598.358 372.928 598.205 373.738 598.205C374.572 598.205 375.297 598.352 375.914 598.648C376.536 598.939 377.019 599.345 377.363 599.864C377.708 600.383 377.88 600.977 377.88 601.648C377.88 602.087 377.793 602.521 377.619 602.949C377.449 603.377 377.144 603.852 376.704 604.375C376.265 604.894 375.646 605.517 374.846 606.244L373.147 607.909V607.989H378.034V610H369.738Z" fill="#222222"/>
<path d="M355.401 538.71C355.355 538.252 355.16 537.896 354.816 537.642C354.471 537.388 354.003 537.261 353.412 537.261C353.011 537.261 352.672 537.318 352.395 537.432C352.119 537.542 351.906 537.695 351.759 537.892C351.615 538.089 351.543 538.312 351.543 538.562C351.535 538.771 351.579 538.953 351.674 539.108C351.772 539.263 351.906 539.398 352.077 539.511C352.247 539.621 352.444 539.718 352.668 539.801C352.891 539.881 353.13 539.949 353.384 540.006L354.429 540.256C354.937 540.369 355.403 540.521 355.827 540.71C356.251 540.9 356.619 541.133 356.929 541.409C357.24 541.686 357.48 542.011 357.651 542.386C357.825 542.761 357.914 543.191 357.918 543.676C357.914 544.388 357.732 545.006 357.372 545.528C357.016 546.047 356.501 546.451 355.827 546.739C355.156 547.023 354.348 547.165 353.401 547.165C352.461 547.165 351.643 547.021 350.946 546.733C350.253 546.445 349.711 546.019 349.321 545.455C348.935 544.886 348.732 544.184 348.713 543.347H351.094C351.12 543.737 351.232 544.062 351.429 544.324C351.63 544.581 351.897 544.777 352.23 544.909C352.567 545.038 352.948 545.102 353.372 545.102C353.789 545.102 354.151 545.042 354.458 544.92C354.768 544.799 355.009 544.631 355.179 544.415C355.35 544.199 355.435 543.951 355.435 543.67C355.435 543.409 355.357 543.189 355.202 543.011C355.05 542.833 354.827 542.682 354.531 542.557C354.24 542.432 353.882 542.318 353.458 542.216L352.191 541.898C351.21 541.659 350.435 541.286 349.867 540.778C349.299 540.271 349.016 539.587 349.02 538.727C349.016 538.023 349.204 537.407 349.583 536.881C349.965 536.354 350.49 535.943 351.156 535.648C351.823 535.352 352.581 535.205 353.429 535.205C354.293 535.205 355.047 535.352 355.691 535.648C356.338 535.943 356.842 536.354 357.202 536.881C357.562 537.407 357.747 538.017 357.759 538.71H355.401ZM364.948 543.284V538.273H367.368V547H365.044V545.415H364.953C364.757 545.926 364.429 546.337 363.971 546.648C363.516 546.958 362.961 547.114 362.306 547.114C361.722 547.114 361.209 546.981 360.766 546.716C360.323 546.451 359.976 546.074 359.726 545.585C359.48 545.097 359.355 544.511 359.351 543.83V538.273H361.772V543.398C361.775 543.913 361.914 544.32 362.186 544.619C362.459 544.919 362.825 545.068 363.283 545.068C363.575 545.068 363.847 545.002 364.101 544.869C364.355 544.733 364.56 544.532 364.715 544.267C364.874 544.002 364.952 543.674 364.948 543.284ZM369.174 547V535.364H371.594V539.739H371.668C371.774 539.504 371.928 539.265 372.128 539.023C372.333 538.777 372.598 538.572 372.924 538.409C373.253 538.242 373.662 538.159 374.151 538.159C374.787 538.159 375.375 538.326 375.912 538.659C376.45 538.989 376.88 539.487 377.202 540.153C377.524 540.816 377.685 541.648 377.685 542.648C377.685 543.621 377.528 544.443 377.214 545.114C376.903 545.78 376.479 546.286 375.941 546.631C375.407 546.972 374.808 547.142 374.145 547.142C373.676 547.142 373.276 547.064 372.947 546.909C372.621 546.754 372.354 546.559 372.145 546.324C371.937 546.085 371.778 545.845 371.668 545.602H371.56V547H369.174ZM371.543 542.636C371.543 543.155 371.615 543.608 371.759 543.994C371.903 544.381 372.111 544.682 372.384 544.898C372.657 545.11 372.988 545.216 373.378 545.216C373.772 545.216 374.106 545.108 374.378 544.892C374.651 544.672 374.858 544.369 374.998 543.983C375.142 543.593 375.214 543.144 375.214 542.636C375.214 542.133 375.143 541.689 375.003 541.307C374.863 540.924 374.657 540.625 374.384 540.409C374.111 540.193 373.776 540.085 373.378 540.085C372.984 540.085 372.651 540.189 372.378 540.398C372.109 540.606 371.903 540.902 371.759 541.284C371.615 541.667 371.543 542.117 371.543 542.636ZM381.545 541.955V547H379.124V538.273H381.431V539.812H381.533C381.726 539.305 382.05 538.903 382.505 538.608C382.959 538.309 383.511 538.159 384.158 538.159C384.764 538.159 385.293 538.292 385.744 538.557C386.194 538.822 386.545 539.201 386.795 539.693C387.045 540.182 387.17 540.765 387.17 541.443V547H384.749V541.875C384.753 541.341 384.617 540.924 384.34 540.625C384.064 540.322 383.683 540.17 383.198 540.17C382.872 540.17 382.584 540.241 382.334 540.381C382.088 540.521 381.895 540.725 381.755 540.994C381.619 541.259 381.548 541.58 381.545 541.955ZM392.879 547.17C391.981 547.17 391.208 546.989 390.56 546.625C389.917 546.258 389.42 545.739 389.072 545.068C388.723 544.394 388.549 543.597 388.549 542.676C388.549 541.778 388.723 540.991 389.072 540.312C389.42 539.634 389.911 539.106 390.543 538.727C391.18 538.348 391.926 538.159 392.782 538.159C393.358 538.159 393.894 538.252 394.39 538.438C394.89 538.619 395.326 538.894 395.697 539.261C396.072 539.629 396.363 540.091 396.572 540.648C396.78 541.201 396.884 541.848 396.884 542.591V543.256H389.515V541.756H394.606C394.606 541.407 394.53 541.098 394.379 540.83C394.227 540.561 394.017 540.35 393.748 540.199C393.483 540.044 393.174 539.966 392.822 539.966C392.454 539.966 392.129 540.051 391.845 540.222C391.564 540.388 391.345 540.614 391.185 540.898C391.026 541.178 390.945 541.491 390.941 541.835V543.261C390.941 543.693 391.021 544.066 391.18 544.381C391.343 544.695 391.572 544.938 391.867 545.108C392.163 545.278 392.513 545.364 392.918 545.364C393.187 545.364 393.434 545.326 393.657 545.25C393.881 545.174 394.072 545.061 394.231 544.909C394.39 544.758 394.511 544.572 394.595 544.352L396.833 544.5C396.72 545.038 396.487 545.508 396.134 545.909C395.786 546.307 395.335 546.617 394.782 546.841C394.233 547.061 393.598 547.17 392.879 547.17ZM402.93 538.273V540.091H397.674V538.273H402.93ZM398.867 536.182H401.288V544.318C401.288 544.542 401.322 544.716 401.39 544.841C401.458 544.962 401.553 545.047 401.674 545.097C401.799 545.146 401.943 545.17 402.106 545.17C402.22 545.17 402.333 545.161 402.447 545.142C402.561 545.119 402.648 545.102 402.708 545.091L403.089 546.892C402.968 546.93 402.797 546.973 402.578 547.023C402.358 547.076 402.091 547.108 401.776 547.119C401.193 547.142 400.682 547.064 400.242 546.886C399.807 546.708 399.468 546.432 399.225 546.057C398.983 545.682 398.864 545.208 398.867 544.636V536.182ZM418.17 539.438H415.682C415.636 539.116 415.543 538.83 415.403 538.58C415.263 538.326 415.083 538.11 414.863 537.932C414.644 537.754 414.39 537.617 414.102 537.523C413.818 537.428 413.509 537.381 413.176 537.381C412.574 537.381 412.049 537.53 411.602 537.83C411.155 538.125 410.808 538.557 410.562 539.125C410.316 539.689 410.193 540.375 410.193 541.182C410.193 542.011 410.316 542.708 410.562 543.273C410.812 543.837 411.161 544.263 411.608 544.551C412.055 544.839 412.572 544.983 413.159 544.983C413.488 544.983 413.793 544.939 414.074 544.852C414.358 544.765 414.61 544.638 414.829 544.472C415.049 544.301 415.231 544.095 415.375 543.852C415.522 543.61 415.625 543.333 415.682 543.023L418.17 543.034C418.106 543.568 417.945 544.083 417.687 544.58C417.433 545.072 417.091 545.513 416.659 545.903C416.231 546.29 415.719 546.597 415.125 546.824C414.534 547.047 413.865 547.159 413.119 547.159C412.081 547.159 411.153 546.924 410.335 546.455C409.521 545.985 408.877 545.305 408.403 544.415C407.933 543.525 407.699 542.447 407.699 541.182C407.699 539.913 407.937 538.833 408.415 537.943C408.892 537.053 409.54 536.375 410.358 535.909C411.176 535.439 412.096 535.205 413.119 535.205C413.793 535.205 414.418 535.299 414.994 535.489C415.574 535.678 416.087 535.955 416.534 536.318C416.981 536.678 417.344 537.119 417.625 537.642C417.909 538.165 418.091 538.763 418.17 539.438Z" fill="#222222"/>
<path d="M83.4321 559.71C83.3866 559.252 83.1915 558.896 82.8468 558.642C82.5021 558.388 82.0343 558.261 81.4434 558.261C81.0419 558.261 80.7029 558.318 80.4264 558.432C80.1499 558.542 79.9377 558.695 79.79 558.892C79.6461 559.089 79.5741 559.312 79.5741 559.562C79.5665 559.771 79.6101 559.953 79.7048 560.108C79.8033 560.263 79.9377 560.398 80.1082 560.511C80.2786 560.621 80.4756 560.718 80.6991 560.801C80.9226 560.881 81.1612 560.949 81.415 561.006L82.4605 561.256C82.968 561.369 83.4339 561.521 83.8582 561.71C84.2824 561.9 84.6499 562.133 84.9605 562.409C85.2711 562.686 85.5116 563.011 85.6821 563.386C85.8563 563.761 85.9453 564.191 85.9491 564.676C85.9453 565.388 85.7635 566.006 85.4036 566.528C85.0476 567.047 84.5324 567.451 83.8582 567.739C83.1877 568.023 82.379 568.165 81.4321 568.165C80.4927 568.165 79.6745 568.021 78.9775 567.733C78.2843 567.445 77.7427 567.019 77.3525 566.455C76.9661 565.886 76.7635 565.184 76.7446 564.347H79.1252C79.1517 564.737 79.2635 565.062 79.4605 565.324C79.6612 565.581 79.9283 565.777 80.2616 565.909C80.5987 566.038 80.9794 566.102 81.4036 566.102C81.8203 566.102 82.1821 566.042 82.4889 565.92C82.7995 565.799 83.04 565.631 83.2105 565.415C83.3809 565.199 83.4661 564.951 83.4661 564.67C83.4661 564.409 83.3885 564.189 83.2332 564.011C83.0817 563.833 82.8582 563.682 82.5627 563.557C82.2711 563.432 81.9131 563.318 81.4889 563.216L80.2218 562.898C79.2408 562.659 78.4661 562.286 77.898 561.778C77.3298 561.271 77.0476 560.587 77.0514 559.727C77.0476 559.023 77.2351 558.407 77.6139 557.881C77.9964 557.354 78.5211 556.943 79.1877 556.648C79.8544 556.352 80.612 556.205 81.4605 556.205C82.3241 556.205 83.0779 556.352 83.7218 556.648C84.3696 556.943 84.8733 557.354 85.2332 557.881C85.593 558.407 85.7786 559.017 85.79 559.71H83.4321ZM92.9791 564.284V559.273H95.3995V568H93.0757V566.415H92.9847C92.7878 566.926 92.4601 567.337 92.0018 567.648C91.5472 567.958 90.9923 568.114 90.337 568.114C89.7537 568.114 89.2404 567.981 88.7972 567.716C88.3541 567.451 88.0075 567.074 87.7575 566.585C87.5113 566.097 87.3863 565.511 87.3825 564.83V559.273H89.8029V564.398C89.8067 564.913 89.945 565.32 90.2177 565.619C90.4904 565.919 90.856 566.068 91.3143 566.068C91.606 566.068 91.8787 566.002 92.1325 565.869C92.3863 565.733 92.5908 565.532 92.7461 565.267C92.9052 565.002 92.9829 564.674 92.9791 564.284ZM97.2051 568V556.364H99.6255V560.739H99.6994C99.8054 560.504 99.9588 560.265 100.16 560.023C100.364 559.777 100.629 559.572 100.955 559.409C101.285 559.242 101.694 559.159 102.182 559.159C102.819 559.159 103.406 559.326 103.944 559.659C104.482 559.989 104.911 560.487 105.233 561.153C105.555 561.816 105.716 562.648 105.716 563.648C105.716 564.621 105.559 565.443 105.245 566.114C104.934 566.78 104.51 567.286 103.972 567.631C103.438 567.972 102.84 568.142 102.177 568.142C101.707 568.142 101.307 568.064 100.978 567.909C100.652 567.754 100.385 567.559 100.177 567.324C99.9683 567.085 99.8092 566.845 99.6994 566.602H99.5914V568H97.2051ZM99.5744 563.636C99.5744 564.155 99.6463 564.608 99.7903 564.994C99.9342 565.381 100.143 565.682 100.415 565.898C100.688 566.11 101.019 566.216 101.41 566.216C101.804 566.216 102.137 566.108 102.41 565.892C102.682 565.672 102.889 565.369 103.029 564.983C103.173 564.593 103.245 564.144 103.245 563.636C103.245 563.133 103.175 562.689 103.035 562.307C102.894 561.924 102.688 561.625 102.415 561.409C102.143 561.193 101.807 561.085 101.41 561.085C101.016 561.085 100.682 561.189 100.41 561.398C100.141 561.606 99.9342 561.902 99.7903 562.284C99.6463 562.667 99.5744 563.117 99.5744 563.636ZM109.576 562.955V568H107.155V559.273H109.462V560.812H109.565C109.758 560.305 110.082 559.903 110.536 559.608C110.991 559.309 111.542 559.159 112.19 559.159C112.796 559.159 113.324 559.292 113.775 559.557C114.226 559.822 114.576 560.201 114.826 560.693C115.076 561.182 115.201 561.765 115.201 562.443V568H112.78V562.875C112.784 562.341 112.648 561.924 112.371 561.625C112.095 561.322 111.714 561.17 111.229 561.17C110.904 561.17 110.616 561.241 110.366 561.381C110.119 561.521 109.926 561.725 109.786 561.994C109.65 562.259 109.58 562.58 109.576 562.955ZM120.91 568.17C120.012 568.17 119.239 567.989 118.592 567.625C117.948 567.258 117.452 566.739 117.103 566.068C116.755 565.394 116.58 564.597 116.58 563.676C116.58 562.778 116.755 561.991 117.103 561.312C117.452 560.634 117.942 560.106 118.575 559.727C119.211 559.348 119.957 559.159 120.813 559.159C121.389 559.159 121.925 559.252 122.421 559.438C122.921 559.619 123.357 559.894 123.728 560.261C124.103 560.629 124.395 561.091 124.603 561.648C124.811 562.201 124.916 562.848 124.916 563.591V564.256H117.546V562.756H122.637C122.637 562.407 122.561 562.098 122.41 561.83C122.258 561.561 122.048 561.35 121.779 561.199C121.514 561.044 121.205 560.966 120.853 560.966C120.486 560.966 120.16 561.051 119.876 561.222C119.595 561.388 119.376 561.614 119.217 561.898C119.058 562.178 118.976 562.491 118.972 562.835V564.261C118.972 564.693 119.052 565.066 119.211 565.381C119.374 565.695 119.603 565.938 119.899 566.108C120.194 566.278 120.544 566.364 120.95 566.364C121.219 566.364 121.465 566.326 121.688 566.25C121.912 566.174 122.103 566.061 122.262 565.909C122.421 565.758 122.542 565.572 122.626 565.352L124.864 565.5C124.751 566.038 124.518 566.508 124.166 566.909C123.817 567.307 123.366 567.617 122.813 567.841C122.264 568.061 121.63 568.17 120.91 568.17ZM130.961 559.273V561.091H125.705V559.273H130.961ZM126.899 557.182H129.319V565.318C129.319 565.542 129.353 565.716 129.421 565.841C129.49 565.962 129.584 566.047 129.705 566.097C129.83 566.146 129.974 566.17 130.137 566.17C130.251 566.17 130.365 566.161 130.478 566.142C130.592 566.119 130.679 566.102 130.74 566.091L131.12 567.892C130.999 567.93 130.829 567.973 130.609 568.023C130.389 568.076 130.122 568.108 129.808 568.119C129.224 568.142 128.713 568.064 128.274 567.886C127.838 567.708 127.499 567.432 127.257 567.057C127.014 566.682 126.895 566.208 126.899 565.636V557.182ZM137.94 568H135.304L139.321 556.364H142.491L146.503 568H143.866L140.951 559.023H140.861L137.94 568ZM137.775 563.426H144.003V565.347H137.775V563.426Z" fill="#222222"/>
<path d="M194.127 559.71C194.082 559.252 193.887 558.896 193.542 558.642C193.197 558.388 192.73 558.261 192.139 558.261C191.737 558.261 191.398 558.318 191.122 558.432C190.845 558.542 190.633 558.695 190.485 558.892C190.341 559.089 190.269 559.312 190.269 559.562C190.262 559.771 190.305 559.953 190.4 560.108C190.499 560.263 190.633 560.398 190.804 560.511C190.974 560.621 191.171 560.718 191.394 560.801C191.618 560.881 191.857 560.949 192.11 561.006L193.156 561.256C193.663 561.369 194.129 561.521 194.554 561.71C194.978 561.9 195.345 562.133 195.656 562.409C195.966 562.686 196.207 563.011 196.377 563.386C196.552 563.761 196.641 564.191 196.644 564.676C196.641 565.388 196.459 566.006 196.099 566.528C195.743 567.047 195.228 567.451 194.554 567.739C193.883 568.023 193.074 568.165 192.127 568.165C191.188 568.165 190.37 568.021 189.673 567.733C188.98 567.445 188.438 567.019 188.048 566.455C187.661 565.886 187.459 565.184 187.44 564.347H189.821C189.847 564.737 189.959 565.062 190.156 565.324C190.357 565.581 190.624 565.777 190.957 565.909C191.294 566.038 191.675 566.102 192.099 566.102C192.516 566.102 192.877 566.042 193.184 565.92C193.495 565.799 193.735 565.631 193.906 565.415C194.076 565.199 194.161 564.951 194.161 564.67C194.161 564.409 194.084 564.189 193.929 564.011C193.777 563.833 193.554 563.682 193.258 563.557C192.966 563.432 192.608 563.318 192.184 563.216L190.917 562.898C189.936 562.659 189.161 562.286 188.593 561.778C188.025 561.271 187.743 560.587 187.747 559.727C187.743 559.023 187.93 558.407 188.309 557.881C188.692 557.354 189.216 556.943 189.883 556.648C190.55 556.352 191.307 556.205 192.156 556.205C193.019 556.205 193.773 556.352 194.417 556.648C195.065 556.943 195.569 557.354 195.929 557.881C196.288 558.407 196.474 559.017 196.485 559.71H194.127ZM203.674 564.284V559.273H206.095V568H203.771V566.415H203.68C203.483 566.926 203.155 567.337 202.697 567.648C202.243 567.958 201.688 568.114 201.032 568.114C200.449 568.114 199.936 567.981 199.493 567.716C199.049 567.451 198.703 567.074 198.453 566.585C198.207 566.097 198.082 565.511 198.078 564.83V559.273H200.498V564.398C200.502 564.913 200.64 565.32 200.913 565.619C201.186 565.919 201.551 566.068 202.01 566.068C202.301 566.068 202.574 566.002 202.828 565.869C203.082 565.733 203.286 565.532 203.441 565.267C203.601 565.002 203.678 564.674 203.674 564.284ZM207.9 568V556.364H210.321V560.739H210.395C210.501 560.504 210.654 560.265 210.855 560.023C211.059 559.777 211.325 559.572 211.65 559.409C211.98 559.242 212.389 559.159 212.878 559.159C213.514 559.159 214.101 559.326 214.639 559.659C215.177 559.989 215.607 560.487 215.929 561.153C216.251 561.816 216.412 562.648 216.412 563.648C216.412 564.621 216.255 565.443 215.94 566.114C215.63 566.78 215.205 567.286 214.667 567.631C214.133 567.972 213.535 568.142 212.872 568.142C212.402 568.142 212.003 568.064 211.673 567.909C211.347 567.754 211.08 567.559 210.872 567.324C210.664 567.085 210.505 566.845 210.395 566.602H210.287V568H207.9ZM210.27 563.636C210.27 564.155 210.342 564.608 210.486 564.994C210.63 565.381 210.838 565.682 211.111 565.898C211.383 566.11 211.715 566.216 212.105 566.216C212.499 566.216 212.832 566.108 213.105 565.892C213.378 565.672 213.584 565.369 213.724 564.983C213.868 564.593 213.94 564.144 213.94 563.636C213.94 563.133 213.87 562.689 213.73 562.307C213.59 561.924 213.383 561.625 213.111 561.409C212.838 561.193 212.503 561.085 212.105 561.085C211.711 561.085 211.378 561.189 211.105 561.398C210.836 561.606 210.63 561.902 210.486 562.284C210.342 562.667 210.27 563.117 210.27 563.636ZM220.271 562.955V568H217.851V559.273H220.158V560.812H220.26C220.453 560.305 220.777 559.903 221.231 559.608C221.686 559.309 222.237 559.159 222.885 559.159C223.491 559.159 224.019 559.292 224.47 559.557C224.921 559.822 225.271 560.201 225.521 560.693C225.771 561.182 225.896 561.765 225.896 562.443V568H223.476V562.875C223.48 562.341 223.343 561.924 223.067 561.625C222.79 561.322 222.409 561.17 221.925 561.17C221.599 561.17 221.311 561.241 221.061 561.381C220.815 561.521 220.622 561.725 220.481 561.994C220.345 562.259 220.275 562.58 220.271 562.955ZM231.605 568.17C230.707 568.17 229.935 567.989 229.287 567.625C228.643 567.258 228.147 566.739 227.798 566.068C227.45 565.394 227.276 564.597 227.276 563.676C227.276 562.778 227.45 561.991 227.798 561.312C228.147 560.634 228.637 560.106 229.27 559.727C229.906 559.348 230.653 559.159 231.509 559.159C232.084 559.159 232.62 559.252 233.117 559.438C233.617 559.619 234.052 559.894 234.423 560.261C234.798 560.629 235.09 561.091 235.298 561.648C235.507 562.201 235.611 562.848 235.611 563.591V564.256H228.242V562.756H233.332C233.332 562.407 233.257 562.098 233.105 561.83C232.954 561.561 232.743 561.35 232.475 561.199C232.209 561.044 231.901 560.966 231.548 560.966C231.181 560.966 230.855 561.051 230.571 561.222C230.291 561.388 230.071 561.614 229.912 561.898C229.753 562.178 229.671 562.491 229.668 562.835V564.261C229.668 564.693 229.747 565.066 229.906 565.381C230.069 565.695 230.298 565.938 230.594 566.108C230.889 566.278 231.24 566.364 231.645 566.364C231.914 566.364 232.16 566.326 232.384 566.25C232.607 566.174 232.798 566.061 232.957 565.909C233.117 565.758 233.238 565.572 233.321 565.352L235.56 565.5C235.446 566.038 235.213 566.508 234.861 566.909C234.512 567.307 234.062 567.617 233.509 567.841C232.959 568.061 232.325 568.17 231.605 568.17ZM241.656 559.273V561.091H236.401V559.273H241.656ZM237.594 557.182H240.014V565.318C240.014 565.542 240.049 565.716 240.117 565.841C240.185 565.962 240.28 566.047 240.401 566.097C240.526 566.146 240.67 566.17 240.833 566.17C240.946 566.17 241.06 566.161 241.174 566.142C241.287 566.119 241.374 566.102 241.435 566.091L241.816 567.892C241.694 567.93 241.524 567.973 241.304 568.023C241.084 568.076 240.817 568.108 240.503 568.119C239.92 568.142 239.408 568.064 238.969 567.886C238.533 567.708 238.194 567.432 237.952 567.057C237.709 566.682 237.59 566.208 237.594 565.636V557.182ZM246.63 568V556.364H251.289C252.145 556.364 252.859 556.491 253.431 556.744C254.003 556.998 254.433 557.35 254.721 557.801C255.009 558.248 255.152 558.763 255.152 559.347C255.152 559.801 255.062 560.201 254.88 560.545C254.698 560.886 254.448 561.167 254.13 561.386C253.815 561.602 253.455 561.756 253.05 561.847V561.96C253.493 561.979 253.908 562.104 254.295 562.335C254.685 562.566 255.001 562.89 255.243 563.307C255.486 563.72 255.607 564.212 255.607 564.784C255.607 565.402 255.454 565.953 255.147 566.438C254.844 566.919 254.395 567.299 253.8 567.58C253.205 567.86 252.473 568 251.601 568H246.63ZM249.09 565.989H251.096C251.781 565.989 252.281 565.858 252.596 565.597C252.91 565.331 253.067 564.979 253.067 564.54C253.067 564.218 252.99 563.934 252.834 563.688C252.679 563.441 252.457 563.248 252.17 563.108C251.885 562.968 251.546 562.898 251.152 562.898H249.09V565.989ZM249.09 561.233H250.914C251.251 561.233 251.55 561.174 251.812 561.057C252.077 560.936 252.285 560.765 252.437 560.545C252.592 560.326 252.67 560.062 252.67 559.756C252.67 559.335 252.52 558.996 252.221 558.739C251.925 558.481 251.505 558.352 250.959 558.352H249.09V561.233Z" fill="#222222"/>
<rect x="516" y="384" width="198" height="129" fill="white" stroke="#0055DC" stroke-width="2"/>
<line x1="675" y1="396" x2="675" y2="465" stroke="#757575" stroke-width="2"/>
<line x1="625" y1="442" x2="625" y2="465" stroke="#757575" stroke-width="2"/>
<line x1="565" y1="442" x2="565" y2="465" stroke="#757575" stroke-width="2"/>
<line x1="595" y1="467" x2="595" y2="490" stroke="#757575" stroke-width="2"/>
<line x1="655" y1="467" x2="655" y2="490" stroke="#757575" stroke-width="2"/>
<line x1="700" y1="466" x2="547" y2="466" stroke="#757575" stroke-width="2"/>
<g clip-path="url(#clip0_0_1)">
<path d="M45.0305 188.65H26.109C24.2248 188.646 22.419 187.895 21.0867 186.563C19.7544 185.231 19.0041 183.425 19 181.54C19.0102 180.488 19.2479 179.45 19.6967 178.498C20.1454 177.547 20.7947 176.703 21.6 176.025C22.9476 174.886 24.6854 174.314 26.4465 174.431C27.2453 172.465 28.6701 170.818 30.5002 169.744C32.3303 168.67 34.4635 168.229 36.5692 168.49C38.675 168.752 40.6359 169.7 42.148 171.189C43.66 172.678 44.6389 174.623 44.933 176.725C46.39 176.66 47.8179 177.146 48.933 178.086C49.8543 178.888 50.5098 179.952 50.8124 181.136C51.115 182.319 51.0505 183.567 50.6273 184.713C50.2042 185.859 49.4424 186.849 48.4432 187.552C47.444 188.255 46.2547 188.638 45.033 188.649L45.0305 188.65ZM25.9965 176.416C24.8568 176.413 23.7534 176.817 22.886 177.556C22.3031 178.045 21.8328 178.655 21.5073 179.342C21.1818 180.03 21.0087 180.78 21 181.54C21.0021 182.892 21.539 184.188 22.4936 185.146C23.4481 186.103 24.7426 186.644 26.0945 186.65H45.03C46.0827 186.649 47.0918 186.23 47.8361 185.485C48.5804 184.741 48.9989 183.732 49 182.679C49.005 182.099 48.8859 181.526 48.6506 180.996C48.4153 180.466 48.0694 179.993 47.636 179.608C47.1558 179.226 46.5965 178.955 45.9986 178.815C45.4007 178.675 44.7791 178.67 44.179 178.8L43.052 178.981L43.0205 177.84C42.9684 176.03 42.2753 174.298 41.0646 172.951C39.854 171.604 38.2045 170.731 36.4102 170.487C34.6159 170.244 32.7932 170.645 31.2672 171.62C29.7411 172.594 28.6107 174.079 28.0775 175.81L27.8185 176.653L26.95 176.5C26.6352 176.444 26.3162 176.416 25.9965 176.416Z" fill="#6ECCE5"/>
</g>
<path d="M62.4716 173.545V185.182H60.0114V173.545H62.4716ZM66.6947 180.136V185.182H64.2743V176.454H66.5811V177.994H66.6834C66.8766 177.487 67.2004 177.085 67.655 176.79C68.1095 176.49 68.6606 176.341 69.3084 176.341C69.9144 176.341 70.4428 176.473 70.8936 176.738C71.3444 177.004 71.6947 177.382 71.9447 177.875C72.1947 178.363 72.3197 178.947 72.3197 179.625V185.182H69.8993V180.057C69.9031 179.523 69.7667 179.106 69.4902 178.807C69.2137 178.504 68.833 178.352 68.3481 178.352C68.0224 178.352 67.7345 178.422 67.4845 178.562C67.2383 178.702 67.0451 178.907 66.905 179.176C66.7686 179.441 66.6985 179.761 66.6947 180.136ZM78.6935 176.454V178.273H73.4378V176.454H78.6935ZM74.631 174.363H77.0514V182.5C77.0514 182.723 77.0855 182.898 77.1537 183.023C77.2219 183.144 77.3166 183.229 77.4378 183.278C77.5628 183.327 77.7067 183.352 77.8696 183.352C77.9832 183.352 78.0969 183.343 78.2105 183.324C78.3241 183.301 78.4113 183.284 78.4719 183.273L78.8525 185.074C78.7313 185.112 78.5609 185.155 78.3412 185.204C78.1215 185.257 77.8544 185.29 77.54 185.301C76.9567 185.324 76.4453 185.246 76.006 185.068C75.5703 184.89 75.2313 184.613 74.9889 184.238C74.7465 183.863 74.6272 183.39 74.631 182.818V174.363ZM83.9777 185.352C83.08 185.352 82.3072 185.17 81.6595 184.807C81.0156 184.439 80.5193 183.92 80.1709 183.25C79.8224 182.576 79.6481 181.778 79.6481 180.858C79.6481 179.96 79.8224 179.172 80.1709 178.494C80.5193 177.816 81.0099 177.288 81.6425 176.909C82.2788 176.53 83.025 176.341 83.8811 176.341C84.4568 176.341 84.9928 176.434 85.489 176.619C85.989 176.801 86.4247 177.076 86.7959 177.443C87.1709 177.81 87.4625 178.273 87.6709 178.829C87.8792 179.382 87.9834 180.03 87.9834 180.773V181.437H80.614V179.937H85.705C85.705 179.589 85.6292 179.28 85.4777 179.011C85.3262 178.742 85.1159 178.532 84.847 178.381C84.5818 178.225 84.2731 178.148 83.9209 178.148C83.5534 178.148 83.2277 178.233 82.9436 178.403C82.6633 178.57 82.4436 178.795 82.2845 179.079C82.1254 179.36 82.044 179.672 82.0402 180.017V181.443C82.0402 181.875 82.1197 182.248 82.2788 182.562C82.4417 182.877 82.6709 183.119 82.9663 183.29C83.2618 183.46 83.6122 183.545 84.0175 183.545C84.2864 183.545 84.5326 183.507 84.7561 183.432C84.9796 183.356 85.1709 183.242 85.33 183.091C85.489 182.939 85.6103 182.754 85.6936 182.534L87.9322 182.682C87.8186 183.22 87.5856 183.689 87.2334 184.091C86.8849 184.488 86.4341 184.799 85.8811 185.023C85.3318 185.242 84.6974 185.352 83.9777 185.352ZM89.3869 185.182V176.454H91.7335V177.977H91.8244C91.9835 177.435 92.2505 177.026 92.6255 176.75C93.0005 176.47 93.4324 176.329 93.921 176.329C94.0422 176.329 94.1729 176.337 94.313 176.352C94.4532 176.367 94.5763 176.388 94.6824 176.415V178.562C94.5687 178.528 94.4115 178.498 94.2108 178.471C94.01 178.445 93.8263 178.432 93.6596 178.432C93.3036 178.432 92.9854 178.509 92.7051 178.665C92.4286 178.816 92.2089 179.028 92.046 179.301C91.8869 179.574 91.8074 179.888 91.8074 180.244V185.182H89.3869ZM98.1782 180.136V185.182H95.7578V176.454H98.0646V177.994H98.1669C98.3601 177.487 98.6839 177.085 99.1385 176.79C99.593 176.49 100.144 176.341 100.792 176.341C101.398 176.341 101.926 176.473 102.377 176.738C102.828 177.004 103.178 177.382 103.428 177.875C103.678 178.363 103.803 178.947 103.803 179.625V185.182H101.383V180.057C101.387 179.523 101.25 179.106 100.974 178.807C100.697 178.504 100.316 178.352 99.8316 178.352C99.5059 178.352 99.218 178.422 98.968 178.562C98.7218 178.702 98.5286 178.907 98.3885 179.176C98.2521 179.441 98.182 179.761 98.1782 180.136ZM109.512 185.352C108.614 185.352 107.842 185.17 107.194 184.807C106.55 184.439 106.054 183.92 105.705 183.25C105.357 182.576 105.183 181.778 105.183 180.858C105.183 179.96 105.357 179.172 105.705 178.494C106.054 177.816 106.544 177.288 107.177 176.909C107.813 176.53 108.56 176.341 109.416 176.341C109.991 176.341 110.527 176.434 111.024 176.619C111.524 176.801 111.959 177.076 112.33 177.443C112.705 177.81 112.997 178.273 113.205 178.829C113.414 179.382 113.518 180.03 113.518 180.773V181.437H106.149V179.937H111.239C111.239 179.589 111.164 179.28 111.012 179.011C110.861 178.742 110.65 178.532 110.382 178.381C110.116 178.225 109.808 178.148 109.455 178.148C109.088 178.148 108.762 178.233 108.478 178.403C108.198 178.57 107.978 178.795 107.819 179.079C107.66 179.36 107.578 179.672 107.575 180.017V181.443C107.575 181.875 107.654 182.248 107.813 182.562C107.976 182.877 108.205 183.119 108.501 183.29C108.796 183.46 109.147 183.545 109.552 183.545C109.821 183.545 110.067 183.507 110.291 183.432C110.514 183.356 110.705 183.242 110.864 183.091C111.024 182.939 111.145 182.754 111.228 182.534L113.467 182.682C113.353 183.22 113.12 183.689 112.768 184.091C112.419 184.488 111.969 184.799 111.416 185.023C110.866 185.242 110.232 185.352 109.512 185.352ZM119.563 176.454V178.273H114.308V176.454H119.563ZM115.501 174.363H117.921V182.5C117.921 182.723 117.956 182.898 118.024 183.023C118.092 183.144 118.187 183.229 118.308 183.278C118.433 183.327 118.577 183.352 118.74 183.352C118.853 183.352 118.967 183.343 119.081 183.324C119.194 183.301 119.281 183.284 119.342 183.273L119.723 185.074C119.601 185.112 119.431 185.155 119.211 185.204C118.991 185.257 118.724 185.29 118.41 185.301C117.827 185.324 117.315 185.246 116.876 185.068C116.44 184.89 116.101 184.613 115.859 184.238C115.616 183.863 115.497 183.39 115.501 182.818V174.363Z" fill="#222222"/>
<g clip-path="url(#clip1_0_1)">
<path d="M45.0305 34.6499H26.109C24.2248 34.6457 22.419 33.8953 21.0867 32.5629C19.7544 31.2305 19.0041 29.4246 19 27.5404C19.0102 26.4881 19.2479 25.4504 19.6967 24.4985C20.1454 23.5466 20.7947 22.703 21.6 22.0254C22.9476 20.8856 24.6854 20.3139 26.4465 20.4309C27.2453 18.4651 28.6701 16.8175 30.5002 15.7435C32.3303 14.6696 34.4635 14.2291 36.5692 14.4904C38.675 14.7517 40.6359 15.7002 42.148 17.1889C43.66 18.6776 44.6389 20.6235 44.933 22.7249C46.39 22.6601 47.8179 23.146 48.933 24.0859C49.8543 24.8883 50.5098 25.9519 50.8124 27.1355C51.115 28.3192 51.0505 29.5669 50.6273 30.713C50.2042 31.8591 49.4424 32.8493 48.4432 33.5523C47.444 34.2553 46.2547 34.6378 45.033 34.6489L45.0305 34.6499ZM25.9965 22.4159C24.8568 22.4126 23.7534 22.8171 22.886 23.5564C22.3031 24.0454 21.8328 24.6545 21.5073 25.3422C21.1818 26.0298 21.0087 26.7797 21 27.5404C21.0021 28.8923 21.539 30.1885 22.4936 31.1458C23.4481 32.1031 24.7426 32.6439 26.0945 32.6499H45.03C46.0827 32.6486 47.0918 32.2298 47.8361 31.4853C48.5804 30.7409 48.9989 29.7316 49 28.6789C49.005 28.0994 48.8859 27.5256 48.6506 26.9959C48.4153 26.4663 48.0694 25.9932 47.636 25.6084C47.1558 25.2257 46.5965 24.9546 45.9986 24.8148C45.4007 24.675 44.7791 24.6699 44.179 24.7999L43.052 24.9814L43.0205 23.8404C42.9684 22.0304 42.2753 20.2976 41.0646 18.9509C39.854 17.6043 38.2045 16.7312 36.4102 16.4874C34.6159 16.2436 32.7932 16.6448 31.2672 17.6196C29.7411 18.5944 28.6107 20.0794 28.0775 21.8099L27.8185 22.6534L26.95 22.4999C26.6352 22.4444 26.3162 22.4163 25.9965 22.4159Z" fill="#F6821F"/>
</g>
<path d="M70.2784 23.6191H67.7898C67.7443 23.2972 67.6515 23.0112 67.5114 22.7612C67.3712 22.5074 67.1913 22.2915 66.9716 22.1135C66.7519 21.9354 66.4981 21.7991 66.2102 21.7044C65.9261 21.6097 65.6174 21.5623 65.2841 21.5623C64.6818 21.5623 64.1572 21.7119 63.7102 22.0112C63.2633 22.3066 62.9167 22.7385 62.6705 23.3066C62.4242 23.871 62.3011 24.5566 62.3011 25.3635C62.3011 26.193 62.4242 26.89 62.6705 27.4544C62.9205 28.0188 63.2689 28.4449 63.7159 28.7328C64.1629 29.0207 64.6799 29.1646 65.267 29.1646C65.5966 29.1646 65.9015 29.121 66.1818 29.0339C66.4659 28.9468 66.7178 28.8199 66.9375 28.6532C67.1572 28.4828 67.339 28.2763 67.483 28.0339C67.6307 27.7915 67.733 27.515 67.7898 27.2044L70.2784 27.2157C70.214 27.7498 70.053 28.265 69.7955 28.7612C69.5417 29.2536 69.1989 29.6949 68.767 30.085C68.339 30.4714 67.8277 30.7782 67.233 31.0055C66.642 31.229 65.9735 31.3407 65.2273 31.3407C64.1894 31.3407 63.2614 31.1059 62.4432 30.6362C61.6288 30.1665 60.9848 29.4866 60.5114 28.5964C60.0417 27.7063 59.8068 26.6286 59.8068 25.3635C59.8068 24.0945 60.0455 23.015 60.5227 22.1248C61 21.2347 61.6477 20.5566 62.4659 20.0907C63.2841 19.621 64.2045 19.3862 65.2273 19.3862C65.9015 19.3862 66.5265 19.4809 67.1023 19.6703C67.6818 19.8597 68.1951 20.1362 68.642 20.4998C69.089 20.8597 69.4527 21.301 69.733 21.8237C70.017 22.3464 70.1989 22.9449 70.2784 23.6191ZM74.2416 19.5453V31.1816H71.8212V19.5453H74.2416ZM79.9477 31.3521C79.0651 31.3521 78.3019 31.1646 77.6579 30.7896C77.0178 30.4108 76.5235 29.8843 76.175 29.21C75.8265 28.532 75.6523 27.746 75.6523 26.8521C75.6523 25.9506 75.8265 25.1627 76.175 24.4885C76.5235 23.8104 77.0178 23.2839 77.6579 22.9089C78.3019 22.5301 79.0651 22.3407 79.9477 22.3407C80.8303 22.3407 81.5917 22.5301 82.2318 22.9089C82.8757 23.2839 83.372 23.8104 83.7204 24.4885C84.0689 25.1627 84.2432 25.9506 84.2432 26.8521C84.2432 27.746 84.0689 28.532 83.7204 29.21C83.372 29.8843 82.8757 30.4108 82.2318 30.7896C81.5917 31.1646 80.8303 31.3521 79.9477 31.3521ZM79.9591 29.4771C80.3606 29.4771 80.6958 29.3635 80.9648 29.1362C81.2337 28.9051 81.4364 28.5907 81.5727 28.193C81.7129 27.7953 81.7829 27.3426 81.7829 26.835C81.7829 26.3275 81.7129 25.8748 81.5727 25.4771C81.4364 25.0794 81.2337 24.765 80.9648 24.5339C80.6958 24.3029 80.3606 24.1873 79.9591 24.1873C79.5538 24.1873 79.2129 24.3029 78.9364 24.5339C78.6636 24.765 78.4572 25.0794 78.317 25.4771C78.1807 25.8748 78.1125 26.3275 78.1125 26.835C78.1125 27.3426 78.1807 27.7953 78.317 28.193C78.4572 28.5907 78.6636 28.9051 78.9364 29.1362C79.2129 29.3635 79.5538 29.4771 79.9591 29.4771ZM91.2376 27.4657V22.4544H93.6581V31.1816H91.3342V29.5964H91.2433C91.0463 30.1078 90.7187 30.5188 90.2604 30.8294C89.8058 31.14 89.2509 31.2953 88.5956 31.2953C88.0122 31.2953 87.499 31.1627 87.0558 30.8975C86.6126 30.6324 86.266 30.2555 86.016 29.7669C85.7698 29.2782 85.6448 28.693 85.641 28.0112V22.4544H88.0615V27.5794C88.0653 28.0945 88.2035 28.5017 88.4763 28.801C88.749 29.1002 89.1145 29.2498 89.5729 29.2498C89.8645 29.2498 90.1372 29.1835 90.391 29.051C90.6448 28.9146 90.8494 28.7138 91.0047 28.4487C91.1638 28.1835 91.2414 27.8559 91.2376 27.4657ZM98.6341 31.3237C97.9712 31.3237 97.3708 31.1532 96.8329 30.8123C96.2988 30.4676 95.8746 29.9619 95.5602 29.2953C95.2496 28.6248 95.0943 27.8029 95.0943 26.8294C95.0943 25.8294 95.2553 24.9979 95.5773 24.335C95.8992 23.6684 96.3273 23.1703 96.8613 22.8407C97.3992 22.5074 97.9882 22.3407 98.6284 22.3407C99.117 22.3407 99.5242 22.4241 99.85 22.5907C100.18 22.7536 100.445 22.9582 100.645 23.2044C100.85 23.4468 101.005 23.6854 101.111 23.9203H101.185V19.5453H103.6V31.1816H101.214V29.7839H101.111C100.998 30.0263 100.837 30.2669 100.628 30.5055C100.424 30.7404 100.157 30.9354 99.8273 31.0907C99.5015 31.246 99.1038 31.3237 98.6341 31.3237ZM99.4011 29.3975C99.7913 29.3975 100.121 29.2915 100.39 29.0794C100.662 28.8635 100.871 28.5623 101.015 28.176C101.162 27.7896 101.236 27.3369 101.236 26.818C101.236 26.2991 101.164 25.8483 101.02 25.4657C100.876 25.0832 100.668 24.7877 100.395 24.5794C100.123 24.371 99.7913 24.2669 99.4011 24.2669C99.0034 24.2669 98.6682 24.3748 98.3954 24.5907C98.1227 24.8066 97.9163 25.1059 97.7761 25.4885C97.636 25.871 97.5659 26.3142 97.5659 26.818C97.5659 27.3256 97.636 27.7744 97.7761 28.1646C97.9201 28.551 98.1265 28.854 98.3954 29.0737C98.6682 29.2896 99.0034 29.3975 99.4011 29.3975ZM110.107 22.4544V24.2725H104.721V22.4544H110.107ZM105.954 31.1816V21.8237C105.954 21.1911 106.077 20.6665 106.323 20.2498C106.573 19.8332 106.914 19.5207 107.346 19.3123C107.778 19.104 108.268 18.9998 108.817 18.9998C109.189 18.9998 109.528 19.0282 109.834 19.085C110.145 19.1419 110.376 19.193 110.528 19.2385L110.096 21.0566C110.001 21.0263 109.884 20.9979 109.744 20.9714C109.607 20.9449 109.467 20.9316 109.323 20.9316C108.967 20.9316 108.719 21.015 108.579 21.1816C108.439 21.3445 108.369 21.5737 108.369 21.8691V31.1816H105.954ZM113.83 19.5453V31.1816H111.41V19.5453H113.83ZM118.082 31.3464C117.525 31.3464 117.029 31.2498 116.593 31.0566C116.158 30.8597 115.813 30.5699 115.559 30.1873C115.309 29.801 115.184 29.3199 115.184 28.7441C115.184 28.2593 115.273 27.8521 115.451 27.5225C115.629 27.193 115.872 26.9279 116.179 26.7271C116.485 26.5263 116.834 26.3748 117.224 26.2725C117.618 26.1703 118.031 26.0983 118.463 26.0566C118.97 26.0036 119.379 25.9544 119.69 25.9089C120 25.8597 120.226 25.7877 120.366 25.693C120.506 25.5983 120.576 25.4582 120.576 25.2725V25.2385C120.576 24.8786 120.463 24.6002 120.235 24.4032C120.012 24.2063 119.694 24.1078 119.281 24.1078C118.845 24.1078 118.499 24.2044 118.241 24.3975C117.983 24.5869 117.813 24.8256 117.73 25.1135L115.491 24.9316C115.605 24.4013 115.828 23.943 116.161 23.5566C116.495 23.1665 116.925 22.8672 117.451 22.6589C117.982 22.4468 118.595 22.3407 119.292 22.3407C119.777 22.3407 120.241 22.3975 120.684 22.5112C121.131 22.6248 121.527 22.801 121.872 23.0396C122.22 23.2782 122.495 23.585 122.696 23.96C122.896 24.3313 122.997 24.7763 122.997 25.2953V31.1816H120.701V29.9714H120.633C120.493 30.2441 120.305 30.4847 120.071 30.693C119.836 30.8975 119.554 31.0585 119.224 31.176C118.894 31.2896 118.514 31.3464 118.082 31.3464ZM118.775 29.676C119.131 29.676 119.446 29.6059 119.718 29.4657C119.991 29.3218 120.205 29.1286 120.36 28.8862C120.516 28.6438 120.593 28.3691 120.593 28.0623V27.1362C120.518 27.1854 120.413 27.2309 120.281 27.2725C120.152 27.3104 120.006 27.3464 119.843 27.3805C119.68 27.4108 119.518 27.4392 119.355 27.4657C119.192 27.4885 119.044 27.5093 118.911 27.5282C118.627 27.5699 118.379 27.6362 118.167 27.7271C117.955 27.818 117.79 27.9411 117.673 28.0964C117.555 28.2479 117.497 28.4373 117.497 28.6646C117.497 28.9941 117.616 29.246 117.855 29.4203C118.097 29.5907 118.404 29.676 118.775 29.676ZM124.699 31.1816V22.4544H127.045V23.9771H127.136C127.295 23.4354 127.562 23.0263 127.937 22.7498C128.312 22.4695 128.744 22.3294 129.233 22.3294C129.354 22.3294 129.485 22.3369 129.625 22.3521C129.765 22.3672 129.888 22.3881 129.994 22.4146V24.5623C129.88 24.5282 129.723 24.4979 129.522 24.4714C129.322 24.4449 129.138 24.4316 128.971 24.4316C128.615 24.4316 128.297 24.5093 128.017 24.6646C127.74 24.8161 127.521 25.0282 127.358 25.301C127.199 25.5737 127.119 25.8881 127.119 26.2441V31.1816H124.699ZM134.64 31.3521C133.743 31.3521 132.97 31.1703 132.322 30.8066C131.678 30.4392 131.182 29.9203 130.834 29.2498C130.485 28.5756 130.311 27.7782 130.311 26.8578C130.311 25.96 130.485 25.1722 130.834 24.4941C131.182 23.8161 131.673 23.2877 132.305 22.9089C132.942 22.5301 133.688 22.3407 134.544 22.3407C135.12 22.3407 135.656 22.4335 136.152 22.6191C136.652 22.801 137.087 23.0756 137.459 23.443C137.834 23.8104 138.125 24.2725 138.334 24.8294C138.542 25.3824 138.646 26.0301 138.646 26.7725V27.4373H131.277V25.9373H136.368C136.368 25.5888 136.292 25.2801 136.14 25.0112C135.989 24.7422 135.779 24.532 135.51 24.3805C135.245 24.2252 134.936 24.1475 134.584 24.1475C134.216 24.1475 133.89 24.2328 133.606 24.4032C133.326 24.5699 133.106 24.7953 132.947 25.0794C132.788 25.3597 132.707 25.6722 132.703 26.0169V27.443C132.703 27.8748 132.782 28.2479 132.942 28.5623C133.104 28.8767 133.334 29.1191 133.629 29.2896C133.925 29.46 134.275 29.5453 134.68 29.5453C134.949 29.5453 135.195 29.5074 135.419 29.4316C135.642 29.3559 135.834 29.2422 135.993 29.0907C136.152 28.9392 136.273 28.7536 136.356 28.5339L138.595 28.6816C138.481 29.2195 138.248 29.6892 137.896 30.0907C137.548 30.4885 137.097 30.7991 136.544 31.0225C135.995 31.2422 135.36 31.3521 134.64 31.3521Z" fill="#222222"/>
<line x1="384" y1="419" x2="384" y2="500" stroke="#757575" stroke-width="2"/>
<rect x="527" y="369" width="64" height="28" fill="white"/>
<path d="M544.608 378.71C544.562 378.252 544.367 377.896 544.022 377.642C543.678 377.388 543.21 377.261 542.619 377.261C542.217 377.261 541.878 377.318 541.602 377.432C541.325 377.542 541.113 377.695 540.966 377.892C540.822 378.089 540.75 378.312 540.75 378.562C540.742 378.771 540.786 378.953 540.88 379.108C540.979 379.263 541.113 379.398 541.284 379.511C541.454 379.621 541.651 379.718 541.875 379.801C542.098 379.881 542.337 379.949 542.591 380.006L543.636 380.256C544.144 380.369 544.61 380.521 545.034 380.71C545.458 380.9 545.825 381.133 546.136 381.409C546.447 381.686 546.687 382.011 546.858 382.386C547.032 382.761 547.121 383.191 547.125 383.676C547.121 384.388 546.939 385.006 546.579 385.528C546.223 386.047 545.708 386.451 545.034 386.739C544.363 387.023 543.555 387.165 542.608 387.165C541.668 387.165 540.85 387.021 540.153 386.733C539.46 386.445 538.918 386.019 538.528 385.455C538.142 384.886 537.939 384.184 537.92 383.347H540.301C540.327 383.737 540.439 384.062 540.636 384.324C540.837 384.581 541.104 384.777 541.437 384.909C541.774 385.038 542.155 385.102 542.579 385.102C542.996 385.102 543.358 385.042 543.664 384.92C543.975 384.799 544.216 384.631 544.386 384.415C544.556 384.199 544.642 383.951 544.642 383.67C544.642 383.409 544.564 383.189 544.409 383.011C544.257 382.833 544.034 382.682 543.738 382.557C543.447 382.432 543.089 382.318 542.664 382.216L541.397 381.898C540.416 381.659 539.642 381.286 539.074 380.778C538.505 380.271 538.223 379.587 538.227 378.727C538.223 378.023 538.411 377.407 538.789 376.881C539.172 376.354 539.697 375.943 540.363 375.648C541.03 375.352 541.788 375.205 542.636 375.205C543.5 375.205 544.253 375.352 544.897 375.648C545.545 375.943 546.049 376.354 546.409 376.881C546.769 377.407 546.954 378.017 546.966 378.71H544.608ZM548.558 387V378.273H550.978V387H548.558ZM549.774 377.148C549.414 377.148 549.105 377.028 548.848 376.79C548.594 376.547 548.467 376.258 548.467 375.92C548.467 375.587 548.594 375.301 548.848 375.062C549.105 374.82 549.414 374.699 549.774 374.699C550.134 374.699 550.441 374.82 550.694 375.062C550.952 375.301 551.081 375.587 551.081 375.92C551.081 376.258 550.952 376.547 550.694 376.79C550.441 377.028 550.134 377.148 549.774 377.148ZM557.383 378.273V380.091H552.128V378.273H557.383ZM553.321 376.182H555.741V384.318C555.741 384.542 555.776 384.716 555.844 384.841C555.912 384.962 556.007 385.047 556.128 385.097C556.253 385.146 556.397 385.17 556.56 385.17C556.673 385.17 556.787 385.161 556.901 385.142C557.014 385.119 557.101 385.102 557.162 385.091L557.543 386.892C557.421 386.93 557.251 386.973 557.031 387.023C556.811 387.076 556.544 387.108 556.23 387.119C555.647 387.142 555.135 387.064 554.696 386.886C554.26 386.708 553.921 386.432 553.679 386.057C553.436 385.682 553.317 385.208 553.321 384.636V376.182ZM562.668 387.17C561.77 387.17 560.997 386.989 560.35 386.625C559.706 386.258 559.209 385.739 558.861 385.068C558.512 384.394 558.338 383.597 558.338 382.676C558.338 381.778 558.512 380.991 558.861 380.312C559.209 379.634 559.7 379.106 560.332 378.727C560.969 378.348 561.715 378.159 562.571 378.159C563.147 378.159 563.683 378.252 564.179 378.438C564.679 378.619 565.115 378.894 565.486 379.261C565.861 379.629 566.153 380.091 566.361 380.648C566.569 381.201 566.673 381.848 566.673 382.591V383.256H559.304V381.756H564.395C564.395 381.407 564.319 381.098 564.168 380.83C564.016 380.561 563.806 380.35 563.537 380.199C563.272 380.044 562.963 379.966 562.611 379.966C562.243 379.966 561.918 380.051 561.634 380.222C561.353 380.388 561.134 380.614 560.975 380.898C560.815 381.178 560.734 381.491 560.73 381.835V383.261C560.73 383.693 560.81 384.066 560.969 384.381C561.132 384.695 561.361 384.938 561.656 385.108C561.952 385.278 562.302 385.364 562.707 385.364C562.976 385.364 563.223 385.326 563.446 385.25C563.67 385.174 563.861 385.061 564.02 384.909C564.179 384.758 564.3 384.572 564.384 384.352L566.622 384.5C566.509 385.038 566.276 385.508 565.923 385.909C565.575 386.307 565.124 386.617 564.571 386.841C564.022 387.061 563.387 387.17 562.668 387.17ZM571.581 387V385.227L575.723 381.392C576.076 381.051 576.371 380.744 576.61 380.472C576.852 380.199 577.036 379.932 577.161 379.67C577.286 379.405 577.348 379.119 577.348 378.812C577.348 378.472 577.271 378.178 577.115 377.932C576.96 377.682 576.748 377.491 576.479 377.358C576.21 377.222 575.905 377.153 575.564 377.153C575.208 377.153 574.898 377.225 574.632 377.369C574.367 377.513 574.163 377.72 574.019 377.989C573.875 378.258 573.803 378.578 573.803 378.949H571.468C571.468 378.187 571.64 377.527 571.985 376.966C572.329 376.405 572.812 375.972 573.434 375.665C574.055 375.358 574.771 375.205 575.581 375.205C576.415 375.205 577.14 375.352 577.757 375.648C578.379 375.939 578.862 376.345 579.206 376.864C579.551 377.383 579.723 377.977 579.723 378.648C579.723 379.087 579.636 379.521 579.462 379.949C579.292 380.377 578.987 380.852 578.547 381.375C578.108 381.894 577.489 382.517 576.689 383.244L574.99 384.909V384.989H579.877V387H571.581Z" fill="#222222"/>
<rect x="170" y="131" width="22" height="5" fill="white"/>
<path d="M180.293 333.707C180.683 334.098 181.317 334.098 181.707 333.707L188.071 327.343C188.462 326.953 188.462 326.319 188.071 325.929C187.681 325.538 187.047 325.538 186.657 325.929L181 331.586L175.343 325.929C174.953 325.538 174.319 325.538 173.929 325.929C173.538 326.319 173.538 326.953 173.929 327.343L180.293 333.707ZM180 98L180 333L182 333L182 98L180 98Z" fill="#757575"/>
<rect x="190" y="401" width="63" height="18" transform="rotate(90 190 401)" fill="#E2F5FA" stroke="#F6821F" stroke-width="2"/>
<rect x="687" y="135" width="234" height="24" transform="rotate(90 687 135)" fill="#E2F5FA" stroke="#F6821F" stroke-width="2"/>
<rect x="664" y="131" width="22" height="5" fill="white"/>
<path d="M674.293 333.707C674.683 334.098 675.317 334.098 675.707 333.707L682.071 327.343C682.462 326.953 682.462 326.319 682.071 325.929C681.681 325.538 681.047 325.538 680.657 325.929L675 331.586L669.343 325.929C668.953 325.538 668.319 325.538 667.929 325.929C667.538 326.319 667.538 326.953 667.929 327.343L674.293 333.707ZM674 98L674 333L676 333L676 98L674 98Z" fill="#757575"/>
<circle cx="674" cy="374" r="31" fill="white" stroke="#F6821F" stroke-width="2"/>
<path d="M700 372H684.09L698.76 365.9L697.23 362.2L682.5 368.28L693.77 357L690.94 354.17L679.72 365.4L685.82 350.75L682.12 349.21L676 363.93V348H672V363.86L666 349.19L662.3 350.72L668.38 365.45L657.06 354.18L654.23 357L665.45 368.23L650.8 362.14L649.26 365.83L664 372H648V376H663.91L649.24 382L650.77 385.7L665.5 379.62L654.23 390.89L657.06 393.72L668.28 382.5L662.18 397.15L665.88 398.69L672 384V399.91H676V384L682 398.67L685.7 397.15L679.67 382.45L690.94 393.72L693.77 390.89L682.55 379.67L697.2 385.77L698.74 382.07L684 376H700V372ZM684 372V376L682.48 379.68L679.67 382.49L676 383.94H672L668.33 382.42L665.52 379.61L664 375.93V372L665.52 368.32L668.33 365.51L672 364H676L679.67 365.52L682.48 368.33L684 372Z" fill="#F6821F"/>
<rect x="164" y="343" width="62" height="62" fill="white" stroke="#0055DC" stroke-width="2"/>
<rect x="167.105" y="346.106" width="56.6901" height="56.6901" stroke="white"/>
<path d="M218.887 376.199L220.69 374.397V363.58L218.887 361.777H211.315V352.817L209.512 351.014H172.014L170.211 352.817V363.634L172.014 365.437H179.577V372.648H172.014L170.211 374.451V385.268L172.014 387.07H179.577V396.084L181.379 397.887H218.887L220.69 396.084V385.268L218.887 383.465H211.315V376.253L218.887 376.199ZM217.084 372.594H201.932V365.437H209.512H217.084V372.594ZM207.71 354.62V361.831H192.566V354.62H207.71ZM173.817 354.62H188.96V361.831H181.379H173.817V354.62ZM183.182 365.437H198.326V372.648H183.182V365.437ZM173.817 376.199H188.96V383.411H181.379H173.817V376.199ZM183.182 394.282V387.07H198.326V394.282H183.182ZM217.084 394.282H201.932V387.07H209.512H217.084V394.282ZM207.719 383.465H192.566V376.253H207.71L207.719 383.465Z" fill="#0055DC"/>
<rect x="297" y="437" width="173" height="145" stroke="#757575" stroke-width="2" stroke-dasharray="10 10"/>
<line x1="181" y1="405" x2="181" y2="465" stroke="#757575" stroke-width="2"/>
<circle cx="181" cy="474" r="19" fill="white" stroke="#F6821F" stroke-width="2"/>
<path d="M197.25 472.75H187.306L196.475 468.938L195.519 466.625L186.312 470.425L193.356 463.375L191.587 461.606L184.575 468.625L188.388 459.469L186.075 458.506L182.25 467.706V457.75H179.75V467.663L176 458.494L173.688 459.45L177.487 468.656L170.413 461.613L168.644 463.375L175.656 470.394L166.5 466.587L165.538 468.894L174.75 472.75H164.75V475.25H174.694L165.525 479L166.481 481.312L175.688 477.512L168.644 484.556L170.413 486.325L177.425 479.312L173.613 488.469L175.925 489.431L179.75 480.25V490.194H182.25V480.25L186 489.419L188.312 488.469L184.544 479.281L191.587 486.325L193.356 484.556L186.344 477.544L195.5 481.356L196.463 479.044L187.25 475.25H197.25V472.75ZM187.25 472.75V475.25L186.3 477.55L184.544 479.306L182.25 480.212H179.75L177.456 479.262L175.7 477.506L174.75 475.206V472.75L175.7 470.45L177.456 468.694L179.75 467.75H182.25L184.544 468.7L186.3 470.456L187.25 472.75Z" fill="#F6821F"/>
<defs>
<clipPath id="clip0_0_1">
<rect width="32" height="32" fill="white" transform="translate(19 163)"/>
</clipPath>
<clipPath id="clip1_0_1">
<rect width="32" height="32" fill="white" transform="translate(19 9)"/>
</clipPath>
</defs>
</svg>
