<svg width="773" height="654" viewBox="0 0 773 654" fill="none" xmlns="http://www.w3.org/2000/svg">
<rect width="773" height="654" fill="white"/>
<rect x="33" y="130" width="706" height="93" fill="white" stroke="#FF8200" stroke-width="2" stroke-dasharray="10 10"/>
<rect x="33" y="284" width="706" height="116" stroke="#6ECCE5" stroke-width="2" stroke-dasharray="10 10"/>
<rect x="220" y="223" width="234" height="24" transform="rotate(90 220 223)" fill="#E2F5FA" stroke="#F6821F" stroke-width="2"/>
<rect x="49" y="472" width="198" height="129" fill="white" stroke="#0055DC" stroke-width="2"/>
<line x1="158" y1="530" x2="158" y2="553" stroke="#757575" stroke-width="2"/>
<line x1="98" y1="530" x2="98" y2="553" stroke="#757575" stroke-width="2"/>
<line x1="128" y1="555" x2="128" y2="578" stroke="#757575" stroke-width="2"/>
<line x1="188" y1="555" x2="188" y2="578" stroke="#757575" stroke-width="2"/>
<line x1="233" y1="554" x2="80" y2="554" stroke="#757575" stroke-width="2"/>
<rect x="60" y="457" width="64" height="28" fill="white"/>
<path d="M76.6327 475V463.364H79.0929V472.972H84.0815V475H76.6327ZM87.8374 475H85.201L89.218 463.364H92.3885L96.3999 475H93.7635L90.8487 466.023H90.7578L87.8374 475ZM87.6726 470.426H93.8999V472.347H87.6726V470.426ZM107.357 463.364V475H105.232L100.17 467.676H100.085V475H97.6244V463.364H99.7835L104.806 470.682H104.909V463.364H107.357Z" fill="#222222"/>
<rect x="289" y="472" width="198" height="129" fill="white" stroke="#0055DC" stroke-width="2"/>
<line x1="448" y1="488" x2="448" y2="553" stroke="#757575" stroke-width="2"/>
<line x1="398" y1="530" x2="398" y2="553" stroke="#757575" stroke-width="2"/>
<line x1="338" y1="530" x2="338" y2="553" stroke="#757575" stroke-width="2"/>
<line x1="368" y1="555" x2="368" y2="578" stroke="#757575" stroke-width="2"/>
<line x1="428" y1="555" x2="428" y2="578" stroke="#757575" stroke-width="2"/>
<line x1="473" y1="554" x2="320" y2="554" stroke="#757575" stroke-width="2"/>
<rect x="529" y="472" width="198" height="129" fill="white" stroke="#0055DC" stroke-width="2"/>
<line x1="688" y1="484" x2="688" y2="553" stroke="#757575" stroke-width="2"/>
<line x1="638" y1="530" x2="638" y2="553" stroke="#757575" stroke-width="2"/>
<line x1="578" y1="530" x2="578" y2="553" stroke="#757575" stroke-width="2"/>
<line x1="608" y1="555" x2="608" y2="578" stroke="#757575" stroke-width="2"/>
<line x1="668" y1="555" x2="668" y2="578" stroke="#757575" stroke-width="2"/>
<line x1="713" y1="554" x2="560" y2="554" stroke="#757575" stroke-width="2"/>
<circle cx="448.5" cy="523.5" r="17.5" fill="white"/>
<circle cx="448.5" cy="523.5" r="17.7414" fill="white"/>
<path d="M448.5 503.594C444.563 503.594 440.714 504.761 437.441 506.949C434.167 509.136 431.616 512.245 430.109 515.882C428.602 519.52 428.208 523.522 428.976 527.384C429.744 531.245 431.64 534.792 434.424 537.576C437.208 540.36 440.755 542.256 444.616 543.024C448.478 543.792 452.48 543.398 456.118 541.891C459.755 540.384 462.864 537.833 465.051 534.559C467.239 531.286 468.406 527.437 468.406 523.5C468.386 518.227 466.282 513.175 462.554 509.446C458.825 505.718 453.773 503.614 448.5 503.594ZM448.5 540.344C445.169 540.344 441.912 539.356 439.142 537.505C436.372 535.654 434.213 533.024 432.938 529.946C431.664 526.868 431.33 523.481 431.98 520.214C432.63 516.947 434.234 513.945 436.59 511.59C438.945 509.234 441.947 507.63 445.214 506.98C448.481 506.33 451.868 506.664 454.946 507.938C458.024 509.213 460.654 511.372 462.505 514.142C464.356 516.912 465.344 520.169 465.344 523.5C465.324 527.961 463.543 532.234 460.388 535.388C457.234 538.543 452.961 540.324 448.5 540.344Z" fill="#0055DC"/>
<path d="M446.509 525.644V525.567H446.433L445.361 524.495L440.155 529.855V526.792H437.705V534.448H445.361V531.998H442.298L447.581 526.716L446.509 525.644Z" fill="#0055DC"/>
<path d="M451.486 522.734L456.769 517.298V520.361H459.219V512.705H451.563V515.155H454.625L449.266 520.591L451.486 522.734Z" fill="#0055DC"/>
<path d="M453.936 526.869H456.922V524.419H449.266V532.075H451.716V529.013L457.917 535.061L460.061 532.917L453.936 526.869Z" fill="#0055DC"/>
<path d="M445.131 518.064L439.083 511.939L436.939 514.083L442.988 520.284H439.925V522.734H447.581V515.078H445.131V518.064Z" fill="#0055DC"/>
<circle cx="356.5" cy="51.5" r="17.5" fill="white"/>
<circle cx="356.5" cy="51.5" r="17.7414" fill="white"/>
<path d="M356.5 31.5938C352.563 31.5938 348.714 32.7612 345.441 34.9486C342.167 37.1359 339.616 40.2448 338.109 43.8822C336.602 47.5196 336.208 51.5221 336.976 55.3835C337.744 59.245 339.64 62.7919 342.424 65.5758C345.208 68.3598 348.755 70.2557 352.616 71.0238C356.478 71.7918 360.48 71.3976 364.118 69.891C367.755 68.3843 370.864 65.8329 373.051 62.5593C375.239 59.2858 376.406 55.4371 376.406 51.5C376.386 46.2267 374.282 41.1752 370.554 37.4464C366.825 33.7177 361.773 31.6139 356.5 31.5938ZM356.5 68.3438C353.169 68.3438 349.912 67.3559 347.142 65.5051C344.372 63.6543 342.213 61.0236 340.938 57.9458C339.664 54.868 339.33 51.4813 339.98 48.2139C340.63 44.9466 342.234 41.9453 344.59 39.5897C346.945 37.234 349.947 35.6298 353.214 34.9799C356.481 34.33 359.868 34.6635 362.946 35.9384C366.024 37.2133 368.654 39.3722 370.505 42.1421C372.356 44.9121 373.344 48.1686 373.344 51.5C373.324 55.961 371.543 60.2336 368.388 63.3881C365.234 66.5425 360.961 68.3236 356.5 68.3438Z" fill="#0055DC"/>
<path d="M354.509 53.6437V53.5672H354.433L353.361 52.4953L348.155 57.8547V54.7922H345.705V62.4484H353.361V59.9984H350.298L355.581 54.7156L354.509 53.6437Z" fill="#0055DC"/>
<path d="M359.486 50.7344L364.769 45.2984V48.3609H367.219V40.7047H359.563V43.1547H362.625L357.266 48.5906L359.486 50.7344Z" fill="#0055DC"/>
<path d="M361.936 54.8688H364.922V52.4188H357.266V60.075H359.716V57.0125L365.917 63.0609L368.061 60.9172L361.936 54.8688Z" fill="#0055DC"/>
<path d="M353.131 46.0641L347.083 39.9391L344.939 42.0828L350.988 48.2844H347.925V50.7344H355.581V43.0781H353.131V46.0641Z" fill="#0055DC"/>
<g clip-path="url(#clip0_0_1)">
<path d="M58.0305 276.65H39.109C37.2248 276.646 35.419 275.895 34.0867 274.563C32.7544 273.231 32.0041 271.425 32 269.54C32.0102 268.488 32.2479 267.45 32.6967 266.498C33.1454 265.547 33.7947 264.703 34.6 264.025C35.9476 262.886 37.6854 262.314 39.4465 262.431C40.2453 260.465 41.6701 258.818 43.5002 257.744C45.3303 256.67 47.4635 256.229 49.5692 256.49C51.675 256.752 53.6359 257.7 55.148 259.189C56.66 260.678 57.6389 262.623 57.933 264.725C59.39 264.66 60.8179 265.146 61.933 266.086C62.8543 266.888 63.5098 267.952 63.8124 269.136C64.115 270.319 64.0505 271.567 63.6273 272.713C63.2042 273.859 62.4424 274.849 61.4432 275.552C60.444 276.255 59.2547 276.638 58.033 276.649L58.0305 276.65ZM38.9965 264.416C37.8568 264.413 36.7534 264.817 35.886 265.556C35.3031 266.045 34.8328 266.655 34.5073 267.342C34.1818 268.03 34.0087 268.78 34 269.54C34.0021 270.892 34.539 272.188 35.4936 273.146C36.4481 274.103 37.7426 274.644 39.0945 274.65H58.03C59.0827 274.649 60.0918 274.23 60.8361 273.485C61.5804 272.741 61.9989 271.732 62 270.679C62.005 270.099 61.8859 269.526 61.6506 268.996C61.4153 268.466 61.0694 267.993 60.636 267.608C60.1558 267.226 59.5965 266.955 58.9986 266.815C58.4007 266.675 57.7791 266.67 57.179 266.8L56.052 266.981L56.0205 265.84C55.9684 264.03 55.2753 262.298 54.0646 260.951C52.854 259.604 51.2045 258.731 49.4102 258.487C47.6159 258.244 45.7932 258.645 44.2672 259.62C42.7411 260.594 41.6107 262.079 41.0775 263.81L40.8185 264.653L39.95 264.5C39.6352 264.444 39.3162 264.416 38.9965 264.416Z" fill="#6ECCE5"/>
</g>
<path d="M75.4716 261.546V273.182H73.0114V261.546H75.4716ZM79.6947 268.136V273.182H77.2743V264.455H79.5811V265.994H79.6834C79.8766 265.487 80.2004 265.085 80.655 264.79C81.1095 264.491 81.6606 264.341 82.3084 264.341C82.9144 264.341 83.4428 264.474 83.8936 264.739C84.3444 265.004 84.6947 265.383 84.9447 265.875C85.1947 266.364 85.3197 266.947 85.3197 267.625V273.182H82.8993V268.057C82.9031 267.523 82.7667 267.106 82.4902 266.807C82.2137 266.504 81.833 266.352 81.3481 266.352C81.0224 266.352 80.7345 266.422 80.4845 266.563C80.2383 266.703 80.0451 266.907 79.905 267.176C79.7686 267.441 79.6985 267.761 79.6947 268.136ZM91.6935 264.455V266.273H86.4378V264.455H91.6935ZM87.631 262.364H90.0514V270.5C90.0514 270.724 90.0855 270.898 90.1537 271.023C90.2219 271.144 90.3166 271.229 90.4378 271.278C90.5628 271.328 90.7067 271.352 90.8696 271.352C90.9832 271.352 91.0969 271.343 91.2105 271.324C91.3241 271.301 91.4113 271.284 91.4719 271.273L91.8525 273.074C91.7313 273.112 91.5609 273.155 91.3412 273.205C91.1215 273.258 90.8544 273.29 90.54 273.301C89.9567 273.324 89.4453 273.246 89.006 273.068C88.5703 272.89 88.2313 272.614 87.9889 272.239C87.7465 271.864 87.6272 271.39 87.631 270.818V262.364ZM96.9777 273.352C96.08 273.352 95.3072 273.171 94.6595 272.807C94.0156 272.439 93.5193 271.921 93.1709 271.25C92.8224 270.576 92.6481 269.778 92.6481 268.858C92.6481 267.96 92.8224 267.172 93.1709 266.494C93.5193 265.816 94.0099 265.288 94.6425 264.909C95.2788 264.53 96.025 264.341 96.8811 264.341C97.4568 264.341 97.9928 264.434 98.489 264.619C98.989 264.801 99.4247 265.076 99.7959 265.443C100.171 265.811 100.463 266.273 100.671 266.83C100.879 267.383 100.983 268.03 100.983 268.773V269.438H93.614V267.938H98.705C98.705 267.589 98.6292 267.28 98.4777 267.011C98.3262 266.742 98.1159 266.532 97.847 266.381C97.5818 266.225 97.2731 266.148 96.9209 266.148C96.5534 266.148 96.2277 266.233 95.9436 266.403C95.6633 266.57 95.4436 266.796 95.2845 267.08C95.1254 267.36 95.044 267.672 95.0402 268.017V269.443C95.0402 269.875 95.1197 270.248 95.2788 270.563C95.4417 270.877 95.6709 271.119 95.9663 271.29C96.2618 271.46 96.6122 271.546 97.0175 271.546C97.2864 271.546 97.5326 271.508 97.7561 271.432C97.9796 271.356 98.1709 271.242 98.33 271.091C98.489 270.939 98.6103 270.754 98.6936 270.534L100.932 270.682C100.819 271.22 100.586 271.689 100.233 272.091C99.8849 272.489 99.4341 272.799 98.8811 273.023C98.3318 273.242 97.6974 273.352 96.9777 273.352ZM102.387 273.182V264.455H104.733V265.977H104.824C104.983 265.436 105.251 265.027 105.626 264.75C106.001 264.47 106.432 264.33 106.921 264.33C107.042 264.33 107.173 264.337 107.313 264.352C107.453 264.367 107.576 264.388 107.682 264.415V266.563C107.569 266.528 107.412 266.498 107.211 266.472C107.01 266.445 106.826 266.432 106.66 266.432C106.304 266.432 105.985 266.51 105.705 266.665C105.429 266.816 105.209 267.028 105.046 267.301C104.887 267.574 104.807 267.888 104.807 268.244V273.182H102.387ZM111.178 268.136V273.182H108.758V264.455H111.065V265.994H111.167C111.36 265.487 111.684 265.085 112.138 264.79C112.593 264.491 113.144 264.341 113.792 264.341C114.398 264.341 114.926 264.474 115.377 264.739C115.828 265.004 116.178 265.383 116.428 265.875C116.678 266.364 116.803 266.947 116.803 267.625V273.182H114.383V268.057C114.387 267.523 114.25 267.106 113.974 266.807C113.697 266.504 113.316 266.352 112.832 266.352C112.506 266.352 112.218 266.422 111.968 266.563C111.722 266.703 111.529 266.907 111.388 267.176C111.252 267.441 111.182 267.761 111.178 268.136ZM122.512 273.352C121.614 273.352 120.842 273.171 120.194 272.807C119.55 272.439 119.054 271.921 118.705 271.25C118.357 270.576 118.183 269.778 118.183 268.858C118.183 267.96 118.357 267.172 118.705 266.494C119.054 265.816 119.544 265.288 120.177 264.909C120.813 264.53 121.56 264.341 122.416 264.341C122.991 264.341 123.527 264.434 124.024 264.619C124.524 264.801 124.959 265.076 125.33 265.443C125.705 265.811 125.997 266.273 126.205 266.83C126.414 267.383 126.518 268.03 126.518 268.773V269.438H119.149V267.938H124.239C124.239 267.589 124.164 267.28 124.012 267.011C123.861 266.742 123.65 266.532 123.382 266.381C123.116 266.225 122.808 266.148 122.455 266.148C122.088 266.148 121.762 266.233 121.478 266.403C121.198 266.57 120.978 266.796 120.819 267.08C120.66 267.36 120.578 267.672 120.575 268.017V269.443C120.575 269.875 120.654 270.248 120.813 270.563C120.976 270.877 121.205 271.119 121.501 271.29C121.796 271.46 122.147 271.546 122.552 271.546C122.821 271.546 123.067 271.508 123.291 271.432C123.514 271.356 123.705 271.242 123.864 271.091C124.024 270.939 124.145 270.754 124.228 270.534L126.467 270.682C126.353 271.22 126.12 271.689 125.768 272.091C125.419 272.489 124.969 272.799 124.416 273.023C123.866 273.242 123.232 273.352 122.512 273.352ZM132.563 264.455V266.273H127.308V264.455H132.563ZM128.501 262.364H130.921V270.5C130.921 270.724 130.956 270.898 131.024 271.023C131.092 271.144 131.187 271.229 131.308 271.278C131.433 271.328 131.577 271.352 131.74 271.352C131.853 271.352 131.967 271.343 132.081 271.324C132.194 271.301 132.281 271.284 132.342 271.273L132.723 273.074C132.601 273.112 132.431 273.155 132.211 273.205C131.991 273.258 131.724 273.29 131.41 273.301C130.827 273.324 130.315 273.246 129.876 273.068C129.44 272.89 129.101 272.614 128.859 272.239C128.616 271.864 128.497 271.39 128.501 270.818V262.364Z" fill="#222222"/>
<path d="M76.0114 46.3636H79.0455L82.25 54.1818H82.3864L85.5909 46.3636H88.625V58H86.2386V50.4261H86.142L83.1307 57.9432H81.5057L78.4943 50.3977H78.3977V58H76.0114V46.3636ZM92.9192 58.1648C92.3624 58.1648 91.8661 58.0682 91.4305 57.875C90.9949 57.678 90.6502 57.3883 90.3964 57.0057C90.1464 56.6193 90.0214 56.1383 90.0214 55.5625C90.0214 55.0777 90.1105 54.6705 90.2885 54.3409C90.4665 54.0114 90.7089 53.7462 91.0158 53.5455C91.3226 53.3447 91.6711 53.1932 92.0612 53.0909C92.4552 52.9886 92.868 52.9167 93.2999 52.875C93.8074 52.822 94.2165 52.7727 94.5271 52.7273C94.8377 52.678 95.0631 52.6061 95.2033 52.5114C95.3434 52.4167 95.4135 52.2765 95.4135 52.0909V52.0568C95.4135 51.697 95.2999 51.4186 95.0726 51.2216C94.8491 51.0246 94.5309 50.9261 94.118 50.9261C93.6824 50.9261 93.3358 51.0227 93.0783 51.2159C92.8207 51.4053 92.6502 51.6439 92.5669 51.9318L90.3283 51.75C90.4419 51.2197 90.6654 50.7614 90.9987 50.375C91.332 49.9848 91.762 49.6856 92.2885 49.4773C92.8188 49.2652 93.4324 49.1591 94.1294 49.1591C94.6142 49.1591 95.0783 49.2159 95.5214 49.3295C95.9684 49.4432 96.3642 49.6193 96.7089 49.858C97.0574 50.0966 97.332 50.4034 97.5328 50.7784C97.7336 51.1496 97.8339 51.5947 97.8339 52.1136V58H95.5385V56.7898H95.4703C95.3302 57.0625 95.1427 57.303 94.9078 57.5114C94.673 57.7159 94.3908 57.8769 94.0612 57.9943C93.7317 58.108 93.351 58.1648 92.9192 58.1648ZM93.6124 56.4943C93.9684 56.4943 94.2828 56.4242 94.5555 56.2841C94.8283 56.1402 95.0423 55.947 95.1976 55.7045C95.3529 55.4621 95.4305 55.1875 95.4305 54.8807V53.9545C95.3548 54.0038 95.2506 54.0492 95.118 54.0909C94.9892 54.1288 94.8434 54.1648 94.6805 54.1989C94.5177 54.2292 94.3548 54.2576 94.1919 54.2841C94.029 54.3068 93.8813 54.3277 93.7487 54.3466C93.4646 54.3883 93.2165 54.4545 93.0044 54.5455C92.7923 54.6364 92.6275 54.7595 92.5101 54.9148C92.3927 55.0663 92.3339 55.2557 92.3339 55.483C92.3339 55.8125 92.4533 56.0644 92.6919 56.2386C92.9343 56.4091 93.2411 56.4943 93.6124 56.4943ZM103.468 61.4545C102.684 61.4545 102.011 61.3466 101.451 61.1307C100.894 60.9186 100.451 60.6288 100.121 60.2614C99.7915 59.8939 99.5775 59.4811 99.479 59.0227L101.718 58.7216C101.786 58.8958 101.894 59.0587 102.041 59.2102C102.189 59.3617 102.384 59.483 102.627 59.5739C102.873 59.6686 103.172 59.7159 103.524 59.7159C104.051 59.7159 104.485 59.5871 104.826 59.3295C105.17 59.0758 105.343 58.6496 105.343 58.0511V56.4545H105.24C105.134 56.697 104.975 56.9261 104.763 57.142C104.551 57.358 104.278 57.5341 103.945 57.6705C103.612 57.8068 103.214 57.875 102.752 57.875C102.096 57.875 101.5 57.7235 100.962 57.4205C100.428 57.1136 100.002 56.6458 99.6835 56.017C99.3691 55.3845 99.2119 54.5852 99.2119 53.6193C99.2119 52.6307 99.3729 51.8049 99.6949 51.142C100.017 50.4792 100.445 49.983 100.979 49.6534C101.517 49.3239 102.106 49.1591 102.746 49.1591C103.235 49.1591 103.644 49.2424 103.973 49.4091C104.303 49.572 104.568 49.7765 104.769 50.0227C104.973 50.2652 105.13 50.5038 105.24 50.7386H105.331V49.2727H107.735V58.0852C107.735 58.8277 107.553 59.4489 107.189 59.9489C106.826 60.4489 106.322 60.8239 105.678 61.0739C105.038 61.3277 104.301 61.4545 103.468 61.4545ZM103.519 56.0568C103.909 56.0568 104.238 55.9602 104.507 55.767C104.78 55.5701 104.988 55.2898 105.132 54.9261C105.28 54.5587 105.354 54.1193 105.354 53.608C105.354 53.0966 105.282 52.6534 105.138 52.2784C104.994 51.8996 104.786 51.6061 104.513 51.3977C104.24 51.1894 103.909 51.0852 103.519 51.0852C103.121 51.0852 102.786 51.1932 102.513 51.4091C102.24 51.6212 102.034 51.9167 101.894 52.2955C101.754 52.6742 101.684 53.1117 101.684 53.608C101.684 54.1117 101.754 54.5473 101.894 54.9148C102.038 55.2784 102.244 55.5606 102.513 55.7614C102.786 55.9583 103.121 56.0568 103.519 56.0568ZM109.485 58V49.2727H111.905V58H109.485ZM110.701 48.1477C110.341 48.1477 110.032 48.0284 109.775 47.7898C109.521 47.5473 109.394 47.2576 109.394 46.9205C109.394 46.5871 109.521 46.3011 109.775 46.0625C110.032 45.8201 110.341 45.6989 110.701 45.6989C111.061 45.6989 111.367 45.8201 111.621 46.0625C111.879 46.3011 112.008 46.5871 112.008 46.9205C112.008 47.2576 111.879 47.5473 111.621 47.7898C111.367 48.0284 111.061 48.1477 110.701 48.1477ZM117.611 58.1705C116.717 58.1705 115.948 57.9811 115.305 57.6023C114.664 57.2197 114.172 56.6894 113.827 56.0114C113.486 55.3333 113.316 54.553 113.316 53.6705C113.316 52.7765 113.488 51.9924 113.833 51.3182C114.181 50.6402 114.676 50.1117 115.316 49.733C115.956 49.3504 116.717 49.1591 117.6 49.1591C118.361 49.1591 119.028 49.2973 119.6 49.5739C120.172 49.8504 120.625 50.2386 120.958 50.7386C121.291 51.2386 121.475 51.8258 121.509 52.5H119.225C119.161 52.0644 118.99 51.714 118.714 51.4489C118.441 51.1799 118.083 51.0455 117.64 51.0455C117.265 51.0455 116.937 51.1477 116.657 51.3523C116.38 51.553 116.164 51.8466 116.009 52.233C115.854 52.6193 115.776 53.0871 115.776 53.6364C115.776 54.1932 115.852 54.6667 116.003 55.0568C116.159 55.447 116.376 55.7443 116.657 55.9489C116.937 56.1534 117.265 56.2557 117.64 56.2557C117.916 56.2557 118.164 56.1989 118.384 56.0852C118.608 55.9716 118.791 55.8068 118.935 55.5909C119.083 55.3712 119.18 55.108 119.225 54.8011H121.509C121.471 55.4678 121.289 56.0549 120.964 56.5625C120.642 57.0663 120.197 57.4602 119.628 57.7443C119.06 58.0284 118.388 58.1705 117.611 58.1705ZM129.075 58L125.745 46.3636H128.433L130.359 54.4489H130.455L132.58 46.3636H134.882L137.001 54.4659H137.103L139.029 46.3636H141.717L138.387 58H135.989L133.774 50.392H133.683L131.472 58H129.075ZM143.691 58H141.055L145.072 46.3636H148.242L152.254 58H149.617L146.703 49.0227H146.612L143.691 58ZM143.527 53.4261H149.754V55.3466H143.527V53.4261ZM163.211 46.3636V58H161.086L156.024 50.6761H155.939V58H153.478V46.3636H155.637L160.66 53.6818H160.762V46.3636H163.211ZM178.862 50.4375H176.374C176.328 50.1155 176.235 49.8295 176.095 49.5795C175.955 49.3258 175.775 49.1098 175.555 48.9318C175.336 48.7538 175.082 48.6174 174.794 48.5227C174.51 48.428 174.201 48.3807 173.868 48.3807C173.266 48.3807 172.741 48.5303 172.294 48.8295C171.847 49.125 171.5 49.5568 171.254 50.125C171.008 50.6894 170.885 51.375 170.885 52.1818C170.885 53.0114 171.008 53.7083 171.254 54.2727C171.504 54.8371 171.853 55.2633 172.3 55.5511C172.747 55.839 173.264 55.983 173.851 55.983C174.18 55.983 174.485 55.9394 174.766 55.8523C175.05 55.7652 175.302 55.6383 175.521 55.4716C175.741 55.3011 175.923 55.0947 176.067 54.8523C176.214 54.6098 176.317 54.3333 176.374 54.0227L178.862 54.0341C178.798 54.5682 178.637 55.0833 178.379 55.5795C178.125 56.072 177.783 56.5133 177.351 56.9034C176.923 57.2898 176.411 57.5966 175.817 57.8239C175.226 58.0473 174.557 58.1591 173.811 58.1591C172.773 58.1591 171.845 57.9242 171.027 57.4545C170.213 56.9848 169.569 56.3049 169.095 55.4148C168.625 54.5246 168.391 53.447 168.391 52.1818C168.391 50.9129 168.629 49.8333 169.106 48.9432C169.584 48.053 170.231 47.375 171.05 46.9091C171.868 46.4394 172.788 46.2045 173.811 46.2045C174.485 46.2045 175.11 46.2992 175.686 46.4886C176.266 46.678 176.779 46.9545 177.226 47.3182C177.673 47.678 178.036 48.1193 178.317 48.642C178.601 49.1648 178.783 49.7633 178.862 50.4375ZM184.348 58.1705C183.466 58.1705 182.702 57.983 182.058 57.608C181.418 57.2292 180.924 56.7027 180.575 56.0284C180.227 55.3504 180.053 54.5644 180.053 53.6705C180.053 52.7689 180.227 51.9811 180.575 51.3068C180.924 50.6288 181.418 50.1023 182.058 49.7273C182.702 49.3485 183.466 49.1591 184.348 49.1591C185.231 49.1591 185.992 49.3485 186.632 49.7273C187.276 50.1023 187.772 50.6288 188.121 51.3068C188.469 51.9811 188.644 52.7689 188.644 53.6705C188.644 54.5644 188.469 55.3504 188.121 56.0284C187.772 56.7027 187.276 57.2292 186.632 57.608C185.992 57.983 185.231 58.1705 184.348 58.1705ZM184.359 56.2955C184.761 56.2955 185.096 56.1818 185.365 55.9545C185.634 55.7235 185.837 55.4091 185.973 55.0114C186.113 54.6136 186.183 54.161 186.183 53.6534C186.183 53.1458 186.113 52.6932 185.973 52.2955C185.837 51.8977 185.634 51.5833 185.365 51.3523C185.096 51.1212 184.761 51.0057 184.359 51.0057C183.954 51.0057 183.613 51.1212 183.337 51.3523C183.064 51.5833 182.858 51.8977 182.717 52.2955C182.581 52.6932 182.513 53.1458 182.513 53.6534C182.513 54.161 182.581 54.6136 182.717 55.0114C182.858 55.4091 183.064 55.7235 183.337 55.9545C183.613 56.1818 183.954 56.2955 184.359 56.2955ZM192.462 52.9545V58H190.041V49.2727H192.348V50.8125H192.451C192.644 50.3049 192.968 49.9034 193.422 49.608C193.877 49.3087 194.428 49.1591 195.076 49.1591C195.682 49.1591 196.21 49.2917 196.661 49.5568C197.111 49.822 197.462 50.2008 197.712 50.6932C197.962 51.1818 198.087 51.7652 198.087 52.4432V58H195.666V52.875C195.67 52.3409 195.534 51.9242 195.257 51.625C194.981 51.322 194.6 51.1705 194.115 51.1705C193.79 51.1705 193.502 51.2405 193.252 51.3807C193.005 51.5208 192.812 51.7254 192.672 51.9943C192.536 52.2595 192.466 52.5795 192.462 52.9545ZM202.239 52.9545V58H199.819V49.2727H202.125V50.8125H202.228C202.421 50.3049 202.745 49.9034 203.199 49.608C203.654 49.3087 204.205 49.1591 204.853 49.1591C205.459 49.1591 205.987 49.2917 206.438 49.5568C206.889 49.822 207.239 50.2008 207.489 50.6932C207.739 51.1818 207.864 51.7652 207.864 52.4432V58H205.444V52.875C205.447 52.3409 205.311 51.9242 205.034 51.625C204.758 51.322 204.377 51.1705 203.892 51.1705C203.567 51.1705 203.279 51.2405 203.029 51.3807C202.783 51.5208 202.589 51.7254 202.449 51.9943C202.313 52.2595 202.243 52.5795 202.239 52.9545ZM213.573 58.1705C212.675 58.1705 211.902 57.9886 211.255 57.625C210.611 57.2576 210.115 56.7386 209.766 56.0682C209.418 55.3939 209.243 54.5966 209.243 53.6761C209.243 52.7784 209.418 51.9905 209.766 51.3125C210.115 50.6345 210.605 50.1061 211.238 49.7273C211.874 49.3485 212.62 49.1591 213.476 49.1591C214.052 49.1591 214.588 49.2519 215.084 49.4375C215.584 49.6193 216.02 49.8939 216.391 50.2614C216.766 50.6288 217.058 51.0909 217.266 51.6477C217.474 52.2008 217.579 52.8485 217.579 53.5909V54.2557H210.209V52.7557H215.3C215.3 52.4072 215.224 52.0985 215.073 51.8295C214.921 51.5606 214.711 51.3504 214.442 51.1989C214.177 51.0436 213.868 50.9659 213.516 50.9659C213.149 50.9659 212.823 51.0511 212.539 51.2216C212.259 51.3883 212.039 51.6136 211.88 51.8977C211.721 52.178 211.639 52.4905 211.635 52.8352V54.2614C211.635 54.6932 211.715 55.0663 211.874 55.3807C212.037 55.6951 212.266 55.9375 212.562 56.108C212.857 56.2784 213.207 56.3636 213.613 56.3636C213.882 56.3636 214.128 56.3258 214.351 56.25C214.575 56.1742 214.766 56.0606 214.925 55.9091C215.084 55.7576 215.206 55.572 215.289 55.3523L217.527 55.5C217.414 56.0379 217.181 56.5076 216.829 56.9091C216.48 57.3068 216.029 57.6174 215.476 57.8409C214.927 58.0606 214.293 58.1705 213.573 58.1705ZM222.925 58.1705C222.031 58.1705 221.262 57.9811 220.619 57.6023C219.978 57.2197 219.486 56.6894 219.141 56.0114C218.8 55.3333 218.63 54.553 218.63 53.6705C218.63 52.7765 218.802 51.9924 219.147 51.3182C219.495 50.6402 219.99 50.1117 220.63 49.733C221.27 49.3504 222.031 49.1591 222.914 49.1591C223.675 49.1591 224.342 49.2973 224.914 49.5739C225.486 49.8504 225.939 50.2386 226.272 50.7386C226.605 51.2386 226.789 51.8258 226.823 52.5H224.539C224.475 52.0644 224.304 51.714 224.028 51.4489C223.755 51.1799 223.397 51.0455 222.954 51.0455C222.579 51.0455 222.251 51.1477 221.971 51.3523C221.694 51.553 221.478 51.8466 221.323 52.233C221.168 52.6193 221.09 53.0871 221.09 53.6364C221.09 54.1932 221.166 54.6667 221.317 55.0568C221.473 55.447 221.69 55.7443 221.971 55.9489C222.251 56.1534 222.579 56.2557 222.954 56.2557C223.23 56.2557 223.478 56.1989 223.698 56.0852C223.922 55.9716 224.105 55.8068 224.249 55.5909C224.397 55.3712 224.494 55.108 224.539 54.8011H226.823C226.785 55.4678 226.603 56.0549 226.278 56.5625C225.956 57.0663 225.511 57.4602 224.942 57.7443C224.374 58.0284 223.702 58.1705 222.925 58.1705ZM232.839 49.2727V51.0909H227.583V49.2727H232.839ZM228.776 47.1818H231.197V55.3182C231.197 55.5417 231.231 55.7159 231.299 55.8409C231.367 55.9621 231.462 56.0473 231.583 56.0966C231.708 56.1458 231.852 56.1705 232.015 56.1705C232.129 56.1705 232.242 56.161 232.356 56.142C232.47 56.1193 232.557 56.1023 232.617 56.0909L232.998 57.892C232.877 57.9299 232.706 57.9735 232.487 58.0227C232.267 58.0758 232 58.108 231.685 58.1193C231.102 58.142 230.591 58.0644 230.151 57.8864C229.716 57.7083 229.377 57.4318 229.134 57.0568C228.892 56.6818 228.773 56.2083 228.776 55.6364V47.1818ZM238.089 58.1705C237.206 58.1705 236.443 57.983 235.799 57.608C235.159 57.2292 234.665 56.7027 234.316 56.0284C233.968 55.3504 233.794 54.5644 233.794 53.6705C233.794 52.7689 233.968 51.9811 234.316 51.3068C234.665 50.6288 235.159 50.1023 235.799 49.7273C236.443 49.3485 237.206 49.1591 238.089 49.1591C238.972 49.1591 239.733 49.3485 240.373 49.7273C241.017 50.1023 241.513 50.6288 241.862 51.3068C242.21 51.9811 242.384 52.7689 242.384 53.6705C242.384 54.5644 242.21 55.3504 241.862 56.0284C241.513 56.7027 241.017 57.2292 240.373 57.608C239.733 57.983 238.972 58.1705 238.089 58.1705ZM238.1 56.2955C238.502 56.2955 238.837 56.1818 239.106 55.9545C239.375 55.7235 239.578 55.4091 239.714 55.0114C239.854 54.6136 239.924 54.161 239.924 53.6534C239.924 53.1458 239.854 52.6932 239.714 52.2955C239.578 51.8977 239.375 51.5833 239.106 51.3523C238.837 51.1212 238.502 51.0057 238.1 51.0057C237.695 51.0057 237.354 51.1212 237.078 51.3523C236.805 51.5833 236.598 51.8977 236.458 52.2955C236.322 52.6932 236.254 53.1458 236.254 53.6534C236.254 54.161 236.322 54.6136 236.458 55.0114C236.598 55.4091 236.805 55.7235 237.078 55.9545C237.354 56.1818 237.695 56.2955 238.1 56.2955ZM243.782 58V49.2727H246.129V50.7955H246.22C246.379 50.2538 246.646 49.8447 247.021 49.5682C247.396 49.2879 247.828 49.1477 248.316 49.1477C248.438 49.1477 248.568 49.1553 248.708 49.1705C248.849 49.1856 248.972 49.2064 249.078 49.233V51.3807C248.964 51.3466 248.807 51.3163 248.606 51.2898C248.405 51.2633 248.222 51.25 248.055 51.25C247.699 51.25 247.381 51.3277 247.1 51.483C246.824 51.6345 246.604 51.8466 246.441 52.1193C246.282 52.392 246.203 52.7064 246.203 53.0625V58H243.782Z" fill="#222222"/>
<path d="M397.278 50.4375H394.79C394.744 50.1155 394.652 49.8295 394.511 49.5795C394.371 49.3258 394.191 49.1098 393.972 48.9318C393.752 48.7538 393.498 48.6174 393.21 48.5227C392.926 48.428 392.617 48.3807 392.284 48.3807C391.682 48.3807 391.157 48.5303 390.71 48.8295C390.263 49.125 389.917 49.5568 389.67 50.125C389.424 50.6894 389.301 51.375 389.301 52.1818C389.301 53.0114 389.424 53.7083 389.67 54.2727C389.92 54.8371 390.269 55.2633 390.716 55.5511C391.163 55.839 391.68 55.983 392.267 55.983C392.597 55.983 392.902 55.9394 393.182 55.8523C393.466 55.7652 393.718 55.6383 393.938 55.4716C394.157 55.3011 394.339 55.0947 394.483 54.8523C394.631 54.6098 394.733 54.3333 394.79 54.0227L397.278 54.0341C397.214 54.5682 397.053 55.0833 396.795 55.5795C396.542 56.072 396.199 56.5133 395.767 56.9034C395.339 57.2898 394.828 57.5966 394.233 57.8239C393.642 58.0473 392.973 58.1591 392.227 58.1591C391.189 58.1591 390.261 57.9242 389.443 57.4545C388.629 56.9848 387.985 56.3049 387.511 55.4148C387.042 54.5246 386.807 53.447 386.807 52.1818C386.807 50.9129 387.045 49.8333 387.523 48.9432C388 48.053 388.648 47.375 389.466 46.9091C390.284 46.4394 391.205 46.2045 392.227 46.2045C392.902 46.2045 393.527 46.2992 394.102 46.4886C394.682 46.678 395.195 46.9545 395.642 47.3182C396.089 47.678 396.453 48.1193 396.733 48.642C397.017 49.1648 397.199 49.7633 397.278 50.4375ZM404.418 54.2841V49.2727H406.838V58H404.514V56.4148H404.423C404.226 56.9261 403.899 57.3371 403.44 57.6477C402.986 57.9583 402.431 58.1136 401.776 58.1136C401.192 58.1136 400.679 57.9811 400.236 57.7159C399.793 57.4508 399.446 57.0739 399.196 56.5852C398.95 56.0966 398.825 55.5114 398.821 54.8295V49.2727H401.242V54.3977C401.245 54.9129 401.384 55.3201 401.656 55.6193C401.929 55.9186 402.295 56.0682 402.753 56.0682C403.045 56.0682 403.317 56.0019 403.571 55.8693C403.825 55.733 404.029 55.5322 404.185 55.267C404.344 55.0019 404.422 54.6742 404.418 54.2841ZM415.86 51.7614L413.644 51.8977C413.606 51.7083 413.524 51.5379 413.399 51.3864C413.274 51.2311 413.11 51.108 412.905 51.017C412.704 50.9223 412.464 50.875 412.184 50.875C411.809 50.875 411.492 50.9545 411.235 51.1136C410.977 51.2689 410.848 51.4773 410.848 51.7386C410.848 51.947 410.932 52.1231 411.098 52.267C411.265 52.411 411.551 52.5265 411.956 52.6136L413.536 52.9318C414.384 53.1061 415.017 53.3864 415.434 53.7727C415.85 54.1591 416.059 54.6667 416.059 55.2955C416.059 55.8674 415.89 56.3693 415.553 56.8011C415.219 57.233 414.761 57.5701 414.178 57.8125C413.598 58.0511 412.93 58.1705 412.172 58.1705C411.017 58.1705 410.096 57.9299 409.411 57.4489C408.729 56.964 408.329 56.3049 408.212 55.4716L410.593 55.3466C410.665 55.6989 410.839 55.9678 411.115 56.1534C411.392 56.3352 411.746 56.4261 412.178 56.4261C412.602 56.4261 412.943 56.3447 413.201 56.1818C413.462 56.0152 413.594 55.8011 413.598 55.5398C413.594 55.3201 413.502 55.1402 413.32 55C413.138 54.8561 412.858 54.7462 412.479 54.6705L410.968 54.3693C410.115 54.1989 409.481 53.9034 409.064 53.483C408.651 53.0625 408.445 52.5265 408.445 51.875C408.445 51.3144 408.596 50.8314 408.899 50.4261C409.206 50.0208 409.636 49.7083 410.189 49.4886C410.746 49.2689 411.398 49.1591 412.144 49.1591C413.246 49.1591 414.113 49.392 414.746 49.858C415.382 50.3239 415.754 50.9583 415.86 51.7614ZM422.049 49.2727V51.0909H416.793V49.2727H422.049ZM417.986 47.1818H420.407V55.3182C420.407 55.5417 420.441 55.7159 420.509 55.8409C420.577 55.9621 420.672 56.0473 420.793 56.0966C420.918 56.1458 421.062 56.1705 421.225 56.1705C421.338 56.1705 421.452 56.161 421.566 56.142C421.679 56.1193 421.767 56.1023 421.827 56.0909L422.208 57.892C422.087 57.9299 421.916 57.9735 421.696 58.0227C421.477 58.0758 421.21 58.108 420.895 58.1193C420.312 58.142 419.801 58.0644 419.361 57.8864C418.926 57.7083 418.587 57.4318 418.344 57.0568C418.102 56.6818 417.982 56.2083 417.986 55.6364V47.1818ZM427.299 58.1705C426.416 58.1705 425.653 57.983 425.009 57.608C424.369 57.2292 423.875 56.7027 423.526 56.0284C423.178 55.3504 423.003 54.5644 423.003 53.6705C423.003 52.7689 423.178 51.9811 423.526 51.3068C423.875 50.6288 424.369 50.1023 425.009 49.7273C425.653 49.3485 426.416 49.1591 427.299 49.1591C428.181 49.1591 428.943 49.3485 429.583 49.7273C430.227 50.1023 430.723 50.6288 431.072 51.3068C431.42 51.9811 431.594 52.7689 431.594 53.6705C431.594 54.5644 431.42 55.3504 431.072 56.0284C430.723 56.7027 430.227 57.2292 429.583 57.608C428.943 57.983 428.181 58.1705 427.299 58.1705ZM427.31 56.2955C427.712 56.2955 428.047 56.1818 428.316 55.9545C428.585 55.7235 428.787 55.4091 428.924 55.0114C429.064 54.6136 429.134 54.161 429.134 53.6534C429.134 53.1458 429.064 52.6932 428.924 52.2955C428.787 51.8977 428.585 51.5833 428.316 51.3523C428.047 51.1212 427.712 51.0057 427.31 51.0057C426.905 51.0057 426.564 51.1212 426.287 51.3523C426.015 51.5833 425.808 51.8977 425.668 52.2955C425.532 52.6932 425.464 53.1458 425.464 53.6534C425.464 54.161 425.532 54.6136 425.668 55.0114C425.808 55.4091 426.015 55.7235 426.287 55.9545C426.564 56.1818 426.905 56.2955 427.31 56.2955ZM432.992 58V49.2727H435.299V50.8125H435.401C435.583 50.3011 435.886 49.8977 436.31 49.6023C436.735 49.3068 437.242 49.1591 437.833 49.1591C438.432 49.1591 438.941 49.3087 439.361 49.608C439.782 49.9034 440.062 50.3049 440.202 50.8125H440.293C440.471 50.3125 440.793 49.9129 441.259 49.6136C441.729 49.3106 442.284 49.1591 442.924 49.1591C443.738 49.1591 444.399 49.4186 444.907 49.9375C445.418 50.4527 445.674 51.1837 445.674 52.1307V58H443.259V52.608C443.259 52.1231 443.13 51.7595 442.873 51.517C442.615 51.2746 442.293 51.1534 441.907 51.1534C441.468 51.1534 441.125 51.2936 440.879 51.5739C440.632 51.8504 440.509 52.2159 440.509 52.6705V58H438.163V52.5568C438.163 52.1288 438.04 51.7879 437.793 51.5341C437.551 51.2803 437.231 51.1534 436.833 51.1534C436.564 51.1534 436.322 51.2216 436.106 51.358C435.894 51.4905 435.725 51.678 435.6 51.9205C435.475 52.1591 435.413 52.4394 435.413 52.7614V58H432.992ZM451.387 58.1705C450.489 58.1705 449.717 57.9886 449.069 57.625C448.425 57.2576 447.929 56.7386 447.58 56.0682C447.232 55.3939 447.058 54.5966 447.058 53.6761C447.058 52.7784 447.232 51.9905 447.58 51.3125C447.929 50.6345 448.419 50.1061 449.052 49.7273C449.688 49.3485 450.435 49.1591 451.291 49.1591C451.866 49.1591 452.402 49.2519 452.899 49.4375C453.399 49.6193 453.834 49.8939 454.205 50.2614C454.58 50.6288 454.872 51.0909 455.08 51.6477C455.289 52.2008 455.393 52.8485 455.393 53.5909V54.2557H448.024V52.7557H453.114C453.114 52.4072 453.039 52.0985 452.887 51.8295C452.736 51.5606 452.525 51.3504 452.257 51.1989C451.991 51.0436 451.683 50.9659 451.33 50.9659C450.963 50.9659 450.637 51.0511 450.353 51.2216C450.073 51.3883 449.853 51.6136 449.694 51.8977C449.535 52.178 449.453 52.4905 449.45 52.8352V54.2614C449.45 54.6932 449.529 55.0663 449.688 55.3807C449.851 55.6951 450.08 55.9375 450.376 56.108C450.671 56.2784 451.022 56.3636 451.427 56.3636C451.696 56.3636 451.942 56.3258 452.166 56.25C452.389 56.1742 452.58 56.0606 452.739 55.9091C452.899 55.7576 453.02 55.572 453.103 55.3523L455.342 55.5C455.228 56.0379 454.995 56.5076 454.643 56.9091C454.294 57.3068 453.844 57.6174 453.291 57.8409C452.741 58.0606 452.107 58.1705 451.387 58.1705ZM456.796 58V49.2727H459.143V50.7955H459.234C459.393 50.2538 459.66 49.8447 460.035 49.5682C460.41 49.2879 460.842 49.1477 461.33 49.1477C461.452 49.1477 461.582 49.1553 461.723 49.1705C461.863 49.1856 461.986 49.2064 462.092 49.233V51.3807C461.978 51.3466 461.821 51.3163 461.62 51.2898C461.42 51.2633 461.236 51.25 461.069 51.25C460.713 51.25 460.395 51.3277 460.115 51.483C459.838 51.6345 459.618 51.8466 459.455 52.1193C459.296 52.392 459.217 52.7064 459.217 53.0625V58H456.796ZM466.694 61.2727V49.2727H469.081V50.7386H469.189C469.295 50.5038 469.448 50.2652 469.649 50.0227C469.854 49.7765 470.119 49.572 470.444 49.4091C470.774 49.2424 471.183 49.1591 471.672 49.1591C472.308 49.1591 472.895 49.3258 473.433 49.6591C473.971 49.9886 474.401 50.4867 474.723 51.1534C475.045 51.8163 475.206 52.6477 475.206 53.6477C475.206 54.6212 475.049 55.4432 474.734 56.1136C474.424 56.7803 473.999 57.286 473.461 57.6307C472.927 57.9716 472.329 58.142 471.666 58.142C471.196 58.142 470.797 58.0644 470.467 57.9091C470.141 57.7538 469.874 57.5587 469.666 57.3239C469.458 57.0852 469.299 56.8447 469.189 56.6023H469.115V61.2727H466.694ZM469.064 53.6364C469.064 54.1553 469.136 54.608 469.28 54.9943C469.424 55.3807 469.632 55.6818 469.905 55.8977C470.177 56.1098 470.509 56.2159 470.899 56.2159C471.293 56.2159 471.626 56.108 471.899 55.892C472.172 55.6723 472.378 55.3693 472.518 54.983C472.662 54.5928 472.734 54.1439 472.734 53.6364C472.734 53.1326 472.664 52.6894 472.524 52.3068C472.384 51.9242 472.177 51.625 471.905 51.4091C471.632 51.1932 471.297 51.0852 470.899 51.0852C470.505 51.0852 470.172 51.1894 469.899 51.3977C469.63 51.6061 469.424 51.9015 469.28 52.2841C469.136 52.6667 469.064 53.1174 469.064 53.6364ZM476.643 58V49.2727H478.99V50.7955H479.081C479.24 50.2538 479.507 49.8447 479.882 49.5682C480.257 49.2879 480.689 49.1477 481.177 49.1477C481.299 49.1477 481.429 49.1553 481.57 49.1705C481.71 49.1856 481.833 49.2064 481.939 49.233V51.3807C481.825 51.3466 481.668 51.3163 481.467 51.2898C481.267 51.2633 481.083 51.25 480.916 51.25C480.56 51.25 480.242 51.3277 479.962 51.483C479.685 51.6345 479.465 51.8466 479.302 52.1193C479.143 52.392 479.064 52.7064 479.064 53.0625V58H476.643ZM486.585 58.1705C485.688 58.1705 484.915 57.9886 484.267 57.625C483.623 57.2576 483.127 56.7386 482.778 56.0682C482.43 55.3939 482.256 54.5966 482.256 53.6761C482.256 52.7784 482.43 51.9905 482.778 51.3125C483.127 50.6345 483.618 50.1061 484.25 49.7273C484.886 49.3485 485.633 49.1591 486.489 49.1591C487.064 49.1591 487.6 49.2519 488.097 49.4375C488.597 49.6193 489.032 49.8939 489.403 50.2614C489.778 50.6288 490.07 51.0909 490.278 51.6477C490.487 52.2008 490.591 52.8485 490.591 53.5909V54.2557H483.222V52.7557H488.313C488.313 52.4072 488.237 52.0985 488.085 51.8295C487.934 51.5606 487.724 51.3504 487.455 51.1989C487.189 51.0436 486.881 50.9659 486.528 50.9659C486.161 50.9659 485.835 51.0511 485.551 51.2216C485.271 51.3883 485.051 51.6136 484.892 51.8977C484.733 52.178 484.652 52.4905 484.648 52.8352V54.2614C484.648 54.6932 484.727 55.0663 484.886 55.3807C485.049 55.6951 485.278 55.9375 485.574 56.108C485.869 56.2784 486.22 56.3636 486.625 56.3636C486.894 56.3636 487.14 56.3258 487.364 56.25C487.587 56.1742 487.778 56.0606 487.938 55.9091C488.097 55.7576 488.218 55.572 488.301 55.3523L490.54 55.5C490.426 56.0379 490.193 56.5076 489.841 56.9091C489.493 57.3068 489.042 57.6174 488.489 57.8409C487.939 58.0606 487.305 58.1705 486.585 58.1705ZM491.995 58V49.2727H494.301V50.8125H494.404C494.585 50.3011 494.888 49.8977 495.313 49.6023C495.737 49.3068 496.245 49.1591 496.835 49.1591C497.434 49.1591 497.943 49.3087 498.364 49.608C498.784 49.9034 499.065 50.3049 499.205 50.8125H499.296C499.474 50.3125 499.796 49.9129 500.262 49.6136C500.731 49.3106 501.286 49.1591 501.926 49.1591C502.741 49.1591 503.402 49.4186 503.909 49.9375C504.421 50.4527 504.676 51.1837 504.676 52.1307V58H502.262V52.608C502.262 52.1231 502.133 51.7595 501.875 51.517C501.618 51.2746 501.296 51.1534 500.909 51.1534C500.47 51.1534 500.127 51.2936 499.881 51.5739C499.635 51.8504 499.512 52.2159 499.512 52.6705V58H497.165V52.5568C497.165 52.1288 497.042 51.7879 496.796 51.5341C496.553 51.2803 496.233 51.1534 495.835 51.1534C495.567 51.1534 495.324 51.2216 495.108 51.358C494.896 51.4905 494.727 51.678 494.602 51.9205C494.477 52.1591 494.415 52.4394 494.415 52.7614V58H491.995ZM506.412 58V49.2727H508.833V58H506.412ZM507.628 48.1477C507.268 48.1477 506.96 48.0284 506.702 47.7898C506.448 47.5473 506.321 47.2576 506.321 46.9205C506.321 46.5871 506.448 46.3011 506.702 46.0625C506.96 45.8201 507.268 45.6989 507.628 45.6989C507.988 45.6989 508.295 45.8201 508.549 46.0625C508.806 46.3011 508.935 46.5871 508.935 46.9205C508.935 47.2576 508.806 47.5473 508.549 47.7898C508.295 48.0284 507.988 48.1477 507.628 48.1477ZM517.857 51.7614L515.641 51.8977C515.603 51.7083 515.522 51.5379 515.397 51.3864C515.272 51.2311 515.107 51.108 514.902 51.017C514.702 50.9223 514.461 50.875 514.181 50.875C513.806 50.875 513.49 50.9545 513.232 51.1136C512.974 51.2689 512.846 51.4773 512.846 51.7386C512.846 51.947 512.929 52.1231 513.096 52.267C513.262 52.411 513.548 52.5265 513.954 52.6136L515.533 52.9318C516.382 53.1061 517.014 53.3864 517.431 53.7727C517.848 54.1591 518.056 54.6667 518.056 55.2955C518.056 55.8674 517.887 56.3693 517.55 56.8011C517.217 57.233 516.759 57.5701 516.175 57.8125C515.596 58.0511 514.927 58.1705 514.17 58.1705C513.014 58.1705 512.094 57.9299 511.408 57.4489C510.726 56.964 510.327 56.3049 510.209 55.4716L512.59 55.3466C512.662 55.6989 512.836 55.9678 513.113 56.1534C513.389 56.3352 513.743 56.4261 514.175 56.4261C514.599 56.4261 514.94 56.3447 515.198 56.1818C515.459 56.0152 515.592 55.8011 515.596 55.5398C515.592 55.3201 515.499 55.1402 515.317 55C515.135 54.8561 514.855 54.7462 514.476 54.6705L512.965 54.3693C512.113 54.1989 511.478 53.9034 511.062 53.483C510.649 53.0625 510.442 52.5265 510.442 51.875C510.442 51.3144 510.594 50.8314 510.897 50.4261C511.204 50.0208 511.634 49.7083 512.187 49.4886C512.743 49.2689 513.395 49.1591 514.141 49.1591C515.243 49.1591 516.111 49.392 516.743 49.858C517.38 50.3239 517.751 50.9583 517.857 51.7614ZM523.381 58.1705C522.484 58.1705 521.711 57.9886 521.063 57.625C520.419 57.2576 519.923 56.7386 519.574 56.0682C519.226 55.3939 519.052 54.5966 519.052 53.6761C519.052 52.7784 519.226 51.9905 519.574 51.3125C519.923 50.6345 520.414 50.1061 521.046 49.7273C521.682 49.3485 522.429 49.1591 523.285 49.1591C523.86 49.1591 524.396 49.2519 524.893 49.4375C525.393 49.6193 525.828 49.8939 526.199 50.2614C526.574 50.6288 526.866 51.0909 527.074 51.6477C527.283 52.2008 527.387 52.8485 527.387 53.5909V54.2557H520.018V52.7557H525.109C525.109 52.4072 525.033 52.0985 524.881 51.8295C524.73 51.5606 524.52 51.3504 524.251 51.1989C523.985 51.0436 523.677 50.9659 523.324 50.9659C522.957 50.9659 522.631 51.0511 522.347 51.2216C522.067 51.3883 521.847 51.6136 521.688 51.8977C521.529 52.178 521.448 52.4905 521.444 52.8352V54.2614C521.444 54.6932 521.523 55.0663 521.682 55.3807C521.845 55.6951 522.074 55.9375 522.37 56.108C522.665 56.2784 523.016 56.3636 523.421 56.3636C523.69 56.3636 523.936 56.3258 524.16 56.25C524.383 56.1742 524.574 56.0606 524.734 55.9091C524.893 55.7576 525.014 55.572 525.097 55.3523L527.336 55.5C527.222 56.0379 526.989 56.5076 526.637 56.9091C526.289 57.3068 525.838 57.6174 525.285 57.8409C524.735 58.0606 524.101 58.1705 523.381 58.1705ZM536.052 51.7614L533.836 51.8977C533.798 51.7083 533.717 51.5379 533.592 51.3864C533.467 51.2311 533.302 51.108 533.097 51.017C532.897 50.9223 532.656 50.875 532.376 50.875C532.001 50.875 531.684 50.9545 531.427 51.1136C531.169 51.2689 531.041 51.4773 531.041 51.7386C531.041 51.947 531.124 52.1231 531.291 52.267C531.457 52.411 531.743 52.5265 532.148 52.6136L533.728 52.9318C534.577 53.1061 535.209 53.3864 535.626 53.7727C536.042 54.1591 536.251 54.6667 536.251 55.2955C536.251 55.8674 536.082 56.3693 535.745 56.8011C535.412 57.233 534.953 57.5701 534.37 57.8125C533.791 58.0511 533.122 58.1705 532.364 58.1705C531.209 58.1705 530.289 57.9299 529.603 57.4489C528.921 56.964 528.522 56.3049 528.404 55.4716L530.785 55.3466C530.857 55.6989 531.031 55.9678 531.308 56.1534C531.584 56.3352 531.938 56.4261 532.37 56.4261C532.794 56.4261 533.135 56.3447 533.393 56.1818C533.654 56.0152 533.787 55.8011 533.791 55.5398C533.787 55.3201 533.694 55.1402 533.512 55C533.33 54.8561 533.05 54.7462 532.671 54.6705L531.16 54.3693C530.308 54.1989 529.673 53.9034 529.256 53.483C528.844 53.0625 528.637 52.5265 528.637 51.875C528.637 51.3144 528.789 50.8314 529.092 50.4261C529.398 50.0208 529.828 49.7083 530.381 49.4886C530.938 49.2689 531.59 49.1591 532.336 49.1591C533.438 49.1591 534.306 49.392 534.938 49.858C535.575 50.3239 535.946 50.9583 536.052 51.7614ZM545.103 58.1705C544.206 58.1705 543.433 57.9886 542.785 57.625C542.141 57.2576 541.645 56.7386 541.296 56.0682C540.948 55.3939 540.774 54.5966 540.774 53.6761C540.774 52.7784 540.948 51.9905 541.296 51.3125C541.645 50.6345 542.136 50.1061 542.768 49.7273C543.404 49.3485 544.151 49.1591 545.007 49.1591C545.582 49.1591 546.118 49.2519 546.615 49.4375C547.115 49.6193 547.55 49.8939 547.921 50.2614C548.296 50.6288 548.588 51.0909 548.796 51.6477C549.005 52.2008 549.109 52.8485 549.109 53.5909V54.2557H541.74V52.7557H546.831C546.831 52.4072 546.755 52.0985 546.603 51.8295C546.452 51.5606 546.242 51.3504 545.973 51.1989C545.707 51.0436 545.399 50.9659 545.046 50.9659C544.679 50.9659 544.353 51.0511 544.069 51.2216C543.789 51.3883 543.569 51.6136 543.41 51.8977C543.251 52.178 543.17 52.4905 543.166 52.8352V54.2614C543.166 54.6932 543.245 55.0663 543.404 55.3807C543.567 55.6951 543.796 55.9375 544.092 56.108C544.387 56.2784 544.738 56.3636 545.143 56.3636C545.412 56.3636 545.658 56.3258 545.882 56.25C546.105 56.1742 546.296 56.0606 546.456 55.9091C546.615 55.7576 546.736 55.572 546.819 55.3523L549.058 55.5C548.944 56.0379 548.711 56.5076 548.359 56.9091C548.011 57.3068 547.56 57.6174 547.007 57.8409C546.457 58.0606 545.823 58.1705 545.103 58.1705ZM556.28 61.2727V56.6023H556.206C556.092 56.8447 555.931 57.0852 555.723 57.3239C555.518 57.5587 555.251 57.7538 554.922 57.9091C554.596 58.0644 554.198 58.142 553.728 58.142C553.066 58.142 552.465 57.9716 551.927 57.6307C551.393 57.286 550.969 56.7803 550.655 56.1136C550.344 55.4432 550.189 54.6212 550.189 53.6477C550.189 52.6477 550.35 51.8163 550.672 51.1534C550.994 50.4867 551.422 49.9886 551.956 49.6591C552.494 49.3258 553.083 49.1591 553.723 49.1591C554.211 49.1591 554.619 49.2424 554.944 49.4091C555.274 49.572 555.539 49.7765 555.74 50.0227C555.944 50.2652 556.1 50.5038 556.206 50.7386H556.308V49.2727H558.694V61.2727H556.28ZM554.495 56.2159C554.886 56.2159 555.215 56.1098 555.484 55.8977C555.757 55.6818 555.965 55.3807 556.109 54.9943C556.257 54.608 556.331 54.1553 556.331 53.6364C556.331 53.1174 556.259 52.6667 556.115 52.2841C555.971 51.9015 555.763 51.6061 555.49 51.3977C555.217 51.1894 554.886 51.0852 554.495 51.0852C554.098 51.0852 553.763 51.1932 553.49 51.4091C553.217 51.625 553.011 51.9242 552.87 52.3068C552.73 52.6894 552.66 53.1326 552.66 53.6364C552.66 54.1439 552.73 54.5928 552.87 54.983C553.014 55.3693 553.221 55.6723 553.49 55.892C553.763 56.108 554.098 56.2159 554.495 56.2159ZM566.058 54.2841V49.2727H568.479V58H566.155V56.4148H566.064C565.867 56.9261 565.539 57.3371 565.081 57.6477C564.626 57.9583 564.071 58.1136 563.416 58.1136C562.833 58.1136 562.319 57.9811 561.876 57.7159C561.433 57.4508 561.087 57.0739 560.837 56.5852C560.59 56.0966 560.465 55.5114 560.462 54.8295V49.2727H562.882V54.3977C562.886 54.9129 563.024 55.3201 563.297 55.6193C563.569 55.9186 563.935 56.0682 564.393 56.0682C564.685 56.0682 564.958 56.0019 565.212 55.8693C565.465 55.733 565.67 55.5322 565.825 55.267C565.984 55.0019 566.062 54.6742 566.058 54.2841ZM570.239 58V49.2727H572.659V58H570.239ZM571.455 48.1477C571.095 48.1477 570.786 48.0284 570.528 47.7898C570.275 47.5473 570.148 47.2576 570.148 46.9205C570.148 46.5871 570.275 46.3011 570.528 46.0625C570.786 45.8201 571.095 45.6989 571.455 45.6989C571.814 45.6989 572.121 45.8201 572.375 46.0625C572.633 46.3011 572.761 46.5871 572.761 46.9205C572.761 47.2576 572.633 47.5473 572.375 47.7898C572.121 48.0284 571.814 48.1477 571.455 48.1477ZM574.422 61.2727V49.2727H576.808V50.7386H576.916C577.022 50.5038 577.176 50.2652 577.377 50.0227C577.581 49.7765 577.846 49.572 578.172 49.4091C578.502 49.2424 578.911 49.1591 579.399 49.1591C580.036 49.1591 580.623 49.3258 581.161 49.6591C581.699 49.9886 582.128 50.4867 582.45 51.1534C582.772 51.8163 582.933 52.6477 582.933 53.6477C582.933 54.6212 582.776 55.4432 582.462 56.1136C582.151 56.7803 581.727 57.286 581.189 57.6307C580.655 57.9716 580.057 58.142 579.394 58.142C578.924 58.142 578.524 58.0644 578.195 57.9091C577.869 57.7538 577.602 57.5587 577.394 57.3239C577.185 57.0852 577.026 56.8447 576.916 56.6023H576.842V61.2727H574.422ZM576.791 53.6364C576.791 54.1553 576.863 54.608 577.007 54.9943C577.151 55.3807 577.36 55.6818 577.632 55.8977C577.905 56.1098 578.236 56.2159 578.627 56.2159C579.021 56.2159 579.354 56.108 579.627 55.892C579.899 55.6723 580.106 55.3693 580.246 54.983C580.39 54.5928 580.462 54.1439 580.462 53.6364C580.462 53.1326 580.392 52.6894 580.252 52.3068C580.111 51.9242 579.905 51.625 579.632 51.4091C579.36 51.1932 579.024 51.0852 578.627 51.0852C578.233 51.0852 577.899 51.1894 577.627 51.3977C577.358 51.6061 577.151 51.9015 577.007 52.2841C576.863 52.6667 576.791 53.1174 576.791 53.6364ZM584.371 58V49.2727H586.678V50.8125H586.78C586.962 50.3011 587.265 49.8977 587.689 49.6023C588.113 49.3068 588.621 49.1591 589.212 49.1591C589.81 49.1591 590.32 49.3087 590.74 49.608C591.161 49.9034 591.441 50.3049 591.581 50.8125H591.672C591.85 50.3125 592.172 49.9129 592.638 49.6136C593.108 49.3106 593.663 49.1591 594.303 49.1591C595.117 49.1591 595.778 49.4186 596.286 49.9375C596.797 50.4527 597.053 51.1837 597.053 52.1307V58H594.638V52.608C594.638 52.1231 594.509 51.7595 594.252 51.517C593.994 51.2746 593.672 51.1534 593.286 51.1534C592.846 51.1534 592.504 51.2936 592.257 51.5739C592.011 51.8504 591.888 52.2159 591.888 52.6705V58H589.541V52.5568C589.541 52.1288 589.418 51.7879 589.172 51.5341C588.93 51.2803 588.61 51.1534 588.212 51.1534C587.943 51.1534 587.701 51.2216 587.485 51.358C587.273 51.4905 587.104 51.678 586.979 51.9205C586.854 52.1591 586.791 52.4394 586.791 52.7614V58H584.371ZM602.766 58.1705C601.868 58.1705 601.096 57.9886 600.448 57.625C599.804 57.2576 599.308 56.7386 598.959 56.0682C598.611 55.3939 598.437 54.5966 598.437 53.6761C598.437 52.7784 598.611 51.9905 598.959 51.3125C599.308 50.6345 599.798 50.1061 600.431 49.7273C601.067 49.3485 601.813 49.1591 602.669 49.1591C603.245 49.1591 603.781 49.2519 604.277 49.4375C604.777 49.6193 605.213 49.8939 605.584 50.2614C605.959 50.6288 606.251 51.0909 606.459 51.6477C606.668 52.2008 606.772 52.8485 606.772 53.5909V54.2557H599.402V52.7557H604.493C604.493 52.4072 604.418 52.0985 604.266 51.8295C604.115 51.5606 603.904 51.3504 603.635 51.1989C603.37 51.0436 603.062 50.9659 602.709 50.9659C602.342 50.9659 602.016 51.0511 601.732 51.2216C601.452 51.3883 601.232 51.6136 601.073 51.8977C600.914 52.178 600.832 52.4905 600.829 52.8352V54.2614C600.829 54.6932 600.908 55.0663 601.067 55.3807C601.23 55.6951 601.459 55.9375 601.755 56.108C602.05 56.2784 602.401 56.3636 602.806 56.3636C603.075 56.3636 603.321 56.3258 603.544 56.25C603.768 56.1742 603.959 56.0606 604.118 55.9091C604.277 55.7576 604.399 55.572 604.482 55.3523L606.721 55.5C606.607 56.0379 606.374 56.5076 606.022 56.9091C605.673 57.3068 605.222 57.6174 604.669 57.8409C604.12 58.0606 603.486 58.1705 602.766 58.1705ZM610.596 52.9545V58H608.175V49.2727H610.482V50.8125H610.584C610.778 50.3049 611.101 49.9034 611.556 49.608C612.011 49.3087 612.562 49.1591 613.209 49.1591C613.815 49.1591 614.344 49.2917 614.795 49.5568C615.245 49.822 615.596 50.2008 615.846 50.6932C616.096 51.1818 616.221 51.7652 616.221 52.4432V58H613.8V52.875C613.804 52.3409 613.668 51.9242 613.391 51.625C613.115 51.322 612.734 51.1705 612.249 51.1705C611.923 51.1705 611.636 51.2405 611.386 51.3807C611.139 51.5208 610.946 51.7254 610.806 51.9943C610.67 52.2595 610.6 52.5795 610.596 52.9545ZM622.594 49.2727V51.0909H617.339V49.2727H622.594ZM618.532 47.1818H620.952V55.3182C620.952 55.5417 620.986 55.7159 621.055 55.8409C621.123 55.9621 621.218 56.0473 621.339 56.0966C621.464 56.1458 621.608 56.1705 621.771 56.1705C621.884 56.1705 621.998 56.161 622.111 56.142C622.225 56.1193 622.312 56.1023 622.373 56.0909L622.754 57.892C622.632 57.9299 622.462 57.9735 622.242 58.0227C622.022 58.0758 621.755 58.108 621.441 58.1193C620.858 58.142 620.346 58.0644 619.907 57.8864C619.471 57.7083 619.132 57.4318 618.89 57.0568C618.647 56.6818 618.528 56.2083 618.532 55.6364V47.1818Z" fill="#222222"/>
<g clip-path="url(#clip1_0_1)">
<path d="M58.0305 122.65H39.109C37.2248 122.646 35.419 121.895 34.0867 120.563C32.7544 119.231 32.0041 117.425 32 115.54C32.0102 114.488 32.2479 113.45 32.6967 112.499C33.1454 111.547 33.7947 110.703 34.6 110.025C35.9476 108.886 37.6854 108.314 39.4465 108.431C40.2453 106.465 41.6701 104.818 43.5002 103.744C45.3303 102.67 47.4635 102.229 49.5692 102.49C51.675 102.752 53.6359 103.7 55.148 105.189C56.66 106.678 57.6389 108.624 57.933 110.725C59.39 110.66 60.8179 111.146 61.933 112.086C62.8543 112.888 63.5098 113.952 63.8124 115.136C64.115 116.319 64.0505 117.567 63.6273 118.713C63.2042 119.859 62.4424 120.849 61.4432 121.552C60.444 122.255 59.2547 122.638 58.033 122.649L58.0305 122.65ZM38.9965 110.416C37.8568 110.413 36.7534 110.817 35.886 111.556C35.3031 112.045 34.8328 112.655 34.5073 113.342C34.1818 114.03 34.0087 114.78 34 115.54C34.0021 116.892 34.539 118.189 35.4936 119.146C36.4481 120.103 37.7426 120.644 39.0945 120.65H58.03C59.0827 120.649 60.0918 120.23 60.8361 119.485C61.5804 118.741 61.9989 117.732 62 116.679C62.005 116.099 61.8859 115.526 61.6506 114.996C61.4153 114.466 61.0694 113.993 60.636 113.608C60.1558 113.226 59.5965 112.955 58.9986 112.815C58.4007 112.675 57.7791 112.67 57.179 112.8L56.052 112.981L56.0205 111.84C55.9684 110.03 55.2753 108.298 54.0646 106.951C52.854 105.604 51.2045 104.731 49.4102 104.487C47.6159 104.244 45.7932 104.645 44.2672 105.62C42.7411 106.594 41.6107 108.079 41.0775 109.81L40.8185 110.653L39.95 110.5C39.6352 110.444 39.3162 110.416 38.9965 110.416Z" fill="#F6821F"/>
</g>
<path d="M83.2784 111.619H80.7898C80.7443 111.297 80.6515 111.011 80.5114 110.761C80.3712 110.508 80.1913 110.292 79.9716 110.114C79.7519 109.936 79.4981 109.799 79.2102 109.705C78.9261 109.61 78.6174 109.563 78.2841 109.563C77.6818 109.563 77.1572 109.712 76.7102 110.011C76.2633 110.307 75.9167 110.739 75.6705 111.307C75.4242 111.871 75.3011 112.557 75.3011 113.364C75.3011 114.193 75.4242 114.89 75.6705 115.455C75.9205 116.019 76.2689 116.445 76.7159 116.733C77.1629 117.021 77.6799 117.165 78.267 117.165C78.5966 117.165 78.9015 117.121 79.1818 117.034C79.4659 116.947 79.7178 116.82 79.9375 116.653C80.1572 116.483 80.339 116.277 80.483 116.034C80.6307 115.792 80.733 115.515 80.7898 115.205L83.2784 115.216C83.214 115.75 83.053 116.265 82.7955 116.761C82.5417 117.254 82.1989 117.695 81.767 118.085C81.339 118.472 80.8277 118.778 80.233 119.006C79.642 119.229 78.9735 119.341 78.2273 119.341C77.1894 119.341 76.2614 119.106 75.4432 118.636C74.6288 118.167 73.9848 117.487 73.5114 116.597C73.0417 115.707 72.8068 114.629 72.8068 113.364C72.8068 112.095 73.0455 111.015 73.5227 110.125C74 109.235 74.6477 108.557 75.4659 108.091C76.2841 107.621 77.2045 107.386 78.2273 107.386C78.9015 107.386 79.5265 107.481 80.1023 107.671C80.6818 107.86 81.1951 108.136 81.642 108.5C82.089 108.86 82.4527 109.301 82.733 109.824C83.017 110.347 83.1989 110.945 83.2784 111.619ZM87.2416 107.546V119.182H84.8212V107.546H87.2416ZM92.9477 119.352C92.0651 119.352 91.3019 119.165 90.6579 118.79C90.0178 118.411 89.5235 117.885 89.175 117.21C88.8265 116.532 88.6523 115.746 88.6523 114.852C88.6523 113.951 88.8265 113.163 89.175 112.489C89.5235 111.811 90.0178 111.284 90.6579 110.909C91.3019 110.53 92.0651 110.341 92.9477 110.341C93.8303 110.341 94.5917 110.53 95.2318 110.909C95.8757 111.284 96.372 111.811 96.7204 112.489C97.0689 113.163 97.2432 113.951 97.2432 114.852C97.2432 115.746 97.0689 116.532 96.7204 117.21C96.372 117.885 95.8757 118.411 95.2318 118.79C94.5917 119.165 93.8303 119.352 92.9477 119.352ZM92.9591 117.477C93.3606 117.477 93.6958 117.364 93.9648 117.136C94.2337 116.905 94.4364 116.591 94.5727 116.193C94.7129 115.796 94.7829 115.343 94.7829 114.835C94.7829 114.328 94.7129 113.875 94.5727 113.477C94.4364 113.08 94.2337 112.765 93.9648 112.534C93.6958 112.303 93.3606 112.188 92.9591 112.188C92.5538 112.188 92.2129 112.303 91.9364 112.534C91.6636 112.765 91.4572 113.08 91.317 113.477C91.1807 113.875 91.1125 114.328 91.1125 114.835C91.1125 115.343 91.1807 115.796 91.317 116.193C91.4572 116.591 91.6636 116.905 91.9364 117.136C92.2129 117.364 92.5538 117.477 92.9591 117.477ZM104.238 115.466V110.455H106.658V119.182H104.334V117.597H104.243C104.046 118.108 103.719 118.519 103.26 118.83C102.806 119.14 102.251 119.296 101.596 119.296C101.012 119.296 100.499 119.163 100.056 118.898C99.6126 118.633 99.266 118.256 99.016 117.767C98.7698 117.278 98.6448 116.693 98.641 116.011V110.455H101.061V115.58C101.065 116.095 101.204 116.502 101.476 116.801C101.749 117.1 102.115 117.25 102.573 117.25C102.865 117.25 103.137 117.184 103.391 117.051C103.645 116.915 103.849 116.714 104.005 116.449C104.164 116.184 104.241 115.856 104.238 115.466ZM111.634 119.324C110.971 119.324 110.371 119.153 109.833 118.813C109.299 118.468 108.875 117.962 108.56 117.296C108.25 116.625 108.094 115.803 108.094 114.83C108.094 113.83 108.255 112.998 108.577 112.335C108.899 111.669 109.327 111.171 109.861 110.841C110.399 110.508 110.988 110.341 111.628 110.341C112.117 110.341 112.524 110.424 112.85 110.591C113.18 110.754 113.445 110.958 113.645 111.205C113.85 111.447 114.005 111.686 114.111 111.921H114.185V107.546H116.6V119.182H114.214V117.784H114.111C113.998 118.027 113.837 118.267 113.628 118.506C113.424 118.741 113.157 118.936 112.827 119.091C112.501 119.246 112.104 119.324 111.634 119.324ZM112.401 117.398C112.791 117.398 113.121 117.292 113.39 117.08C113.662 116.864 113.871 116.563 114.015 116.176C114.162 115.79 114.236 115.337 114.236 114.818C114.236 114.299 114.164 113.849 114.02 113.466C113.876 113.083 113.668 112.788 113.395 112.58C113.123 112.371 112.791 112.267 112.401 112.267C112.003 112.267 111.668 112.375 111.395 112.591C111.123 112.807 110.916 113.106 110.776 113.489C110.636 113.871 110.566 114.314 110.566 114.818C110.566 115.326 110.636 115.775 110.776 116.165C110.92 116.551 111.126 116.854 111.395 117.074C111.668 117.29 112.003 117.398 112.401 117.398ZM123.107 110.455V112.273H117.721V110.455H123.107ZM118.954 119.182V109.824C118.954 109.191 119.077 108.667 119.323 108.25C119.573 107.833 119.914 107.521 120.346 107.313C120.778 107.104 121.268 107 121.817 107C122.189 107 122.528 107.028 122.834 107.085C123.145 107.142 123.376 107.193 123.528 107.239L123.096 109.057C123.001 109.027 122.884 108.998 122.744 108.972C122.607 108.945 122.467 108.932 122.323 108.932C121.967 108.932 121.719 109.015 121.579 109.182C121.439 109.345 121.369 109.574 121.369 109.869V119.182H118.954ZM126.83 107.546V119.182H124.41V107.546H126.83ZM131.082 119.347C130.525 119.347 130.029 119.25 129.593 119.057C129.158 118.86 128.813 118.57 128.559 118.188C128.309 117.801 128.184 117.32 128.184 116.744C128.184 116.26 128.273 115.852 128.451 115.523C128.629 115.193 128.872 114.928 129.179 114.727C129.485 114.527 129.834 114.375 130.224 114.273C130.618 114.171 131.031 114.099 131.463 114.057C131.97 114.004 132.379 113.955 132.69 113.909C133 113.86 133.226 113.788 133.366 113.693C133.506 113.599 133.576 113.458 133.576 113.273V113.239C133.576 112.879 133.463 112.6 133.235 112.403C133.012 112.207 132.694 112.108 132.281 112.108C131.845 112.108 131.499 112.205 131.241 112.398C130.983 112.587 130.813 112.826 130.73 113.114L128.491 112.932C128.605 112.402 128.828 111.943 129.161 111.557C129.495 111.167 129.925 110.867 130.451 110.659C130.982 110.447 131.595 110.341 132.292 110.341C132.777 110.341 133.241 110.398 133.684 110.511C134.131 110.625 134.527 110.801 134.872 111.04C135.22 111.278 135.495 111.585 135.696 111.96C135.896 112.332 135.997 112.777 135.997 113.296V119.182H133.701V117.972H133.633C133.493 118.244 133.305 118.485 133.071 118.693C132.836 118.898 132.554 119.059 132.224 119.176C131.894 119.29 131.514 119.347 131.082 119.347ZM131.775 117.676C132.131 117.676 132.446 117.606 132.718 117.466C132.991 117.322 133.205 117.129 133.36 116.886C133.516 116.644 133.593 116.369 133.593 116.063V115.136C133.518 115.186 133.413 115.231 133.281 115.273C133.152 115.311 133.006 115.347 132.843 115.381C132.68 115.411 132.518 115.439 132.355 115.466C132.192 115.489 132.044 115.51 131.911 115.528C131.627 115.57 131.379 115.636 131.167 115.727C130.955 115.818 130.79 115.941 130.673 116.097C130.555 116.248 130.497 116.438 130.497 116.665C130.497 116.994 130.616 117.246 130.855 117.421C131.097 117.591 131.404 117.676 131.775 117.676ZM137.699 119.182V110.455H140.045V111.977H140.136C140.295 111.436 140.562 111.027 140.937 110.75C141.312 110.47 141.744 110.33 142.233 110.33C142.354 110.33 142.485 110.337 142.625 110.352C142.765 110.367 142.888 110.388 142.994 110.415V112.563C142.88 112.528 142.723 112.498 142.522 112.472C142.322 112.445 142.138 112.432 141.971 112.432C141.615 112.432 141.297 112.51 141.017 112.665C140.74 112.816 140.521 113.028 140.358 113.301C140.199 113.574 140.119 113.888 140.119 114.244V119.182H137.699ZM147.64 119.352C146.743 119.352 145.97 119.171 145.322 118.807C144.678 118.439 144.182 117.921 143.834 117.25C143.485 116.576 143.311 115.778 143.311 114.858C143.311 113.96 143.485 113.172 143.834 112.494C144.182 111.816 144.673 111.288 145.305 110.909C145.942 110.53 146.688 110.341 147.544 110.341C148.12 110.341 148.656 110.434 149.152 110.619C149.652 110.801 150.087 111.076 150.459 111.443C150.834 111.811 151.125 112.273 151.334 112.83C151.542 113.383 151.646 114.03 151.646 114.773V115.438H144.277V113.938H149.368C149.368 113.589 149.292 113.28 149.14 113.011C148.989 112.742 148.779 112.532 148.51 112.381C148.245 112.225 147.936 112.148 147.584 112.148C147.216 112.148 146.89 112.233 146.606 112.403C146.326 112.57 146.106 112.796 145.947 113.08C145.788 113.36 145.707 113.672 145.703 114.017V115.443C145.703 115.875 145.782 116.248 145.942 116.563C146.104 116.877 146.334 117.119 146.629 117.29C146.925 117.46 147.275 117.546 147.68 117.546C147.949 117.546 148.195 117.508 148.419 117.432C148.642 117.356 148.834 117.242 148.993 117.091C149.152 116.939 149.273 116.754 149.356 116.534L151.595 116.682C151.481 117.22 151.248 117.689 150.896 118.091C150.548 118.489 150.097 118.799 149.544 119.023C148.995 119.242 148.36 119.352 147.64 119.352Z" fill="#222222"/>
<line x1="208" y1="493" x2="208" y2="553" stroke="#757575" stroke-width="2"/>
<rect x="300" y="457" width="64" height="28" fill="white"/>
<path d="M316.633 475V463.364H319.093V472.972H324.082V475H316.633ZM327.837 475H325.201L329.218 463.364H332.388L336.4 475H333.763L330.849 466.023H330.758L327.837 475ZM327.673 470.426H333.9V472.347H327.673V470.426ZM347.357 463.364V475H345.232L340.17 467.676H340.085V475H337.624V463.364H339.784L344.806 470.682H344.909V463.364H347.357Z" fill="#222222"/>
<rect x="540" y="457" width="64" height="28" fill="white"/>
<path d="M556.633 475V463.364H559.093V472.972H564.082V475H556.633ZM567.837 475H565.201L569.218 463.364H572.388L576.4 475H573.763L570.849 466.023H570.758L567.837 475ZM567.673 470.426H573.9V472.347H567.673V470.426ZM587.357 463.364V475H585.232L580.17 467.676H580.085V475H577.624V463.364H579.784L584.806 470.682H584.909V463.364H587.357Z" fill="#222222"/>
<rect x="300" y="457" width="64" height="28" fill="white"/>
<path d="M316.633 475V463.364H319.093V472.972H324.082V475H316.633ZM327.837 475H325.201L329.218 463.364H332.388L336.4 475H333.763L330.849 466.023H330.758L327.837 475ZM327.673 470.426H333.9V472.347H327.673V470.426ZM347.357 463.364V475H345.232L340.17 467.676H340.085V475H337.624V463.364H339.784L344.806 470.682H344.909V463.364H347.357Z" fill="#222222"/>
<path d="M145.033 630H142.396L146.413 618.364H149.584L153.595 630H150.959L148.044 621.023H147.953L145.033 630ZM144.868 625.426H151.095V627.347H144.868V625.426Z" fill="#222222"/>
<path d="M383.722 630V618.364H388.381C389.237 618.364 389.951 618.491 390.523 618.744C391.095 618.998 391.525 619.35 391.813 619.801C392.101 620.248 392.245 620.763 392.245 621.347C392.245 621.801 392.154 622.201 391.972 622.545C391.79 622.886 391.54 623.167 391.222 623.386C390.908 623.602 390.548 623.756 390.143 623.847V623.96C390.586 623.979 391.001 624.104 391.387 624.335C391.777 624.566 392.094 624.89 392.336 625.307C392.578 625.72 392.7 626.212 392.7 626.784C392.7 627.402 392.546 627.953 392.239 628.438C391.936 628.919 391.487 629.299 390.893 629.58C390.298 629.86 389.565 630 388.694 630H383.722ZM386.183 627.989H388.188C388.874 627.989 389.374 627.858 389.688 627.597C390.003 627.331 390.16 626.979 390.16 626.54C390.16 626.218 390.082 625.934 389.927 625.688C389.772 625.441 389.55 625.248 389.262 625.108C388.978 624.968 388.639 624.898 388.245 624.898H386.183V627.989ZM386.183 623.233H388.006C388.344 623.233 388.643 623.174 388.904 623.057C389.169 622.936 389.378 622.765 389.529 622.545C389.684 622.326 389.762 622.062 389.762 621.756C389.762 621.335 389.612 620.996 389.313 620.739C389.018 620.481 388.597 620.352 388.052 620.352H386.183V623.233Z" fill="#222222"/>
<path d="M633.263 622.438H630.774C630.729 622.116 630.636 621.83 630.496 621.58C630.356 621.326 630.176 621.11 629.956 620.932C629.736 620.754 629.482 620.617 629.195 620.523C628.911 620.428 628.602 620.381 628.268 620.381C627.666 620.381 627.142 620.53 626.695 620.83C626.248 621.125 625.901 621.557 625.655 622.125C625.409 622.689 625.286 623.375 625.286 624.182C625.286 625.011 625.409 625.708 625.655 626.273C625.905 626.837 626.253 627.263 626.7 627.551C627.147 627.839 627.664 627.983 628.251 627.983C628.581 627.983 628.886 627.939 629.166 627.852C629.45 627.765 629.702 627.638 629.922 627.472C630.142 627.301 630.323 627.095 630.467 626.852C630.615 626.61 630.717 626.333 630.774 626.023L633.263 626.034C633.198 626.568 633.037 627.083 632.78 627.58C632.526 628.072 632.183 628.513 631.751 628.903C631.323 629.29 630.812 629.597 630.217 629.824C629.626 630.047 628.958 630.159 628.212 630.159C627.174 630.159 626.246 629.924 625.428 629.455C624.613 628.985 623.969 628.305 623.496 627.415C623.026 626.525 622.791 625.447 622.791 624.182C622.791 622.913 623.03 621.833 623.507 620.943C623.984 620.053 624.632 619.375 625.45 618.909C626.268 618.439 627.189 618.205 628.212 618.205C628.886 618.205 629.511 618.299 630.087 618.489C630.666 618.678 631.179 618.955 631.626 619.318C632.073 619.678 632.437 620.119 632.717 620.642C633.001 621.165 633.183 621.763 633.263 622.438Z" fill="#222222"/>
<circle cx="208" cy="462" r="31" fill="white" stroke="#F6821F" stroke-width="2"/>
<path d="M234 460H218.09L232.76 453.9L231.23 450.2L216.5 456.28L227.77 445L224.94 442.17L213.72 453.4L219.82 438.75L216.12 437.21L210 451.93V436H206V451.86L200 437.19L196.3 438.72L202.38 453.45L191.06 442.18L188.23 445L199.45 456.23L184.8 450.14L183.26 453.83L198 460H182V464H197.91L183.24 470L184.77 473.7L199.5 467.62L188.23 478.89L191.06 481.72L202.28 470.5L196.18 485.15L199.88 486.69L206 472V487.91H210V472L216 486.67L219.7 485.15L213.67 470.45L224.94 481.72L227.77 478.89L216.55 467.67L231.2 473.77L232.74 470.07L218 464H234V460ZM218 460V464L216.48 467.68L213.67 470.49L210 471.94H206L202.33 470.42L199.52 467.61L198 463.93V460L199.52 456.32L202.33 453.51L206 452H210L213.67 453.52L216.48 456.33L218 460Z" fill="#F6821F"/>
<rect x="197" y="219" width="22" height="5" fill="white"/>
<path d="M208.707 209.293C208.317 208.902 207.683 208.902 207.293 209.293L200.929 215.657C200.538 216.047 200.538 216.681 200.929 217.071C201.319 217.462 201.953 217.462 202.343 217.071L208 211.414L213.657 217.071C214.047 217.462 214.681 217.462 215.071 217.071C215.462 216.681 215.462 216.047 215.071 215.657L208.707 209.293ZM207.293 421.707C207.683 422.098 208.317 422.098 208.707 421.707L215.071 415.343C215.462 414.953 215.462 414.319 215.071 413.929C214.681 413.538 214.047 413.538 213.657 413.929L208 419.586L202.343 413.929C201.953 413.538 201.319 413.538 200.929 413.929C200.538 414.319 200.538 414.953 200.929 415.343L207.293 421.707ZM207 210L207 421L209 421L209 210L207 210Z" fill="#757575"/>
<rect x="460" y="223" width="234" height="24" transform="rotate(90 460 223)" fill="#E2F5FA" stroke="#F6821F" stroke-width="2"/>
<circle cx="448" cy="462" r="31" fill="white" stroke="#F6821F" stroke-width="2"/>
<path d="M474 460H458.09L472.76 453.9L471.23 450.2L456.5 456.28L467.77 445L464.94 442.17L453.72 453.4L459.82 438.75L456.12 437.21L450 451.93V436H446V451.86L440 437.19L436.3 438.72L442.38 453.45L431.06 442.18L428.23 445L439.45 456.23L424.8 450.14L423.26 453.83L438 460H422V464H437.91L423.24 470L424.77 473.7L439.5 467.62L428.23 478.89L431.06 481.72L442.28 470.5L436.18 485.15L439.88 486.69L446 472V487.91H450V472L456 486.67L459.7 485.15L453.67 470.45L464.94 481.72L467.77 478.89L456.55 467.67L471.2 473.77L472.74 470.07L458 464H474V460ZM458 460V464L456.48 467.68L453.67 470.49L450 471.94H446L442.33 470.42L439.52 467.61L438 463.93V460L439.52 456.32L442.33 453.51L446 452H450L453.67 453.52L456.48 456.33L458 460Z" fill="#F6821F"/>
<rect x="700" y="223" width="234" height="24" transform="rotate(90 700 223)" fill="#E2F5FA" stroke="#F6821F" stroke-width="2"/>
<circle cx="688" cy="517" r="19" fill="white" stroke="#F6821F" stroke-width="2"/>
<path d="M704.25 515.75H694.306L703.475 511.938L702.519 509.625L693.312 513.425L700.356 506.375L698.587 504.606L691.575 511.625L695.388 502.469L693.075 501.506L689.25 510.706V500.75H686.75V510.663L683 501.494L680.688 502.45L684.487 511.656L677.413 504.613L675.644 506.375L682.656 513.394L673.5 509.587L672.538 511.894L681.75 515.75H671.75V518.25H681.694L672.525 522L673.481 524.312L682.688 520.512L675.644 527.556L677.413 529.325L684.425 522.312L680.613 531.469L682.925 532.431L686.75 523.25V533.194H689.25V523.25L693 532.419L695.312 531.469L691.544 522.281L698.587 529.325L700.356 527.556L693.344 520.544L702.5 524.356L703.463 522.044L694.25 518.25H704.25V515.75ZM694.25 515.75V518.25L693.3 520.55L691.544 522.306L689.25 523.212H686.75L684.456 522.262L682.7 520.506L681.75 518.206V515.75L682.7 513.45L684.456 511.694L686.75 510.75H689.25L691.544 511.7L693.3 513.456L694.25 515.75Z" fill="#F6821F"/>
<circle cx="48" cy="52" r="19" fill="white" stroke="#F6821F" stroke-width="2"/>
<path d="M64.25 50.75H54.3062L63.475 46.9375L62.5187 44.625L53.3125 48.425L60.3563 41.375L58.5875 39.6063L51.575 46.625L55.3875 37.4688L53.075 36.5063L49.25 45.7063V35.75H46.75V45.6625L43 36.4938L40.6875 37.45L44.4875 46.6562L37.4125 39.6125L35.6437 41.375L42.6562 48.3937L33.5 44.5875L32.5375 46.8938L41.75 50.75H31.75V53.25H41.6938L32.525 57L33.4813 59.3125L42.6875 55.5125L35.6437 62.5562L37.4125 64.325L44.425 57.3125L40.6125 66.4688L42.925 67.4312L46.75 58.25V68.1937H49.25V58.25L53 67.4187L55.3125 66.4688L51.5437 57.2812L58.5875 64.325L60.3563 62.5562L53.3438 55.5437L62.5 59.3563L63.4625 57.0438L54.25 53.25H64.25V50.75ZM54.25 50.75V53.25L53.3 55.55L51.5437 57.3063L49.25 58.2125H46.75L44.4563 57.2625L42.7 55.5063L41.75 53.2062V50.75L42.7 48.45L44.4563 46.6938L46.75 45.75H49.25L51.5437 46.7L53.3 48.4563L54.25 50.75Z" fill="#F6821F"/>
<rect x="437" y="219" width="22" height="5" fill="white"/>
<rect x="677" y="219" width="22" height="5" fill="white"/>
<path d="M448.707 209.293C448.317 208.902 447.683 208.902 447.293 209.293L440.929 215.657C440.538 216.047 440.538 216.681 440.929 217.071C441.319 217.462 441.953 217.462 442.343 217.071L448 211.414L453.657 217.071C454.047 217.462 454.681 217.462 455.071 217.071C455.462 216.681 455.462 216.047 455.071 215.657L448.707 209.293ZM447.293 421.707C447.683 422.098 448.317 422.098 448.707 421.707L455.071 415.343C455.462 414.953 455.462 414.319 455.071 413.929C454.681 413.538 454.047 413.538 453.657 413.929L448 419.586L442.343 413.929C441.953 413.538 441.319 413.538 440.929 413.929C440.538 414.319 440.538 414.953 440.929 415.343L447.293 421.707ZM447 210L447 421L449 421L449 210L447 210Z" fill="#757575"/>
<path d="M688.707 209.293C688.317 208.902 687.683 208.902 687.293 209.293L680.929 215.657C680.538 216.047 680.538 216.681 680.929 217.071C681.319 217.462 681.953 217.462 682.343 217.071L688 211.414L693.657 217.071C694.047 217.462 694.681 217.462 695.071 217.071C695.462 216.681 695.462 216.047 695.071 215.657L688.707 209.293ZM687.293 421.707C687.683 422.098 688.317 422.098 688.707 421.707L695.071 415.343C695.462 414.953 695.462 414.319 695.071 413.929C694.681 413.538 694.047 413.538 693.657 413.929L688 419.586L682.343 413.929C681.953 413.538 681.319 413.538 680.929 413.929C680.538 414.319 680.538 414.953 680.929 415.343L687.293 421.707ZM687 210L687 421L689 421L689 210L687 210Z" fill="#757575"/>
<circle cx="687.5" cy="458.5" r="25.3571" fill="white"/>
<circle cx="687.5" cy="458.5" r="25.7069" fill="white"/>
<path d="M687.5 429.656C681.795 429.656 676.219 431.348 671.475 434.517C666.732 437.687 663.035 442.191 660.852 447.462C658.669 452.732 658.098 458.532 659.21 464.127C660.323 469.722 663.071 474.862 667.104 478.896C671.138 482.929 676.278 485.677 681.873 486.79C687.468 487.902 693.268 487.331 698.538 485.148C703.809 482.965 708.313 479.268 711.483 474.525C714.652 469.781 716.344 464.205 716.344 458.5C716.315 450.859 713.266 443.54 707.863 438.137C702.46 432.734 695.141 429.685 687.5 429.656ZM687.5 482.906C682.673 482.906 677.954 481.475 673.941 478.793C669.927 476.111 666.799 472.3 664.952 467.84C663.104 463.38 662.621 458.473 663.563 453.739C664.504 449.004 666.829 444.655 670.242 441.242C673.655 437.829 678.004 435.504 682.739 434.563C687.473 433.621 692.38 434.104 696.84 435.952C701.3 437.799 705.111 440.927 707.793 444.941C710.475 448.954 711.906 453.673 711.906 458.5C711.877 464.964 709.296 471.155 704.726 475.726C700.155 480.296 693.964 482.877 687.5 482.906Z" fill="#0055DC"/>
<path d="M684.616 461.606V461.495H684.505L682.952 459.942L675.408 467.708V463.27H671.858V474.364H682.952V470.814H678.514L686.169 463.159L684.616 461.606Z" fill="#0055DC"/>
<path d="M691.827 457.391L699.481 449.514V453.952H703.031V442.858H691.937V446.408H696.375L688.609 454.284L691.827 457.391Z" fill="#0055DC"/>
<path d="M695.377 463.381H699.703V459.831H688.609V470.925H692.159V466.487L701.145 475.252L704.252 472.145L695.377 463.381Z" fill="#0055DC"/>
<path d="M682.619 450.623L673.855 441.748L670.748 444.855L679.512 453.841H675.075V457.391H686.169V446.297H682.619V450.623Z" fill="#0055DC"/>
<defs>
<clipPath id="clip0_0_1">
<rect width="32" height="32" fill="white" transform="translate(32 251)"/>
</clipPath>
<clipPath id="clip1_0_1">
<rect width="32" height="32" fill="white" transform="translate(32 97)"/>
</clipPath>
</defs>
</svg>
