<svg width="524" height="617" viewBox="0 0 524 617" fill="none" xmlns="http://www.w3.org/2000/svg">
<rect width="524" height="617" fill="white"/>
<rect x="176" y="136" width="162" height="24" transform="rotate(90 176 136)" fill="#E2F5FA" stroke="#F6821F" stroke-width="2"/>
<rect x="30" y="44" width="348" height="93" fill="white" stroke="#FF8200" stroke-width="2" stroke-dasharray="10 10"/>
<rect x="30" y="198" width="190" height="116" stroke="#6ECCE5" stroke-width="2" stroke-dasharray="10 10"/>
<rect x="233" y="198" width="145" height="116" stroke="#757575" stroke-width="2" stroke-dasharray="10 10"/>
<rect x="30" y="467" width="357" height="129" fill="white" stroke="#0055DC" stroke-width="2"/>
<line x1="182" y1="525" x2="182" y2="548" stroke="#757575" stroke-width="2"/>
<line x1="122" y1="525" x2="122" y2="548" stroke="#757575" stroke-width="2"/>
<line x1="152" y1="550" x2="152" y2="573" stroke="#757575" stroke-width="2"/>
<line x1="212" y1="550" x2="212" y2="573" stroke="#757575" stroke-width="2"/>
<line x1="272" y1="550" x2="272" y2="573" stroke="#757575" stroke-width="2"/>
<line x1="332" y1="550" x2="332" y2="573" stroke="#757575" stroke-width="2"/>
<line x1="290" y1="233" x2="290" y2="256" stroke="#757575" stroke-width="2"/>
<line x1="319" y1="257" x2="319" y2="280" stroke="#757575" stroke-width="2"/>
<line x1="269" y1="257" x2="269" y2="280" stroke="#757575" stroke-width="2"/>
<line x1="350" y1="233" x2="350" y2="256" stroke="#757575" stroke-width="2"/>
<line x1="353" y1="549" x2="104" y2="549" stroke="#757575" stroke-width="2"/>
<line x1="361" y1="257" x2="251" y2="257" stroke="#757575" stroke-width="2"/>
<rect x="45" y="455" width="64" height="28" fill="white"/>
<path d="M56.6327 477V465.364H59.0929V474.972H64.0815V477H56.6327ZM67.8374 477H65.201L69.218 465.364H72.3885L76.3999 477H73.7635L70.8487 468.023H70.7578L67.8374 477ZM67.6726 472.426H73.8999V474.347H67.6726V472.426ZM87.3574 465.364V477H85.2324L80.1699 469.676H80.0847V477H77.6244V465.364H79.7835L84.8062 472.682H84.9085V465.364H87.3574Z" fill="#222222"/>
<path d="M106.984 289.364V301H104.523V289.364H106.984ZM115.144 292.71C115.099 292.252 114.904 291.896 114.559 291.642C114.214 291.388 113.746 291.261 113.156 291.261C112.754 291.261 112.415 291.318 112.138 291.432C111.862 291.542 111.65 291.695 111.502 291.892C111.358 292.089 111.286 292.312 111.286 292.562C111.279 292.771 111.322 292.953 111.417 293.108C111.515 293.263 111.65 293.398 111.82 293.511C111.991 293.621 112.188 293.718 112.411 293.801C112.635 293.881 112.873 293.949 113.127 294.006L114.173 294.256C114.68 294.369 115.146 294.521 115.57 294.71C115.995 294.9 116.362 295.133 116.673 295.409C116.983 295.686 117.224 296.011 117.394 296.386C117.568 296.761 117.657 297.191 117.661 297.676C117.657 298.388 117.476 299.006 117.116 299.528C116.76 300.047 116.245 300.451 115.57 300.739C114.9 301.023 114.091 301.165 113.144 301.165C112.205 301.165 111.387 301.021 110.69 300.733C109.996 300.445 109.455 300.019 109.065 299.455C108.678 298.886 108.476 298.184 108.457 297.347H110.837C110.864 297.737 110.976 298.062 111.173 298.324C111.373 298.581 111.64 298.777 111.974 298.909C112.311 299.038 112.692 299.102 113.116 299.102C113.532 299.102 113.894 299.042 114.201 298.92C114.512 298.799 114.752 298.631 114.923 298.415C115.093 298.199 115.178 297.951 115.178 297.67C115.178 297.409 115.101 297.189 114.945 297.011C114.794 296.833 114.57 296.682 114.275 296.557C113.983 296.432 113.625 296.318 113.201 296.216L111.934 295.898C110.953 295.659 110.178 295.286 109.61 294.778C109.042 294.271 108.76 293.587 108.763 292.727C108.76 292.023 108.947 291.407 109.326 290.881C109.709 290.354 110.233 289.943 110.9 289.648C111.567 289.352 112.324 289.205 113.173 289.205C114.036 289.205 114.79 289.352 115.434 289.648C116.082 289.943 116.585 290.354 116.945 290.881C117.305 291.407 117.491 292.017 117.502 292.71H115.144ZM119.14 301V289.364H123.731C124.614 289.364 125.365 289.532 125.987 289.869C126.608 290.203 127.081 290.667 127.407 291.261C127.737 291.852 127.901 292.534 127.901 293.307C127.901 294.08 127.735 294.761 127.401 295.352C127.068 295.943 126.585 296.403 125.953 296.733C125.324 297.062 124.562 297.227 123.668 297.227H120.742V295.256H123.271C123.744 295.256 124.134 295.174 124.441 295.011C124.752 294.845 124.983 294.616 125.134 294.324C125.29 294.028 125.367 293.689 125.367 293.307C125.367 292.92 125.29 292.583 125.134 292.295C124.983 292.004 124.752 291.778 124.441 291.619C124.131 291.456 123.737 291.375 123.259 291.375H121.6V301H119.14Z" fill="#222222"/>
<g clip-path="url(#clip0_0_1)">
<path d="M55.0305 190.65H36.109C34.2248 190.646 32.419 189.895 31.0867 188.563C29.7544 187.231 29.0041 185.425 29 183.541C29.0102 182.488 29.2479 181.451 29.6967 180.499C30.1454 179.547 30.7947 178.703 31.6 178.026C32.9476 176.886 34.6854 176.314 36.4465 176.431C37.2453 174.465 38.6701 172.818 40.5002 171.744C42.3303 170.67 44.4635 170.229 46.5692 170.491C48.675 170.752 50.6359 171.7 52.148 173.189C53.66 174.678 54.6389 176.624 54.933 178.725C56.39 178.66 57.8179 179.146 58.933 180.086C59.8543 180.888 60.5098 181.952 60.8124 183.136C61.115 184.319 61.0505 185.567 60.6273 186.713C60.2042 187.859 59.4424 188.849 58.4432 189.552C57.444 190.255 56.2547 190.638 55.033 190.649L55.0305 190.65ZM35.9965 178.416C34.8568 178.413 33.7534 178.817 32.886 179.557C32.3031 180.046 31.8328 180.655 31.5073 181.342C31.1818 182.03 31.0087 182.78 31 183.541C31.0021 184.892 31.539 186.189 32.4936 187.146C33.4481 188.103 34.7426 188.644 36.0945 188.65H55.03C56.0827 188.649 57.0918 188.23 57.8361 187.485C58.5804 186.741 58.9989 185.732 59 184.679C59.005 184.1 58.8859 183.526 58.6506 182.996C58.4153 182.466 58.0694 181.993 57.636 181.609C57.1558 181.226 56.5965 180.955 55.9986 180.815C55.4007 180.675 54.7791 180.67 54.179 180.8L53.052 180.982L53.0205 179.841C52.9684 178.03 52.2753 176.298 51.0646 174.951C49.854 173.604 48.2045 172.731 46.4102 172.488C44.6159 172.244 42.7932 172.645 41.2672 173.62C39.7411 174.595 38.6107 176.08 38.0775 177.81L37.8185 178.654L36.95 178.5C36.6352 178.445 36.3162 178.416 35.9965 178.416Z" fill="#6ECCE5"/>
</g>
<path d="M72.4716 175.364V187H70.0114V175.364H72.4716ZM76.6947 181.955V187H74.2743V178.273H76.5811V179.812H76.6834C76.8766 179.305 77.2004 178.903 77.655 178.608C78.1095 178.309 78.6606 178.159 79.3084 178.159C79.9144 178.159 80.4428 178.292 80.8936 178.557C81.3444 178.822 81.6947 179.201 81.9447 179.693C82.1947 180.182 82.3197 180.765 82.3197 181.443V187H79.8993V181.875C79.9031 181.341 79.7667 180.924 79.4902 180.625C79.2137 180.322 78.833 180.17 78.3481 180.17C78.0224 180.17 77.7345 180.241 77.4845 180.381C77.2383 180.521 77.0451 180.725 76.905 180.994C76.7686 181.259 76.6985 181.58 76.6947 181.955ZM88.6935 178.273V180.091H83.4378V178.273H88.6935ZM84.631 176.182H87.0514V184.318C87.0514 184.542 87.0855 184.716 87.1537 184.841C87.2219 184.962 87.3166 185.047 87.4378 185.097C87.5628 185.146 87.7067 185.17 87.8696 185.17C87.9832 185.17 88.0969 185.161 88.2105 185.142C88.3241 185.119 88.4113 185.102 88.4719 185.091L88.8525 186.892C88.7313 186.93 88.5609 186.973 88.3412 187.023C88.1215 187.076 87.8544 187.108 87.54 187.119C86.9567 187.142 86.4453 187.064 86.006 186.886C85.5703 186.708 85.2313 186.432 84.9889 186.057C84.7465 185.682 84.6272 185.208 84.631 184.636V176.182ZM93.9777 187.17C93.08 187.17 92.3072 186.989 91.6595 186.625C91.0156 186.258 90.5193 185.739 90.1709 185.068C89.8224 184.394 89.6481 183.597 89.6481 182.676C89.6481 181.778 89.8224 180.991 90.1709 180.312C90.5193 179.634 91.0099 179.106 91.6425 178.727C92.2788 178.348 93.025 178.159 93.8811 178.159C94.4568 178.159 94.9928 178.252 95.489 178.438C95.989 178.619 96.4247 178.894 96.7959 179.261C97.1709 179.629 97.4625 180.091 97.6709 180.648C97.8792 181.201 97.9834 181.848 97.9834 182.591V183.256H90.614V181.756H95.705C95.705 181.407 95.6292 181.098 95.4777 180.83C95.3262 180.561 95.1159 180.35 94.847 180.199C94.5818 180.044 94.2731 179.966 93.9209 179.966C93.5534 179.966 93.2277 180.051 92.9436 180.222C92.6633 180.388 92.4436 180.614 92.2845 180.898C92.1254 181.178 92.044 181.491 92.0402 181.835V183.261C92.0402 183.693 92.1197 184.066 92.2788 184.381C92.4417 184.695 92.6709 184.938 92.9663 185.108C93.2618 185.278 93.6122 185.364 94.0175 185.364C94.2864 185.364 94.5326 185.326 94.7561 185.25C94.9796 185.174 95.1709 185.061 95.33 184.909C95.489 184.758 95.6103 184.572 95.6936 184.352L97.9322 184.5C97.8186 185.038 97.5856 185.508 97.2334 185.909C96.8849 186.307 96.4341 186.617 95.8811 186.841C95.3318 187.061 94.6974 187.17 93.9777 187.17ZM99.3869 187V178.273H101.733V179.795H101.824C101.983 179.254 102.251 178.845 102.626 178.568C103.001 178.288 103.432 178.148 103.921 178.148C104.042 178.148 104.173 178.155 104.313 178.17C104.453 178.186 104.576 178.206 104.682 178.233V180.381C104.569 180.347 104.412 180.316 104.211 180.29C104.01 180.263 103.826 180.25 103.66 180.25C103.304 180.25 102.985 180.328 102.705 180.483C102.429 180.634 102.209 180.847 102.046 181.119C101.887 181.392 101.807 181.706 101.807 182.062V187H99.3869ZM108.178 181.955V187H105.758V178.273H108.065V179.812H108.167C108.36 179.305 108.684 178.903 109.138 178.608C109.593 178.309 110.144 178.159 110.792 178.159C111.398 178.159 111.926 178.292 112.377 178.557C112.828 178.822 113.178 179.201 113.428 179.693C113.678 180.182 113.803 180.765 113.803 181.443V187H111.383V181.875C111.387 181.341 111.25 180.924 110.974 180.625C110.697 180.322 110.316 180.17 109.832 180.17C109.506 180.17 109.218 180.241 108.968 180.381C108.722 180.521 108.529 180.725 108.388 180.994C108.252 181.259 108.182 181.58 108.178 181.955ZM119.512 187.17C118.614 187.17 117.842 186.989 117.194 186.625C116.55 186.258 116.054 185.739 115.705 185.068C115.357 184.394 115.183 183.597 115.183 182.676C115.183 181.778 115.357 180.991 115.705 180.312C116.054 179.634 116.544 179.106 117.177 178.727C117.813 178.348 118.56 178.159 119.416 178.159C119.991 178.159 120.527 178.252 121.024 178.438C121.524 178.619 121.959 178.894 122.33 179.261C122.705 179.629 122.997 180.091 123.205 180.648C123.414 181.201 123.518 181.848 123.518 182.591V183.256H116.149V181.756H121.239C121.239 181.407 121.164 181.098 121.012 180.83C120.861 180.561 120.65 180.35 120.382 180.199C120.116 180.044 119.808 179.966 119.455 179.966C119.088 179.966 118.762 180.051 118.478 180.222C118.198 180.388 117.978 180.614 117.819 180.898C117.66 181.178 117.578 181.491 117.575 181.835V183.261C117.575 183.693 117.654 184.066 117.813 184.381C117.976 184.695 118.205 184.938 118.501 185.108C118.796 185.278 119.147 185.364 119.552 185.364C119.821 185.364 120.067 185.326 120.291 185.25C120.514 185.174 120.705 185.061 120.864 184.909C121.024 184.758 121.145 184.572 121.228 184.352L123.467 184.5C123.353 185.038 123.12 185.508 122.768 185.909C122.419 186.307 121.969 186.617 121.416 186.841C120.866 187.061 120.232 187.17 119.512 187.17ZM129.563 178.273V180.091H124.308V178.273H129.563ZM125.501 176.182H127.921V184.318C127.921 184.542 127.956 184.716 128.024 184.841C128.092 184.962 128.187 185.047 128.308 185.097C128.433 185.146 128.577 185.17 128.74 185.17C128.853 185.17 128.967 185.161 129.081 185.142C129.194 185.119 129.281 185.102 129.342 185.091L129.723 186.892C129.601 186.93 129.431 186.973 129.211 187.023C128.991 187.076 128.724 187.108 128.41 187.119C127.827 187.142 127.315 187.064 126.876 186.886C126.44 186.708 126.101 186.432 125.859 186.057C125.616 185.682 125.497 185.208 125.501 184.636V176.182Z" fill="#222222"/>
<path d="M233.011 175.364H236.045L239.25 183.182H239.386L242.591 175.364H245.625V187H243.239V179.426H243.142L240.131 186.943H238.506L235.494 179.398H235.398V187H233.011V175.364ZM247.476 187V175.364H252.067C252.949 175.364 253.701 175.532 254.323 175.869C254.944 176.203 255.417 176.667 255.743 177.261C256.073 177.852 256.237 178.534 256.237 179.307C256.237 180.08 256.071 180.761 255.737 181.352C255.404 181.943 254.921 182.403 254.288 182.733C253.66 183.062 252.898 183.227 252.004 183.227H249.078V181.256H251.607C252.08 181.256 252.47 181.174 252.777 181.011C253.088 180.845 253.319 180.616 253.47 180.324C253.626 180.028 253.703 179.689 253.703 179.307C253.703 178.92 253.626 178.583 253.47 178.295C253.319 178.004 253.088 177.778 252.777 177.619C252.467 177.456 252.073 177.375 251.595 177.375H249.936V187H247.476ZM257.659 187V175.364H260.12V184.972H265.108V187H257.659ZM272.874 178.71C272.829 178.252 272.633 177.896 272.289 177.642C271.944 177.388 271.476 177.261 270.885 177.261C270.484 177.261 270.145 177.318 269.868 177.432C269.592 177.542 269.38 177.695 269.232 177.892C269.088 178.089 269.016 178.312 269.016 178.562C269.008 178.771 269.052 178.953 269.147 179.108C269.245 179.263 269.38 179.398 269.55 179.511C269.721 179.621 269.918 179.718 270.141 179.801C270.365 179.881 270.603 179.949 270.857 180.006L271.902 180.256C272.41 180.369 272.876 180.521 273.3 180.71C273.724 180.9 274.092 181.133 274.402 181.409C274.713 181.686 274.954 182.011 275.124 182.386C275.298 182.761 275.387 183.191 275.391 183.676C275.387 184.388 275.205 185.006 274.846 185.528C274.49 186.047 273.974 186.451 273.3 186.739C272.63 187.023 271.821 187.165 270.874 187.165C269.935 187.165 269.116 187.021 268.419 186.733C267.726 186.445 267.185 186.019 266.794 185.455C266.408 184.886 266.205 184.184 266.186 183.347H268.567C268.594 183.737 268.705 184.062 268.902 184.324C269.103 184.581 269.37 184.777 269.704 184.909C270.041 185.038 270.421 185.102 270.846 185.102C271.262 185.102 271.624 185.042 271.931 184.92C272.241 184.799 272.482 184.631 272.652 184.415C272.823 184.199 272.908 183.951 272.908 183.67C272.908 183.409 272.83 183.189 272.675 183.011C272.524 182.833 272.3 182.682 272.005 182.557C271.713 182.432 271.355 182.318 270.931 182.216L269.664 181.898C268.683 181.659 267.908 181.286 267.34 180.778C266.772 180.271 266.49 179.587 266.493 178.727C266.49 178.023 266.677 177.407 267.056 176.881C267.438 176.354 267.963 175.943 268.63 175.648C269.296 175.352 270.054 175.205 270.902 175.205C271.766 175.205 272.52 175.352 273.164 175.648C273.811 175.943 274.315 176.354 274.675 176.881C275.035 177.407 275.221 178.017 275.232 178.71H272.874ZM290.13 175.364V187H288.005L282.942 179.676H282.857V187H280.397V175.364H282.556L287.579 182.682H287.681V175.364H290.13ZM295.918 187.17C295.021 187.17 294.248 186.989 293.6 186.625C292.956 186.258 292.46 185.739 292.112 185.068C291.763 184.394 291.589 183.597 291.589 182.676C291.589 181.778 291.763 180.991 292.112 180.312C292.46 179.634 292.951 179.106 293.583 178.727C294.22 178.348 294.966 178.159 295.822 178.159C296.398 178.159 296.934 178.252 297.43 178.438C297.93 178.619 298.365 178.894 298.737 179.261C299.112 179.629 299.403 180.091 299.612 180.648C299.82 181.201 299.924 181.848 299.924 182.591V183.256H292.555V181.756H297.646C297.646 181.407 297.57 181.098 297.418 180.83C297.267 180.561 297.057 180.35 296.788 180.199C296.523 180.044 296.214 179.966 295.862 179.966C295.494 179.966 295.168 180.051 294.884 180.222C294.604 180.388 294.384 180.614 294.225 180.898C294.066 181.178 293.985 181.491 293.981 181.835V183.261C293.981 183.693 294.06 184.066 294.22 184.381C294.382 184.695 294.612 184.938 294.907 185.108C295.203 185.278 295.553 185.364 295.958 185.364C296.227 185.364 296.473 185.326 296.697 185.25C296.92 185.174 297.112 185.061 297.271 184.909C297.43 184.758 297.551 184.572 297.634 184.352L299.873 184.5C299.759 185.038 299.526 185.508 299.174 185.909C298.826 186.307 298.375 186.617 297.822 186.841C297.273 187.061 296.638 187.17 295.918 187.17ZM305.97 178.273V180.091H300.714V178.273H305.97ZM301.907 176.182H304.328V184.318C304.328 184.542 304.362 184.716 304.43 184.841C304.498 184.962 304.593 185.047 304.714 185.097C304.839 185.146 304.983 185.17 305.146 185.17C305.259 185.17 305.373 185.161 305.487 185.142C305.6 185.119 305.688 185.102 305.748 185.091L306.129 186.892C306.008 186.93 305.837 186.973 305.617 187.023C305.398 187.076 305.131 187.108 304.816 187.119C304.233 187.142 303.722 187.064 303.282 186.886C302.847 186.708 302.508 186.432 302.265 186.057C302.023 185.682 301.903 185.208 301.907 184.636V176.182ZM309.092 187L306.717 178.273H309.166L310.518 184.136H310.598L312.007 178.273H314.41L315.842 184.102H315.916L317.245 178.273H319.689L317.319 187H314.757L313.257 181.511H313.149L311.649 187H309.092ZM324.528 187.17C323.646 187.17 322.882 186.983 322.238 186.608C321.598 186.229 321.104 185.703 320.755 185.028C320.407 184.35 320.233 183.564 320.233 182.67C320.233 181.769 320.407 180.981 320.755 180.307C321.104 179.629 321.598 179.102 322.238 178.727C322.882 178.348 323.646 178.159 324.528 178.159C325.411 178.159 326.172 178.348 326.812 178.727C327.456 179.102 327.952 179.629 328.301 180.307C328.649 180.981 328.824 181.769 328.824 182.67C328.824 183.564 328.649 184.35 328.301 185.028C327.952 185.703 327.456 186.229 326.812 186.608C326.172 186.983 325.411 187.17 324.528 187.17ZM324.54 185.295C324.941 185.295 325.276 185.182 325.545 184.955C325.814 184.723 326.017 184.409 326.153 184.011C326.293 183.614 326.363 183.161 326.363 182.653C326.363 182.146 326.293 181.693 326.153 181.295C326.017 180.898 325.814 180.583 325.545 180.352C325.276 180.121 324.941 180.006 324.54 180.006C324.134 180.006 323.793 180.121 323.517 180.352C323.244 180.583 323.038 180.898 322.898 181.295C322.761 181.693 322.693 182.146 322.693 182.653C322.693 183.161 322.761 183.614 322.898 184.011C323.038 184.409 323.244 184.723 323.517 184.955C323.793 185.182 324.134 185.295 324.54 185.295ZM330.222 187V178.273H332.568V179.795H332.659C332.818 179.254 333.085 178.845 333.46 178.568C333.835 178.288 334.267 178.148 334.756 178.148C334.877 178.148 335.008 178.155 335.148 178.17C335.288 178.186 335.411 178.206 335.517 178.233V180.381C335.403 180.347 335.246 180.316 335.045 180.29C334.845 180.263 334.661 180.25 334.494 180.25C334.138 180.25 333.82 180.328 333.54 180.483C333.263 180.634 333.044 180.847 332.881 181.119C332.722 181.392 332.642 181.706 332.642 182.062V187H330.222ZM338.786 184.489L338.791 181.585H339.144L341.939 178.273H344.717L340.962 182.659H340.388L338.786 184.489ZM336.592 187V175.364H339.013V187H336.592ZM342.047 187L339.479 183.199L341.092 181.489L344.882 187H342.047Z" fill="#222222"/>
<path d="M389 447H385.409V435.364H389.159C390.288 435.364 391.254 435.597 392.057 436.062C392.86 436.525 393.475 437.189 393.903 438.057C394.331 438.92 394.545 439.955 394.545 441.159C394.545 442.371 394.33 443.415 393.898 444.29C393.466 445.161 392.837 445.831 392.011 446.301C391.186 446.767 390.182 447 389 447ZM386.818 445.75H388.909C389.871 445.75 390.669 445.564 391.301 445.193C391.934 444.822 392.405 444.294 392.716 443.608C393.027 442.922 393.182 442.106 393.182 441.159C393.182 440.22 393.028 439.411 392.722 438.733C392.415 438.051 391.956 437.528 391.347 437.165C390.737 436.797 389.977 436.614 389.068 436.614H386.818V445.75ZM400.21 447.182C399.369 447.182 398.644 446.996 398.034 446.625C397.428 446.25 396.96 445.727 396.631 445.057C396.305 444.383 396.142 443.598 396.142 442.705C396.142 441.811 396.305 441.023 396.631 440.341C396.96 439.655 397.419 439.121 398.006 438.739C398.597 438.352 399.286 438.159 400.074 438.159C400.529 438.159 400.977 438.235 401.421 438.386C401.864 438.538 402.267 438.784 402.631 439.125C402.994 439.462 403.284 439.909 403.5 440.466C403.716 441.023 403.824 441.708 403.824 442.523V443.091H397.097V441.932H402.46C402.46 441.439 402.362 441 402.165 440.614C401.972 440.227 401.695 439.922 401.335 439.699C400.979 439.475 400.559 439.364 400.074 439.364C399.54 439.364 399.078 439.496 398.688 439.761C398.301 440.023 398.004 440.364 397.796 440.784C397.587 441.205 397.483 441.655 397.483 442.136V442.909C397.483 443.568 397.597 444.127 397.824 444.585C398.055 445.04 398.375 445.386 398.784 445.625C399.193 445.86 399.669 445.977 400.21 445.977C400.563 445.977 400.881 445.928 401.165 445.83C401.453 445.727 401.701 445.576 401.909 445.375C402.118 445.17 402.279 444.917 402.392 444.614L403.688 444.977C403.551 445.417 403.322 445.803 403 446.136C402.678 446.466 402.28 446.723 401.807 446.909C401.333 447.091 400.801 447.182 400.21 447.182ZM409.574 438.273V439.409H404.87V438.273H409.574ZM406.279 447V437.068C406.279 436.568 406.396 436.152 406.631 435.818C406.866 435.485 407.171 435.235 407.546 435.068C407.921 434.902 408.317 434.818 408.733 434.818C409.063 434.818 409.332 434.845 409.54 434.898C409.748 434.951 409.904 435 410.006 435.045L409.62 436.205C409.551 436.182 409.457 436.153 409.336 436.119C409.218 436.085 409.063 436.068 408.87 436.068C408.426 436.068 408.106 436.18 407.909 436.403C407.716 436.627 407.62 436.955 407.62 437.386V447H406.279ZM413.596 447.205C413.043 447.205 412.541 447.1 412.09 446.892C411.639 446.68 411.281 446.375 411.016 445.977C410.751 445.576 410.618 445.091 410.618 444.523C410.618 444.023 410.717 443.617 410.914 443.307C411.111 442.992 411.374 442.746 411.704 442.568C412.033 442.39 412.397 442.258 412.794 442.17C413.196 442.08 413.599 442.008 414.005 441.955C414.535 441.886 414.965 441.835 415.294 441.801C415.628 441.763 415.87 441.701 416.022 441.614C416.177 441.527 416.255 441.375 416.255 441.159V441.114C416.255 440.553 416.101 440.117 415.794 439.807C415.491 439.496 415.031 439.341 414.414 439.341C413.774 439.341 413.272 439.481 412.908 439.761C412.544 440.042 412.289 440.341 412.141 440.659L410.868 440.205C411.096 439.674 411.399 439.261 411.777 438.966C412.16 438.667 412.577 438.458 413.027 438.341C413.482 438.22 413.929 438.159 414.368 438.159C414.649 438.159 414.971 438.193 415.334 438.261C415.702 438.326 416.056 438.46 416.397 438.665C416.741 438.869 417.027 439.178 417.255 439.591C417.482 440.004 417.596 440.557 417.596 441.25V447H416.255V445.818H416.186C416.096 446.008 415.944 446.21 415.732 446.426C415.52 446.642 415.238 446.826 414.885 446.977C414.533 447.129 414.103 447.205 413.596 447.205ZM413.8 446C414.33 446 414.777 445.896 415.141 445.688C415.508 445.479 415.785 445.21 415.971 444.881C416.16 444.551 416.255 444.205 416.255 443.841V442.614C416.198 442.682 416.073 442.744 415.88 442.801C415.69 442.854 415.471 442.902 415.221 442.943C414.974 442.981 414.734 443.015 414.499 443.045C414.268 443.072 414.08 443.095 413.936 443.114C413.588 443.159 413.262 443.233 412.959 443.335C412.66 443.434 412.418 443.583 412.232 443.784C412.05 443.981 411.959 444.25 411.959 444.591C411.959 445.057 412.132 445.409 412.476 445.648C412.825 445.883 413.266 446 413.8 446ZM425.367 443.432V438.273H426.708V447H425.367V445.523H425.276C425.072 445.966 424.753 446.343 424.322 446.653C423.89 446.96 423.344 447.114 422.685 447.114C422.14 447.114 421.655 446.994 421.231 446.756C420.806 446.513 420.473 446.15 420.231 445.665C419.988 445.176 419.867 444.561 419.867 443.818V438.273H421.208V443.727C421.208 444.364 421.386 444.871 421.742 445.25C422.102 445.629 422.56 445.818 423.117 445.818C423.45 445.818 423.789 445.733 424.134 445.562C424.483 445.392 424.774 445.131 425.009 444.778C425.248 444.426 425.367 443.977 425.367 443.432ZM430.329 435.364V447H428.988V435.364H430.329ZM436.404 438.273V439.409H431.882V438.273H436.404ZM433.2 436.182H434.541V444.5C434.541 444.879 434.596 445.163 434.705 445.352C434.819 445.538 434.963 445.663 435.137 445.727C435.315 445.788 435.503 445.818 435.7 445.818C435.847 445.818 435.969 445.811 436.063 445.795C436.158 445.777 436.234 445.761 436.291 445.75L436.563 446.955C436.472 446.989 436.346 447.023 436.183 447.057C436.02 447.095 435.813 447.114 435.563 447.114C435.185 447.114 434.813 447.032 434.45 446.869C434.09 446.706 433.791 446.458 433.552 446.125C433.317 445.792 433.2 445.371 433.2 444.864V436.182ZM446.092 450.455C445.444 450.455 444.887 450.371 444.422 450.205C443.956 450.042 443.567 449.826 443.257 449.557C442.95 449.292 442.706 449.008 442.524 448.705L443.592 447.955C443.713 448.114 443.867 448.295 444.052 448.5C444.238 448.708 444.492 448.888 444.814 449.04C445.139 449.195 445.565 449.273 446.092 449.273C446.797 449.273 447.378 449.102 447.836 448.761C448.295 448.42 448.524 447.886 448.524 447.159V445.386H448.41C448.312 445.545 448.172 445.742 447.99 445.977C447.812 446.208 447.554 446.415 447.217 446.597C446.884 446.775 446.433 446.864 445.865 446.864C445.16 446.864 444.528 446.697 443.967 446.364C443.41 446.03 442.969 445.545 442.643 444.909C442.321 444.273 442.16 443.5 442.16 442.591C442.16 441.697 442.317 440.919 442.632 440.256C442.946 439.589 443.384 439.074 443.944 438.71C444.505 438.343 445.153 438.159 445.887 438.159C446.456 438.159 446.906 438.254 447.24 438.443C447.577 438.629 447.834 438.841 448.012 439.08C448.194 439.314 448.334 439.508 448.433 439.659H448.569V438.273H449.865V447.25C449.865 448 449.694 448.61 449.353 449.08C449.016 449.553 448.562 449.9 447.99 450.119C447.422 450.343 446.789 450.455 446.092 450.455ZM446.047 445.659C446.584 445.659 447.039 445.536 447.41 445.29C447.781 445.044 448.064 444.689 448.257 444.227C448.45 443.765 448.547 443.212 448.547 442.568C448.547 441.939 448.452 441.384 448.262 440.903C448.073 440.422 447.793 440.045 447.422 439.773C447.05 439.5 446.592 439.364 446.047 439.364C445.478 439.364 445.005 439.508 444.626 439.795C444.251 440.083 443.969 440.47 443.779 440.955C443.594 441.439 443.501 441.977 443.501 442.568C443.501 443.174 443.596 443.71 443.785 444.176C443.978 444.638 444.262 445.002 444.637 445.267C445.016 445.528 445.486 445.659 446.047 445.659ZM454.711 447.205C454.158 447.205 453.657 447.1 453.206 446.892C452.755 446.68 452.397 446.375 452.132 445.977C451.867 445.576 451.734 445.091 451.734 444.523C451.734 444.023 451.833 443.617 452.03 443.307C452.227 442.992 452.49 442.746 452.819 442.568C453.149 442.39 453.513 442.258 453.91 442.17C454.312 442.08 454.715 442.008 455.121 441.955C455.651 441.886 456.081 441.835 456.41 441.801C456.744 441.763 456.986 441.701 457.138 441.614C457.293 441.527 457.371 441.375 457.371 441.159V441.114C457.371 440.553 457.217 440.117 456.91 439.807C456.607 439.496 456.147 439.341 455.53 439.341C454.889 439.341 454.388 439.481 454.024 439.761C453.66 440.042 453.405 440.341 453.257 440.659L451.984 440.205C452.211 439.674 452.514 439.261 452.893 438.966C453.276 438.667 453.693 438.458 454.143 438.341C454.598 438.22 455.045 438.159 455.484 438.159C455.764 438.159 456.086 438.193 456.45 438.261C456.818 438.326 457.172 438.46 457.513 438.665C457.857 438.869 458.143 439.178 458.371 439.591C458.598 440.004 458.711 440.557 458.711 441.25V447H457.371V445.818H457.302C457.211 446.008 457.06 446.21 456.848 446.426C456.636 446.642 456.354 446.826 456.001 446.977C455.649 447.129 455.219 447.205 454.711 447.205ZM454.916 446C455.446 446 455.893 445.896 456.257 445.688C456.624 445.479 456.901 445.21 457.086 444.881C457.276 444.551 457.371 444.205 457.371 443.841V442.614C457.314 442.682 457.189 442.744 456.996 442.801C456.806 442.854 456.586 442.902 456.336 442.943C456.09 442.981 455.85 443.015 455.615 443.045C455.384 443.072 455.196 443.095 455.052 443.114C454.704 443.159 454.378 443.233 454.075 443.335C453.776 443.434 453.533 443.583 453.348 443.784C453.166 443.981 453.075 444.25 453.075 444.591C453.075 445.057 453.247 445.409 453.592 445.648C453.941 445.883 454.382 446 454.916 446ZM464.778 438.273V439.409H460.256V438.273H464.778ZM461.574 436.182H462.915V444.5C462.915 444.879 462.97 445.163 463.079 445.352C463.193 445.538 463.337 445.663 463.511 445.727C463.689 445.788 463.877 445.818 464.074 445.818C464.222 445.818 464.343 445.811 464.437 445.795C464.532 445.777 464.608 445.761 464.665 445.75L464.937 446.955C464.847 446.989 464.72 447.023 464.557 447.057C464.394 447.095 464.187 447.114 463.937 447.114C463.559 447.114 463.187 447.032 462.824 446.869C462.464 446.706 462.165 446.458 461.926 446.125C461.691 445.792 461.574 445.371 461.574 444.864V436.182ZM470.185 447.182C469.344 447.182 468.618 446.996 468.009 446.625C467.403 446.25 466.935 445.727 466.605 445.057C466.279 444.383 466.117 443.598 466.117 442.705C466.117 441.811 466.279 441.023 466.605 440.341C466.935 439.655 467.393 439.121 467.98 438.739C468.571 438.352 469.26 438.159 470.048 438.159C470.503 438.159 470.952 438.235 471.395 438.386C471.838 438.538 472.242 438.784 472.605 439.125C472.969 439.462 473.259 439.909 473.475 440.466C473.69 441.023 473.798 441.708 473.798 442.523V443.091H467.071V441.932H472.435C472.435 441.439 472.336 441 472.139 440.614C471.946 440.227 471.67 439.922 471.31 439.699C470.954 439.475 470.533 439.364 470.048 439.364C469.514 439.364 469.052 439.496 468.662 439.761C468.276 440.023 467.978 440.364 467.77 440.784C467.562 441.205 467.457 441.655 467.457 442.136V442.909C467.457 443.568 467.571 444.127 467.798 444.585C468.029 445.04 468.35 445.386 468.759 445.625C469.168 445.86 469.643 445.977 470.185 445.977C470.537 445.977 470.855 445.928 471.139 445.83C471.427 445.727 471.675 445.576 471.884 445.375C472.092 445.17 472.253 444.917 472.367 444.614L473.662 444.977C473.526 445.417 473.296 445.803 472.975 446.136C472.653 446.466 472.255 446.723 471.781 446.909C471.308 447.091 470.776 447.182 470.185 447.182ZM477.639 447L474.98 438.273H476.389L478.276 444.955H478.367L480.23 438.273H481.662L483.503 444.932H483.594L485.48 438.273H486.889L484.23 447H482.912L481.003 440.295H480.867L478.958 447H477.639ZM491.054 447.205C490.501 447.205 489.999 447.1 489.549 446.892C489.098 446.68 488.74 446.375 488.475 445.977C488.21 445.576 488.077 445.091 488.077 444.523C488.077 444.023 488.176 443.617 488.373 443.307C488.569 442.992 488.833 442.746 489.162 442.568C489.492 442.39 489.855 442.258 490.253 442.17C490.655 442.08 491.058 442.008 491.463 441.955C491.994 441.886 492.424 441.835 492.753 441.801C493.087 441.763 493.329 441.701 493.48 441.614C493.636 441.527 493.713 441.375 493.713 441.159V441.114C493.713 440.553 493.56 440.117 493.253 439.807C492.95 439.496 492.49 439.341 491.873 439.341C491.232 439.341 490.73 439.481 490.367 439.761C490.003 440.042 489.748 440.341 489.6 440.659L488.327 440.205C488.554 439.674 488.857 439.261 489.236 438.966C489.619 438.667 490.035 438.458 490.486 438.341C490.941 438.22 491.388 438.159 491.827 438.159C492.107 438.159 492.429 438.193 492.793 438.261C493.16 438.326 493.515 438.46 493.855 438.665C494.2 438.869 494.486 439.178 494.713 439.591C494.941 440.004 495.054 440.557 495.054 441.25V447H493.713V445.818H493.645C493.554 446.008 493.403 446.21 493.191 446.426C492.979 446.642 492.696 446.826 492.344 446.977C491.992 447.129 491.562 447.205 491.054 447.205ZM491.259 446C491.789 446 492.236 445.896 492.6 445.688C492.967 445.479 493.244 445.21 493.429 444.881C493.619 444.551 493.713 444.205 493.713 443.841V442.614C493.657 442.682 493.532 442.744 493.338 442.801C493.149 442.854 492.929 442.902 492.679 442.943C492.433 442.981 492.193 443.015 491.958 443.045C491.727 443.072 491.539 443.095 491.395 443.114C491.047 443.159 490.721 443.233 490.418 443.335C490.119 443.434 489.876 443.583 489.691 443.784C489.509 443.981 489.418 444.25 489.418 444.591C489.418 445.057 489.59 445.409 489.935 445.648C490.283 445.883 490.725 446 491.259 446ZM497.877 450.273C497.65 450.273 497.447 450.254 497.269 450.216C497.091 450.182 496.968 450.148 496.9 450.114L497.241 448.932C497.566 449.015 497.854 449.045 498.104 449.023C498.354 449 498.576 448.888 498.769 448.688C498.966 448.491 499.146 448.17 499.309 447.727L499.559 447.045L496.331 438.273H497.786L500.195 445.227H500.286L502.695 438.273H504.15L500.445 448.273C500.278 448.723 500.072 449.097 499.826 449.392C499.58 449.691 499.294 449.913 498.968 450.057C498.646 450.201 498.282 450.273 497.877 450.273Z" fill="#222222"/>
<g clip-path="url(#clip1_0_1)">
<path d="M55.0305 36.6501H36.109C34.2248 36.6458 32.419 35.8954 31.0867 34.563C29.7544 33.2306 29.0041 31.4248 29 29.5406C29.0102 28.4882 29.2479 27.4505 29.6967 26.4986C30.1454 25.5467 30.7947 24.7031 31.6 24.0256C32.9476 22.8857 34.6854 22.314 36.4465 22.4311C37.2453 20.4652 38.6701 18.8177 40.5002 17.7437C42.3303 16.6697 44.4635 16.2292 46.5692 16.4905C48.675 16.7518 50.6359 17.7003 52.148 19.189C53.66 20.6778 54.6389 22.6236 54.933 24.7251C56.39 24.6602 57.8179 25.1461 58.933 26.0861C59.8543 26.8884 60.5098 27.952 60.8124 29.1357C61.115 30.3193 61.0505 31.567 60.6273 32.7131C60.2042 33.8592 59.4424 34.8495 58.4432 35.5525C57.444 36.2555 56.2547 36.6379 55.033 36.6491L55.0305 36.6501ZM35.9965 24.4161C34.8568 24.4127 33.7534 24.8172 32.886 25.5566C32.3031 26.0455 31.8328 26.6547 31.5073 27.3423C31.1818 28.0299 31.0087 28.7798 31 29.5406C31.0021 30.8924 31.539 32.1886 32.4936 33.1459C33.4481 34.1032 34.7426 34.644 36.0945 34.6501H55.03C56.0827 34.6487 57.0918 34.2299 57.8361 33.4855C58.5804 32.741 58.9989 31.7317 59 30.6791C59.005 30.0995 58.8859 29.5257 58.6506 28.9961C58.4153 28.4664 58.0694 27.9933 57.636 27.6086C57.1558 27.2259 56.5965 26.9548 55.9986 26.8149C55.4007 26.6751 54.7791 26.67 54.179 26.8001L53.052 26.9816L53.0205 25.8406C52.9684 24.0305 52.2753 22.2977 51.0646 20.9511C49.854 19.6044 48.2045 18.7314 46.4102 18.4876C44.6159 18.2437 42.7932 18.645 41.2672 19.6197C39.7411 20.5945 38.6107 22.0795 38.0775 23.8101L37.8185 24.6536L36.95 24.5001C36.6352 24.4445 36.3162 24.4164 35.9965 24.4161Z" fill="#F6821F"/>
</g>
<path d="M80.2784 25.6194H77.7898C77.7443 25.2974 77.6515 25.0114 77.5114 24.7614C77.3712 24.5076 77.1913 24.2917 76.9716 24.1137C76.7519 23.9357 76.4981 23.7993 76.2102 23.7046C75.9261 23.6099 75.6174 23.5626 75.2841 23.5626C74.6818 23.5626 74.1572 23.7122 73.7102 24.0114C73.2633 24.3069 72.9167 24.7387 72.6705 25.3069C72.4242 25.8713 72.3011 26.5569 72.3011 27.3637C72.3011 28.1932 72.4242 28.8902 72.6705 29.4546C72.9205 30.019 73.2689 30.4451 73.7159 30.733C74.1629 31.0209 74.6799 31.1648 75.267 31.1648C75.5966 31.1648 75.9015 31.1213 76.1818 31.0342C76.4659 30.947 76.7178 30.8201 76.9375 30.6535C77.1572 30.483 77.339 30.2766 77.483 30.0342C77.6307 29.7917 77.733 29.5152 77.7898 29.2046L80.2784 29.216C80.214 29.7501 80.053 30.2652 79.7955 30.7614C79.5417 31.2539 79.1989 31.6951 78.767 32.0853C78.339 32.4717 77.8277 32.7785 77.233 33.0057C76.642 33.2292 75.9735 33.341 75.2273 33.341C74.1894 33.341 73.2614 33.1061 72.4432 32.6364C71.6288 32.1667 70.9848 31.4868 70.5114 30.5967C70.0417 29.7065 69.8068 28.6289 69.8068 27.3637C69.8068 26.0948 70.0455 25.0152 70.5227 24.1251C71 23.2349 71.6477 22.5569 72.4659 22.091C73.2841 21.6213 74.2045 21.3864 75.2273 21.3864C75.9015 21.3864 76.5265 21.4811 77.1023 21.6705C77.6818 21.8599 78.1951 22.1364 78.642 22.5001C79.089 22.8599 79.4527 23.3012 79.733 23.8239C80.017 24.3467 80.1989 24.9451 80.2784 25.6194ZM84.2416 21.5455V33.1819H81.8212V21.5455H84.2416ZM89.9477 33.3523C89.0651 33.3523 88.3019 33.1648 87.6579 32.7898C87.0178 32.4111 86.5235 31.8845 86.175 31.2103C85.8265 30.5323 85.6523 29.7463 85.6523 28.8523C85.6523 27.9508 85.8265 27.1629 86.175 26.4887C86.5235 25.8107 87.0178 25.2842 87.6579 24.9092C88.3019 24.5304 89.0651 24.341 89.9477 24.341C90.8303 24.341 91.5917 24.5304 92.2318 24.9092C92.8757 25.2842 93.372 25.8107 93.7204 26.4887C94.0689 27.1629 94.2432 27.9508 94.2432 28.8523C94.2432 29.7463 94.0689 30.5323 93.7204 31.2103C93.372 31.8845 92.8757 32.4111 92.2318 32.7898C91.5917 33.1648 90.8303 33.3523 89.9477 33.3523ZM89.9591 31.4773C90.3606 31.4773 90.6958 31.3637 90.9648 31.1364C91.2337 30.9054 91.4364 30.591 91.5727 30.1932C91.7129 29.7955 91.7829 29.3429 91.7829 28.8353C91.7829 28.3277 91.7129 27.8751 91.5727 27.4773C91.4364 27.0796 91.2337 26.7652 90.9648 26.5342C90.6958 26.3031 90.3606 26.1876 89.9591 26.1876C89.5538 26.1876 89.2129 26.3031 88.9364 26.5342C88.6636 26.7652 88.4572 27.0796 88.317 27.4773C88.1807 27.8751 88.1125 28.3277 88.1125 28.8353C88.1125 29.3429 88.1807 29.7955 88.317 30.1932C88.4572 30.591 88.6636 30.9054 88.9364 31.1364C89.2129 31.3637 89.5538 31.4773 89.9591 31.4773ZM101.238 29.466V24.4546H103.658V33.1819H101.334V31.5967H101.243C101.046 32.108 100.719 32.519 100.26 32.8296C99.8058 33.1402 99.2509 33.2955 98.5956 33.2955C98.0122 33.2955 97.499 33.1629 97.0558 32.8978C96.6126 32.6326 96.266 32.2557 96.016 31.7671C95.7698 31.2785 95.6448 30.6932 95.641 30.0114V24.4546H98.0615V29.5796C98.0653 30.0948 98.2035 30.502 98.4763 30.8012C98.749 31.1004 99.1145 31.2501 99.5729 31.2501C99.8645 31.2501 100.137 31.1838 100.391 31.0512C100.645 30.9148 100.849 30.7141 101.005 30.4489C101.164 30.1838 101.241 29.8561 101.238 29.466ZM108.634 33.3239C107.971 33.3239 107.371 33.1535 106.833 32.8126C106.299 32.4679 105.875 31.9622 105.56 31.2955C105.25 30.6251 105.094 29.8031 105.094 28.8296C105.094 27.8296 105.255 26.9982 105.577 26.3353C105.899 25.6686 106.327 25.1705 106.861 24.841C107.399 24.5076 107.988 24.341 108.628 24.341C109.117 24.341 109.524 24.4243 109.85 24.591C110.18 24.7539 110.445 24.9584 110.645 25.2046C110.85 25.447 111.005 25.6857 111.111 25.9205H111.185V21.5455H113.6V33.1819H111.214V31.7842H111.111C110.998 32.0266 110.837 32.2671 110.628 32.5057C110.424 32.7406 110.157 32.9357 109.827 33.091C109.501 33.2463 109.104 33.3239 108.634 33.3239ZM109.401 31.3978C109.791 31.3978 110.121 31.2917 110.39 31.0796C110.662 30.8637 110.871 30.5626 111.015 30.1762C111.162 29.7898 111.236 29.3372 111.236 28.8182C111.236 28.2993 111.164 27.8486 111.02 27.466C110.876 27.0834 110.668 26.7879 110.395 26.5796C110.123 26.3713 109.791 26.2671 109.401 26.2671C109.003 26.2671 108.668 26.3751 108.395 26.591C108.123 26.8069 107.916 27.1061 107.776 27.4887C107.636 27.8713 107.566 28.3145 107.566 28.8182C107.566 29.3258 107.636 29.7747 107.776 30.1648C107.92 30.5512 108.126 30.8542 108.395 31.0739C108.668 31.2898 109.003 31.3978 109.401 31.3978ZM120.107 24.4546V26.2728H114.721V24.4546H120.107ZM115.954 33.1819V23.8239C115.954 23.1914 116.077 22.6667 116.323 22.2501C116.573 21.8334 116.914 21.5209 117.346 21.3126C117.778 21.1042 118.268 21.0001 118.817 21.0001C119.189 21.0001 119.528 21.0285 119.834 21.0853C120.145 21.1421 120.376 21.1932 120.528 21.2387L120.096 23.0569C120.001 23.0266 119.884 22.9982 119.744 22.9717C119.607 22.9451 119.467 22.9319 119.323 22.9319C118.967 22.9319 118.719 23.0152 118.579 23.1819C118.439 23.3448 118.369 23.5739 118.369 23.8694V33.1819H115.954ZM123.83 21.5455V33.1819H121.41V21.5455H123.83ZM128.082 33.3467C127.525 33.3467 127.029 33.2501 126.593 33.0569C126.158 32.8599 125.813 32.5701 125.559 32.1876C125.309 31.8012 125.184 31.3201 125.184 30.7444C125.184 30.2595 125.273 29.8523 125.451 29.5228C125.629 29.1932 125.872 28.9281 126.179 28.7273C126.485 28.5266 126.834 28.3751 127.224 28.2728C127.618 28.1705 128.031 28.0986 128.463 28.0569C128.97 28.0039 129.379 27.9546 129.69 27.9092C130 27.8599 130.226 27.7879 130.366 27.6932C130.506 27.5986 130.576 27.4584 130.576 27.2728V27.2387C130.576 26.8789 130.463 26.6004 130.235 26.4035C130.012 26.2065 129.694 26.108 129.281 26.108C128.845 26.108 128.499 26.2046 128.241 26.3978C127.983 26.5872 127.813 26.8258 127.73 27.1137L125.491 26.9319C125.605 26.4016 125.828 25.9432 126.161 25.5569C126.495 25.1667 126.925 24.8675 127.451 24.6592C127.982 24.447 128.595 24.341 129.292 24.341C129.777 24.341 130.241 24.3978 130.684 24.5114C131.131 24.6251 131.527 24.8012 131.872 25.0398C132.22 25.2785 132.495 25.5853 132.696 25.9603C132.896 26.3315 132.997 26.7766 132.997 27.2955V33.1819H130.701V31.9717H130.633C130.493 32.2444 130.305 32.4849 130.071 32.6932C129.836 32.8978 129.554 33.0588 129.224 33.1762C128.894 33.2898 128.514 33.3467 128.082 33.3467ZM128.775 31.6762C129.131 31.6762 129.446 31.6061 129.718 31.466C129.991 31.322 130.205 31.1289 130.36 30.8864C130.516 30.644 130.593 30.3694 130.593 30.0626V29.1364C130.518 29.1857 130.413 29.2311 130.281 29.2728C130.152 29.3107 130.006 29.3467 129.843 29.3807C129.68 29.4111 129.518 29.4395 129.355 29.466C129.192 29.4887 129.044 29.5095 128.911 29.5285C128.627 29.5701 128.379 29.6364 128.167 29.7273C127.955 29.8182 127.79 29.9414 127.673 30.0967C127.555 30.2482 127.497 30.4376 127.497 30.6648C127.497 30.9944 127.616 31.2463 127.855 31.4205C128.097 31.591 128.404 31.6762 128.775 31.6762ZM134.699 33.1819V24.4546H137.045V25.9773H137.136C137.295 25.4357 137.562 25.0266 137.937 24.7501C138.312 24.4698 138.744 24.3296 139.233 24.3296C139.354 24.3296 139.485 24.3372 139.625 24.3523C139.765 24.3675 139.888 24.3883 139.994 24.4148V26.5626C139.88 26.5285 139.723 26.4982 139.522 26.4717C139.322 26.4451 139.138 26.4319 138.971 26.4319C138.615 26.4319 138.297 26.5095 138.017 26.6648C137.74 26.8164 137.521 27.0285 137.358 27.3012C137.199 27.5739 137.119 27.8883 137.119 28.2444V33.1819H134.699ZM144.64 33.3523C143.743 33.3523 142.97 33.1705 142.322 32.8069C141.678 32.4395 141.182 31.9205 140.834 31.2501C140.485 30.5758 140.311 29.7785 140.311 28.858C140.311 27.9603 140.485 27.1724 140.834 26.4944C141.182 25.8164 141.673 25.2879 142.305 24.9092C142.942 24.5304 143.688 24.341 144.544 24.341C145.12 24.341 145.656 24.4338 146.152 24.6194C146.652 24.8012 147.087 25.0758 147.459 25.4432C147.834 25.8107 148.125 26.2728 148.334 26.8296C148.542 27.3826 148.646 28.0304 148.646 28.7728V29.4376H141.277V27.9376H146.368C146.368 27.5891 146.292 27.2804 146.14 27.0114C145.989 26.7425 145.779 26.5323 145.51 26.3807C145.245 26.2254 144.936 26.1478 144.584 26.1478C144.216 26.1478 143.89 26.233 143.606 26.4035C143.326 26.5701 143.106 26.7955 142.947 27.0796C142.788 27.3599 142.707 27.6724 142.703 28.0171V29.4432C142.703 29.8751 142.782 30.2482 142.942 30.5626C143.104 30.877 143.334 31.1194 143.629 31.2898C143.925 31.4603 144.275 31.5455 144.68 31.5455C144.949 31.5455 145.195 31.5076 145.419 31.4319C145.642 31.3561 145.834 31.2425 145.993 31.091C146.152 30.9395 146.273 30.7539 146.356 30.5342L148.595 30.6819C148.481 31.2198 148.248 31.6895 147.896 32.091C147.548 32.4887 147.097 32.7993 146.544 33.0228C145.995 33.2425 145.36 33.3523 144.64 33.3523Z" fill="#222222"/>
<line x1="232" y1="488" x2="232" y2="548" stroke="#757575" stroke-width="2"/>
<line x1="302" y1="483" x2="302" y2="548" stroke="#757575" stroke-width="2"/>
<rect x="153" y="432" width="111" height="24" transform="rotate(-90 153 432)" fill="#E2F5FA" stroke="#F6821F" stroke-width="2"/>
<circle cx="164.5" cy="313.5" r="17.5" fill="white"/>
<circle cx="164.5" cy="313.5" r="17.7414" fill="white"/>
<path d="M164.5 293.594C160.563 293.594 156.714 294.761 153.441 296.948C150.167 299.136 147.616 302.245 146.109 305.882C144.602 309.519 144.208 313.522 144.976 317.383C145.744 321.245 147.64 324.792 150.424 327.576C153.208 330.36 156.755 332.256 160.616 333.024C164.478 333.792 168.48 333.398 172.118 331.891C175.755 330.384 178.864 327.833 181.051 324.559C183.239 321.286 184.406 317.437 184.406 313.5C184.386 308.227 182.282 303.175 178.554 299.446C174.825 295.718 169.773 293.614 164.5 293.594ZM164.5 330.344C161.169 330.344 157.912 329.356 155.142 327.505C152.372 325.654 150.213 323.023 148.938 319.946C147.664 316.868 147.33 313.481 147.98 310.214C148.63 306.946 150.234 303.945 152.59 301.59C154.945 299.234 157.947 297.63 161.214 296.98C164.481 296.33 167.868 296.663 170.946 297.938C174.024 299.213 176.654 301.372 178.505 304.142C180.356 306.912 181.344 310.168 181.344 313.5C181.324 317.961 179.543 322.233 176.388 325.388C173.234 328.542 168.961 330.323 164.5 330.344Z" fill="#0055DC"/>
<path d="M162.509 315.644V315.567H162.433L161.361 314.495L156.155 319.855V316.792H153.705V324.448H161.361V321.998H158.298L163.581 316.716L162.509 315.644Z" fill="#0055DC"/>
<path d="M167.486 312.734L172.769 307.298V310.361H175.219V302.705H167.563V305.155H170.625L165.266 310.591L167.486 312.734Z" fill="#0055DC"/>
<path d="M169.936 316.869H172.922V314.419H165.266V322.075H167.716V319.012L173.917 325.061L176.061 322.917L169.936 316.869Z" fill="#0055DC"/>
<path d="M161.131 308.064L155.083 301.939L152.939 304.083L158.988 310.284H155.925V312.734H163.581V305.078H161.131V308.064Z" fill="#0055DC"/>
<circle cx="165" cy="455" r="31" fill="white" stroke="#F6821F" stroke-width="2"/>
<path d="M191 453H175.09L189.76 446.9L188.23 443.2L173.5 449.28L184.77 438L181.94 435.17L170.72 446.4L176.82 431.75L173.12 430.21L167 444.93V429H163V444.86L157 430.19L153.3 431.72L159.38 446.45L148.06 435.18L145.23 438L156.45 449.23L141.8 443.14L140.26 446.83L155 453H139V457H154.91L140.24 463L141.77 466.7L156.5 460.62L145.23 471.89L148.06 474.72L159.28 463.5L153.18 478.15L156.88 479.69L163 465V480.91H167V465L173 479.67L176.7 478.15L170.67 463.45L181.94 474.72L184.77 471.89L173.55 460.67L188.2 466.77L189.74 463.07L175 457H191V453ZM175 453V457L173.48 460.68L170.67 463.49L167 464.94H163L159.33 463.42L156.52 460.61L155 456.93V453L156.52 449.32L159.33 446.51L163 445H167L170.67 446.52L173.48 449.33L175 453Z" fill="#F6821F"/>
<path d="M165.707 333.293C165.317 332.902 164.683 332.902 164.293 333.293L157.929 339.657C157.538 340.047 157.538 340.681 157.929 341.071C158.319 341.462 158.953 341.462 159.343 341.071L165 335.414L170.657 341.071C171.047 341.462 171.681 341.462 172.071 341.071C172.462 340.681 172.462 340.047 172.071 339.657L165.707 333.293ZM164.293 420.707C164.683 421.098 165.317 421.098 165.707 420.707L172.071 414.343C172.462 413.953 172.462 413.319 172.071 412.929C171.681 412.538 171.047 412.538 170.657 412.929L165 418.586L159.343 412.929C158.953 412.538 158.319 412.538 157.929 412.929C157.538 413.319 157.538 413.953 157.929 414.343L164.293 420.707ZM164 334V420H166V334H164Z" fill="#757575"/>
<path d="M268.707 448.707C269.098 448.317 269.098 447.683 268.707 447.293L262.343 440.929C261.953 440.538 261.319 440.538 260.929 440.929C260.538 441.319 260.538 441.953 260.929 442.343L266.586 448L260.929 453.657C260.538 454.047 260.538 454.681 260.929 455.071C261.319 455.462 261.953 455.462 262.343 455.071L268.707 448.707ZM201.293 447.293C200.902 447.683 200.902 448.317 201.293 448.707L207.657 455.071C208.047 455.462 208.681 455.462 209.071 455.071C209.462 454.681 209.462 454.047 209.071 453.657L203.414 448L209.071 442.343C209.462 441.953 209.462 441.319 209.071 440.929C208.681 440.538 208.047 440.538 207.657 440.929L201.293 447.293ZM268 447L202 447L202 449L268 449L268 447Z" fill="#757575"/>
<rect x="153" y="133" width="22" height="5" fill="white"/>
<path d="M164.707 143.293C164.317 142.902 163.683 142.902 163.293 143.293L156.929 149.657C156.538 150.047 156.538 150.681 156.929 151.071C157.319 151.462 157.953 151.462 158.343 151.071L164 145.414L169.657 151.071C170.047 151.462 170.681 151.462 171.071 151.071C171.462 150.681 171.462 150.047 171.071 149.657L164.707 143.293ZM163.293 283.707C163.683 284.098 164.317 284.098 164.707 283.707L171.071 277.343C171.462 276.953 171.462 276.319 171.071 275.929C170.681 275.538 170.047 275.538 169.657 275.929L164 281.586L158.343 275.929C157.953 275.538 157.319 275.538 156.929 275.929C156.538 276.319 156.538 276.953 156.929 277.343L163.293 283.707ZM163 144L163 283L165 283L165 144L163 144Z" fill="#757575"/>
<path d="M315.707 294.293C315.317 293.902 314.683 293.902 314.293 294.293L307.929 300.657C307.538 301.047 307.538 301.681 307.929 302.071C308.319 302.462 308.953 302.462 309.343 302.071L315 296.414L320.657 302.071C321.047 302.462 321.681 302.462 322.071 302.071C322.462 301.681 322.462 301.047 322.071 300.657L315.707 294.293ZM314.293 425.707C314.683 426.098 315.317 426.098 315.707 425.707L322.071 419.343C322.462 418.953 322.462 418.319 322.071 417.929C321.681 417.538 321.047 417.538 320.657 417.929L315 423.586L309.343 417.929C308.953 417.538 308.319 417.538 307.929 417.929C307.538 418.319 307.538 418.953 307.929 419.343L314.293 425.707ZM314 295V297.031H316V295H314ZM314 301.094V305.156H316V301.094H314ZM314 309.219V313.281H316V309.219H314ZM314 317.344V321.406H316V317.344H314ZM314 325.469V329.531H316V325.469H314ZM314 333.594V337.656H316V333.594H314ZM314 341.719V345.781H316V341.719H314ZM314 349.844V353.906H316V349.844H314ZM314 357.969V362.031H316V357.969H314ZM314 366.094V370.156H316V366.094H314ZM314 374.219V378.281H316V374.219H314ZM314 382.344V386.406H316V382.344H314ZM314 390.469V394.531H316V390.469H314ZM314 398.594V402.656H316V398.594H314ZM314 406.719V410.781H316V406.719H314ZM314 414.844V418.906H316V414.844H314ZM314 422.969V425H316V422.969H314Z" fill="#757575"/>
<circle cx="315" cy="457" r="26.4286" fill="white"/>
<circle cx="315" cy="457" r="26.7931" fill="white"/>
<path d="M315 426.938C309.054 426.938 303.242 428.701 298.298 432.004C293.354 435.307 289.501 440.002 287.226 445.496C284.951 450.989 284.355 457.033 285.515 462.865C286.675 468.696 289.538 474.053 293.743 478.257C297.947 482.462 303.304 485.325 309.135 486.485C314.967 487.645 321.011 487.049 326.504 484.774C331.998 482.499 336.693 478.646 339.996 473.702C343.299 468.758 345.063 462.946 345.063 457C345.032 449.036 341.855 441.407 336.224 435.776C330.593 430.145 322.964 426.968 315 426.938ZM315 482.438C309.969 482.438 305.051 480.946 300.868 478.151C296.685 475.355 293.424 471.383 291.499 466.735C289.574 462.086 289.07 456.972 290.051 452.037C291.033 447.103 293.455 442.57 297.013 439.013C300.57 435.455 305.103 433.033 310.037 432.051C314.972 431.07 320.086 431.574 324.735 433.499C329.383 435.424 333.355 438.685 336.151 442.868C338.946 447.051 340.438 451.969 340.438 457C340.407 463.737 337.717 470.19 332.953 474.953C328.19 479.717 321.737 482.407 315 482.438Z" fill="#0055DC"/>
<path d="M311.994 460.237V460.122H311.878L310.259 458.503L302.397 466.597V461.972H298.697V473.534H310.259V469.834H305.634L313.613 461.856L311.994 460.237Z" fill="#0055DC"/>
<path d="M319.509 455.844L327.488 447.634V452.259H331.188V440.697H319.625V444.397H324.25L316.156 452.606L319.509 455.844Z" fill="#0055DC"/>
<path d="M323.209 462.088H327.719V458.388H316.156V469.95H319.856V465.325L329.222 474.459L332.459 471.222L323.209 462.088Z" fill="#0055DC"/>
<path d="M309.913 448.791L300.778 439.541L297.541 442.778L306.675 452.144H302.05V455.844H313.613V444.281H309.913V448.791Z" fill="#0055DC"/>
<path d="M376.5 442C376.5 449.456 370.456 455.5 363 455.5C355.544 455.5 349.5 449.456 349.5 442C349.5 434.544 355.544 428.5 363 428.5C370.456 428.5 376.5 434.544 376.5 442Z" fill="#CBE9F3" stroke="black"/>
<path d="M364.861 436.364V448H362.401V438.699H362.332L359.668 440.369V438.188L362.548 436.364H364.861Z" fill="black"/>
<path d="M361.409 350V338.364H365.341C366.254 338.364 367 338.528 367.58 338.858C368.163 339.184 368.595 339.625 368.875 340.182C369.155 340.739 369.295 341.36 369.295 342.045C369.295 342.731 369.155 343.354 368.875 343.915C368.598 344.475 368.17 344.922 367.591 345.256C367.011 345.585 366.269 345.75 365.364 345.75H362.545V344.5H365.318C365.943 344.5 366.445 344.392 366.824 344.176C367.203 343.96 367.477 343.669 367.648 343.301C367.822 342.93 367.909 342.511 367.909 342.045C367.909 341.58 367.822 341.163 367.648 340.795C367.477 340.428 367.201 340.14 366.818 339.932C366.436 339.72 365.928 339.614 365.295 339.614H362.818V350H361.409ZM371.208 350V341.273H372.503V342.591H372.594C372.753 342.159 373.041 341.809 373.458 341.54C373.874 341.271 374.344 341.136 374.867 341.136C374.965 341.136 375.088 341.138 375.236 341.142C375.384 341.146 375.495 341.152 375.571 341.159V342.523C375.526 342.511 375.422 342.494 375.259 342.472C375.1 342.445 374.931 342.432 374.753 342.432C374.329 342.432 373.95 342.521 373.617 342.699C373.287 342.873 373.026 343.116 372.833 343.426C372.643 343.733 372.548 344.083 372.548 344.477V350H371.208ZM376.985 350V341.273H378.326V350H376.985ZM377.666 339.818C377.405 339.818 377.18 339.729 376.99 339.551C376.805 339.373 376.712 339.159 376.712 338.909C376.712 338.659 376.805 338.445 376.99 338.267C377.18 338.089 377.405 338 377.666 338C377.928 338 378.151 338.089 378.337 338.267C378.526 338.445 378.621 338.659 378.621 338.909C378.621 339.159 378.526 339.373 378.337 339.551C378.151 339.729 377.928 339.818 377.666 339.818ZM387.742 341.273L384.515 350H383.151L379.924 341.273H381.378L383.787 348.227H383.878L386.287 341.273H387.742ZM391.638 350.205C391.085 350.205 390.583 350.1 390.133 349.892C389.682 349.68 389.324 349.375 389.059 348.977C388.794 348.576 388.661 348.091 388.661 347.523C388.661 347.023 388.76 346.617 388.957 346.307C389.153 345.992 389.417 345.746 389.746 345.568C390.076 345.39 390.439 345.258 390.837 345.17C391.239 345.08 391.642 345.008 392.047 344.955C392.578 344.886 393.008 344.835 393.337 344.801C393.671 344.763 393.913 344.701 394.064 344.614C394.22 344.527 394.297 344.375 394.297 344.159V344.114C394.297 343.553 394.144 343.117 393.837 342.807C393.534 342.496 393.074 342.341 392.457 342.341C391.816 342.341 391.314 342.481 390.951 342.761C390.587 343.042 390.332 343.341 390.184 343.659L388.911 343.205C389.138 342.674 389.441 342.261 389.82 341.966C390.203 341.667 390.619 341.458 391.07 341.341C391.525 341.22 391.972 341.159 392.411 341.159C392.691 341.159 393.013 341.193 393.377 341.261C393.744 341.326 394.099 341.46 394.439 341.665C394.784 341.869 395.07 342.178 395.297 342.591C395.525 343.004 395.638 343.557 395.638 344.25V350H394.297V348.818H394.229C394.138 349.008 393.987 349.21 393.775 349.426C393.563 349.642 393.28 349.826 392.928 349.977C392.576 350.129 392.146 350.205 391.638 350.205ZM391.843 349C392.373 349 392.82 348.896 393.184 348.688C393.551 348.479 393.828 348.21 394.013 347.881C394.203 347.551 394.297 347.205 394.297 346.841V345.614C394.241 345.682 394.116 345.744 393.922 345.801C393.733 345.854 393.513 345.902 393.263 345.943C393.017 345.981 392.777 346.015 392.542 346.045C392.311 346.072 392.123 346.095 391.979 346.114C391.631 346.159 391.305 346.233 391.002 346.335C390.703 346.434 390.46 346.583 390.275 346.784C390.093 346.981 390.002 347.25 390.002 347.591C390.002 348.057 390.174 348.409 390.519 348.648C390.867 348.883 391.309 349 391.843 349ZM401.705 341.273V342.409H397.182V341.273H401.705ZM398.501 339.182H399.842V347.5C399.842 347.879 399.897 348.163 400.006 348.352C400.12 348.538 400.264 348.663 400.438 348.727C400.616 348.788 400.804 348.818 401.001 348.818C401.148 348.818 401.27 348.811 401.364 348.795C401.459 348.777 401.535 348.761 401.592 348.75L401.864 349.955C401.773 349.989 401.647 350.023 401.484 350.057C401.321 350.095 401.114 350.114 400.864 350.114C400.486 350.114 400.114 350.032 399.751 349.869C399.391 349.706 399.092 349.458 398.853 349.125C398.618 348.792 398.501 348.371 398.501 347.864V339.182ZM407.112 350.182C406.271 350.182 405.545 349.996 404.935 349.625C404.329 349.25 403.862 348.727 403.532 348.057C403.206 347.383 403.043 346.598 403.043 345.705C403.043 344.811 403.206 344.023 403.532 343.341C403.862 342.655 404.32 342.121 404.907 341.739C405.498 341.352 406.187 341.159 406.975 341.159C407.43 341.159 407.879 341.235 408.322 341.386C408.765 341.538 409.168 341.784 409.532 342.125C409.896 342.462 410.185 342.909 410.401 343.466C410.617 344.023 410.725 344.708 410.725 345.523V346.091H403.998V344.932H409.362C409.362 344.439 409.263 344 409.066 343.614C408.873 343.227 408.596 342.922 408.237 342.699C407.881 342.475 407.46 342.364 406.975 342.364C406.441 342.364 405.979 342.496 405.589 342.761C405.203 343.023 404.905 343.364 404.697 343.784C404.489 344.205 404.384 344.655 404.384 345.136V345.909C404.384 346.568 404.498 347.127 404.725 347.585C404.956 348.04 405.276 348.386 405.685 348.625C406.095 348.86 406.57 348.977 407.112 348.977C407.464 348.977 407.782 348.928 408.066 348.83C408.354 348.727 408.602 348.576 408.81 348.375C409.019 348.17 409.18 347.917 409.293 347.614L410.589 347.977C410.453 348.417 410.223 348.803 409.901 349.136C409.579 349.466 409.182 349.723 408.708 349.909C408.235 350.091 407.703 350.182 407.112 350.182ZM420.708 341.273V342.409H416.186V341.273H420.708ZM417.504 339.182H418.845V347.5C418.845 347.879 418.9 348.163 419.01 348.352C419.123 348.538 419.267 348.663 419.441 348.727C419.619 348.788 419.807 348.818 420.004 348.818C420.152 348.818 420.273 348.811 420.368 348.795C420.462 348.777 420.538 348.761 420.595 348.75L420.868 349.955C420.777 349.989 420.65 350.023 420.487 350.057C420.324 350.095 420.118 350.114 419.868 350.114C419.489 350.114 419.118 350.032 418.754 349.869C418.394 349.706 418.095 349.458 417.856 349.125C417.621 348.792 417.504 348.371 417.504 347.864V339.182ZM422.55 350V341.273H423.845V342.591H423.936C424.095 342.159 424.383 341.809 424.8 341.54C425.216 341.271 425.686 341.136 426.209 341.136C426.307 341.136 426.43 341.138 426.578 341.142C426.726 341.146 426.837 341.152 426.913 341.159V342.523C426.868 342.511 426.764 342.494 426.601 342.472C426.442 342.445 426.273 342.432 426.095 342.432C425.671 342.432 425.292 342.521 424.959 342.699C424.629 342.873 424.368 343.116 424.175 343.426C423.985 343.733 423.89 344.083 423.89 344.477V350H422.55ZM430.895 350.205C430.342 350.205 429.84 350.1 429.389 349.892C428.938 349.68 428.58 349.375 428.315 348.977C428.05 348.576 427.918 348.091 427.918 347.523C427.918 347.023 428.016 346.617 428.213 346.307C428.41 345.992 428.673 345.746 429.003 345.568C429.332 345.39 429.696 345.258 430.094 345.17C430.495 345.08 430.899 345.008 431.304 344.955C431.834 344.886 432.264 344.835 432.594 344.801C432.927 344.763 433.169 344.701 433.321 344.614C433.476 344.527 433.554 344.375 433.554 344.159V344.114C433.554 343.553 433.401 343.117 433.094 342.807C432.791 342.496 432.33 342.341 431.713 342.341C431.073 342.341 430.571 342.481 430.207 342.761C429.844 343.042 429.588 343.341 429.44 343.659L428.168 343.205C428.395 342.674 428.698 342.261 429.077 341.966C429.459 341.667 429.876 341.458 430.327 341.341C430.781 341.22 431.228 341.159 431.668 341.159C431.948 341.159 432.27 341.193 432.633 341.261C433.001 341.326 433.355 341.46 433.696 341.665C434.041 341.869 434.327 342.178 434.554 342.591C434.781 343.004 434.895 343.557 434.895 344.25V350H433.554V348.818H433.486C433.395 349.008 433.243 349.21 433.031 349.426C432.819 349.642 432.537 349.826 432.185 349.977C431.832 350.129 431.402 350.205 430.895 350.205ZM431.099 349C431.63 349 432.077 348.896 432.44 348.688C432.808 348.479 433.084 348.21 433.27 347.881C433.459 347.551 433.554 347.205 433.554 346.841V345.614C433.497 345.682 433.372 345.744 433.179 345.801C432.99 345.854 432.77 345.902 432.52 345.943C432.274 345.981 432.033 346.015 431.798 346.045C431.567 346.072 431.38 346.095 431.236 346.114C430.887 346.159 430.561 346.233 430.258 346.335C429.959 346.434 429.717 346.583 429.531 346.784C429.349 346.981 429.258 347.25 429.258 347.591C429.258 348.057 429.431 348.409 429.776 348.648C430.124 348.883 430.565 349 431.099 349ZM441.053 341.273V342.409H436.348V341.273H441.053ZM437.757 350V340.068C437.757 339.568 437.875 339.152 438.109 338.818C438.344 338.485 438.649 338.235 439.024 338.068C439.399 337.902 439.795 337.818 440.212 337.818C440.541 337.818 440.81 337.845 441.019 337.898C441.227 337.951 441.382 338 441.484 338.045L441.098 339.205C441.03 339.182 440.935 339.153 440.814 339.119C440.697 339.085 440.541 339.068 440.348 339.068C439.905 339.068 439.585 339.18 439.388 339.403C439.195 339.627 439.098 339.955 439.098 340.386V350H437.757ZM446.642 341.273V342.409H441.938V341.273H446.642ZM443.347 350V340.068C443.347 339.568 443.464 339.152 443.699 338.818C443.934 338.485 444.239 338.235 444.614 338.068C444.989 337.902 445.385 337.818 445.801 337.818C446.131 337.818 446.4 337.845 446.608 337.898C446.817 337.951 446.972 338 447.074 338.045L446.688 339.205C446.62 339.182 446.525 339.153 446.404 339.119C446.286 339.085 446.131 339.068 445.938 339.068C445.495 339.068 445.174 339.18 444.977 339.403C444.784 339.627 444.688 339.955 444.688 340.386V350H443.347ZM448.346 350V341.273H449.686V350H448.346ZM449.027 339.818C448.766 339.818 448.541 339.729 448.351 339.551C448.166 339.373 448.073 339.159 448.073 338.909C448.073 338.659 448.166 338.445 448.351 338.267C448.541 338.089 448.766 338 449.027 338C449.289 338 449.512 338.089 449.698 338.267C449.887 338.445 449.982 338.659 449.982 338.909C449.982 339.159 449.887 339.373 449.698 339.551C449.512 339.729 449.289 339.818 449.027 339.818ZM455.512 350.182C454.694 350.182 453.989 349.989 453.398 349.602C452.807 349.216 452.353 348.684 452.035 348.006C451.716 347.328 451.557 346.553 451.557 345.682C451.557 344.795 451.72 344.013 452.046 343.335C452.375 342.653 452.834 342.121 453.421 341.739C454.012 341.352 454.701 341.159 455.489 341.159C456.103 341.159 456.656 341.273 457.148 341.5C457.641 341.727 458.044 342.045 458.358 342.455C458.673 342.864 458.868 343.341 458.944 343.886H457.603C457.5 343.489 457.273 343.136 456.921 342.83C456.572 342.519 456.103 342.364 455.512 342.364C454.989 342.364 454.531 342.5 454.137 342.773C453.747 343.042 453.442 343.422 453.222 343.915C453.006 344.403 452.898 344.977 452.898 345.636C452.898 346.311 453.004 346.898 453.216 347.398C453.432 347.898 453.735 348.286 454.125 348.562C454.519 348.839 454.982 348.977 455.512 348.977C455.86 348.977 456.177 348.917 456.461 348.795C456.745 348.674 456.985 348.5 457.182 348.273C457.379 348.045 457.519 347.773 457.603 347.455H458.944C458.868 347.97 458.68 348.434 458.381 348.847C458.086 349.256 457.694 349.581 457.205 349.824C456.72 350.062 456.156 350.182 455.512 350.182Z" fill="#222222"/>
<path d="M351.5 344C351.5 351.456 345.456 357.5 338 357.5C330.544 357.5 324.5 351.456 324.5 344C324.5 336.544 330.544 330.5 338 330.5C345.456 330.5 351.5 336.544 351.5 344Z" fill="#CBE9F3" stroke="black"/>
<path d="M333.673 350V348.227L337.815 344.392C338.168 344.051 338.463 343.744 338.702 343.472C338.944 343.199 339.128 342.932 339.253 342.67C339.378 342.405 339.44 342.119 339.44 341.812C339.44 341.472 339.363 341.178 339.207 340.932C339.052 340.682 338.84 340.491 338.571 340.358C338.302 340.222 337.997 340.153 337.656 340.153C337.3 340.153 336.99 340.225 336.724 340.369C336.459 340.513 336.255 340.72 336.111 340.989C335.967 341.258 335.895 341.578 335.895 341.949H333.56C333.56 341.187 333.732 340.527 334.077 339.966C334.421 339.405 334.904 338.972 335.526 338.665C336.147 338.358 336.863 338.205 337.673 338.205C338.507 338.205 339.232 338.352 339.849 338.648C340.471 338.939 340.954 339.345 341.298 339.864C341.643 340.383 341.815 340.977 341.815 341.648C341.815 342.087 341.728 342.521 341.554 342.949C341.384 343.377 341.079 343.852 340.639 344.375C340.2 344.894 339.581 345.517 338.781 346.244L337.082 347.909V347.989H341.969V350H333.673Z" fill="black"/>
<path d="M219.818 400.364V412H218.409V400.364H219.818ZM223.627 406.75V412H222.286V403.273H223.581V404.636H223.695C223.899 404.193 224.21 403.837 224.627 403.568C225.043 403.295 225.581 403.159 226.24 403.159C226.831 403.159 227.348 403.28 227.791 403.523C228.235 403.761 228.579 404.125 228.825 404.614C229.072 405.098 229.195 405.712 229.195 406.455V412H227.854V406.545C227.854 405.86 227.676 405.326 227.32 404.943C226.964 404.557 226.475 404.364 225.854 404.364C225.426 404.364 225.043 404.456 224.706 404.642C224.373 404.828 224.11 405.098 223.916 405.455C223.723 405.811 223.627 406.242 223.627 406.75ZM235.264 403.273V404.409H230.742V403.273H235.264ZM232.06 401.182H233.401V409.5C233.401 409.879 233.456 410.163 233.566 410.352C233.679 410.538 233.823 410.663 233.997 410.727C234.175 410.788 234.363 410.818 234.56 410.818C234.708 410.818 234.829 410.811 234.924 410.795C235.018 410.777 235.094 410.761 235.151 410.75L235.424 411.955C235.333 411.989 235.206 412.023 235.043 412.057C234.88 412.095 234.674 412.114 234.424 412.114C234.045 412.114 233.674 412.032 233.31 411.869C232.95 411.706 232.651 411.458 232.412 411.125C232.177 410.792 232.06 410.371 232.06 409.864V401.182ZM240.671 412.182C239.83 412.182 239.105 411.996 238.495 411.625C237.889 411.25 237.421 410.727 237.091 410.057C236.766 409.383 236.603 408.598 236.603 407.705C236.603 406.811 236.766 406.023 237.091 405.341C237.421 404.655 237.879 404.121 238.466 403.739C239.057 403.352 239.747 403.159 240.535 403.159C240.989 403.159 241.438 403.235 241.881 403.386C242.324 403.538 242.728 403.784 243.091 404.125C243.455 404.462 243.745 404.909 243.961 405.466C244.177 406.023 244.285 406.708 244.285 407.523V408.091H237.557V406.932H242.921C242.921 406.439 242.822 406 242.625 405.614C242.432 405.227 242.156 404.922 241.796 404.699C241.44 404.475 241.019 404.364 240.535 404.364C240 404.364 239.538 404.496 239.148 404.761C238.762 405.023 238.464 405.364 238.256 405.784C238.048 406.205 237.944 406.655 237.944 407.136V407.909C237.944 408.568 238.057 409.127 238.285 409.585C238.516 410.04 238.836 410.386 239.245 410.625C239.654 410.86 240.129 410.977 240.671 410.977C241.023 410.977 241.341 410.928 241.625 410.83C241.913 410.727 242.161 410.576 242.37 410.375C242.578 410.17 242.739 409.917 242.853 409.614L244.148 409.977C244.012 410.417 243.783 410.803 243.461 411.136C243.139 411.466 242.741 411.723 242.267 411.909C241.794 412.091 241.262 412.182 240.671 412.182ZM246.148 412V403.273H247.444V404.591H247.535C247.694 404.159 247.982 403.809 248.398 403.54C248.815 403.271 249.285 403.136 249.807 403.136C249.906 403.136 250.029 403.138 250.177 403.142C250.324 403.146 250.436 403.152 250.512 403.159V404.523C250.466 404.511 250.362 404.494 250.199 404.472C250.04 404.445 249.872 404.432 249.694 404.432C249.269 404.432 248.891 404.521 248.557 404.699C248.228 404.873 247.966 405.116 247.773 405.426C247.584 405.733 247.489 406.083 247.489 406.477V412H246.148ZM253.266 406.75V412H251.925V403.273H253.221V404.636H253.334C253.539 404.193 253.85 403.837 254.266 403.568C254.683 403.295 255.221 403.159 255.88 403.159C256.471 403.159 256.988 403.28 257.431 403.523C257.874 403.761 258.219 404.125 258.465 404.614C258.711 405.098 258.834 405.712 258.834 406.455V412H257.494V406.545C257.494 405.86 257.316 405.326 256.959 404.943C256.603 404.557 256.115 404.364 255.494 404.364C255.066 404.364 254.683 404.456 254.346 404.642C254.013 404.828 253.749 405.098 253.556 405.455C253.363 405.811 253.266 406.242 253.266 406.75ZM264.768 412.182C263.927 412.182 263.202 411.996 262.592 411.625C261.986 411.25 261.518 410.727 261.188 410.057C260.863 409.383 260.7 408.598 260.7 407.705C260.7 406.811 260.863 406.023 261.188 405.341C261.518 404.655 261.976 404.121 262.563 403.739C263.154 403.352 263.844 403.159 264.632 403.159C265.086 403.159 265.535 403.235 265.978 403.386C266.421 403.538 266.825 403.784 267.188 404.125C267.552 404.462 267.842 404.909 268.058 405.466C268.274 406.023 268.382 406.708 268.382 407.523V408.091H261.654V406.932H267.018C267.018 406.439 266.919 406 266.722 405.614C266.529 405.227 266.253 404.922 265.893 404.699C265.537 404.475 265.116 404.364 264.632 404.364C264.097 404.364 263.635 404.496 263.245 404.761C262.859 405.023 262.561 405.364 262.353 405.784C262.145 406.205 262.041 406.655 262.041 407.136V407.909C262.041 408.568 262.154 409.127 262.382 409.585C262.613 410.04 262.933 410.386 263.342 410.625C263.751 410.86 264.226 410.977 264.768 410.977C265.12 410.977 265.438 410.928 265.722 410.83C266.01 410.727 266.258 410.576 266.467 410.375C266.675 410.17 266.836 409.917 266.95 409.614L268.245 409.977C268.109 410.417 267.88 410.803 267.558 411.136C267.236 411.466 266.838 411.723 266.364 411.909C265.891 412.091 265.359 412.182 264.768 412.182ZM274.041 403.273V404.409H269.518V403.273H274.041ZM270.836 401.182H272.177V409.5C272.177 409.879 272.232 410.163 272.342 410.352C272.456 410.538 272.599 410.663 272.774 410.727C272.952 410.788 273.139 410.818 273.336 410.818C273.484 410.818 273.605 410.811 273.7 410.795C273.795 410.777 273.87 410.761 273.927 410.75L274.2 411.955C274.109 411.989 273.982 412.023 273.819 412.057C273.656 412.095 273.45 412.114 273.2 412.114C272.821 412.114 272.45 412.032 272.086 411.869C271.726 411.706 271.427 411.458 271.188 411.125C270.954 410.792 270.836 410.371 270.836 409.864V401.182ZM222.023 427.273V428.409H217.5V427.273H222.023ZM218.818 425.182H220.159V433.5C220.159 433.879 220.214 434.163 220.324 434.352C220.438 434.538 220.581 434.663 220.756 434.727C220.934 434.788 221.121 434.818 221.318 434.818C221.466 434.818 221.587 434.811 221.682 434.795C221.777 434.777 221.852 434.761 221.909 434.75L222.182 435.955C222.091 435.989 221.964 436.023 221.801 436.057C221.638 436.095 221.432 436.114 221.182 436.114C220.803 436.114 220.432 436.032 220.068 435.869C219.708 435.706 219.409 435.458 219.17 435.125C218.936 434.792 218.818 434.371 218.818 433.864V425.182ZM223.864 436V427.273H225.159V428.591H225.25C225.409 428.159 225.697 427.809 226.114 427.54C226.53 427.271 227 427.136 227.523 427.136C227.621 427.136 227.744 427.138 227.892 427.142C228.04 427.146 228.152 427.152 228.227 427.159V428.523C228.182 428.511 228.078 428.494 227.915 428.472C227.756 428.445 227.587 428.432 227.409 428.432C226.985 428.432 226.606 428.521 226.273 428.699C225.943 428.873 225.682 429.116 225.489 429.426C225.299 429.733 225.205 430.083 225.205 430.477V436H223.864ZM232.209 436.205C231.656 436.205 231.154 436.1 230.703 435.892C230.253 435.68 229.895 435.375 229.63 434.977C229.364 434.576 229.232 434.091 229.232 433.523C229.232 433.023 229.33 432.617 229.527 432.307C229.724 431.992 229.987 431.746 230.317 431.568C230.647 431.39 231.01 431.258 231.408 431.17C231.809 431.08 232.213 431.008 232.618 430.955C233.148 430.886 233.578 430.835 233.908 430.801C234.241 430.763 234.484 430.701 234.635 430.614C234.791 430.527 234.868 430.375 234.868 430.159V430.114C234.868 429.553 234.715 429.117 234.408 428.807C234.105 428.496 233.645 428.341 233.027 428.341C232.387 428.341 231.885 428.481 231.522 428.761C231.158 429.042 230.902 429.341 230.755 429.659L229.482 429.205C229.709 428.674 230.012 428.261 230.391 427.966C230.773 427.667 231.19 427.458 231.641 427.341C232.095 427.22 232.542 427.159 232.982 427.159C233.262 427.159 233.584 427.193 233.948 427.261C234.315 427.326 234.669 427.46 235.01 427.665C235.355 427.869 235.641 428.178 235.868 428.591C236.095 429.004 236.209 429.557 236.209 430.25V436H234.868V434.818H234.8C234.709 435.008 234.558 435.21 234.345 435.426C234.133 435.642 233.851 435.826 233.499 435.977C233.147 436.129 232.717 436.205 232.209 436.205ZM232.414 435C232.944 435 233.391 434.896 233.755 434.688C234.122 434.479 234.398 434.21 234.584 433.881C234.773 433.551 234.868 433.205 234.868 432.841V431.614C234.811 431.682 234.686 431.744 234.493 431.801C234.304 431.854 234.084 431.902 233.834 431.943C233.588 431.981 233.347 432.015 233.112 432.045C232.881 432.072 232.694 432.095 232.55 432.114C232.202 432.159 231.876 432.233 231.573 432.335C231.273 432.434 231.031 432.583 230.845 432.784C230.664 432.981 230.573 433.25 230.573 433.591C230.573 434.057 230.745 434.409 231.09 434.648C231.438 434.883 231.88 435 232.414 435ZM242.367 427.273V428.409H237.662V427.273H242.367ZM239.071 436V426.068C239.071 425.568 239.189 425.152 239.424 424.818C239.659 424.485 239.963 424.235 240.338 424.068C240.713 423.902 241.109 423.818 241.526 423.818C241.856 423.818 242.124 423.845 242.333 423.898C242.541 423.951 242.696 424 242.799 424.045L242.412 425.205C242.344 425.182 242.249 425.153 242.128 425.119C242.011 425.085 241.856 425.068 241.662 425.068C241.219 425.068 240.899 425.18 240.702 425.403C240.509 425.627 240.412 425.955 240.412 426.386V436H239.071ZM247.957 427.273V428.409H243.252V427.273H247.957ZM244.661 436V426.068C244.661 425.568 244.778 425.152 245.013 424.818C245.248 424.485 245.553 424.235 245.928 424.068C246.303 423.902 246.699 423.818 247.116 423.818C247.445 423.818 247.714 423.845 247.922 423.898C248.131 423.951 248.286 424 248.388 424.045L248.002 425.205C247.934 425.182 247.839 425.153 247.718 425.119C247.6 425.085 247.445 425.068 247.252 425.068C246.809 425.068 246.489 425.18 246.292 425.403C246.099 425.627 246.002 425.955 246.002 426.386V436H244.661ZM249.66 436V427.273H251.001V436H249.66ZM250.342 425.818C250.08 425.818 249.855 425.729 249.665 425.551C249.48 425.373 249.387 425.159 249.387 424.909C249.387 424.659 249.48 424.445 249.665 424.267C249.855 424.089 250.08 424 250.342 424C250.603 424 250.826 424.089 251.012 424.267C251.201 424.445 251.296 424.659 251.296 424.909C251.296 425.159 251.201 425.373 251.012 425.551C250.826 425.729 250.603 425.818 250.342 425.818ZM256.826 436.182C256.008 436.182 255.303 435.989 254.712 435.602C254.122 435.216 253.667 434.684 253.349 434.006C253.031 433.328 252.872 432.553 252.872 431.682C252.872 430.795 253.034 430.013 253.36 429.335C253.69 428.653 254.148 428.121 254.735 427.739C255.326 427.352 256.015 427.159 256.803 427.159C257.417 427.159 257.97 427.273 258.462 427.5C258.955 427.727 259.358 428.045 259.673 428.455C259.987 428.864 260.182 429.341 260.258 429.886H258.917C258.815 429.489 258.587 429.136 258.235 428.83C257.887 428.519 257.417 428.364 256.826 428.364C256.303 428.364 255.845 428.5 255.451 428.773C255.061 429.042 254.756 429.422 254.536 429.915C254.32 430.403 254.212 430.977 254.212 431.636C254.212 432.311 254.319 432.898 254.531 433.398C254.747 433.898 255.05 434.286 255.44 434.562C255.834 434.839 256.296 434.977 256.826 434.977C257.175 434.977 257.491 434.917 257.775 434.795C258.059 434.674 258.3 434.5 258.497 434.273C258.694 434.045 258.834 433.773 258.917 433.455H260.258C260.182 433.97 259.995 434.434 259.695 434.847C259.4 435.256 259.008 435.581 258.519 435.824C258.034 436.062 257.47 436.182 256.826 436.182Z" fill="#222222"/>
<path d="M210.5 414C210.5 421.456 204.456 427.5 197 427.5C189.544 427.5 183.5 421.456 183.5 414C183.5 406.544 189.544 400.5 197 400.5C204.456 400.5 210.5 406.544 210.5 414Z" fill="#CBE9F3" stroke="black"/>
<path d="M196.74 420.159C195.892 420.159 195.136 420.013 194.473 419.722C193.814 419.426 193.293 419.021 192.911 418.506C192.532 417.987 192.337 417.388 192.325 416.71H194.803C194.818 416.994 194.911 417.244 195.081 417.46C195.255 417.672 195.486 417.837 195.774 417.955C196.062 418.072 196.386 418.131 196.746 418.131C197.121 418.131 197.452 418.064 197.74 417.932C198.028 417.799 198.253 417.616 198.416 417.381C198.579 417.146 198.661 416.875 198.661 416.568C198.661 416.258 198.573 415.983 198.399 415.744C198.229 415.502 197.983 415.312 197.661 415.176C197.342 415.04 196.964 414.972 196.524 414.972H195.439V413.165H196.524C196.895 413.165 197.223 413.1 197.507 412.972C197.795 412.843 198.019 412.665 198.178 412.438C198.337 412.206 198.416 411.938 198.416 411.631C198.416 411.339 198.346 411.083 198.206 410.864C198.07 410.64 197.876 410.466 197.626 410.341C197.38 410.216 197.092 410.153 196.763 410.153C196.43 410.153 196.125 410.214 195.848 410.335C195.572 410.453 195.35 410.621 195.183 410.841C195.017 411.061 194.928 411.318 194.916 411.614H192.558C192.57 410.943 192.761 410.352 193.132 409.841C193.503 409.33 194.003 408.93 194.632 408.642C195.265 408.35 195.979 408.205 196.774 408.205C197.577 408.205 198.28 408.35 198.882 408.642C199.484 408.934 199.952 409.328 200.286 409.824C200.623 410.316 200.789 410.869 200.786 411.483C200.789 412.134 200.587 412.678 200.178 413.114C199.772 413.549 199.244 413.826 198.592 413.943V414.034C199.448 414.144 200.1 414.441 200.547 414.926C200.998 415.407 201.221 416.009 201.217 416.733C201.221 417.396 201.03 417.985 200.644 418.5C200.261 419.015 199.733 419.42 199.058 419.716C198.384 420.011 197.611 420.159 196.74 420.159Z" fill="black"/>
<defs>
<clipPath id="clip0_0_1">
<rect width="32" height="32" fill="white" transform="translate(29 165)"/>
</clipPath>
<clipPath id="clip1_0_1">
<rect width="32" height="32" fill="white" transform="translate(29 11)"/>
</clipPath>
</defs>
</svg>
