<svg width="408" height="647" viewBox="0 0 408 647" fill="none" xmlns="http://www.w3.org/2000/svg">
<rect width="408" height="647" fill="white"/>
<rect x="178" y="145" width="162" height="24" transform="rotate(90 178 145)" fill="#E2F5FA" stroke="#F6821F" stroke-width="2"/>
<rect x="32" y="53" width="348" height="93" fill="white" stroke="#FF8200" stroke-width="2" stroke-dasharray="10 10"/>
<rect x="32" y="207" width="348" height="116" stroke="#6ECCE5" stroke-width="2" stroke-dasharray="10 10"/>
<rect x="75" y="476" width="198" height="129" fill="white" stroke="#0055DC" stroke-width="2"/>
<line x1="184" y1="534" x2="184" y2="557" stroke="#757575" stroke-width="2"/>
<line x1="124" y1="534" x2="124" y2="557" stroke="#757575" stroke-width="2"/>
<line x1="154" y1="559" x2="154" y2="582" stroke="#757575" stroke-width="2"/>
<line x1="214" y1="559" x2="214" y2="582" stroke="#757575" stroke-width="2"/>
<line x1="259" y1="558" x2="106" y2="558" stroke="#757575" stroke-width="2"/>
<rect x="86" y="461" width="64" height="28" fill="white"/>
<path d="M102.633 479V467.364H105.093V476.972H110.082V479H102.633ZM113.837 479H111.201L115.218 467.364H118.388L122.4 479H119.763L116.849 470.023H116.758L113.837 479ZM113.673 474.426H119.9V476.347H113.673V474.426ZM133.357 467.364V479H131.232L126.17 471.676H126.085V479H123.624V467.364H125.784L130.806 474.682H130.909V467.364H133.357Z" fill="#222222"/>
<path d="M103.394 298.364V310H100.934V298.364H103.394ZM111.555 301.71C111.509 301.252 111.314 300.896 110.969 300.642C110.625 300.388 110.157 300.261 109.566 300.261C109.164 300.261 108.825 300.318 108.549 300.432C108.272 300.542 108.06 300.695 107.913 300.892C107.769 301.089 107.697 301.312 107.697 301.562C107.689 301.771 107.733 301.953 107.827 302.108C107.926 302.263 108.06 302.398 108.231 302.511C108.401 302.621 108.598 302.718 108.822 302.801C109.045 302.881 109.284 302.949 109.538 303.006L110.583 303.256C111.091 303.369 111.556 303.521 111.981 303.71C112.405 303.9 112.772 304.133 113.083 304.409C113.394 304.686 113.634 305.011 113.805 305.386C113.979 305.761 114.068 306.191 114.072 306.676C114.068 307.388 113.886 308.006 113.526 308.528C113.17 309.047 112.655 309.451 111.981 309.739C111.31 310.023 110.502 310.165 109.555 310.165C108.615 310.165 107.797 310.021 107.1 309.733C106.407 309.445 105.865 309.019 105.475 308.455C105.089 307.886 104.886 307.184 104.867 306.347H107.248C107.274 306.737 107.386 307.062 107.583 307.324C107.784 307.581 108.051 307.777 108.384 307.909C108.721 308.038 109.102 308.102 109.526 308.102C109.943 308.102 110.305 308.042 110.611 307.92C110.922 307.799 111.163 307.631 111.333 307.415C111.503 307.199 111.589 306.951 111.589 306.67C111.589 306.409 111.511 306.189 111.356 306.011C111.204 305.833 110.981 305.682 110.685 305.557C110.394 305.432 110.036 305.318 109.611 305.216L108.344 304.898C107.363 304.659 106.589 304.286 106.02 303.778C105.452 303.271 105.17 302.587 105.174 301.727C105.17 301.023 105.358 300.407 105.736 299.881C106.119 299.354 106.644 298.943 107.31 298.648C107.977 298.352 108.734 298.205 109.583 298.205C110.447 298.205 111.2 298.352 111.844 298.648C112.492 298.943 112.996 299.354 113.356 299.881C113.716 300.407 113.901 301.017 113.913 301.71H111.555ZM115.55 310V298.364H120.141C121.024 298.364 121.776 298.532 122.397 298.869C123.018 299.203 123.492 299.667 123.817 300.261C124.147 300.852 124.312 301.534 124.312 302.307C124.312 303.08 124.145 303.761 123.812 304.352C123.478 304.943 122.996 305.403 122.363 305.733C121.734 306.062 120.973 306.227 120.079 306.227H117.153V304.256H119.681C120.155 304.256 120.545 304.174 120.852 304.011C121.162 303.845 121.393 303.616 121.545 303.324C121.7 303.028 121.778 302.689 121.778 302.307C121.778 301.92 121.7 301.583 121.545 301.295C121.393 301.004 121.162 300.778 120.852 300.619C120.541 300.456 120.147 300.375 119.67 300.375H118.011V310H115.55ZM134.255 298.364V310H131.795V300.699H131.727L129.062 302.369V300.188L131.943 298.364H134.255Z" fill="#222222"/>
<path d="M326.269 298.364V310H323.809V298.364H326.269ZM334.43 301.71C334.384 301.252 334.189 300.896 333.844 300.642C333.5 300.388 333.032 300.261 332.441 300.261C332.039 300.261 331.7 300.318 331.424 300.432C331.147 300.542 330.935 300.695 330.788 300.892C330.644 301.089 330.572 301.312 330.572 301.562C330.564 301.771 330.608 301.953 330.702 302.108C330.801 302.263 330.935 302.398 331.106 302.511C331.276 302.621 331.473 302.718 331.697 302.801C331.92 302.881 332.159 302.949 332.413 303.006L333.458 303.256C333.966 303.369 334.431 303.521 334.856 303.71C335.28 303.9 335.647 304.133 335.958 304.409C336.269 304.686 336.509 305.011 336.68 305.386C336.854 305.761 336.943 306.191 336.947 306.676C336.943 307.388 336.761 308.006 336.401 308.528C336.045 309.047 335.53 309.451 334.856 309.739C334.185 310.023 333.377 310.165 332.43 310.165C331.49 310.165 330.672 310.021 329.975 309.733C329.282 309.445 328.74 309.019 328.35 308.455C327.964 307.886 327.761 307.184 327.742 306.347H330.123C330.149 306.737 330.261 307.062 330.458 307.324C330.659 307.581 330.926 307.777 331.259 307.909C331.596 308.038 331.977 308.102 332.401 308.102C332.818 308.102 333.18 308.042 333.486 307.92C333.797 307.799 334.038 307.631 334.208 307.415C334.378 307.199 334.464 306.951 334.464 306.67C334.464 306.409 334.386 306.189 334.231 306.011C334.079 305.833 333.856 305.682 333.56 305.557C333.269 305.432 332.911 305.318 332.486 305.216L331.219 304.898C330.238 304.659 329.464 304.286 328.895 303.778C328.327 303.271 328.045 302.587 328.049 301.727C328.045 301.023 328.233 300.407 328.611 299.881C328.994 299.354 329.519 298.943 330.185 298.648C330.852 298.352 331.609 298.205 332.458 298.205C333.322 298.205 334.075 298.352 334.719 298.648C335.367 298.943 335.871 299.354 336.231 299.881C336.591 300.407 336.776 301.017 336.788 301.71H334.43ZM338.425 310V298.364H343.016C343.899 298.364 344.651 298.532 345.272 298.869C345.893 299.203 346.367 299.667 346.692 300.261C347.022 300.852 347.187 301.534 347.187 302.307C347.187 303.08 347.02 303.761 346.687 304.352C346.353 304.943 345.871 305.403 345.238 305.733C344.609 306.062 343.848 306.227 342.954 306.227H340.028V304.256H342.556C343.03 304.256 343.42 304.174 343.727 304.011C344.037 303.845 344.268 303.616 344.42 303.324C344.575 303.028 344.653 302.689 344.653 302.307C344.653 301.92 344.575 301.583 344.42 301.295C344.268 301.004 344.037 300.778 343.727 300.619C343.416 300.456 343.022 300.375 342.545 300.375H340.886V310H338.425ZM352.068 310V308.227L356.21 304.392C356.562 304.051 356.858 303.744 357.096 303.472C357.339 303.199 357.522 302.932 357.647 302.67C357.772 302.405 357.835 302.119 357.835 301.812C357.835 301.472 357.757 301.178 357.602 300.932C357.447 300.682 357.234 300.491 356.965 300.358C356.697 300.222 356.392 300.153 356.051 300.153C355.695 300.153 355.384 300.225 355.119 300.369C354.854 300.513 354.649 300.72 354.505 300.989C354.361 301.258 354.289 301.578 354.289 301.949H351.954C351.954 301.187 352.126 300.527 352.471 299.966C352.816 299.405 353.299 298.972 353.92 298.665C354.541 298.358 355.257 298.205 356.068 298.205C356.901 298.205 357.626 298.352 358.244 298.648C358.865 298.939 359.348 299.345 359.693 299.864C360.037 300.383 360.21 300.977 360.21 301.648C360.21 302.087 360.123 302.521 359.948 302.949C359.778 303.377 359.473 303.852 359.034 304.375C358.594 304.894 357.975 305.517 357.176 306.244L355.477 307.909V307.989H360.363V310H352.068Z" fill="#222222"/>
<g clip-path="url(#clip0_0_1)">
<path d="M57.0305 199.65H38.109C36.2248 199.646 34.419 198.895 33.0867 197.563C31.7544 196.231 31.0041 194.425 31 192.54C31.0102 191.488 31.2479 190.45 31.6967 189.499C32.1454 188.547 32.7947 187.703 33.6 187.025C34.9476 185.886 36.6854 185.314 38.4465 185.431C39.2453 183.465 40.6701 181.818 42.5002 180.744C44.3303 179.67 46.4635 179.229 48.5692 179.49C50.675 179.752 52.6359 180.7 54.148 182.189C55.66 183.678 56.6389 185.624 56.933 187.725C58.39 187.66 59.8179 188.146 60.933 189.086C61.8543 189.888 62.5098 190.952 62.8124 192.136C63.115 193.319 63.0505 194.567 62.6273 195.713C62.2042 196.859 61.4424 197.849 60.4432 198.552C59.444 199.255 58.2547 199.638 57.033 199.649L57.0305 199.65ZM37.9965 187.416C36.8568 187.413 35.7534 187.817 34.886 188.556C34.3031 189.045 33.8328 189.655 33.5073 190.342C33.1818 191.03 33.0087 191.78 33 192.54C33.0021 193.892 33.539 195.189 34.4936 196.146C35.4481 197.103 36.7426 197.644 38.0945 197.65H57.03C58.0827 197.649 59.0918 197.23 59.8361 196.485C60.5804 195.741 60.9989 194.732 61 193.679C61.005 193.099 60.8859 192.526 60.6506 191.996C60.4153 191.466 60.0694 190.993 59.636 190.608C59.1558 190.226 58.5965 189.955 57.9986 189.815C57.4007 189.675 56.7791 189.67 56.179 189.8L55.052 189.981L55.0205 188.84C54.9684 187.03 54.2753 185.298 53.0646 183.951C51.854 182.604 50.2045 181.731 48.4102 181.487C46.6159 181.244 44.7932 181.645 43.2672 182.62C41.7411 183.594 40.6107 185.079 40.0775 186.81L39.8185 187.653L38.95 187.5C38.6352 187.444 38.3162 187.416 37.9965 187.416Z" fill="#6ECCE5"/>
</g>
<path d="M74.4716 184.546V196.182H72.0114V184.546H74.4716ZM78.6947 191.136V196.182H76.2743V187.455H78.5811V188.994H78.6834C78.8766 188.487 79.2004 188.085 79.655 187.79C80.1095 187.491 80.6606 187.341 81.3084 187.341C81.9144 187.341 82.4428 187.474 82.8936 187.739C83.3444 188.004 83.6947 188.383 83.9447 188.875C84.1947 189.364 84.3197 189.947 84.3197 190.625V196.182H81.8993V191.057C81.9031 190.523 81.7667 190.106 81.4902 189.807C81.2137 189.504 80.833 189.352 80.3481 189.352C80.0224 189.352 79.7345 189.422 79.4845 189.563C79.2383 189.703 79.0451 189.907 78.905 190.176C78.7686 190.441 78.6985 190.761 78.6947 191.136ZM90.6935 187.455V189.273H85.4378V187.455H90.6935ZM86.631 185.364H89.0514V193.5C89.0514 193.724 89.0855 193.898 89.1537 194.023C89.2219 194.144 89.3166 194.229 89.4378 194.278C89.5628 194.328 89.7067 194.352 89.8696 194.352C89.9832 194.352 90.0969 194.343 90.2105 194.324C90.3241 194.301 90.4113 194.284 90.4719 194.273L90.8525 196.074C90.7313 196.112 90.5609 196.155 90.3412 196.205C90.1215 196.258 89.8544 196.29 89.54 196.301C88.9567 196.324 88.4453 196.246 88.006 196.068C87.5703 195.89 87.2313 195.614 86.9889 195.239C86.7465 194.864 86.6272 194.39 86.631 193.818V185.364ZM95.9777 196.352C95.08 196.352 94.3072 196.171 93.6595 195.807C93.0156 195.439 92.5193 194.921 92.1709 194.25C91.8224 193.576 91.6481 192.778 91.6481 191.858C91.6481 190.96 91.8224 190.172 92.1709 189.494C92.5193 188.816 93.0099 188.288 93.6425 187.909C94.2788 187.53 95.025 187.341 95.8811 187.341C96.4568 187.341 96.9928 187.434 97.489 187.619C97.989 187.801 98.4247 188.076 98.7959 188.443C99.1709 188.811 99.4625 189.273 99.6709 189.83C99.8792 190.383 99.9834 191.03 99.9834 191.773V192.438H92.614V190.938H97.705C97.705 190.589 97.6292 190.28 97.4777 190.011C97.3262 189.742 97.1159 189.532 96.847 189.381C96.5818 189.225 96.2731 189.148 95.9209 189.148C95.5534 189.148 95.2277 189.233 94.9436 189.403C94.6633 189.57 94.4436 189.796 94.2845 190.08C94.1254 190.36 94.044 190.672 94.0402 191.017V192.443C94.0402 192.875 94.1197 193.248 94.2788 193.563C94.4417 193.877 94.6709 194.119 94.9663 194.29C95.2618 194.46 95.6122 194.546 96.0175 194.546C96.2864 194.546 96.5326 194.508 96.7561 194.432C96.9796 194.356 97.1709 194.242 97.33 194.091C97.489 193.939 97.6103 193.754 97.6936 193.534L99.9322 193.682C99.8186 194.22 99.5856 194.689 99.2334 195.091C98.8849 195.489 98.4341 195.799 97.8811 196.023C97.3318 196.242 96.6974 196.352 95.9777 196.352ZM101.387 196.182V187.455H103.733V188.977H103.824C103.983 188.436 104.251 188.027 104.626 187.75C105.001 187.47 105.432 187.33 105.921 187.33C106.042 187.33 106.173 187.337 106.313 187.352C106.453 187.367 106.576 187.388 106.682 187.415V189.563C106.569 189.528 106.412 189.498 106.211 189.472C106.01 189.445 105.826 189.432 105.66 189.432C105.304 189.432 104.985 189.51 104.705 189.665C104.429 189.816 104.209 190.028 104.046 190.301C103.887 190.574 103.807 190.888 103.807 191.244V196.182H101.387ZM110.178 191.136V196.182H107.758V187.455H110.065V188.994H110.167C110.36 188.487 110.684 188.085 111.138 187.79C111.593 187.491 112.144 187.341 112.792 187.341C113.398 187.341 113.926 187.474 114.377 187.739C114.828 188.004 115.178 188.383 115.428 188.875C115.678 189.364 115.803 189.947 115.803 190.625V196.182H113.383V191.057C113.387 190.523 113.25 190.106 112.974 189.807C112.697 189.504 112.316 189.352 111.832 189.352C111.506 189.352 111.218 189.422 110.968 189.563C110.722 189.703 110.529 189.907 110.388 190.176C110.252 190.441 110.182 190.761 110.178 191.136ZM121.512 196.352C120.614 196.352 119.842 196.171 119.194 195.807C118.55 195.439 118.054 194.921 117.705 194.25C117.357 193.576 117.183 192.778 117.183 191.858C117.183 190.96 117.357 190.172 117.705 189.494C118.054 188.816 118.544 188.288 119.177 187.909C119.813 187.53 120.56 187.341 121.416 187.341C121.991 187.341 122.527 187.434 123.024 187.619C123.524 187.801 123.959 188.076 124.33 188.443C124.705 188.811 124.997 189.273 125.205 189.83C125.414 190.383 125.518 191.03 125.518 191.773V192.438H118.149V190.938H123.239C123.239 190.589 123.164 190.28 123.012 190.011C122.861 189.742 122.65 189.532 122.382 189.381C122.116 189.225 121.808 189.148 121.455 189.148C121.088 189.148 120.762 189.233 120.478 189.403C120.198 189.57 119.978 189.796 119.819 190.08C119.66 190.36 119.578 190.672 119.575 191.017V192.443C119.575 192.875 119.654 193.248 119.813 193.563C119.976 193.877 120.205 194.119 120.501 194.29C120.796 194.46 121.147 194.546 121.552 194.546C121.821 194.546 122.067 194.508 122.291 194.432C122.514 194.356 122.705 194.242 122.864 194.091C123.024 193.939 123.145 193.754 123.228 193.534L125.467 193.682C125.353 194.22 125.12 194.689 124.768 195.091C124.419 195.489 123.969 195.799 123.416 196.023C122.866 196.242 122.232 196.352 121.512 196.352ZM131.563 187.455V189.273H126.308V187.455H131.563ZM127.501 185.364H129.921V193.5C129.921 193.724 129.956 193.898 130.024 194.023C130.092 194.144 130.187 194.229 130.308 194.278C130.433 194.328 130.577 194.352 130.74 194.352C130.853 194.352 130.967 194.343 131.081 194.324C131.194 194.301 131.281 194.284 131.342 194.273L131.723 196.074C131.601 196.112 131.431 196.155 131.211 196.205C130.991 196.258 130.724 196.29 130.41 196.301C129.827 196.324 129.315 196.246 128.876 196.068C128.44 195.89 128.101 195.614 127.859 195.239C127.616 194.864 127.497 194.39 127.501 193.818V185.364Z" fill="#222222"/>
<g clip-path="url(#clip1_0_1)">
<path d="M57.0305 45.65H38.109C36.2248 45.6458 34.419 44.8954 33.0867 43.563C31.7544 42.2306 31.0041 40.4247 31 38.5405C31.0102 37.4882 31.2479 36.4505 31.6967 35.4986C32.1454 34.5466 32.7947 33.703 33.6 33.0255C34.9476 31.8857 36.6854 31.314 38.4465 31.431C39.2453 29.4651 40.6701 27.8176 42.5002 26.7436C44.3303 25.6696 46.4635 25.2292 48.5692 25.4905C50.675 25.7518 52.6359 26.7003 54.148 28.189C55.66 29.6777 56.6389 31.6235 56.933 33.725C58.39 33.6601 59.8179 34.146 60.933 35.086C61.8543 35.8884 62.5098 36.952 62.8124 38.1356C63.115 39.3192 63.0505 40.5669 62.6273 41.713C62.2042 42.8591 61.4424 43.8494 60.4432 44.5524C59.444 45.2554 58.2547 45.6379 57.033 45.649L57.0305 45.65ZM37.9965 33.416C36.8568 33.4126 35.7534 33.8172 34.886 34.5565C34.3031 35.0454 33.8328 35.6546 33.5073 36.3422C33.1818 37.0299 33.0087 37.7797 33 38.5405C33.0021 39.8924 33.539 41.1885 34.4936 42.1458C35.4481 43.1032 36.7426 43.6439 38.0945 43.65H57.03C58.0827 43.6487 59.0918 43.2298 59.8361 42.4854C60.5804 41.7409 60.9989 40.7317 61 39.679C61.005 39.0995 60.8859 38.5256 60.6506 37.996C60.4153 37.4664 60.0694 36.9933 59.636 36.6085C59.1558 36.2258 58.5965 35.9547 57.9986 35.8149C57.4007 35.675 56.7791 35.67 56.179 35.8L55.052 35.9815L55.0205 34.8405C54.9684 33.0304 54.2753 31.2976 53.0646 29.951C51.854 28.6043 50.2045 27.7313 48.4102 27.4875C46.6159 27.2437 44.7932 27.6449 43.2672 28.6197C41.7411 29.5945 40.6107 31.0795 40.0775 32.81L39.8185 33.6535L38.95 33.5C38.6352 33.4445 38.3162 33.4164 37.9965 33.416Z" fill="#F6821F"/>
</g>
<path d="M82.2784 34.6194H79.7898C79.7443 34.2974 79.6515 34.0114 79.5114 33.7614C79.3712 33.5076 79.1913 33.2917 78.9716 33.1137C78.7519 32.9357 78.4981 32.7993 78.2102 32.7046C77.9261 32.6099 77.6174 32.5626 77.2841 32.5626C76.6818 32.5626 76.1572 32.7122 75.7102 33.0114C75.2633 33.3069 74.9167 33.7387 74.6705 34.3069C74.4242 34.8713 74.3011 35.5569 74.3011 36.3637C74.3011 37.1932 74.4242 37.8902 74.6705 38.4546C74.9205 39.019 75.2689 39.4451 75.7159 39.733C76.1629 40.0209 76.6799 40.1648 77.267 40.1648C77.5966 40.1648 77.9015 40.1213 78.1818 40.0342C78.4659 39.947 78.7178 39.8201 78.9375 39.6535C79.1572 39.483 79.339 39.2766 79.483 39.0342C79.6307 38.7917 79.733 38.5152 79.7898 38.2046L82.2784 38.216C82.214 38.7501 82.053 39.2652 81.7955 39.7614C81.5417 40.2539 81.1989 40.6951 80.767 41.0853C80.339 41.4717 79.8277 41.7785 79.233 42.0057C78.642 42.2292 77.9735 42.341 77.2273 42.341C76.1894 42.341 75.2614 42.1061 74.4432 41.6364C73.6288 41.1667 72.9848 40.4868 72.5114 39.5967C72.0417 38.7065 71.8068 37.6289 71.8068 36.3637C71.8068 35.0948 72.0455 34.0152 72.5227 33.1251C73 32.2349 73.6477 31.5569 74.4659 31.091C75.2841 30.6213 76.2045 30.3864 77.2273 30.3864C77.9015 30.3864 78.5265 30.4811 79.1023 30.6705C79.6818 30.8599 80.1951 31.1364 80.642 31.5001C81.089 31.8599 81.4527 32.3012 81.733 32.8239C82.017 33.3467 82.1989 33.9451 82.2784 34.6194ZM86.2416 30.5455V42.1819H83.8212V30.5455H86.2416ZM91.9477 42.3523C91.0651 42.3523 90.3019 42.1648 89.6579 41.7898C89.0178 41.4111 88.5235 40.8845 88.175 40.2103C87.8265 39.5323 87.6523 38.7463 87.6523 37.8523C87.6523 36.9508 87.8265 36.1629 88.175 35.4887C88.5235 34.8107 89.0178 34.2842 89.6579 33.9092C90.3019 33.5304 91.0651 33.341 91.9477 33.341C92.8303 33.341 93.5917 33.5304 94.2318 33.9092C94.8757 34.2842 95.372 34.8107 95.7204 35.4887C96.0689 36.1629 96.2432 36.9508 96.2432 37.8523C96.2432 38.7463 96.0689 39.5323 95.7204 40.2103C95.372 40.8845 94.8757 41.4111 94.2318 41.7898C93.5917 42.1648 92.8303 42.3523 91.9477 42.3523ZM91.9591 40.4773C92.3606 40.4773 92.6958 40.3637 92.9648 40.1364C93.2337 39.9054 93.4364 39.591 93.5727 39.1932C93.7129 38.7955 93.7829 38.3429 93.7829 37.8353C93.7829 37.3277 93.7129 36.8751 93.5727 36.4773C93.4364 36.0796 93.2337 35.7652 92.9648 35.5342C92.6958 35.3031 92.3606 35.1876 91.9591 35.1876C91.5538 35.1876 91.2129 35.3031 90.9364 35.5342C90.6636 35.7652 90.4572 36.0796 90.317 36.4773C90.1807 36.8751 90.1125 37.3277 90.1125 37.8353C90.1125 38.3429 90.1807 38.7955 90.317 39.1932C90.4572 39.591 90.6636 39.9054 90.9364 40.1364C91.2129 40.3637 91.5538 40.4773 91.9591 40.4773ZM103.238 38.466V33.4546H105.658V42.1819H103.334V40.5967H103.243C103.046 41.108 102.719 41.519 102.26 41.8296C101.806 42.1402 101.251 42.2955 100.596 42.2955C100.012 42.2955 99.499 42.1629 99.0558 41.8978C98.6126 41.6326 98.266 41.2557 98.016 40.7671C97.7698 40.2785 97.6448 39.6932 97.641 39.0114V33.4546H100.061V38.5796C100.065 39.0948 100.204 39.502 100.476 39.8012C100.749 40.1004 101.115 40.2501 101.573 40.2501C101.865 40.2501 102.137 40.1838 102.391 40.0512C102.645 39.9148 102.849 39.7141 103.005 39.4489C103.164 39.1838 103.241 38.8561 103.238 38.466ZM110.634 42.3239C109.971 42.3239 109.371 42.1535 108.833 41.8126C108.299 41.4679 107.875 40.9622 107.56 40.2955C107.25 39.6251 107.094 38.8031 107.094 37.8296C107.094 36.8296 107.255 35.9982 107.577 35.3353C107.899 34.6686 108.327 34.1705 108.861 33.841C109.399 33.5076 109.988 33.341 110.628 33.341C111.117 33.341 111.524 33.4243 111.85 33.591C112.18 33.7539 112.445 33.9584 112.645 34.2046C112.85 34.447 113.005 34.6857 113.111 34.9205H113.185V30.5455H115.6V42.1819H113.214V40.7842H113.111C112.998 41.0266 112.837 41.2671 112.628 41.5057C112.424 41.7406 112.157 41.9357 111.827 42.091C111.501 42.2463 111.104 42.3239 110.634 42.3239ZM111.401 40.3978C111.791 40.3978 112.121 40.2917 112.39 40.0796C112.662 39.8637 112.871 39.5626 113.015 39.1762C113.162 38.7898 113.236 38.3372 113.236 37.8182C113.236 37.2993 113.164 36.8486 113.02 36.466C112.876 36.0834 112.668 35.7879 112.395 35.5796C112.123 35.3713 111.791 35.2671 111.401 35.2671C111.003 35.2671 110.668 35.3751 110.395 35.591C110.123 35.8069 109.916 36.1061 109.776 36.4887C109.636 36.8713 109.566 37.3145 109.566 37.8182C109.566 38.3258 109.636 38.7747 109.776 39.1648C109.92 39.5512 110.126 39.8542 110.395 40.0739C110.668 40.2898 111.003 40.3978 111.401 40.3978ZM122.107 33.4546V35.2728H116.721V33.4546H122.107ZM117.954 42.1819V32.8239C117.954 32.1914 118.077 31.6667 118.323 31.2501C118.573 30.8334 118.914 30.5209 119.346 30.3126C119.778 30.1042 120.268 30.0001 120.817 30.0001C121.189 30.0001 121.528 30.0285 121.834 30.0853C122.145 30.1421 122.376 30.1932 122.528 30.2387L122.096 32.0569C122.001 32.0266 121.884 31.9982 121.744 31.9717C121.607 31.9451 121.467 31.9319 121.323 31.9319C120.967 31.9319 120.719 32.0152 120.579 32.1819C120.439 32.3448 120.369 32.5739 120.369 32.8694V42.1819H117.954ZM125.83 30.5455V42.1819H123.41V30.5455H125.83ZM130.082 42.3467C129.525 42.3467 129.029 42.2501 128.593 42.0569C128.158 41.8599 127.813 41.5701 127.559 41.1876C127.309 40.8012 127.184 40.3201 127.184 39.7444C127.184 39.2595 127.273 38.8523 127.451 38.5228C127.629 38.1932 127.872 37.9281 128.179 37.7273C128.485 37.5266 128.834 37.3751 129.224 37.2728C129.618 37.1705 130.031 37.0986 130.463 37.0569C130.97 37.0039 131.379 36.9546 131.69 36.9092C132 36.8599 132.226 36.7879 132.366 36.6932C132.506 36.5986 132.576 36.4584 132.576 36.2728V36.2387C132.576 35.8789 132.463 35.6004 132.235 35.4035C132.012 35.2065 131.694 35.108 131.281 35.108C130.845 35.108 130.499 35.2046 130.241 35.3978C129.983 35.5872 129.813 35.8258 129.73 36.1137L127.491 35.9319C127.605 35.4016 127.828 34.9432 128.161 34.5569C128.495 34.1667 128.925 33.8675 129.451 33.6592C129.982 33.447 130.595 33.341 131.292 33.341C131.777 33.341 132.241 33.3978 132.684 33.5114C133.131 33.6251 133.527 33.8012 133.872 34.0398C134.22 34.2785 134.495 34.5853 134.696 34.9603C134.896 35.3315 134.997 35.7766 134.997 36.2955V42.1819H132.701V40.9717H132.633C132.493 41.2444 132.305 41.4849 132.071 41.6932C131.836 41.8978 131.554 42.0588 131.224 42.1762C130.894 42.2898 130.514 42.3467 130.082 42.3467ZM130.775 40.6762C131.131 40.6762 131.446 40.6061 131.718 40.466C131.991 40.322 132.205 40.1289 132.36 39.8864C132.516 39.644 132.593 39.3694 132.593 39.0626V38.1364C132.518 38.1857 132.413 38.2311 132.281 38.2728C132.152 38.3107 132.006 38.3467 131.843 38.3807C131.68 38.4111 131.518 38.4395 131.355 38.466C131.192 38.4887 131.044 38.5095 130.911 38.5285C130.627 38.5701 130.379 38.6364 130.167 38.7273C129.955 38.8182 129.79 38.9414 129.673 39.0967C129.555 39.2482 129.497 39.4376 129.497 39.6648C129.497 39.9944 129.616 40.2463 129.855 40.4205C130.097 40.591 130.404 40.6762 130.775 40.6762ZM136.699 42.1819V33.4546H139.045V34.9773H139.136C139.295 34.4357 139.562 34.0266 139.937 33.7501C140.312 33.4698 140.744 33.3296 141.233 33.3296C141.354 33.3296 141.485 33.3372 141.625 33.3523C141.765 33.3675 141.888 33.3883 141.994 33.4148V35.5626C141.88 35.5285 141.723 35.4982 141.522 35.4717C141.322 35.4451 141.138 35.4319 140.971 35.4319C140.615 35.4319 140.297 35.5095 140.017 35.6648C139.74 35.8164 139.521 36.0285 139.358 36.3012C139.199 36.5739 139.119 36.8883 139.119 37.2444V42.1819H136.699ZM146.64 42.3523C145.743 42.3523 144.97 42.1705 144.322 41.8069C143.678 41.4395 143.182 40.9205 142.834 40.2501C142.485 39.5758 142.311 38.7785 142.311 37.858C142.311 36.9603 142.485 36.1724 142.834 35.4944C143.182 34.8164 143.673 34.2879 144.305 33.9092C144.942 33.5304 145.688 33.341 146.544 33.341C147.12 33.341 147.656 33.4338 148.152 33.6194C148.652 33.8012 149.087 34.0758 149.459 34.4432C149.834 34.8107 150.125 35.2728 150.334 35.8296C150.542 36.3826 150.646 37.0304 150.646 37.7728V38.4376H143.277V36.9376H148.368C148.368 36.5891 148.292 36.2804 148.14 36.0114C147.989 35.7425 147.779 35.5323 147.51 35.3807C147.245 35.2254 146.936 35.1478 146.584 35.1478C146.216 35.1478 145.89 35.233 145.606 35.4035C145.326 35.5701 145.106 35.7955 144.947 36.0796C144.788 36.3599 144.707 36.6724 144.703 37.0171V38.4432C144.703 38.8751 144.782 39.2482 144.942 39.5626C145.104 39.877 145.334 40.1194 145.629 40.2898C145.925 40.4603 146.275 40.5455 146.68 40.5455C146.949 40.5455 147.195 40.5076 147.419 40.4319C147.642 40.3561 147.834 40.2425 147.993 40.091C148.152 39.9395 148.273 39.7539 148.356 39.5342L150.595 39.6819C150.481 40.2198 150.248 40.6895 149.896 41.091C149.548 41.4887 149.097 41.7993 148.544 42.0228C147.995 42.2425 147.36 42.3523 146.64 42.3523Z" fill="#222222"/>
<line x1="234" y1="497" x2="234" y2="557" stroke="#757575" stroke-width="2"/>
<rect x="184.284" y="330.318" width="120.243" height="24" transform="rotate(66.2374 184.284 330.318)" fill="#E2F5FA" stroke="#F6821F" stroke-width="2"/>
<rect x="0.512276" y="1.31817" width="120.243" height="24" transform="matrix(-0.402948 0.915223 0.915223 0.402948 281.77 329.318)" fill="#E2F5FA" stroke="#F6821F" stroke-width="2"/>
<circle cx="166.5" cy="322.5" r="17.5" fill="white"/>
<circle cx="166.5" cy="322.5" r="17.7414" fill="white"/>
<path d="M166.5 302.594C162.563 302.594 158.714 303.761 155.441 305.949C152.167 308.136 149.616 311.245 148.109 314.882C146.602 318.52 146.208 322.522 146.976 326.384C147.744 330.245 149.64 333.792 152.424 336.576C155.208 339.36 158.755 341.256 162.616 342.024C166.478 342.792 170.48 342.398 174.118 340.891C177.755 339.384 180.864 336.833 183.051 333.559C185.239 330.286 186.406 326.437 186.406 322.5C186.386 317.227 184.282 312.175 180.554 308.446C176.825 304.718 171.773 302.614 166.5 302.594ZM166.5 339.344C163.169 339.344 159.912 338.356 157.142 336.505C154.372 334.654 152.213 332.024 150.938 328.946C149.664 325.868 149.33 322.481 149.98 319.214C150.63 315.947 152.234 312.945 154.59 310.59C156.945 308.234 159.947 306.63 163.214 305.98C166.481 305.33 169.868 305.664 172.946 306.938C176.024 308.213 178.654 310.372 180.505 313.142C182.356 315.912 183.344 319.169 183.344 322.5C183.324 326.961 181.543 331.234 178.388 334.388C175.234 337.543 170.961 339.324 166.5 339.344Z" fill="#0055DC"/>
<path d="M164.509 324.644V324.567H164.433L163.361 323.495L158.155 328.855V325.792H155.705V333.448H163.361V330.998H160.298L165.581 325.716L164.509 324.644Z" fill="#0055DC"/>
<path d="M169.486 321.734L174.769 316.298V319.361H177.219V311.705H169.563V314.155H172.625L167.266 319.591L169.486 321.734Z" fill="#0055DC"/>
<path d="M171.936 325.869H174.922V323.419H167.266V331.075H169.716V328.013L175.917 334.061L178.061 331.917L171.936 325.869Z" fill="#0055DC"/>
<path d="M163.131 317.064L157.083 310.939L154.939 313.083L160.988 319.284H157.925V321.734H165.581V314.078H163.131V317.064Z" fill="#0055DC"/>
<circle cx="234" cy="466" r="31" fill="white" stroke="#F6821F" stroke-width="2"/>
<path d="M260 464H244.09L258.76 457.9L257.23 454.2L242.5 460.28L253.77 449L250.94 446.17L239.72 457.4L245.82 442.75L242.12 441.21L236 455.93V440H232V455.86L226 441.19L222.3 442.72L228.38 457.45L217.06 446.18L214.23 449L225.45 460.23L210.8 454.14L209.26 457.83L224 464H208V468H223.91L209.24 474L210.77 477.7L225.5 471.62L214.23 482.89L217.06 485.72L228.28 474.5L222.18 489.15L225.88 490.69L232 476V491.91H236V476L242 490.67L245.7 489.15L239.67 474.45L250.94 485.72L253.77 482.89L242.55 471.67L257.2 477.77L258.74 474.07L244 468H260V464ZM244 464V468L242.48 471.68L239.67 474.49L236 475.94H232L228.33 474.42L225.52 471.61L224 467.93V464L225.52 460.32L228.33 457.51L232 456H236L239.67 457.52L242.48 460.33L244 464Z" fill="#F6821F"/>
<path d="M177.359 343.067C176.844 342.868 176.265 343.126 176.067 343.641L172.836 352.041C172.638 352.557 172.895 353.135 173.41 353.333C173.926 353.532 174.504 353.275 174.703 352.759L177.574 345.292L185.041 348.164C185.557 348.362 186.135 348.105 186.333 347.59C186.532 347.074 186.275 346.496 185.759 346.297L177.359 343.067ZM216.641 434.933C217.156 435.132 217.735 434.874 217.933 434.359L221.164 425.959C221.362 425.443 221.105 424.865 220.59 424.667C220.074 424.468 219.496 424.725 219.297 425.241L216.426 432.708L208.959 429.836C208.443 429.638 207.865 429.895 207.667 430.41C207.468 430.926 207.725 431.504 208.241 431.703L216.641 434.933ZM176.086 344.406L216.086 434.406L217.914 433.594L177.914 343.594L176.086 344.406Z" fill="#757575"/>
<path d="M289.641 343.067C290.156 342.868 290.735 343.126 290.933 343.641L294.164 352.041C294.362 352.557 294.105 353.135 293.59 353.333C293.074 353.532 292.496 353.275 292.297 352.759L289.426 345.292L281.959 348.164C281.443 348.362 280.865 348.105 280.667 347.59C280.468 347.074 280.725 346.496 281.241 346.297L289.641 343.067ZM250.359 434.933C249.844 435.132 249.265 434.874 249.067 434.359L245.836 425.959C245.638 425.443 245.895 424.865 246.41 424.667C246.926 424.468 247.504 424.725 247.703 425.241L250.574 432.708L258.041 429.836C258.557 429.638 259.135 429.895 259.333 430.41C259.532 430.926 259.275 431.504 258.759 431.703L250.359 434.933ZM290.914 344.406L250.914 434.406L249.086 433.594L289.086 343.594L290.914 344.406Z" fill="#757575"/>
<rect x="155" y="142" width="22" height="5" fill="white"/>
<path d="M166.707 152.293C166.317 151.902 165.683 151.902 165.293 152.293L158.929 158.657C158.538 159.047 158.538 159.681 158.929 160.071C159.319 160.462 159.953 160.462 160.343 160.071L166 154.414L171.657 160.071C172.047 160.462 172.681 160.462 173.071 160.071C173.462 159.681 173.462 159.047 173.071 158.657L166.707 152.293ZM165.293 292.707C165.683 293.098 166.317 293.098 166.707 292.707L173.071 286.343C173.462 285.953 173.462 285.319 173.071 284.929C172.681 284.538 172.047 284.538 171.657 284.929L166 290.586L160.343 284.929C159.953 284.538 159.319 284.538 158.929 284.929C158.538 285.319 158.538 285.953 158.929 286.343L165.293 292.707ZM165 153L165 292L167 292L167 153L165 153Z" fill="#757575"/>
<rect x="310" y="146" width="162" height="24" transform="rotate(90 310 146)" fill="#E2F5FA" stroke="#F6821F" stroke-width="2"/>
<rect x="287" y="142" width="22" height="5" fill="white"/>
<path d="M298.707 152.293C298.317 151.902 297.683 151.902 297.293 152.293L290.929 158.657C290.538 159.047 290.538 159.681 290.929 160.071C291.319 160.462 291.953 160.462 292.343 160.071L298 154.414L303.657 160.071C304.047 160.462 304.681 160.462 305.071 160.071C305.462 159.681 305.462 159.047 305.071 158.657L298.707 152.293ZM297.293 292.707C297.683 293.098 298.317 293.098 298.707 292.707L305.071 286.343C305.462 285.953 305.462 285.319 305.071 284.929C304.681 284.538 304.047 284.538 303.657 284.929L298 290.586L292.343 284.929C291.953 284.538 291.319 284.538 290.929 284.929C290.538 285.319 290.538 285.953 290.929 286.343L297.293 292.707ZM297 153L297 292L299 292L299 153L297 153Z" fill="#757575"/>
<circle cx="298.5" cy="322.5" r="17.5" fill="white"/>
<circle cx="298.5" cy="322.5" r="17.7414" fill="white"/>
<path d="M298.5 302.594C294.563 302.594 290.714 303.761 287.441 305.949C284.167 308.136 281.616 311.245 280.109 314.882C278.602 318.52 278.208 322.522 278.976 326.384C279.744 330.245 281.64 333.792 284.424 336.576C287.208 339.36 290.755 341.256 294.616 342.024C298.478 342.792 302.48 342.398 306.118 340.891C309.755 339.384 312.864 336.833 315.051 333.559C317.239 330.286 318.406 326.437 318.406 322.5C318.386 317.227 316.282 312.175 312.554 308.446C308.825 304.718 303.773 302.614 298.5 302.594ZM298.5 339.344C295.169 339.344 291.912 338.356 289.142 336.505C286.372 334.654 284.213 332.024 282.938 328.946C281.664 325.868 281.33 322.481 281.98 319.214C282.63 315.947 284.234 312.945 286.59 310.59C288.945 308.234 291.947 306.63 295.214 305.98C298.481 305.33 301.868 305.664 304.946 306.938C308.024 308.213 310.654 310.372 312.505 313.142C314.356 315.912 315.344 319.169 315.344 322.5C315.324 326.961 313.543 331.234 310.388 334.388C307.234 337.543 302.961 339.324 298.5 339.344Z" fill="#0055DC"/>
<path d="M296.509 324.644V324.567H296.433L295.361 323.495L290.155 328.855V325.792H287.705V333.448H295.361V330.998H292.298L297.581 325.716L296.509 324.644Z" fill="#0055DC"/>
<path d="M301.486 321.734L306.769 316.298V319.361H309.219V311.705H301.563V314.155H304.625L299.266 319.591L301.486 321.734Z" fill="#0055DC"/>
<path d="M303.936 325.869H306.922V323.419H299.266V331.075H301.716V328.013L307.917 334.061L310.061 331.917L303.936 325.869Z" fill="#0055DC"/>
<path d="M295.131 317.064L289.083 310.939L286.939 313.083L292.988 319.284H289.925V321.734H297.581V314.078H295.131V317.064Z" fill="#0055DC"/>
<defs>
<clipPath id="clip0_0_1">
<rect width="32" height="32" fill="white" transform="translate(31 174)"/>
</clipPath>
<clipPath id="clip1_0_1">
<rect width="32" height="32" fill="white" transform="translate(31 20)"/>
</clipPath>
</defs>
</svg>
