<svg width="536" height="617" viewBox="0 0 536 617" fill="none" xmlns="http://www.w3.org/2000/svg">
<rect width="536" height="617" fill="white"/>
<rect x="168" y="131" width="162" height="24" transform="rotate(90 168 131)" fill="#E2F5FA" stroke="#F6821F" stroke-width="2"/>
<rect x="22" y="39" width="348" height="93" fill="white" stroke="#FF8200" stroke-width="2" stroke-dasharray="10 10"/>
<rect x="22" y="193" width="348" height="116" stroke="#6ECCE5" stroke-width="2" stroke-dasharray="10 10"/>
<rect x="22" y="462" width="344" height="129" fill="white" stroke="#0055DC" stroke-width="2"/>
<line x1="158" y1="520" x2="158" y2="543" stroke="#757575" stroke-width="2"/>
<line x1="91" y1="520" x2="91" y2="543" stroke="#757575" stroke-width="2"/>
<line x1="124" y1="543" x2="124" y2="566" stroke="#757575" stroke-width="2"/>
<line x1="195" y1="543" x2="195" y2="566" stroke="#757575" stroke-width="2"/>
<line x1="264" y1="545" x2="264" y2="568" stroke="#757575" stroke-width="2"/>
<line x1="324" y1="545" x2="324" y2="568" stroke="#757575" stroke-width="2"/>
<line x1="345" y1="544" x2="53" y2="544" stroke="#757575" stroke-width="2"/>
<rect x="42" y="447" width="64" height="28" fill="white"/>
<path d="M58.6327 465V453.364H61.0929V462.972H66.0815V465H58.6327ZM69.8374 465H67.201L71.218 453.364H74.3885L78.3999 465H75.7635L72.8487 456.023H72.7578L69.8374 465ZM69.6726 460.426H75.8999V462.347H69.6726V460.426ZM89.3574 453.364V465H87.2324L82.1699 457.676H82.0847V465H79.6244V453.364H81.7835L86.8062 460.682H86.9085V453.364H89.3574Z" fill="#222222"/>
<path d="M98.9835 284.364V296H96.5233V284.364H98.9835ZM107.144 287.71C107.099 287.252 106.904 286.896 106.559 286.642C106.214 286.388 105.746 286.261 105.156 286.261C104.754 286.261 104.415 286.318 104.138 286.432C103.862 286.542 103.65 286.695 103.502 286.892C103.358 287.089 103.286 287.312 103.286 287.562C103.279 287.771 103.322 287.953 103.417 288.108C103.515 288.263 103.65 288.398 103.82 288.511C103.991 288.621 104.188 288.718 104.411 288.801C104.635 288.881 104.873 288.949 105.127 289.006L106.173 289.256C106.68 289.369 107.146 289.521 107.57 289.71C107.995 289.9 108.362 290.133 108.673 290.409C108.983 290.686 109.224 291.011 109.394 291.386C109.568 291.761 109.657 292.191 109.661 292.676C109.657 293.388 109.476 294.006 109.116 294.528C108.76 295.047 108.245 295.451 107.57 295.739C106.9 296.023 106.091 296.165 105.144 296.165C104.205 296.165 103.387 296.021 102.69 295.733C101.996 295.445 101.455 295.019 101.065 294.455C100.678 293.886 100.476 293.184 100.457 292.347H102.837C102.864 292.737 102.976 293.062 103.173 293.324C103.373 293.581 103.64 293.777 103.974 293.909C104.311 294.038 104.692 294.102 105.116 294.102C105.532 294.102 105.894 294.042 106.201 293.92C106.512 293.799 106.752 293.631 106.923 293.415C107.093 293.199 107.178 292.951 107.178 292.67C107.178 292.409 107.101 292.189 106.945 292.011C106.794 291.833 106.57 291.682 106.275 291.557C105.983 291.432 105.625 291.318 105.201 291.216L103.934 290.898C102.953 290.659 102.178 290.286 101.61 289.778C101.042 289.271 100.76 288.587 100.763 287.727C100.76 287.023 100.947 286.407 101.326 285.881C101.709 285.354 102.233 284.943 102.9 284.648C103.567 284.352 104.324 284.205 105.173 284.205C106.036 284.205 106.79 284.352 107.434 284.648C108.082 284.943 108.585 285.354 108.945 285.881C109.305 286.407 109.491 287.017 109.502 287.71H107.144ZM111.14 296V284.364H115.731C116.614 284.364 117.365 284.532 117.987 284.869C118.608 285.203 119.081 285.667 119.407 286.261C119.737 286.852 119.901 287.534 119.901 288.307C119.901 289.08 119.735 289.761 119.401 290.352C119.068 290.943 118.585 291.403 117.953 291.733C117.324 292.062 116.562 292.227 115.668 292.227H112.742V290.256H115.271C115.744 290.256 116.134 290.174 116.441 290.011C116.752 289.845 116.983 289.616 117.134 289.324C117.29 289.028 117.367 288.689 117.367 288.307C117.367 287.92 117.29 287.583 117.134 287.295C116.983 287.004 116.752 286.778 116.441 286.619C116.131 286.456 115.737 286.375 115.259 286.375H113.6V296H111.14Z" fill="#222222"/>
<g clip-path="url(#clip0_0_1)">
<path d="M47.0305 185.65H28.109C26.2248 185.646 24.419 184.895 23.0867 183.563C21.7544 182.231 21.0041 180.425 21 178.54C21.0102 177.488 21.2479 176.45 21.6967 175.498C22.1454 174.547 22.7947 173.703 23.6 173.025C24.9476 171.886 26.6854 171.314 28.4465 171.431C29.2453 169.465 30.6701 167.818 32.5002 166.744C34.3303 165.67 36.4635 165.229 38.5692 165.49C40.675 165.752 42.6359 166.7 44.148 168.189C45.66 169.678 46.6389 171.623 46.933 173.725C48.39 173.66 49.8179 174.146 50.933 175.086C51.8543 175.888 52.5098 176.952 52.8124 178.136C53.115 179.319 53.0505 180.567 52.6273 181.713C52.2042 182.859 51.4424 183.849 50.4432 184.552C49.444 185.255 48.2547 185.638 47.033 185.649L47.0305 185.65ZM27.9965 173.416C26.8568 173.413 25.7534 173.817 24.886 174.556C24.3031 175.045 23.8328 175.655 23.5073 176.342C23.1818 177.03 23.0087 177.78 23 178.54C23.0021 179.892 23.539 181.188 24.4936 182.146C25.4481 183.103 26.7426 183.644 28.0945 183.65H47.03C48.0827 183.649 49.0918 183.23 49.8361 182.485C50.5804 181.741 50.9989 180.732 51 179.679C51.005 179.099 50.8859 178.526 50.6506 177.996C50.4153 177.466 50.0694 176.993 49.636 176.608C49.1558 176.226 48.5965 175.955 47.9986 175.815C47.4007 175.675 46.7791 175.67 46.179 175.8L45.052 175.981L45.0205 174.84C44.9684 173.03 44.2753 171.298 43.0646 169.951C41.854 168.604 40.2045 167.731 38.4102 167.487C36.6159 167.244 34.7932 167.645 33.2672 168.62C31.7411 169.594 30.6107 171.079 30.0775 172.81L29.8185 173.653L28.95 173.5C28.6352 173.444 28.3162 173.416 27.9965 173.416Z" fill="#6ECCE5"/>
</g>
<path d="M64.4716 170.364V182H62.0114V170.364H64.4716ZM68.6947 176.955V182H66.2743V173.273H68.5811V174.812H68.6834C68.8766 174.305 69.2004 173.903 69.655 173.608C70.1095 173.309 70.6606 173.159 71.3084 173.159C71.9144 173.159 72.4428 173.292 72.8936 173.557C73.3444 173.822 73.6947 174.201 73.9447 174.693C74.1947 175.182 74.3197 175.765 74.3197 176.443V182H71.8993V176.875C71.9031 176.341 71.7667 175.924 71.4902 175.625C71.2137 175.322 70.833 175.17 70.3481 175.17C70.0224 175.17 69.7345 175.241 69.4845 175.381C69.2383 175.521 69.0451 175.725 68.905 175.994C68.7686 176.259 68.6985 176.58 68.6947 176.955ZM80.6935 173.273V175.091H75.4378V173.273H80.6935ZM76.631 171.182H79.0514V179.318C79.0514 179.542 79.0855 179.716 79.1537 179.841C79.2219 179.962 79.3166 180.047 79.4378 180.097C79.5628 180.146 79.7067 180.17 79.8696 180.17C79.9832 180.17 80.0969 180.161 80.2105 180.142C80.3241 180.119 80.4113 180.102 80.4719 180.091L80.8525 181.892C80.7313 181.93 80.5609 181.973 80.3412 182.023C80.1215 182.076 79.8544 182.108 79.54 182.119C78.9567 182.142 78.4453 182.064 78.006 181.886C77.5703 181.708 77.2313 181.432 76.9889 181.057C76.7465 180.682 76.6272 180.208 76.631 179.636V171.182ZM85.9777 182.17C85.08 182.17 84.3072 181.989 83.6595 181.625C83.0156 181.258 82.5193 180.739 82.1709 180.068C81.8224 179.394 81.6481 178.597 81.6481 177.676C81.6481 176.778 81.8224 175.991 82.1709 175.312C82.5193 174.634 83.0099 174.106 83.6425 173.727C84.2788 173.348 85.025 173.159 85.8811 173.159C86.4568 173.159 86.9928 173.252 87.489 173.438C87.989 173.619 88.4247 173.894 88.7959 174.261C89.1709 174.629 89.4625 175.091 89.6709 175.648C89.8792 176.201 89.9834 176.848 89.9834 177.591V178.256H82.614V176.756H87.705C87.705 176.407 87.6292 176.098 87.4777 175.83C87.3262 175.561 87.1159 175.35 86.847 175.199C86.5818 175.044 86.2731 174.966 85.9209 174.966C85.5534 174.966 85.2277 175.051 84.9436 175.222C84.6633 175.388 84.4436 175.614 84.2845 175.898C84.1254 176.178 84.044 176.491 84.0402 176.835V178.261C84.0402 178.693 84.1197 179.066 84.2788 179.381C84.4417 179.695 84.6709 179.938 84.9663 180.108C85.2618 180.278 85.6122 180.364 86.0175 180.364C86.2864 180.364 86.5326 180.326 86.7561 180.25C86.9796 180.174 87.1709 180.061 87.33 179.909C87.489 179.758 87.6103 179.572 87.6936 179.352L89.9322 179.5C89.8186 180.038 89.5856 180.508 89.2334 180.909C88.8849 181.307 88.4341 181.617 87.8811 181.841C87.3318 182.061 86.6974 182.17 85.9777 182.17ZM91.3869 182V173.273H93.7335V174.795H93.8244C93.9835 174.254 94.2505 173.845 94.6255 173.568C95.0005 173.288 95.4324 173.148 95.921 173.148C96.0422 173.148 96.1729 173.155 96.313 173.17C96.4532 173.186 96.5763 173.206 96.6824 173.233V175.381C96.5687 175.347 96.4115 175.316 96.2108 175.29C96.01 175.263 95.8263 175.25 95.6596 175.25C95.3036 175.25 94.9854 175.328 94.7051 175.483C94.4286 175.634 94.2089 175.847 94.046 176.119C93.8869 176.392 93.8074 176.706 93.8074 177.062V182H91.3869ZM100.178 176.955V182H97.7578V173.273H100.065V174.812H100.167C100.36 174.305 100.684 173.903 101.138 173.608C101.593 173.309 102.144 173.159 102.792 173.159C103.398 173.159 103.926 173.292 104.377 173.557C104.828 173.822 105.178 174.201 105.428 174.693C105.678 175.182 105.803 175.765 105.803 176.443V182H103.383V176.875C103.387 176.341 103.25 175.924 102.974 175.625C102.697 175.322 102.316 175.17 101.832 175.17C101.506 175.17 101.218 175.241 100.968 175.381C100.722 175.521 100.529 175.725 100.388 175.994C100.252 176.259 100.182 176.58 100.178 176.955ZM111.512 182.17C110.614 182.17 109.842 181.989 109.194 181.625C108.55 181.258 108.054 180.739 107.705 180.068C107.357 179.394 107.183 178.597 107.183 177.676C107.183 176.778 107.357 175.991 107.705 175.312C108.054 174.634 108.544 174.106 109.177 173.727C109.813 173.348 110.56 173.159 111.416 173.159C111.991 173.159 112.527 173.252 113.024 173.438C113.524 173.619 113.959 173.894 114.33 174.261C114.705 174.629 114.997 175.091 115.205 175.648C115.414 176.201 115.518 176.848 115.518 177.591V178.256H108.149V176.756H113.239C113.239 176.407 113.164 176.098 113.012 175.83C112.861 175.561 112.65 175.35 112.382 175.199C112.116 175.044 111.808 174.966 111.455 174.966C111.088 174.966 110.762 175.051 110.478 175.222C110.198 175.388 109.978 175.614 109.819 175.898C109.66 176.178 109.578 176.491 109.575 176.835V178.261C109.575 178.693 109.654 179.066 109.813 179.381C109.976 179.695 110.205 179.938 110.501 180.108C110.796 180.278 111.147 180.364 111.552 180.364C111.821 180.364 112.067 180.326 112.291 180.25C112.514 180.174 112.705 180.061 112.864 179.909C113.024 179.758 113.145 179.572 113.228 179.352L115.467 179.5C115.353 180.038 115.12 180.508 114.768 180.909C114.419 181.307 113.969 181.617 113.416 181.841C112.866 182.061 112.232 182.17 111.512 182.17ZM121.563 173.273V175.091H116.308V173.273H121.563ZM117.501 171.182H119.921V179.318C119.921 179.542 119.956 179.716 120.024 179.841C120.092 179.962 120.187 180.047 120.308 180.097C120.433 180.146 120.577 180.17 120.74 180.17C120.853 180.17 120.967 180.161 121.081 180.142C121.194 180.119 121.281 180.102 121.342 180.091L121.723 181.892C121.601 181.93 121.431 181.973 121.211 182.023C120.991 182.076 120.724 182.108 120.41 182.119C119.827 182.142 119.315 182.064 118.876 181.886C118.44 181.708 118.101 181.432 117.859 181.057C117.616 180.682 117.497 180.208 117.501 179.636V171.182Z" fill="#222222"/>
<g clip-path="url(#clip1_0_1)">
<path d="M47.0305 31.6499H28.109C26.2248 31.6457 24.419 30.8953 23.0867 29.5629C21.7544 28.2305 21.0041 26.4246 21 24.5404C21.0102 23.4881 21.2479 22.4504 21.6967 21.4985C22.1454 20.5466 22.7947 19.703 23.6 19.0254C24.9476 17.8856 26.6854 17.3139 28.4465 17.4309C29.2453 15.4651 30.6701 13.8175 32.5002 12.7435C34.3303 11.6696 36.4635 11.2291 38.5692 11.4904C40.675 11.7517 42.6359 12.7002 44.148 14.1889C45.66 15.6776 46.6389 17.6235 46.933 19.7249C48.39 19.6601 49.8179 20.146 50.933 21.0859C51.8543 21.8883 52.5098 22.9519 52.8124 24.1355C53.115 25.3192 53.0505 26.5669 52.6273 27.713C52.2042 28.8591 51.4424 29.8493 50.4432 30.5523C49.444 31.2553 48.2547 31.6378 47.033 31.6489L47.0305 31.6499ZM27.9965 19.4159C26.8568 19.4126 25.7534 19.8171 24.886 20.5564C24.3031 21.0454 23.8328 21.6545 23.5073 22.3422C23.1818 23.0298 23.0087 23.7797 23 24.5404C23.0021 25.8923 23.539 27.1885 24.4936 28.1458C25.4481 29.1031 26.7426 29.6439 28.0945 29.6499H47.03C48.0827 29.6486 49.0918 29.2298 49.8361 28.4853C50.5804 27.7409 50.9989 26.7316 51 25.6789C51.005 25.0994 50.8859 24.5256 50.6506 23.9959C50.4153 23.4663 50.0694 22.9932 49.636 22.6084C49.1558 22.2257 48.5965 21.9546 47.9986 21.8148C47.4007 21.675 46.7791 21.6699 46.179 21.7999L45.052 21.9814L45.0205 20.8404C44.9684 19.0304 44.2753 17.2976 43.0646 15.9509C41.854 14.6043 40.2045 13.7312 38.4102 13.4874C36.6159 13.2436 34.7932 13.6448 33.2672 14.6196C31.7411 15.5944 30.6107 17.0794 30.0775 18.8099L29.8185 19.6534L28.95 19.4999C28.6352 19.4444 28.3162 19.4163 27.9965 19.4159Z" fill="#F6821F"/>
</g>
<path d="M72.2784 20.6191H69.7898C69.7443 20.2972 69.6515 20.0112 69.5114 19.7612C69.3712 19.5074 69.1913 19.2915 68.9716 19.1135C68.7519 18.9354 68.4981 18.7991 68.2102 18.7044C67.9261 18.6097 67.6174 18.5623 67.2841 18.5623C66.6818 18.5623 66.1572 18.7119 65.7102 19.0112C65.2633 19.3066 64.9167 19.7385 64.6705 20.3066C64.4242 20.871 64.3011 21.5566 64.3011 22.3635C64.3011 23.193 64.4242 23.89 64.6705 24.4544C64.9205 25.0188 65.2689 25.4449 65.7159 25.7328C66.1629 26.0207 66.6799 26.1646 67.267 26.1646C67.5966 26.1646 67.9015 26.121 68.1818 26.0339C68.4659 25.9468 68.7178 25.8199 68.9375 25.6532C69.1572 25.4828 69.339 25.2763 69.483 25.0339C69.6307 24.7915 69.733 24.515 69.7898 24.2044L72.2784 24.2157C72.214 24.7498 72.053 25.265 71.7955 25.7612C71.5417 26.2536 71.1989 26.6949 70.767 27.085C70.339 27.4714 69.8277 27.7782 69.233 28.0055C68.642 28.229 67.9735 28.3407 67.2273 28.3407C66.1894 28.3407 65.2614 28.1059 64.4432 27.6362C63.6288 27.1665 62.9848 26.4866 62.5114 25.5964C62.0417 24.7063 61.8068 23.6286 61.8068 22.3635C61.8068 21.0945 62.0455 20.015 62.5227 19.1248C63 18.2347 63.6477 17.5566 64.4659 17.0907C65.2841 16.621 66.2045 16.3862 67.2273 16.3862C67.9015 16.3862 68.5265 16.4809 69.1023 16.6703C69.6818 16.8597 70.1951 17.1362 70.642 17.4998C71.089 17.8597 71.4527 18.301 71.733 18.8237C72.017 19.3464 72.1989 19.9449 72.2784 20.6191ZM76.2416 16.5453V28.1816H73.8212V16.5453H76.2416ZM81.9477 28.3521C81.0651 28.3521 80.3019 28.1646 79.6579 27.7896C79.0178 27.4108 78.5235 26.8843 78.175 26.21C77.8265 25.532 77.6523 24.746 77.6523 23.8521C77.6523 22.9506 77.8265 22.1627 78.175 21.4885C78.5235 20.8104 79.0178 20.2839 79.6579 19.9089C80.3019 19.5301 81.0651 19.3407 81.9477 19.3407C82.8303 19.3407 83.5917 19.5301 84.2318 19.9089C84.8757 20.2839 85.372 20.8104 85.7204 21.4885C86.0689 22.1627 86.2432 22.9506 86.2432 23.8521C86.2432 24.746 86.0689 25.532 85.7204 26.21C85.372 26.8843 84.8757 27.4108 84.2318 27.7896C83.5917 28.1646 82.8303 28.3521 81.9477 28.3521ZM81.9591 26.4771C82.3606 26.4771 82.6958 26.3635 82.9648 26.1362C83.2337 25.9051 83.4364 25.5907 83.5727 25.193C83.7129 24.7953 83.7829 24.3426 83.7829 23.835C83.7829 23.3275 83.7129 22.8748 83.5727 22.4771C83.4364 22.0794 83.2337 21.765 82.9648 21.5339C82.6958 21.3029 82.3606 21.1873 81.9591 21.1873C81.5538 21.1873 81.2129 21.3029 80.9364 21.5339C80.6636 21.765 80.4572 22.0794 80.317 22.4771C80.1807 22.8748 80.1125 23.3275 80.1125 23.835C80.1125 24.3426 80.1807 24.7953 80.317 25.193C80.4572 25.5907 80.6636 25.9051 80.9364 26.1362C81.2129 26.3635 81.5538 26.4771 81.9591 26.4771ZM93.2376 24.4657V19.4544H95.6581V28.1816H93.3342V26.5964H93.2433C93.0463 27.1078 92.7187 27.5188 92.2604 27.8294C91.8058 28.14 91.2509 28.2953 90.5956 28.2953C90.0122 28.2953 89.499 28.1627 89.0558 27.8975C88.6126 27.6324 88.266 27.2555 88.016 26.7669C87.7698 26.2782 87.6448 25.693 87.641 25.0112V19.4544H90.0615V24.5794C90.0653 25.0945 90.2035 25.5017 90.4763 25.801C90.749 26.1002 91.1145 26.2498 91.5729 26.2498C91.8645 26.2498 92.1372 26.1835 92.391 26.051C92.6448 25.9146 92.8494 25.7138 93.0047 25.4487C93.1638 25.1835 93.2414 24.8559 93.2376 24.4657ZM100.634 28.3237C99.9712 28.3237 99.3708 28.1532 98.8329 27.8123C98.2988 27.4676 97.8746 26.9619 97.5602 26.2953C97.2496 25.6248 97.0943 24.8029 97.0943 23.8294C97.0943 22.8294 97.2553 21.9979 97.5773 21.335C97.8992 20.6684 98.3273 20.1703 98.8613 19.8407C99.3992 19.5074 99.9882 19.3407 100.628 19.3407C101.117 19.3407 101.524 19.4241 101.85 19.5907C102.18 19.7536 102.445 19.9582 102.645 20.2044C102.85 20.4468 103.005 20.6854 103.111 20.9203H103.185V16.5453H105.6V28.1816H103.214V26.7839H103.111C102.998 27.0263 102.837 27.2669 102.628 27.5055C102.424 27.7404 102.157 27.9354 101.827 28.0907C101.501 28.246 101.104 28.3237 100.634 28.3237ZM101.401 26.3975C101.791 26.3975 102.121 26.2915 102.39 26.0794C102.662 25.8635 102.871 25.5623 103.015 25.176C103.162 24.7896 103.236 24.3369 103.236 23.818C103.236 23.2991 103.164 22.8483 103.02 22.4657C102.876 22.0832 102.668 21.7877 102.395 21.5794C102.123 21.371 101.791 21.2669 101.401 21.2669C101.003 21.2669 100.668 21.3748 100.395 21.5907C100.123 21.8066 99.9163 22.1059 99.7761 22.4885C99.636 22.871 99.5659 23.3142 99.5659 23.818C99.5659 24.3256 99.636 24.7744 99.7761 25.1646C99.9201 25.551 100.126 25.854 100.395 26.0737C100.668 26.2896 101.003 26.3975 101.401 26.3975ZM112.107 19.4544V21.2725H106.721V19.4544H112.107ZM107.954 28.1816V18.8237C107.954 18.1911 108.077 17.6665 108.323 17.2498C108.573 16.8332 108.914 16.5207 109.346 16.3123C109.778 16.104 110.268 15.9998 110.817 15.9998C111.189 15.9998 111.528 16.0282 111.834 16.085C112.145 16.1419 112.376 16.193 112.528 16.2385L112.096 18.0566C112.001 18.0263 111.884 17.9979 111.744 17.9714C111.607 17.9449 111.467 17.9316 111.323 17.9316C110.967 17.9316 110.719 18.015 110.579 18.1816C110.439 18.3445 110.369 18.5737 110.369 18.8691V28.1816H107.954ZM115.83 16.5453V28.1816H113.41V16.5453H115.83ZM120.082 28.3464C119.525 28.3464 119.029 28.2498 118.593 28.0566C118.158 27.8597 117.813 27.5699 117.559 27.1873C117.309 26.801 117.184 26.3199 117.184 25.7441C117.184 25.2593 117.273 24.8521 117.451 24.5225C117.629 24.193 117.872 23.9279 118.179 23.7271C118.485 23.5263 118.834 23.3748 119.224 23.2725C119.618 23.1703 120.031 23.0983 120.463 23.0566C120.97 23.0036 121.379 22.9544 121.69 22.9089C122 22.8597 122.226 22.7877 122.366 22.693C122.506 22.5983 122.576 22.4582 122.576 22.2725V22.2385C122.576 21.8786 122.463 21.6002 122.235 21.4032C122.012 21.2063 121.694 21.1078 121.281 21.1078C120.845 21.1078 120.499 21.2044 120.241 21.3975C119.983 21.5869 119.813 21.8256 119.73 22.1135L117.491 21.9316C117.605 21.4013 117.828 20.943 118.161 20.5566C118.495 20.1665 118.925 19.8672 119.451 19.6589C119.982 19.4468 120.595 19.3407 121.292 19.3407C121.777 19.3407 122.241 19.3975 122.684 19.5112C123.131 19.6248 123.527 19.801 123.872 20.0396C124.22 20.2782 124.495 20.585 124.696 20.96C124.896 21.3313 124.997 21.7763 124.997 22.2953V28.1816H122.701V26.9714H122.633C122.493 27.2441 122.305 27.4847 122.071 27.693C121.836 27.8975 121.554 28.0585 121.224 28.176C120.894 28.2896 120.514 28.3464 120.082 28.3464ZM120.775 26.676C121.131 26.676 121.446 26.6059 121.718 26.4657C121.991 26.3218 122.205 26.1286 122.36 25.8862C122.516 25.6438 122.593 25.3691 122.593 25.0623V24.1362C122.518 24.1854 122.413 24.2309 122.281 24.2725C122.152 24.3104 122.006 24.3464 121.843 24.3805C121.68 24.4108 121.518 24.4392 121.355 24.4657C121.192 24.4885 121.044 24.5093 120.911 24.5282C120.627 24.5699 120.379 24.6362 120.167 24.7271C119.955 24.818 119.79 24.9411 119.673 25.0964C119.555 25.2479 119.497 25.4373 119.497 25.6646C119.497 25.9941 119.616 26.246 119.855 26.4203C120.097 26.5907 120.404 26.676 120.775 26.676ZM126.699 28.1816V19.4544H129.045V20.9771H129.136C129.295 20.4354 129.562 20.0263 129.937 19.7498C130.312 19.4695 130.744 19.3294 131.233 19.3294C131.354 19.3294 131.485 19.3369 131.625 19.3521C131.765 19.3672 131.888 19.3881 131.994 19.4146V21.5623C131.88 21.5282 131.723 21.4979 131.522 21.4714C131.322 21.4449 131.138 21.4316 130.971 21.4316C130.615 21.4316 130.297 21.5093 130.017 21.6646C129.74 21.8161 129.521 22.0282 129.358 22.301C129.199 22.5737 129.119 22.8881 129.119 23.2441V28.1816H126.699ZM136.64 28.3521C135.743 28.3521 134.97 28.1703 134.322 27.8066C133.678 27.4392 133.182 26.9203 132.834 26.2498C132.485 25.5756 132.311 24.7782 132.311 23.8578C132.311 22.96 132.485 22.1722 132.834 21.4941C133.182 20.8161 133.673 20.2877 134.305 19.9089C134.942 19.5301 135.688 19.3407 136.544 19.3407C137.12 19.3407 137.656 19.4335 138.152 19.6191C138.652 19.801 139.087 20.0756 139.459 20.443C139.834 20.8104 140.125 21.2725 140.334 21.8294C140.542 22.3824 140.646 23.0301 140.646 23.7725V24.4373H133.277V22.9373H138.368C138.368 22.5888 138.292 22.2801 138.14 22.0112C137.989 21.7422 137.779 21.532 137.51 21.3805C137.245 21.2252 136.936 21.1475 136.584 21.1475C136.216 21.1475 135.89 21.2328 135.606 21.4032C135.326 21.5699 135.106 21.7953 134.947 22.0794C134.788 22.3597 134.707 22.6722 134.703 23.0169V24.443C134.703 24.8748 134.782 25.2479 134.942 25.5623C135.104 25.8767 135.334 26.1191 135.629 26.2896C135.925 26.46 136.275 26.5453 136.68 26.5453C136.949 26.5453 137.195 26.5074 137.419 26.4316C137.642 26.3559 137.834 26.2422 137.993 26.0907C138.152 25.9392 138.273 25.7536 138.356 25.5339L140.595 25.6816C140.481 26.2195 140.248 26.6892 139.896 27.0907C139.548 27.4885 139.097 27.7991 138.544 28.0225C137.995 28.2422 137.36 28.3521 136.64 28.3521Z" fill="#222222"/>
<line x1="224" y1="483" x2="224" y2="543" stroke="#757575" stroke-width="2"/>
<line x1="294" y1="478" x2="294" y2="543" stroke="#757575" stroke-width="2"/>
<rect x="144" y="431.244" width="120.243" height="24" transform="rotate(-90 144 431.244)" fill="#E2F5FA" stroke="#F6821F" stroke-width="2"/>
<circle cx="156.5" cy="308.5" r="17.5" fill="white"/>
<circle cx="156.5" cy="308.5" r="17.7414" fill="white"/>
<path d="M156.5 288.594C152.563 288.594 148.714 289.761 145.441 291.948C142.167 294.136 139.616 297.245 138.109 300.882C136.602 304.519 136.208 308.522 136.976 312.383C137.744 316.245 139.64 319.792 142.424 322.576C145.208 325.36 148.755 327.256 152.616 328.024C156.478 328.792 160.48 328.398 164.118 326.891C167.755 325.384 170.864 322.833 173.051 319.559C175.239 316.286 176.406 312.437 176.406 308.5C176.386 303.227 174.282 298.175 170.554 294.446C166.825 290.718 161.773 288.614 156.5 288.594ZM156.5 325.344C153.169 325.344 149.912 324.356 147.142 322.505C144.372 320.654 142.213 318.023 140.938 314.946C139.664 311.868 139.33 308.481 139.98 305.214C140.63 301.946 142.234 298.945 144.59 296.59C146.945 294.234 149.947 292.63 153.214 291.98C156.481 291.33 159.868 291.663 162.946 292.938C166.024 294.213 168.654 296.372 170.505 299.142C172.356 301.912 173.344 305.168 173.344 308.5C173.324 312.961 171.543 317.233 168.388 320.388C165.234 323.542 160.961 325.323 156.5 325.344Z" fill="#0055DC"/>
<path d="M154.509 310.644V310.567H154.433L153.361 309.495L148.155 314.855V311.792H145.705V319.448H153.361V316.998H150.298L155.581 311.716L154.509 310.644Z" fill="#0055DC"/>
<path d="M159.486 307.734L164.769 302.298V305.361H167.219V297.705H159.563V300.155H162.625L157.266 305.591L159.486 307.734Z" fill="#0055DC"/>
<path d="M161.936 311.869H164.922V309.419H157.266V317.075H159.716V314.012L165.917 320.061L168.061 317.917L161.936 311.869Z" fill="#0055DC"/>
<path d="M153.131 303.064L147.083 296.939L144.939 299.083L150.988 305.284H147.925V307.734H155.581V300.078H153.131V303.064Z" fill="#0055DC"/>
<circle cx="157" cy="456" r="31" fill="white" stroke="#F6821F" stroke-width="2"/>
<path d="M183 454H167.09L181.76 447.9L180.23 444.2L165.5 450.28L176.77 439L173.94 436.17L162.72 447.4L168.82 432.75L165.12 431.21L159 445.93V430H155V445.86L149 431.19L145.3 432.72L151.38 447.45L140.06 436.18L137.23 439L148.45 450.23L133.8 444.14L132.26 447.83L147 454H131V458H146.91L132.24 464L133.77 467.7L148.5 461.62L137.23 472.89L140.06 475.72L151.28 464.5L145.18 479.15L148.88 480.69L155 466V481.91H159V466L165 480.67L168.7 479.15L162.67 464.45L173.94 475.72L176.77 472.89L165.55 461.67L180.2 467.77L181.74 464.07L167 458H183V454ZM167 454V458L165.48 461.68L162.67 464.49L159 465.94H155L151.33 464.42L148.52 461.61L147 457.93V454L148.52 450.32L151.33 447.51L155 446H159L162.67 447.52L165.48 450.33L167 454Z" fill="#F6821F"/>
<path d="M157.707 328.293C157.317 327.902 156.683 327.902 156.293 328.293L149.929 334.657C149.538 335.047 149.538 335.681 149.929 336.071C150.319 336.462 150.953 336.462 151.343 336.071L157 330.414L162.657 336.071C163.047 336.462 163.681 336.462 164.071 336.071C164.462 335.681 164.462 335.047 164.071 334.657L157.707 328.293ZM156.293 423.707C156.683 424.098 157.317 424.098 157.707 423.707L164.071 417.343C164.462 416.953 164.462 416.319 164.071 415.929C163.681 415.538 163.047 415.538 162.657 415.929L157 421.586L151.343 415.929C150.953 415.538 150.319 415.538 149.929 415.929C149.538 416.319 149.538 416.953 149.929 417.343L156.293 423.707ZM156 329V423H158V329H156Z" fill="#757575"/>
<path d="M295.707 276.293C295.317 275.902 294.683 275.902 294.293 276.293L287.929 282.657C287.538 283.047 287.538 283.681 287.929 284.071C288.319 284.462 288.953 284.462 289.343 284.071L295 278.414L300.657 284.071C301.047 284.462 301.681 284.462 302.071 284.071C302.462 283.681 302.462 283.047 302.071 282.657L295.707 276.293ZM294.293 411.707C294.683 412.098 295.317 412.098 295.707 411.707L302.071 405.343C302.462 404.953 302.462 404.319 302.071 403.929C301.681 403.538 301.047 403.538 300.657 403.929L295 409.586L289.343 403.929C288.953 403.538 288.319 403.538 287.929 403.929C287.538 404.319 287.538 404.953 287.929 405.343L294.293 411.707ZM294 277L294 411L296 411L296 277L294 277Z" fill="#757575"/>
<path d="M193.293 443.293C192.902 443.683 192.902 444.317 193.293 444.707L199.657 451.071C200.047 451.462 200.681 451.462 201.071 451.071C201.462 450.681 201.462 450.047 201.071 449.657L195.414 444L201.071 438.343C201.462 437.953 201.462 437.319 201.071 436.929C200.681 436.538 200.047 436.538 199.657 436.929L193.293 443.293ZM253.707 444.707C254.098 444.317 254.098 443.683 253.707 443.293L247.343 436.929C246.953 436.538 246.319 436.538 245.929 436.929C245.538 437.319 245.538 437.953 245.929 438.343L251.586 444L245.929 449.657C245.538 450.047 245.538 450.681 245.929 451.071C246.319 451.462 246.953 451.462 247.343 451.071L253.707 444.707ZM194 445H253V443H194V445Z" fill="#757575"/>
<rect x="145" y="128" width="22" height="5" fill="white"/>
<path d="M156.707 138.293C156.317 137.902 155.683 137.902 155.293 138.293L148.929 144.657C148.538 145.047 148.538 145.681 148.929 146.071C149.319 146.462 149.953 146.462 150.343 146.071L156 140.414L161.657 146.071C162.047 146.462 162.681 146.462 163.071 146.071C163.462 145.681 163.462 145.047 163.071 144.657L156.707 138.293ZM155.293 278.707C155.683 279.098 156.317 279.098 156.707 278.707L163.071 272.343C163.462 271.953 163.462 271.319 163.071 270.929C162.681 270.538 162.047 270.538 161.657 270.929L156 276.586L150.343 270.929C149.953 270.538 149.319 270.538 148.929 270.929C148.538 271.319 148.538 271.953 148.929 272.343L155.293 278.707ZM155 139L155 278L157 278L157 139L155 139Z" fill="#757575"/>
<rect x="303" y="489" width="174" height="47" fill="white"/>
<path d="M351 518H347.409V506.364H351.159C352.288 506.364 353.254 506.597 354.057 507.062C354.86 507.525 355.475 508.189 355.903 509.057C356.331 509.92 356.545 510.955 356.545 512.159C356.545 513.371 356.33 514.415 355.898 515.29C355.466 516.161 354.837 516.831 354.011 517.301C353.186 517.767 352.182 518 351 518ZM348.818 516.75H350.909C351.871 516.75 352.669 516.564 353.301 516.193C353.934 515.822 354.405 515.294 354.716 514.608C355.027 513.922 355.182 513.106 355.182 512.159C355.182 511.22 355.028 510.411 354.722 509.733C354.415 509.051 353.956 508.528 353.347 508.165C352.737 507.797 351.977 507.614 351.068 507.614H348.818V516.75ZM362.21 518.182C361.369 518.182 360.644 517.996 360.034 517.625C359.428 517.25 358.96 516.727 358.631 516.057C358.305 515.383 358.142 514.598 358.142 513.705C358.142 512.811 358.305 512.023 358.631 511.341C358.96 510.655 359.419 510.121 360.006 509.739C360.597 509.352 361.286 509.159 362.074 509.159C362.529 509.159 362.977 509.235 363.421 509.386C363.864 509.538 364.267 509.784 364.631 510.125C364.994 510.462 365.284 510.909 365.5 511.466C365.716 512.023 365.824 512.708 365.824 513.523V514.091H359.097V512.932H364.46C364.46 512.439 364.362 512 364.165 511.614C363.972 511.227 363.695 510.922 363.335 510.699C362.979 510.475 362.559 510.364 362.074 510.364C361.54 510.364 361.078 510.496 360.688 510.761C360.301 511.023 360.004 511.364 359.796 511.784C359.587 512.205 359.483 512.655 359.483 513.136V513.909C359.483 514.568 359.597 515.127 359.824 515.585C360.055 516.04 360.375 516.386 360.784 516.625C361.193 516.86 361.669 516.977 362.21 516.977C362.563 516.977 362.881 516.928 363.165 516.83C363.453 516.727 363.701 516.576 363.909 516.375C364.118 516.17 364.279 515.917 364.392 515.614L365.688 515.977C365.551 516.417 365.322 516.803 365 517.136C364.678 517.466 364.28 517.723 363.807 517.909C363.333 518.091 362.801 518.182 362.21 518.182ZM371.574 509.273V510.409H366.87V509.273H371.574ZM368.279 518V508.068C368.279 507.568 368.396 507.152 368.631 506.818C368.866 506.485 369.171 506.235 369.546 506.068C369.921 505.902 370.317 505.818 370.733 505.818C371.063 505.818 371.332 505.845 371.54 505.898C371.748 505.951 371.904 506 372.006 506.045L371.62 507.205C371.551 507.182 371.457 507.153 371.336 507.119C371.218 507.085 371.063 507.068 370.87 507.068C370.426 507.068 370.106 507.18 369.909 507.403C369.716 507.627 369.62 507.955 369.62 508.386V518H368.279ZM375.596 518.205C375.043 518.205 374.541 518.1 374.09 517.892C373.639 517.68 373.281 517.375 373.016 516.977C372.751 516.576 372.618 516.091 372.618 515.523C372.618 515.023 372.717 514.617 372.914 514.307C373.111 513.992 373.374 513.746 373.704 513.568C374.033 513.39 374.397 513.258 374.794 513.17C375.196 513.08 375.599 513.008 376.005 512.955C376.535 512.886 376.965 512.835 377.294 512.801C377.628 512.763 377.87 512.701 378.022 512.614C378.177 512.527 378.255 512.375 378.255 512.159V512.114C378.255 511.553 378.101 511.117 377.794 510.807C377.491 510.496 377.031 510.341 376.414 510.341C375.774 510.341 375.272 510.481 374.908 510.761C374.544 511.042 374.289 511.341 374.141 511.659L372.868 511.205C373.096 510.674 373.399 510.261 373.777 509.966C374.16 509.667 374.577 509.458 375.027 509.341C375.482 509.22 375.929 509.159 376.368 509.159C376.649 509.159 376.971 509.193 377.334 509.261C377.702 509.326 378.056 509.46 378.397 509.665C378.741 509.869 379.027 510.178 379.255 510.591C379.482 511.004 379.596 511.557 379.596 512.25V518H378.255V516.818H378.186C378.096 517.008 377.944 517.21 377.732 517.426C377.52 517.642 377.238 517.826 376.885 517.977C376.533 518.129 376.103 518.205 375.596 518.205ZM375.8 517C376.33 517 376.777 516.896 377.141 516.688C377.508 516.479 377.785 516.21 377.971 515.881C378.16 515.551 378.255 515.205 378.255 514.841V513.614C378.198 513.682 378.073 513.744 377.88 513.801C377.69 513.854 377.471 513.902 377.221 513.943C376.974 513.981 376.734 514.015 376.499 514.045C376.268 514.072 376.08 514.095 375.936 514.114C375.588 514.159 375.262 514.233 374.959 514.335C374.66 514.434 374.418 514.583 374.232 514.784C374.05 514.981 373.959 515.25 373.959 515.591C373.959 516.057 374.132 516.409 374.476 516.648C374.825 516.883 375.266 517 375.8 517ZM387.367 514.432V509.273H388.708V518H387.367V516.523H387.276C387.072 516.966 386.753 517.343 386.322 517.653C385.89 517.96 385.344 518.114 384.685 518.114C384.14 518.114 383.655 517.994 383.231 517.756C382.806 517.513 382.473 517.15 382.231 516.665C381.988 516.176 381.867 515.561 381.867 514.818V509.273H383.208V514.727C383.208 515.364 383.386 515.871 383.742 516.25C384.102 516.629 384.56 516.818 385.117 516.818C385.45 516.818 385.789 516.733 386.134 516.562C386.483 516.392 386.774 516.131 387.009 515.778C387.248 515.426 387.367 514.977 387.367 514.432ZM392.329 506.364V518H390.988V506.364H392.329ZM398.404 509.273V510.409H393.882V509.273H398.404ZM395.2 507.182H396.541V515.5C396.541 515.879 396.596 516.163 396.705 516.352C396.819 516.538 396.963 516.663 397.137 516.727C397.315 516.788 397.503 516.818 397.7 516.818C397.847 516.818 397.969 516.811 398.063 516.795C398.158 516.777 398.234 516.761 398.291 516.75L398.563 517.955C398.472 517.989 398.346 518.023 398.183 518.057C398.02 518.095 397.813 518.114 397.563 518.114C397.185 518.114 396.813 518.032 396.45 517.869C396.09 517.706 395.791 517.458 395.552 517.125C395.317 516.792 395.2 516.371 395.2 515.864V507.182ZM408.092 521.455C407.444 521.455 406.887 521.371 406.422 521.205C405.956 521.042 405.567 520.826 405.257 520.557C404.95 520.292 404.706 520.008 404.524 519.705L405.592 518.955C405.713 519.114 405.867 519.295 406.052 519.5C406.238 519.708 406.492 519.888 406.814 520.04C407.139 520.195 407.565 520.273 408.092 520.273C408.797 520.273 409.378 520.102 409.836 519.761C410.295 519.42 410.524 518.886 410.524 518.159V516.386H410.41C410.312 516.545 410.172 516.742 409.99 516.977C409.812 517.208 409.554 517.415 409.217 517.597C408.884 517.775 408.433 517.864 407.865 517.864C407.16 517.864 406.528 517.697 405.967 517.364C405.41 517.03 404.969 516.545 404.643 515.909C404.321 515.273 404.16 514.5 404.16 513.591C404.16 512.697 404.317 511.919 404.632 511.256C404.946 510.589 405.384 510.074 405.944 509.71C406.505 509.343 407.153 509.159 407.887 509.159C408.456 509.159 408.906 509.254 409.24 509.443C409.577 509.629 409.834 509.841 410.012 510.08C410.194 510.314 410.334 510.508 410.433 510.659H410.569V509.273H411.865V518.25C411.865 519 411.694 519.61 411.353 520.08C411.016 520.553 410.562 520.9 409.99 521.119C409.422 521.343 408.789 521.455 408.092 521.455ZM408.047 516.659C408.584 516.659 409.039 516.536 409.41 516.29C409.781 516.044 410.064 515.689 410.257 515.227C410.45 514.765 410.547 514.212 410.547 513.568C410.547 512.939 410.452 512.384 410.262 511.903C410.073 511.422 409.793 511.045 409.422 510.773C409.05 510.5 408.592 510.364 408.047 510.364C407.478 510.364 407.005 510.508 406.626 510.795C406.251 511.083 405.969 511.47 405.779 511.955C405.594 512.439 405.501 512.977 405.501 513.568C405.501 514.174 405.596 514.71 405.785 515.176C405.978 515.638 406.262 516.002 406.637 516.267C407.016 516.528 407.486 516.659 408.047 516.659ZM416.711 518.205C416.158 518.205 415.657 518.1 415.206 517.892C414.755 517.68 414.397 517.375 414.132 516.977C413.867 516.576 413.734 516.091 413.734 515.523C413.734 515.023 413.833 514.617 414.03 514.307C414.227 513.992 414.49 513.746 414.819 513.568C415.149 513.39 415.513 513.258 415.91 513.17C416.312 513.08 416.715 513.008 417.121 512.955C417.651 512.886 418.081 512.835 418.41 512.801C418.744 512.763 418.986 512.701 419.138 512.614C419.293 512.527 419.371 512.375 419.371 512.159V512.114C419.371 511.553 419.217 511.117 418.91 510.807C418.607 510.496 418.147 510.341 417.53 510.341C416.889 510.341 416.388 510.481 416.024 510.761C415.66 511.042 415.405 511.341 415.257 511.659L413.984 511.205C414.211 510.674 414.514 510.261 414.893 509.966C415.276 509.667 415.693 509.458 416.143 509.341C416.598 509.22 417.045 509.159 417.484 509.159C417.764 509.159 418.086 509.193 418.45 509.261C418.818 509.326 419.172 509.46 419.513 509.665C419.857 509.869 420.143 510.178 420.371 510.591C420.598 511.004 420.711 511.557 420.711 512.25V518H419.371V516.818H419.302C419.211 517.008 419.06 517.21 418.848 517.426C418.636 517.642 418.354 517.826 418.001 517.977C417.649 518.129 417.219 518.205 416.711 518.205ZM416.916 517C417.446 517 417.893 516.896 418.257 516.688C418.624 516.479 418.901 516.21 419.086 515.881C419.276 515.551 419.371 515.205 419.371 514.841V513.614C419.314 513.682 419.189 513.744 418.996 513.801C418.806 513.854 418.586 513.902 418.336 513.943C418.09 513.981 417.85 514.015 417.615 514.045C417.384 514.072 417.196 514.095 417.052 514.114C416.704 514.159 416.378 514.233 416.075 514.335C415.776 514.434 415.533 514.583 415.348 514.784C415.166 514.981 415.075 515.25 415.075 515.591C415.075 516.057 415.247 516.409 415.592 516.648C415.941 516.883 416.382 517 416.916 517ZM426.778 509.273V510.409H422.256V509.273H426.778ZM423.574 507.182H424.915V515.5C424.915 515.879 424.97 516.163 425.079 516.352C425.193 516.538 425.337 516.663 425.511 516.727C425.689 516.788 425.877 516.818 426.074 516.818C426.222 516.818 426.343 516.811 426.437 516.795C426.532 516.777 426.608 516.761 426.665 516.75L426.937 517.955C426.847 517.989 426.72 518.023 426.557 518.057C426.394 518.095 426.187 518.114 425.937 518.114C425.559 518.114 425.187 518.032 424.824 517.869C424.464 517.706 424.165 517.458 423.926 517.125C423.691 516.792 423.574 516.371 423.574 515.864V507.182ZM432.185 518.182C431.344 518.182 430.618 517.996 430.009 517.625C429.403 517.25 428.935 516.727 428.605 516.057C428.279 515.383 428.117 514.598 428.117 513.705C428.117 512.811 428.279 512.023 428.605 511.341C428.935 510.655 429.393 510.121 429.98 509.739C430.571 509.352 431.26 509.159 432.048 509.159C432.503 509.159 432.952 509.235 433.395 509.386C433.838 509.538 434.242 509.784 434.605 510.125C434.969 510.462 435.259 510.909 435.475 511.466C435.69 512.023 435.798 512.708 435.798 513.523V514.091H429.071V512.932H434.435C434.435 512.439 434.336 512 434.139 511.614C433.946 511.227 433.67 510.922 433.31 510.699C432.954 510.475 432.533 510.364 432.048 510.364C431.514 510.364 431.052 510.496 430.662 510.761C430.276 511.023 429.978 511.364 429.77 511.784C429.562 512.205 429.457 512.655 429.457 513.136V513.909C429.457 514.568 429.571 515.127 429.798 515.585C430.029 516.04 430.35 516.386 430.759 516.625C431.168 516.86 431.643 516.977 432.185 516.977C432.537 516.977 432.855 516.928 433.139 516.83C433.427 516.727 433.675 516.576 433.884 516.375C434.092 516.17 434.253 515.917 434.367 515.614L435.662 515.977C435.526 516.417 435.296 516.803 434.975 517.136C434.653 517.466 434.255 517.723 433.781 517.909C433.308 518.091 432.776 518.182 432.185 518.182ZM439.639 518L436.98 509.273H438.389L440.276 515.955H440.367L442.23 509.273H443.662L445.503 515.932H445.594L447.48 509.273H448.889L446.23 518H444.912L443.003 511.295H442.867L440.958 518H439.639ZM453.054 518.205C452.501 518.205 451.999 518.1 451.549 517.892C451.098 517.68 450.74 517.375 450.475 516.977C450.21 516.576 450.077 516.091 450.077 515.523C450.077 515.023 450.176 514.617 450.373 514.307C450.569 513.992 450.833 513.746 451.162 513.568C451.492 513.39 451.855 513.258 452.253 513.17C452.655 513.08 453.058 513.008 453.463 512.955C453.994 512.886 454.424 512.835 454.753 512.801C455.087 512.763 455.329 512.701 455.48 512.614C455.636 512.527 455.713 512.375 455.713 512.159V512.114C455.713 511.553 455.56 511.117 455.253 510.807C454.95 510.496 454.49 510.341 453.873 510.341C453.232 510.341 452.73 510.481 452.367 510.761C452.003 511.042 451.748 511.341 451.6 511.659L450.327 511.205C450.554 510.674 450.857 510.261 451.236 509.966C451.619 509.667 452.035 509.458 452.486 509.341C452.941 509.22 453.388 509.159 453.827 509.159C454.107 509.159 454.429 509.193 454.793 509.261C455.16 509.326 455.515 509.46 455.855 509.665C456.2 509.869 456.486 510.178 456.713 510.591C456.941 511.004 457.054 511.557 457.054 512.25V518H455.713V516.818H455.645C455.554 517.008 455.403 517.21 455.191 517.426C454.979 517.642 454.696 517.826 454.344 517.977C453.992 518.129 453.562 518.205 453.054 518.205ZM453.259 517C453.789 517 454.236 516.896 454.6 516.688C454.967 516.479 455.244 516.21 455.429 515.881C455.619 515.551 455.713 515.205 455.713 514.841V513.614C455.657 513.682 455.532 513.744 455.338 513.801C455.149 513.854 454.929 513.902 454.679 513.943C454.433 513.981 454.193 514.015 453.958 514.045C453.727 514.072 453.539 514.095 453.395 514.114C453.047 514.159 452.721 514.233 452.418 514.335C452.119 514.434 451.876 514.583 451.691 514.784C451.509 514.981 451.418 515.25 451.418 515.591C451.418 516.057 451.59 516.409 451.935 516.648C452.283 516.883 452.725 517 453.259 517ZM459.877 521.273C459.65 521.273 459.447 521.254 459.269 521.216C459.091 521.182 458.968 521.148 458.9 521.114L459.241 519.932C459.566 520.015 459.854 520.045 460.104 520.023C460.354 520 460.576 519.888 460.769 519.688C460.966 519.491 461.146 519.17 461.309 518.727L461.559 518.045L458.331 509.273H459.786L462.195 516.227H462.286L464.695 509.273H466.15L462.445 519.273C462.278 519.723 462.072 520.097 461.826 520.392C461.58 520.691 461.294 520.913 460.968 521.057C460.646 521.201 460.282 521.273 459.877 521.273Z" fill="#222222"/>
<path d="M337.5 512C337.5 519.456 331.456 525.5 324 525.5C316.544 525.5 310.5 519.456 310.5 512C310.5 504.544 316.544 498.5 324 498.5C331.456 498.5 337.5 504.544 337.5 512Z" fill="#CBE9F3" stroke="black"/>
<path d="M325.861 506.364V518H323.401V508.699H323.332L320.668 510.369V508.188L323.548 506.364H325.861Z" fill="black"/>
<path d="M371.409 436V424.364H375.341C376.254 424.364 377 424.528 377.58 424.858C378.163 425.184 378.595 425.625 378.875 426.182C379.155 426.739 379.295 427.36 379.295 428.045C379.295 428.731 379.155 429.354 378.875 429.915C378.598 430.475 378.17 430.922 377.591 431.256C377.011 431.585 376.269 431.75 375.364 431.75H372.545V430.5H375.318C375.943 430.5 376.445 430.392 376.824 430.176C377.203 429.96 377.477 429.669 377.648 429.301C377.822 428.93 377.909 428.511 377.909 428.045C377.909 427.58 377.822 427.163 377.648 426.795C377.477 426.428 377.201 426.14 376.818 425.932C376.436 425.72 375.928 425.614 375.295 425.614H372.818V436H371.409ZM384.659 436.182C383.871 436.182 383.18 435.994 382.585 435.619C381.994 435.244 381.532 434.72 381.199 434.045C380.869 433.371 380.705 432.583 380.705 431.682C380.705 430.773 380.869 429.979 381.199 429.301C381.532 428.623 381.994 428.097 382.585 427.722C383.18 427.347 383.871 427.159 384.659 427.159C385.447 427.159 386.137 427.347 386.727 427.722C387.322 428.097 387.784 428.623 388.114 429.301C388.447 429.979 388.614 430.773 388.614 431.682C388.614 432.583 388.447 433.371 388.114 434.045C387.784 434.72 387.322 435.244 386.727 435.619C386.137 435.994 385.447 436.182 384.659 436.182ZM384.659 434.977C385.258 434.977 385.75 434.824 386.137 434.517C386.523 434.21 386.809 433.807 386.994 433.307C387.18 432.807 387.273 432.265 387.273 431.682C387.273 431.098 387.18 430.555 386.994 430.051C386.809 429.547 386.523 429.14 386.137 428.83C385.75 428.519 385.258 428.364 384.659 428.364C384.061 428.364 383.568 428.519 383.182 428.83C382.796 429.14 382.51 429.547 382.324 430.051C382.138 430.555 382.046 431.098 382.046 431.682C382.046 432.265 382.138 432.807 382.324 433.307C382.51 433.807 382.796 434.21 383.182 434.517C383.568 434.824 384.061 434.977 384.659 434.977ZM391.826 424.364V436H390.485V424.364H391.826ZM394.106 436V427.273H395.446V436H394.106ZM394.787 425.818C394.526 425.818 394.301 425.729 394.111 425.551C393.926 425.373 393.833 425.159 393.833 424.909C393.833 424.659 393.926 424.445 394.111 424.267C394.301 424.089 394.526 424 394.787 424C395.049 424 395.272 424.089 395.458 424.267C395.647 424.445 395.742 424.659 395.742 424.909C395.742 425.159 395.647 425.373 395.458 425.551C395.272 425.729 395.049 425.818 394.787 425.818ZM401.272 436.182C400.454 436.182 399.749 435.989 399.158 435.602C398.567 435.216 398.113 434.684 397.795 434.006C397.476 433.328 397.317 432.553 397.317 431.682C397.317 430.795 397.48 430.013 397.806 429.335C398.135 428.653 398.594 428.121 399.181 427.739C399.772 427.352 400.461 427.159 401.249 427.159C401.863 427.159 402.416 427.273 402.908 427.5C403.401 427.727 403.804 428.045 404.118 428.455C404.433 428.864 404.628 429.341 404.704 429.886H403.363C403.26 429.489 403.033 429.136 402.681 428.83C402.332 428.519 401.863 428.364 401.272 428.364C400.749 428.364 400.291 428.5 399.897 428.773C399.507 429.042 399.202 429.422 398.982 429.915C398.766 430.403 398.658 430.977 398.658 431.636C398.658 432.311 398.764 432.898 398.976 433.398C399.192 433.898 399.495 434.286 399.885 434.562C400.279 434.839 400.742 434.977 401.272 434.977C401.62 434.977 401.937 434.917 402.221 434.795C402.505 434.674 402.745 434.5 402.942 434.273C403.139 434.045 403.279 433.773 403.363 433.455H404.704C404.628 433.97 404.44 434.434 404.141 434.847C403.846 435.256 403.454 435.581 402.965 435.824C402.48 436.062 401.916 436.182 401.272 436.182ZM407.352 439.273C407.124 439.273 406.922 439.254 406.744 439.216C406.566 439.182 406.442 439.148 406.374 439.114L406.715 437.932C407.041 438.015 407.329 438.045 407.579 438.023C407.829 438 408.05 437.888 408.244 437.688C408.441 437.491 408.62 437.17 408.783 436.727L409.033 436.045L405.806 427.273H407.261L409.67 434.227H409.761L412.17 427.273H413.624L409.92 437.273C409.753 437.723 409.547 438.097 409.3 438.392C409.054 438.691 408.768 438.913 408.442 439.057C408.12 439.201 407.757 439.273 407.352 439.273ZM419.724 436V424.364H421.065V428.659H421.179C421.277 428.508 421.413 428.314 421.588 428.08C421.766 427.841 422.019 427.629 422.349 427.443C422.682 427.254 423.133 427.159 423.701 427.159C424.436 427.159 425.084 427.343 425.644 427.71C426.205 428.078 426.643 428.598 426.957 429.273C427.271 429.947 427.429 430.742 427.429 431.659C427.429 432.583 427.271 433.384 426.957 434.062C426.643 434.737 426.207 435.259 425.65 435.631C425.093 435.998 424.451 436.182 423.724 436.182C423.163 436.182 422.714 436.089 422.377 435.903C422.04 435.714 421.781 435.5 421.599 435.261C421.417 435.019 421.277 434.818 421.179 434.659H421.019V436H419.724ZM421.042 431.636C421.042 432.295 421.139 432.877 421.332 433.381C421.525 433.881 421.807 434.273 422.179 434.557C422.55 434.837 423.004 434.977 423.542 434.977C424.103 434.977 424.571 434.83 424.946 434.534C425.324 434.235 425.608 433.833 425.798 433.33C425.991 432.822 426.088 432.258 426.088 431.636C426.088 431.023 425.993 430.47 425.804 429.977C425.618 429.481 425.336 429.089 424.957 428.801C424.582 428.509 424.11 428.364 423.542 428.364C422.997 428.364 422.538 428.502 422.167 428.778C421.796 429.051 421.516 429.434 421.326 429.926C421.137 430.415 421.042 430.985 421.042 431.636ZM431.872 436.205C431.319 436.205 430.817 436.1 430.366 435.892C429.915 435.68 429.557 435.375 429.292 434.977C429.027 434.576 428.895 434.091 428.895 433.523C428.895 433.023 428.993 432.617 429.19 432.307C429.387 431.992 429.65 431.746 429.98 431.568C430.309 431.39 430.673 431.258 431.071 431.17C431.472 431.08 431.876 431.008 432.281 430.955C432.811 430.886 433.241 430.835 433.571 430.801C433.904 430.763 434.146 430.701 434.298 430.614C434.453 430.527 434.531 430.375 434.531 430.159V430.114C434.531 429.553 434.378 429.117 434.071 428.807C433.768 428.496 433.307 428.341 432.69 428.341C432.05 428.341 431.548 428.481 431.184 428.761C430.821 429.042 430.565 429.341 430.417 429.659L429.145 429.205C429.372 428.674 429.675 428.261 430.054 427.966C430.436 427.667 430.853 427.458 431.304 427.341C431.758 427.22 432.205 427.159 432.645 427.159C432.925 427.159 433.247 427.193 433.61 427.261C433.978 427.326 434.332 427.46 434.673 427.665C435.018 427.869 435.304 428.178 435.531 428.591C435.758 429.004 435.872 429.557 435.872 430.25V436H434.531V434.818H434.463C434.372 435.008 434.22 435.21 434.008 435.426C433.796 435.642 433.514 435.826 433.162 435.977C432.809 436.129 432.379 436.205 431.872 436.205ZM432.076 435C432.607 435 433.054 434.896 433.417 434.688C433.785 434.479 434.061 434.21 434.247 433.881C434.436 433.551 434.531 433.205 434.531 432.841V431.614C434.474 431.682 434.349 431.744 434.156 431.801C433.967 431.854 433.747 431.902 433.497 431.943C433.251 431.981 433.01 432.015 432.775 432.045C432.544 432.072 432.357 432.095 432.213 432.114C431.864 432.159 431.538 432.233 431.235 432.335C430.936 432.434 430.694 432.583 430.508 432.784C430.326 432.981 430.235 433.25 430.235 433.591C430.235 434.057 430.408 434.409 430.753 434.648C431.101 434.883 431.542 435 432.076 435ZM444.325 429.227L443.121 429.568C443.045 429.367 442.933 429.172 442.785 428.983C442.641 428.79 442.444 428.631 442.194 428.506C441.944 428.381 441.624 428.318 441.234 428.318C440.7 428.318 440.255 428.441 439.899 428.688C439.547 428.93 439.371 429.239 439.371 429.614C439.371 429.947 439.492 430.21 439.734 430.403C439.977 430.597 440.355 430.758 440.871 430.886L442.166 431.205C442.946 431.394 443.528 431.684 443.91 432.074C444.293 432.46 444.484 432.958 444.484 433.568C444.484 434.068 444.34 434.515 444.052 434.909C443.768 435.303 443.371 435.614 442.859 435.841C442.348 436.068 441.753 436.182 441.075 436.182C440.185 436.182 439.448 435.989 438.865 435.602C438.282 435.216 437.912 434.652 437.757 433.909L439.03 433.591C439.151 434.061 439.38 434.413 439.717 434.648C440.058 434.883 440.503 435 441.052 435C441.677 435 442.174 434.867 442.541 434.602C442.912 434.333 443.098 434.011 443.098 433.636C443.098 433.333 442.992 433.08 442.78 432.875C442.568 432.667 442.242 432.511 441.802 432.409L440.348 432.068C439.549 431.879 438.961 431.585 438.586 431.188C438.215 430.786 438.03 430.284 438.03 429.682C438.03 429.189 438.168 428.754 438.444 428.375C438.725 427.996 439.105 427.699 439.586 427.483C440.071 427.267 440.621 427.159 441.234 427.159C442.098 427.159 442.776 427.348 443.268 427.727C443.764 428.106 444.117 428.606 444.325 429.227ZM449.986 436.182C449.145 436.182 448.419 435.996 447.81 435.625C447.204 435.25 446.736 434.727 446.406 434.057C446.08 433.383 445.918 432.598 445.918 431.705C445.918 430.811 446.08 430.023 446.406 429.341C446.736 428.655 447.194 428.121 447.781 427.739C448.372 427.352 449.061 427.159 449.849 427.159C450.304 427.159 450.753 427.235 451.196 427.386C451.639 427.538 452.043 427.784 452.406 428.125C452.77 428.462 453.06 428.909 453.276 429.466C453.491 430.023 453.599 430.708 453.599 431.523V432.091H446.872V430.932H452.236C452.236 430.439 452.137 430 451.94 429.614C451.747 429.227 451.471 428.922 451.111 428.699C450.755 428.475 450.334 428.364 449.849 428.364C449.315 428.364 448.853 428.496 448.463 428.761C448.077 429.023 447.779 429.364 447.571 429.784C447.363 430.205 447.258 430.655 447.258 431.136V431.909C447.258 432.568 447.372 433.127 447.599 433.585C447.83 434.04 448.151 434.386 448.56 434.625C448.969 434.86 449.444 434.977 449.986 434.977C450.338 434.977 450.656 434.928 450.94 434.83C451.228 434.727 451.476 434.576 451.685 434.375C451.893 434.17 452.054 433.917 452.168 433.614L453.463 433.977C453.327 434.417 453.097 434.803 452.776 435.136C452.454 435.466 452.056 435.723 451.582 435.909C451.109 436.091 450.577 436.182 449.986 436.182ZM458.759 436.182C458.031 436.182 457.389 435.998 456.832 435.631C456.276 435.259 455.84 434.737 455.526 434.062C455.211 433.384 455.054 432.583 455.054 431.659C455.054 430.742 455.211 429.947 455.526 429.273C455.84 428.598 456.278 428.078 456.838 427.71C457.399 427.343 458.046 427.159 458.781 427.159C459.35 427.159 459.798 427.254 460.128 427.443C460.461 427.629 460.715 427.841 460.889 428.08C461.067 428.314 461.206 428.508 461.304 428.659H461.418V424.364H462.759V436H461.463V434.659H461.304C461.206 434.818 461.065 435.019 460.884 435.261C460.702 435.5 460.442 435.714 460.105 435.903C459.768 436.089 459.319 436.182 458.759 436.182ZM458.94 434.977C459.478 434.977 459.933 434.837 460.304 434.557C460.675 434.273 460.957 433.881 461.151 433.381C461.344 432.877 461.44 432.295 461.44 431.636C461.44 430.985 461.346 430.415 461.156 429.926C460.967 429.434 460.687 429.051 460.315 428.778C459.944 428.502 459.486 428.364 458.94 428.364C458.372 428.364 457.899 428.509 457.52 428.801C457.145 429.089 456.863 429.481 456.673 429.977C456.488 430.47 456.395 431.023 456.395 431.636C456.395 432.258 456.49 432.822 456.679 433.33C456.872 433.833 457.156 434.235 457.531 434.534C457.91 434.83 458.38 434.977 458.94 434.977ZM469.549 436V427.273H470.844V428.591H470.935C471.094 428.159 471.382 427.809 471.799 427.54C472.215 427.271 472.685 427.136 473.208 427.136C473.306 427.136 473.429 427.138 473.577 427.142C473.725 427.146 473.837 427.152 473.912 427.159V428.523C473.867 428.511 473.763 428.494 473.6 428.472C473.441 428.445 473.272 428.432 473.094 428.432C472.67 428.432 472.291 428.521 471.958 428.699C471.628 428.873 471.367 429.116 471.174 429.426C470.984 429.733 470.89 430.083 470.89 430.477V436H469.549ZM478.606 436.182C477.818 436.182 477.126 435.994 476.532 435.619C475.941 435.244 475.479 434.72 475.145 434.045C474.816 433.371 474.651 432.583 474.651 431.682C474.651 430.773 474.816 429.979 475.145 429.301C475.479 428.623 475.941 428.097 476.532 427.722C477.126 427.347 477.818 427.159 478.606 427.159C479.393 427.159 480.083 427.347 480.674 427.722C481.268 428.097 481.731 428.623 482.06 429.301C482.393 429.979 482.56 430.773 482.56 431.682C482.56 432.583 482.393 433.371 482.06 434.045C481.731 434.72 481.268 435.244 480.674 435.619C480.083 435.994 479.393 436.182 478.606 436.182ZM478.606 434.977C479.204 434.977 479.697 434.824 480.083 434.517C480.469 434.21 480.755 433.807 480.941 433.307C481.126 432.807 481.219 432.265 481.219 431.682C481.219 431.098 481.126 430.555 480.941 430.051C480.755 429.547 480.469 429.14 480.083 428.83C479.697 428.519 479.204 428.364 478.606 428.364C478.007 428.364 477.515 428.519 477.128 428.83C476.742 429.14 476.456 429.547 476.27 430.051C476.085 430.555 475.992 431.098 475.992 431.682C475.992 432.265 476.085 432.807 476.27 433.307C476.456 433.807 476.742 434.21 477.128 434.517C477.515 434.824 478.007 434.977 478.606 434.977ZM489.931 432.432V427.273H491.272V436H489.931V434.523H489.84C489.636 434.966 489.317 435.343 488.886 435.653C488.454 435.96 487.908 436.114 487.249 436.114C486.704 436.114 486.219 435.994 485.795 435.756C485.37 435.513 485.037 435.15 484.795 434.665C484.552 434.176 484.431 433.561 484.431 432.818V427.273H485.772V432.727C485.772 433.364 485.95 433.871 486.306 434.25C486.666 434.629 487.124 434.818 487.681 434.818C488.014 434.818 488.353 434.733 488.698 434.562C489.047 434.392 489.338 434.131 489.573 433.778C489.812 433.426 489.931 432.977 489.931 432.432ZM497.347 427.273V428.409H492.825V427.273H497.347ZM494.143 425.182H495.484V433.5C495.484 433.879 495.539 434.163 495.648 434.352C495.762 434.538 495.906 434.663 496.08 434.727C496.258 434.788 496.446 434.818 496.643 434.818C496.791 434.818 496.912 434.811 497.006 434.795C497.101 434.777 497.177 434.761 497.234 434.75L497.506 435.955C497.416 435.989 497.289 436.023 497.126 436.057C496.963 436.095 496.756 436.114 496.506 436.114C496.128 436.114 495.756 436.032 495.393 435.869C495.033 435.706 494.734 435.458 494.495 435.125C494.26 434.792 494.143 434.371 494.143 433.864V425.182ZM499.188 436V427.273H500.529V436H499.188ZM499.87 425.818C499.609 425.818 499.383 425.729 499.194 425.551C499.008 425.373 498.916 425.159 498.916 424.909C498.916 424.659 499.008 424.445 499.194 424.267C499.383 424.089 499.609 424 499.87 424C500.132 424 500.355 424.089 500.541 424.267C500.73 424.445 500.825 424.659 500.825 424.909C500.825 425.159 500.73 425.373 500.541 425.551C500.355 425.729 500.132 425.818 499.87 425.818ZM504.15 430.75V436H502.809V427.273H504.105V428.636H504.218C504.423 428.193 504.734 427.837 505.15 427.568C505.567 427.295 506.105 427.159 506.764 427.159C507.355 427.159 507.872 427.28 508.315 427.523C508.758 427.761 509.103 428.125 509.349 428.614C509.595 429.098 509.718 429.712 509.718 430.455V436H508.377V430.545C508.377 429.86 508.199 429.326 507.843 428.943C507.487 428.557 506.999 428.364 506.377 428.364C505.949 428.364 505.567 428.456 505.23 428.642C504.896 428.828 504.633 429.098 504.44 429.455C504.247 429.811 504.15 430.242 504.15 430.75ZM515.515 439.455C514.868 439.455 514.311 439.371 513.845 439.205C513.379 439.042 512.991 438.826 512.68 438.557C512.373 438.292 512.129 438.008 511.947 437.705L513.015 436.955C513.137 437.114 513.29 437.295 513.476 437.5C513.661 437.708 513.915 437.888 514.237 438.04C514.563 438.195 514.989 438.273 515.515 438.273C516.22 438.273 516.801 438.102 517.26 437.761C517.718 437.42 517.947 436.886 517.947 436.159V434.386H517.834C517.735 434.545 517.595 434.742 517.413 434.977C517.235 435.208 516.978 435.415 516.64 435.597C516.307 435.775 515.856 435.864 515.288 435.864C514.584 435.864 513.951 435.697 513.39 435.364C512.834 435.03 512.392 434.545 512.067 433.909C511.745 433.273 511.584 432.5 511.584 431.591C511.584 430.697 511.741 429.919 512.055 429.256C512.37 428.589 512.807 428.074 513.368 427.71C513.928 427.343 514.576 427.159 515.311 427.159C515.879 427.159 516.33 427.254 516.663 427.443C517 427.629 517.258 427.841 517.436 428.08C517.618 428.314 517.758 428.508 517.856 428.659H517.993V427.273H519.288V436.25C519.288 437 519.118 437.61 518.777 438.08C518.44 438.553 517.985 438.9 517.413 439.119C516.845 439.343 516.212 439.455 515.515 439.455ZM515.47 434.659C516.008 434.659 516.462 434.536 516.834 434.29C517.205 434.044 517.487 433.689 517.68 433.227C517.873 432.765 517.97 432.212 517.97 431.568C517.97 430.939 517.875 430.384 517.686 429.903C517.496 429.422 517.216 429.045 516.845 428.773C516.474 428.5 516.015 428.364 515.47 428.364C514.902 428.364 514.428 428.508 514.049 428.795C513.674 429.083 513.392 429.47 513.203 429.955C513.017 430.439 512.924 430.977 512.924 431.568C512.924 432.174 513.019 432.71 513.209 433.176C513.402 433.638 513.686 434.002 514.061 434.267C514.44 434.528 514.909 434.659 515.47 434.659Z" fill="#222222"/>
<path d="M361.5 430C361.5 437.456 355.456 443.5 348 443.5C340.544 443.5 334.5 437.456 334.5 430C334.5 422.544 340.544 416.5 348 416.5C355.456 416.5 361.5 422.544 361.5 430Z" fill="#CBE9F3" stroke="black"/>
<path d="M343.673 436V434.227L347.815 430.392C348.168 430.051 348.463 429.744 348.702 429.472C348.944 429.199 349.128 428.932 349.253 428.67C349.378 428.405 349.44 428.119 349.44 427.812C349.44 427.472 349.363 427.178 349.207 426.932C349.052 426.682 348.84 426.491 348.571 426.358C348.302 426.222 347.997 426.153 347.656 426.153C347.3 426.153 346.99 426.225 346.724 426.369C346.459 426.513 346.255 426.72 346.111 426.989C345.967 427.258 345.895 427.578 345.895 427.949H343.56C343.56 427.187 343.732 426.527 344.077 425.966C344.421 425.405 344.904 424.972 345.526 424.665C346.147 424.358 346.863 424.205 347.673 424.205C348.507 424.205 349.232 424.352 349.849 424.648C350.471 424.939 350.954 425.345 351.298 425.864C351.643 426.383 351.815 426.977 351.815 427.648C351.815 428.087 351.728 428.521 351.554 428.949C351.384 429.377 351.079 429.852 350.639 430.375C350.2 430.894 349.581 431.517 348.781 432.244L347.082 433.909V433.989H351.969V436H343.673Z" fill="black"/>
<path d="M338.886 339H337.409L341.682 327.364H343.136L347.409 339H345.932L342.455 329.205H342.364L338.886 339ZM339.432 334.455H345.386V335.705H339.432V334.455ZM350.205 327.364V339H348.864V327.364H350.205ZM353.826 327.364V339H352.485V327.364H353.826ZM363.975 339.182C363.187 339.182 362.496 338.994 361.901 338.619C361.31 338.244 360.848 337.72 360.515 337.045C360.185 336.371 360.02 335.583 360.02 334.682C360.02 333.773 360.185 332.979 360.515 332.301C360.848 331.623 361.31 331.097 361.901 330.722C362.496 330.347 363.187 330.159 363.975 330.159C364.763 330.159 365.452 330.347 366.043 330.722C366.638 331.097 367.1 331.623 367.43 332.301C367.763 332.979 367.93 333.773 367.93 334.682C367.93 335.583 367.763 336.371 367.43 337.045C367.1 337.72 366.638 338.244 366.043 338.619C365.452 338.994 364.763 339.182 363.975 339.182ZM363.975 337.977C364.573 337.977 365.066 337.824 365.452 337.517C365.839 337.21 366.125 336.807 366.31 336.307C366.496 335.807 366.589 335.265 366.589 334.682C366.589 334.098 366.496 333.555 366.31 333.051C366.125 332.547 365.839 332.14 365.452 331.83C365.066 331.519 364.573 331.364 363.975 331.364C363.376 331.364 362.884 331.519 362.498 331.83C362.111 332.14 361.825 332.547 361.64 333.051C361.454 333.555 361.361 334.098 361.361 334.682C361.361 335.265 361.454 335.807 361.64 336.307C361.825 336.807 362.111 337.21 362.498 337.517C362.884 337.824 363.376 337.977 363.975 337.977ZM373.596 330.273V331.409H369.073V330.273H373.596ZM370.391 328.182H371.732V336.5C371.732 336.879 371.787 337.163 371.897 337.352C372.011 337.538 372.155 337.663 372.329 337.727C372.507 337.788 372.694 337.818 372.891 337.818C373.039 337.818 373.16 337.811 373.255 337.795C373.35 337.777 373.425 337.761 373.482 337.75L373.755 338.955C373.664 338.989 373.537 339.023 373.374 339.057C373.211 339.095 373.005 339.114 372.755 339.114C372.376 339.114 372.005 339.032 371.641 338.869C371.281 338.706 370.982 338.458 370.744 338.125C370.509 337.792 370.391 337.371 370.391 336.864V328.182ZM376.965 333.75V339H375.624V327.364H376.965V331.636H377.079C377.283 331.186 377.59 330.828 377.999 330.562C378.412 330.294 378.962 330.159 379.647 330.159C380.242 330.159 380.763 330.278 381.21 330.517C381.657 330.752 382.003 331.114 382.249 331.602C382.499 332.087 382.624 332.705 382.624 333.455V339H381.283V333.545C381.283 332.852 381.104 332.316 380.744 331.938C380.388 331.555 379.893 331.364 379.261 331.364C378.821 331.364 378.427 331.456 378.079 331.642C377.734 331.828 377.462 332.098 377.261 332.455C377.064 332.811 376.965 333.242 376.965 333.75ZM388.561 339.182C387.72 339.182 386.994 338.996 386.384 338.625C385.778 338.25 385.311 337.727 384.981 337.057C384.655 336.383 384.492 335.598 384.492 334.705C384.492 333.811 384.655 333.023 384.981 332.341C385.311 331.655 385.769 331.121 386.356 330.739C386.947 330.352 387.636 330.159 388.424 330.159C388.879 330.159 389.328 330.235 389.771 330.386C390.214 330.538 390.617 330.784 390.981 331.125C391.345 331.462 391.634 331.909 391.85 332.466C392.066 333.023 392.174 333.708 392.174 334.523V335.091H385.447V333.932H390.811C390.811 333.439 390.712 333 390.515 332.614C390.322 332.227 390.045 331.922 389.686 331.699C389.33 331.475 388.909 331.364 388.424 331.364C387.89 331.364 387.428 331.496 387.038 331.761C386.652 332.023 386.354 332.364 386.146 332.784C385.938 333.205 385.833 333.655 385.833 334.136V334.909C385.833 335.568 385.947 336.127 386.174 336.585C386.405 337.04 386.725 337.386 387.134 337.625C387.544 337.86 388.019 337.977 388.561 337.977C388.913 337.977 389.231 337.928 389.515 337.83C389.803 337.727 390.051 337.576 390.259 337.375C390.468 337.17 390.629 336.917 390.742 336.614L392.038 336.977C391.902 337.417 391.672 337.803 391.35 338.136C391.028 338.466 390.631 338.723 390.157 338.909C389.684 339.091 389.152 339.182 388.561 339.182ZM394.038 339V330.273H395.333V331.591H395.424C395.583 331.159 395.871 330.809 396.288 330.54C396.705 330.271 397.174 330.136 397.697 330.136C397.796 330.136 397.919 330.138 398.066 330.142C398.214 330.146 398.326 330.152 398.402 330.159V331.523C398.356 331.511 398.252 331.494 398.089 331.472C397.93 331.445 397.762 331.432 397.583 331.432C397.159 331.432 396.78 331.521 396.447 331.699C396.118 331.873 395.856 332.116 395.663 332.426C395.474 332.733 395.379 333.083 395.379 333.477V339H394.038ZM404.139 342.273V330.273H405.435V331.659H405.594C405.692 331.508 405.829 331.314 406.003 331.08C406.181 330.841 406.435 330.629 406.764 330.443C407.097 330.254 407.548 330.159 408.116 330.159C408.851 330.159 409.499 330.343 410.06 330.71C410.62 331.078 411.058 331.598 411.372 332.273C411.686 332.947 411.844 333.742 411.844 334.659C411.844 335.583 411.686 336.384 411.372 337.062C411.058 337.737 410.622 338.259 410.065 338.631C409.508 338.998 408.866 339.182 408.139 339.182C407.579 339.182 407.13 339.089 406.793 338.903C406.455 338.714 406.196 338.5 406.014 338.261C405.832 338.019 405.692 337.818 405.594 337.659H405.48V342.273H404.139ZM405.457 334.636C405.457 335.295 405.554 335.877 405.747 336.381C405.94 336.881 406.222 337.273 406.594 337.557C406.965 337.837 407.419 337.977 407.957 337.977C408.518 337.977 408.986 337.83 409.361 337.534C409.74 337.235 410.024 336.833 410.213 336.33C410.406 335.822 410.503 335.258 410.503 334.636C410.503 334.023 410.408 333.47 410.219 332.977C410.033 332.481 409.751 332.089 409.372 331.801C408.997 331.509 408.526 331.364 407.957 331.364C407.412 331.364 406.954 331.502 406.582 331.778C406.211 332.051 405.931 332.434 405.741 332.926C405.552 333.415 405.457 333.985 405.457 334.636ZM413.713 339V330.273H415.009V331.591H415.1C415.259 331.159 415.546 330.809 415.963 330.54C416.38 330.271 416.85 330.136 417.372 330.136C417.471 330.136 417.594 330.138 417.742 330.142C417.889 330.146 418.001 330.152 418.077 330.159V331.523C418.031 331.511 417.927 331.494 417.764 331.472C417.605 331.445 417.437 331.432 417.259 331.432C416.834 331.432 416.456 331.521 416.122 331.699C415.793 331.873 415.531 332.116 415.338 332.426C415.149 332.733 415.054 333.083 415.054 333.477V339H413.713ZM422.77 339.182C421.982 339.182 421.291 338.994 420.696 338.619C420.105 338.244 419.643 337.72 419.31 337.045C418.98 336.371 418.816 335.583 418.816 334.682C418.816 333.773 418.98 332.979 419.31 332.301C419.643 331.623 420.105 331.097 420.696 330.722C421.291 330.347 421.982 330.159 422.77 330.159C423.558 330.159 424.247 330.347 424.838 330.722C425.433 331.097 425.895 331.623 426.225 332.301C426.558 332.979 426.725 333.773 426.725 334.682C426.725 335.583 426.558 336.371 426.225 337.045C425.895 337.72 425.433 338.244 424.838 338.619C424.247 338.994 423.558 339.182 422.77 339.182ZM422.77 337.977C423.369 337.977 423.861 337.824 424.247 337.517C424.634 337.21 424.92 336.807 425.105 336.307C425.291 335.807 425.384 335.265 425.384 334.682C425.384 334.098 425.291 333.555 425.105 333.051C424.92 332.547 424.634 332.14 424.247 331.83C423.861 331.519 423.369 331.364 422.77 331.364C422.172 331.364 421.679 331.519 421.293 331.83C420.906 332.14 420.62 332.547 420.435 333.051C420.249 333.555 420.156 334.098 420.156 334.682C420.156 335.265 420.249 335.807 420.435 336.307C420.62 336.807 420.906 337.21 421.293 337.517C421.679 337.824 422.172 337.977 422.77 337.977ZM432.391 330.273V331.409H427.868V330.273H432.391ZM429.186 328.182H430.527V336.5C430.527 336.879 430.582 337.163 430.692 337.352C430.806 337.538 430.95 337.663 431.124 337.727C431.302 337.788 431.489 337.818 431.686 337.818C431.834 337.818 431.955 337.811 432.05 337.795C432.145 337.777 432.221 337.761 432.277 337.75L432.55 338.955C432.459 338.989 432.332 339.023 432.169 339.057C432.007 339.095 431.8 339.114 431.55 339.114C431.171 339.114 430.8 339.032 430.436 338.869C430.077 338.706 429.777 338.458 429.539 338.125C429.304 337.792 429.186 337.371 429.186 336.864V328.182ZM437.684 339.182C436.896 339.182 436.205 338.994 435.61 338.619C435.019 338.244 434.557 337.72 434.224 337.045C433.894 336.371 433.729 335.583 433.729 334.682C433.729 333.773 433.894 332.979 434.224 332.301C434.557 331.623 435.019 331.097 435.61 330.722C436.205 330.347 436.896 330.159 437.684 330.159C438.472 330.159 439.161 330.347 439.752 330.722C440.347 331.097 440.809 331.623 441.138 332.301C441.472 332.979 441.638 333.773 441.638 334.682C441.638 335.583 441.472 336.371 441.138 337.045C440.809 337.72 440.347 338.244 439.752 338.619C439.161 338.994 438.472 339.182 437.684 339.182ZM437.684 337.977C438.282 337.977 438.775 337.824 439.161 337.517C439.547 337.21 439.833 336.807 440.019 336.307C440.205 335.807 440.297 335.265 440.297 334.682C440.297 334.098 440.205 333.555 440.019 333.051C439.833 332.547 439.547 332.14 439.161 331.83C438.775 331.519 438.282 331.364 437.684 331.364C437.085 331.364 436.593 331.519 436.206 331.83C435.82 332.14 435.534 332.547 435.349 333.051C435.163 333.555 435.07 334.098 435.07 334.682C435.07 335.265 435.163 335.807 435.349 336.307C435.534 336.807 435.82 337.21 436.206 337.517C436.593 337.824 437.085 337.977 437.684 337.977ZM447.055 339.182C446.236 339.182 445.532 338.989 444.941 338.602C444.35 338.216 443.896 337.684 443.577 337.006C443.259 336.328 443.1 335.553 443.1 334.682C443.1 333.795 443.263 333.013 443.589 332.335C443.918 331.653 444.377 331.121 444.964 330.739C445.555 330.352 446.244 330.159 447.032 330.159C447.646 330.159 448.199 330.273 448.691 330.5C449.183 330.727 449.587 331.045 449.901 331.455C450.216 331.864 450.411 332.341 450.486 332.886H449.146C449.043 332.489 448.816 332.136 448.464 331.83C448.115 331.519 447.646 331.364 447.055 331.364C446.532 331.364 446.074 331.5 445.68 331.773C445.289 332.042 444.985 332.422 444.765 332.915C444.549 333.403 444.441 333.977 444.441 334.636C444.441 335.311 444.547 335.898 444.759 336.398C444.975 336.898 445.278 337.286 445.668 337.562C446.062 337.839 446.524 337.977 447.055 337.977C447.403 337.977 447.719 337.917 448.003 337.795C448.288 337.674 448.528 337.5 448.725 337.273C448.922 337.045 449.062 336.773 449.146 336.455H450.486C450.411 336.97 450.223 337.434 449.924 337.847C449.628 338.256 449.236 338.581 448.748 338.824C448.263 339.062 447.699 339.182 447.055 339.182ZM455.816 339.182C455.028 339.182 454.337 338.994 453.742 338.619C453.151 338.244 452.689 337.72 452.356 337.045C452.026 336.371 451.862 335.583 451.862 334.682C451.862 333.773 452.026 332.979 452.356 332.301C452.689 331.623 453.151 331.097 453.742 330.722C454.337 330.347 455.028 330.159 455.816 330.159C456.604 330.159 457.293 330.347 457.884 330.722C458.479 331.097 458.941 331.623 459.271 332.301C459.604 332.979 459.771 333.773 459.771 334.682C459.771 335.583 459.604 336.371 459.271 337.045C458.941 337.72 458.479 338.244 457.884 338.619C457.293 338.994 456.604 339.182 455.816 339.182ZM455.816 337.977C456.415 337.977 456.907 337.824 457.293 337.517C457.68 337.21 457.966 336.807 458.151 336.307C458.337 335.807 458.43 335.265 458.43 334.682C458.43 334.098 458.337 333.555 458.151 333.051C457.966 332.547 457.68 332.14 457.293 331.83C456.907 331.519 456.415 331.364 455.816 331.364C455.218 331.364 454.725 331.519 454.339 331.83C453.952 332.14 453.666 332.547 453.481 333.051C453.295 333.555 453.202 334.098 453.202 334.682C453.202 335.265 453.295 335.807 453.481 336.307C453.666 336.807 453.952 337.21 454.339 337.517C454.725 337.824 455.218 337.977 455.816 337.977ZM462.982 327.364V339H461.642V327.364H462.982ZM471.444 332.227L470.24 332.568C470.164 332.367 470.052 332.172 469.904 331.983C469.761 331.79 469.564 331.631 469.314 331.506C469.064 331.381 468.743 331.318 468.353 331.318C467.819 331.318 467.374 331.441 467.018 331.688C466.666 331.93 466.49 332.239 466.49 332.614C466.49 332.947 466.611 333.21 466.853 333.403C467.096 333.597 467.475 333.758 467.99 333.886L469.285 334.205C470.065 334.394 470.647 334.684 471.029 335.074C471.412 335.46 471.603 335.958 471.603 336.568C471.603 337.068 471.459 337.515 471.171 337.909C470.887 338.303 470.49 338.614 469.978 338.841C469.467 339.068 468.872 339.182 468.194 339.182C467.304 339.182 466.567 338.989 465.984 338.602C465.401 338.216 465.031 337.652 464.876 336.909L466.149 336.591C466.27 337.061 466.499 337.413 466.836 337.648C467.177 337.883 467.622 338 468.171 338C468.796 338 469.293 337.867 469.66 337.602C470.031 337.333 470.217 337.011 470.217 336.636C470.217 336.333 470.111 336.08 469.899 335.875C469.687 335.667 469.361 335.511 468.921 335.409L467.467 335.068C466.668 334.879 466.081 334.585 465.706 334.188C465.334 333.786 465.149 333.284 465.149 332.682C465.149 332.189 465.287 331.754 465.564 331.375C465.844 330.996 466.225 330.699 466.706 330.483C467.19 330.267 467.74 330.159 468.353 330.159C469.217 330.159 469.895 330.348 470.387 330.727C470.884 331.106 471.236 331.606 471.444 332.227Z" fill="#222222"/>
<path d="M328.5 333C328.5 340.456 322.456 346.5 315 346.5C307.544 346.5 301.5 340.456 301.5 333C301.5 325.544 307.544 319.5 315 319.5C322.456 319.5 328.5 325.544 328.5 333Z" fill="#CBE9F3" stroke="black"/>
<path d="M310.114 336.955V335.017L314.972 327.364H316.643V330.045H315.654L312.592 334.892V334.983H319.495V336.955H310.114ZM315.7 339V336.364L315.745 335.506V327.364H318.052V339H315.7Z" fill="black"/>
<path d="M190.409 404V392.364H194.341C195.254 392.364 196 392.528 196.58 392.858C197.163 393.184 197.595 393.625 197.875 394.182C198.155 394.739 198.295 395.36 198.295 396.045C198.295 396.731 198.155 397.354 197.875 397.915C197.598 398.475 197.17 398.922 196.591 399.256C196.011 399.585 195.269 399.75 194.364 399.75H191.545V398.5H194.318C194.943 398.5 195.445 398.392 195.824 398.176C196.203 397.96 196.477 397.669 196.648 397.301C196.822 396.93 196.909 396.511 196.909 396.045C196.909 395.58 196.822 395.163 196.648 394.795C196.477 394.428 196.201 394.14 195.818 393.932C195.436 393.72 194.928 393.614 194.295 393.614H191.818V404H190.409ZM203.659 404.182C202.871 404.182 202.18 403.994 201.585 403.619C200.994 403.244 200.532 402.72 200.199 402.045C199.869 401.371 199.705 400.583 199.705 399.682C199.705 398.773 199.869 397.979 200.199 397.301C200.532 396.623 200.994 396.097 201.585 395.722C202.18 395.347 202.871 395.159 203.659 395.159C204.447 395.159 205.137 395.347 205.727 395.722C206.322 396.097 206.784 396.623 207.114 397.301C207.447 397.979 207.614 398.773 207.614 399.682C207.614 400.583 207.447 401.371 207.114 402.045C206.784 402.72 206.322 403.244 205.727 403.619C205.137 403.994 204.447 404.182 203.659 404.182ZM203.659 402.977C204.258 402.977 204.75 402.824 205.137 402.517C205.523 402.21 205.809 401.807 205.994 401.307C206.18 400.807 206.273 400.265 206.273 399.682C206.273 399.098 206.18 398.555 205.994 398.051C205.809 397.547 205.523 397.14 205.137 396.83C204.75 396.519 204.258 396.364 203.659 396.364C203.061 396.364 202.568 396.519 202.182 396.83C201.796 397.14 201.51 397.547 201.324 398.051C201.138 398.555 201.046 399.098 201.046 399.682C201.046 400.265 201.138 400.807 201.324 401.307C201.51 401.807 201.796 402.21 202.182 402.517C202.568 402.824 203.061 402.977 203.659 402.977ZM209.485 404V395.273H210.78V396.591H210.871C211.03 396.159 211.318 395.809 211.735 395.54C212.151 395.271 212.621 395.136 213.144 395.136C213.242 395.136 213.365 395.138 213.513 395.142C213.661 395.146 213.773 395.152 213.848 395.159V396.523C213.803 396.511 213.699 396.494 213.536 396.472C213.377 396.445 213.208 396.432 213.03 396.432C212.606 396.432 212.227 396.521 211.894 396.699C211.564 396.873 211.303 397.116 211.11 397.426C210.92 397.733 210.826 398.083 210.826 398.477V404H209.485ZM219.604 395.273V396.409H215.081V395.273H219.604ZM216.4 393.182H217.74V401.5C217.74 401.879 217.795 402.163 217.905 402.352C218.019 402.538 218.163 402.663 218.337 402.727C218.515 402.788 218.703 402.818 218.9 402.818C219.047 402.818 219.168 402.811 219.263 402.795C219.358 402.777 219.434 402.761 219.49 402.75L219.763 403.955C219.672 403.989 219.545 404.023 219.383 404.057C219.22 404.095 219.013 404.114 218.763 404.114C218.384 404.114 218.013 404.032 217.65 403.869C217.29 403.706 216.99 403.458 216.752 403.125C216.517 402.792 216.4 402.371 216.4 401.864V393.182ZM227.471 397.227L226.266 397.568C226.19 397.367 226.079 397.172 225.931 396.983C225.787 396.79 225.59 396.631 225.34 396.506C225.09 396.381 224.77 396.318 224.38 396.318C223.846 396.318 223.401 396.441 223.045 396.688C222.692 396.93 222.516 397.239 222.516 397.614C222.516 397.947 222.637 398.21 222.88 398.403C223.122 398.597 223.501 398.758 224.016 398.886L225.312 399.205C226.092 399.394 226.673 399.684 227.056 400.074C227.439 400.46 227.63 400.958 227.63 401.568C227.63 402.068 227.486 402.515 227.198 402.909C226.914 403.303 226.516 403.614 226.005 403.841C225.493 404.068 224.899 404.182 224.221 404.182C223.331 404.182 222.594 403.989 222.01 403.602C221.427 403.216 221.058 402.652 220.903 401.909L222.175 401.591C222.296 402.061 222.526 402.413 222.863 402.648C223.204 402.883 223.649 403 224.198 403C224.823 403 225.319 402.867 225.687 402.602C226.058 402.333 226.243 402.011 226.243 401.636C226.243 401.333 226.137 401.08 225.925 400.875C225.713 400.667 225.387 400.511 224.948 400.409L223.493 400.068C222.694 399.879 222.107 399.585 221.732 399.188C221.361 398.786 221.175 398.284 221.175 397.682C221.175 397.189 221.314 396.754 221.59 396.375C221.87 395.996 222.251 395.699 222.732 395.483C223.217 395.267 223.766 395.159 224.38 395.159C225.243 395.159 225.921 395.348 226.414 395.727C226.91 396.106 227.262 396.606 227.471 397.227ZM193.932 428.159C193.152 428.159 192.462 428.021 191.864 427.744C191.269 427.464 190.805 427.08 190.472 426.591C190.138 426.098 189.973 425.538 189.977 424.909C189.973 424.417 190.07 423.962 190.267 423.545C190.464 423.125 190.733 422.775 191.074 422.494C191.419 422.21 191.803 422.03 192.227 421.955V421.886C191.67 421.742 191.227 421.43 190.898 420.949C190.568 420.464 190.405 419.913 190.409 419.295C190.405 418.705 190.555 418.176 190.858 417.71C191.161 417.244 191.578 416.877 192.108 416.608C192.642 416.339 193.25 416.205 193.932 416.205C194.606 416.205 195.208 416.339 195.739 416.608C196.269 416.877 196.686 417.244 196.989 417.71C197.295 418.176 197.451 418.705 197.455 419.295C197.451 419.913 197.282 420.464 196.949 420.949C196.619 421.43 196.182 421.742 195.636 421.886V421.955C196.057 422.03 196.436 422.21 196.773 422.494C197.11 422.775 197.379 423.125 197.58 423.545C197.78 423.962 197.883 424.417 197.886 424.909C197.883 425.538 197.712 426.098 197.375 426.591C197.042 427.08 196.578 427.464 195.983 427.744C195.392 428.021 194.708 428.159 193.932 428.159ZM193.932 426.909C194.458 426.909 194.913 426.824 195.295 426.653C195.678 426.483 195.973 426.242 196.182 425.932C196.39 425.621 196.496 425.258 196.5 424.841C196.496 424.402 196.383 424.013 196.159 423.676C195.936 423.339 195.631 423.074 195.244 422.881C194.862 422.687 194.424 422.591 193.932 422.591C193.436 422.591 192.992 422.687 192.602 422.881C192.216 423.074 191.911 423.339 191.688 423.676C191.468 424.013 191.36 424.402 191.364 424.841C191.36 425.258 191.46 425.621 191.665 425.932C191.873 426.242 192.17 426.483 192.557 426.653C192.943 426.824 193.402 426.909 193.932 426.909ZM193.932 421.386C194.348 421.386 194.718 421.303 195.04 421.136C195.366 420.97 195.621 420.737 195.807 420.438C195.992 420.138 196.087 419.788 196.091 419.386C196.087 418.992 195.994 418.65 195.812 418.358C195.631 418.062 195.379 417.835 195.057 417.676C194.735 417.513 194.36 417.432 193.932 417.432C193.496 417.432 193.116 417.513 192.79 417.676C192.464 417.835 192.212 418.062 192.034 418.358C191.856 418.65 191.769 418.992 191.773 419.386C191.769 419.788 191.858 420.138 192.04 420.438C192.225 420.737 192.481 420.97 192.807 421.136C193.133 421.303 193.508 421.386 193.932 421.386ZM203.683 428.159C202.827 428.159 202.098 427.926 201.496 427.46C200.894 426.991 200.433 426.311 200.115 425.42C199.797 424.527 199.638 423.447 199.638 422.182C199.638 420.924 199.797 419.85 200.115 418.96C200.437 418.066 200.899 417.384 201.502 416.915C202.108 416.441 202.835 416.205 203.683 416.205C204.532 416.205 205.257 416.441 205.86 416.915C206.466 417.384 206.928 418.066 207.246 418.96C207.568 419.85 207.729 420.924 207.729 422.182C207.729 423.447 207.57 424.527 207.252 425.42C206.933 426.311 206.473 426.991 205.871 427.46C205.269 427.926 204.539 428.159 203.683 428.159ZM203.683 426.909C204.532 426.909 205.191 426.5 205.661 425.682C206.13 424.864 206.365 423.697 206.365 422.182C206.365 421.174 206.257 420.316 206.041 419.608C205.829 418.9 205.522 418.36 205.121 417.989C204.723 417.617 204.244 417.432 203.683 417.432C202.842 417.432 202.185 417.847 201.712 418.676C201.238 419.502 201.002 420.67 201.002 422.182C201.002 423.189 201.108 424.045 201.32 424.75C201.532 425.455 201.837 425.991 202.235 426.358C202.636 426.725 203.119 426.909 203.683 426.909ZM218.172 415.818L214.422 429.75H213.195L216.945 415.818H218.172ZM223.614 425.614V424.455L228.728 416.364H229.569V418.159H229.001L225.137 424.273V424.364H232.023V425.614H223.614ZM229.092 428V425.261V424.722V416.364H230.432V428H229.092ZM233.704 425.614V424.455L238.818 416.364H239.658V418.159H239.09L235.227 424.273V424.364H242.113V425.614H233.704ZM239.181 428V425.261V424.722V416.364H240.522V428H239.181ZM247.998 428.159C247.248 428.159 246.58 428.03 245.992 427.773C245.409 427.515 244.945 427.157 244.6 426.699C244.259 426.237 244.074 425.701 244.044 425.091H245.475C245.506 425.466 245.634 425.79 245.862 426.062C246.089 426.331 246.386 426.54 246.754 426.688C247.121 426.835 247.528 426.909 247.975 426.909C248.475 426.909 248.919 426.822 249.305 426.648C249.691 426.473 249.994 426.231 250.214 425.92C250.434 425.61 250.544 425.25 250.544 424.841C250.544 424.413 250.438 424.036 250.225 423.71C250.013 423.381 249.703 423.123 249.294 422.938C248.884 422.752 248.384 422.659 247.794 422.659H246.862V421.409H247.794C248.256 421.409 248.661 421.326 249.009 421.159C249.362 420.992 249.636 420.758 249.833 420.455C250.034 420.152 250.134 419.795 250.134 419.386C250.134 418.992 250.047 418.65 249.873 418.358C249.699 418.066 249.453 417.839 249.134 417.676C248.82 417.513 248.449 417.432 248.021 417.432C247.619 417.432 247.241 417.506 246.884 417.653C246.532 417.797 246.244 418.008 246.021 418.284C245.797 418.557 245.676 418.886 245.657 419.273H244.294C244.316 418.663 244.5 418.129 244.845 417.67C245.189 417.208 245.64 416.848 246.197 416.591C246.758 416.333 247.373 416.205 248.044 416.205C248.763 416.205 249.381 416.35 249.896 416.642C250.411 416.93 250.807 417.311 251.083 417.784C251.36 418.258 251.498 418.769 251.498 419.318C251.498 419.973 251.326 420.532 250.981 420.994C250.64 421.456 250.176 421.777 249.589 421.955V422.045C250.324 422.167 250.898 422.479 251.311 422.983C251.723 423.483 251.93 424.102 251.93 424.841C251.93 425.473 251.758 426.042 251.413 426.545C251.072 427.045 250.606 427.439 250.015 427.727C249.424 428.015 248.752 428.159 247.998 428.159Z" fill="#222222"/>
<path d="M221.5 372C221.5 379.456 215.456 385.5 208 385.5C200.544 385.5 194.5 379.456 194.5 372C194.5 364.544 200.544 358.5 208 358.5C215.456 358.5 221.5 364.544 221.5 372Z" fill="#CBE9F3" stroke="black"/>
<path d="M207.74 378.159C206.892 378.159 206.136 378.013 205.473 377.722C204.814 377.426 204.293 377.021 203.911 376.506C203.532 375.987 203.337 375.388 203.325 374.71H205.803C205.818 374.994 205.911 375.244 206.081 375.46C206.255 375.672 206.486 375.837 206.774 375.955C207.062 376.072 207.386 376.131 207.746 376.131C208.121 376.131 208.452 376.064 208.74 375.932C209.028 375.799 209.253 375.616 209.416 375.381C209.579 375.146 209.661 374.875 209.661 374.568C209.661 374.258 209.573 373.983 209.399 373.744C209.229 373.502 208.983 373.312 208.661 373.176C208.342 373.04 207.964 372.972 207.524 372.972H206.439V371.165H207.524C207.895 371.165 208.223 371.1 208.507 370.972C208.795 370.843 209.019 370.665 209.178 370.438C209.337 370.206 209.416 369.938 209.416 369.631C209.416 369.339 209.346 369.083 209.206 368.864C209.07 368.64 208.876 368.466 208.626 368.341C208.38 368.216 208.092 368.153 207.763 368.153C207.43 368.153 207.125 368.214 206.848 368.335C206.572 368.453 206.35 368.621 206.183 368.841C206.017 369.061 205.928 369.318 205.916 369.614H203.558C203.57 368.943 203.761 368.352 204.132 367.841C204.503 367.33 205.003 366.93 205.632 366.642C206.265 366.35 206.979 366.205 207.774 366.205C208.577 366.205 209.28 366.35 209.882 366.642C210.484 366.934 210.952 367.328 211.286 367.824C211.623 368.316 211.789 368.869 211.786 369.483C211.789 370.134 211.587 370.678 211.178 371.114C210.772 371.549 210.244 371.826 209.592 371.943V372.034C210.448 372.144 211.1 372.441 211.547 372.926C211.998 373.407 212.221 374.009 212.217 374.733C212.221 375.396 212.03 375.985 211.644 376.5C211.261 377.015 210.733 377.42 210.058 377.716C209.384 378.011 208.611 378.159 207.74 378.159Z" fill="black"/>
<rect x="264" y="421" width="62" height="62" fill="white" stroke="#B5B5B5" stroke-width="2"/>
<rect x="267.106" y="424.106" width="56.6901" height="56.6901" stroke="white"/>
<path d="M318.887 454.199L320.69 452.397V441.58L318.887 439.777H311.316V430.817L309.513 429.014H272.014L270.211 430.817V441.634L272.014 443.437H279.577V450.648H272.014L270.211 452.451V463.268L272.014 465.07H279.577V474.084L281.38 475.887H318.887L320.69 474.084V463.268L318.887 461.465H311.316V454.253L318.887 454.199ZM317.085 450.594H301.932V443.437H309.513H317.085V450.594ZM307.71 432.62V439.831H292.566V432.62H307.71ZM273.817 432.62H288.961V439.831H281.38H273.817V432.62ZM283.183 443.437H298.326V450.648H283.183V443.437ZM273.817 454.199H288.961V461.411H281.38H273.817V454.199ZM283.183 472.282V465.07H298.326V472.282H283.183ZM317.085 472.282H301.932V465.07H309.513H317.085V472.282ZM307.719 461.465H292.566V454.253H307.71L307.719 461.465Z" fill="#909090"/>
<defs>
<clipPath id="clip0_0_1">
<rect width="32" height="32" fill="white" transform="translate(21 160)"/>
</clipPath>
<clipPath id="clip1_0_1">
<rect width="32" height="32" fill="white" transform="translate(21 6)"/>
</clipPath>
</defs>
</svg>
