<svg width="361" height="628" viewBox="0 0 361 628" fill="none" xmlns="http://www.w3.org/2000/svg">
<rect width="361" height="628" fill="white"/>
<rect x="1.38882" y="0.266804" width="151.309" height="24" transform="matrix(0.561007 0.827811 0.827811 -0.561007 154.836 334.432)" fill="#D9D9D9" stroke="#757575" stroke-width="2"/>
<rect x="267.371" y="328.026" width="120.243" height="24" transform="rotate(89.8518 267.371 328.026)" fill="#D9D9D9" stroke="#757575" stroke-width="2"/>
<rect x="171" y="143" width="162" height="24" transform="rotate(90 171 143)" fill="#E2F5FA" stroke="#F6821F" stroke-width="2"/>
<rect x="25" y="51" width="310" height="93" fill="white" stroke="#FF8200" stroke-width="2" stroke-dasharray="10 10"/>
<rect x="25" y="205" width="310" height="116" stroke="#6ECCE5" stroke-width="2" stroke-dasharray="10 10"/>
<rect x="33" y="474" width="302" height="129" fill="white" stroke="#0055DC" stroke-width="2"/>
<line x1="112" y1="532" x2="112" y2="555" stroke="#757575" stroke-width="2"/>
<line x1="222" y1="532" x2="222" y2="555" stroke="#757575" stroke-width="2"/>
<line x1="82" y1="557" x2="82" y2="580" stroke="#757575" stroke-width="2"/>
<line x1="142" y1="557" x2="142" y2="580" stroke="#757575" stroke-width="2"/>
<line x1="202" y1="557" x2="202" y2="580" stroke="#757575" stroke-width="2"/>
<line x1="258" y1="556" x2="63" y2="556" stroke="#757575" stroke-width="2"/>
<rect x="44" y="459" width="64" height="28" fill="white"/>
<path d="M60.6327 477V465.364H63.0929V474.972H68.0815V477H60.6327ZM71.8374 477H69.201L73.218 465.364H76.3885L80.3999 477H77.7635L74.8487 468.023H74.7578L71.8374 477ZM71.6726 472.426H77.8999V474.347H71.6726V472.426ZM91.3574 465.364V477H89.2324L84.1699 469.676H84.0847V477H81.6244V465.364H83.7835L88.8062 472.682H88.9085V465.364H91.3574Z" fill="#222222"/>
<path d="M96.3939 296.364V308H93.9337V296.364H96.3939ZM104.555 299.71C104.509 299.252 104.314 298.896 103.969 298.642C103.625 298.388 103.157 298.261 102.566 298.261C102.164 298.261 101.825 298.318 101.549 298.432C101.272 298.542 101.06 298.695 100.913 298.892C100.769 299.089 100.697 299.312 100.697 299.562C100.689 299.771 100.733 299.953 100.827 300.108C100.926 300.263 101.06 300.398 101.231 300.511C101.401 300.621 101.598 300.718 101.822 300.801C102.045 300.881 102.284 300.949 102.538 301.006L103.583 301.256C104.091 301.369 104.556 301.521 104.981 301.71C105.405 301.9 105.772 302.133 106.083 302.409C106.394 302.686 106.634 303.011 106.805 303.386C106.979 303.761 107.068 304.191 107.072 304.676C107.068 305.388 106.886 306.006 106.526 306.528C106.17 307.047 105.655 307.451 104.981 307.739C104.31 308.023 103.502 308.165 102.555 308.165C101.615 308.165 100.797 308.021 100.1 307.733C99.4068 307.445 98.8652 307.019 98.475 306.455C98.0886 305.886 97.886 305.184 97.867 304.347H100.248C100.274 304.737 100.386 305.062 100.583 305.324C100.784 305.581 101.051 305.777 101.384 305.909C101.721 306.038 102.102 306.102 102.526 306.102C102.943 306.102 103.305 306.042 103.611 305.92C103.922 305.799 104.163 305.631 104.333 305.415C104.503 305.199 104.589 304.951 104.589 304.67C104.589 304.409 104.511 304.189 104.356 304.011C104.204 303.833 103.981 303.682 103.685 303.557C103.394 303.432 103.036 303.318 102.611 303.216L101.344 302.898C100.363 302.659 99.5886 302.286 99.0205 301.778C98.4523 301.271 98.1701 300.587 98.1739 299.727C98.1701 299.023 98.3576 298.407 98.7364 297.881C99.1189 297.354 99.6436 296.943 100.31 296.648C100.977 296.352 101.734 296.205 102.583 296.205C103.447 296.205 104.2 296.352 104.844 296.648C105.492 296.943 105.996 297.354 106.356 297.881C106.716 298.407 106.901 299.017 106.913 299.71H104.555ZM108.55 308V296.364H113.141C114.024 296.364 114.776 296.532 115.397 296.869C116.018 297.203 116.492 297.667 116.817 298.261C117.147 298.852 117.312 299.534 117.312 300.307C117.312 301.08 117.145 301.761 116.812 302.352C116.478 302.943 115.996 303.403 115.363 303.733C114.734 304.062 113.973 304.227 113.079 304.227H110.153V302.256H112.681C113.155 302.256 113.545 302.174 113.852 302.011C114.162 301.845 114.393 301.616 114.545 301.324C114.7 301.028 114.778 300.689 114.778 300.307C114.778 299.92 114.7 299.583 114.545 299.295C114.393 299.004 114.162 298.778 113.852 298.619C113.541 298.456 113.147 298.375 112.67 298.375H111.011V308H108.55ZM127.255 296.364V308H124.795V298.699H124.727L122.062 300.369V298.188L124.943 296.364H127.255Z" fill="#222222"/>
<path d="M288.269 296.364V308H285.809V296.364H288.269ZM296.43 299.71C296.384 299.252 296.189 298.896 295.844 298.642C295.5 298.388 295.032 298.261 294.441 298.261C294.039 298.261 293.7 298.318 293.424 298.432C293.147 298.542 292.935 298.695 292.788 298.892C292.644 299.089 292.572 299.312 292.572 299.562C292.564 299.771 292.608 299.953 292.702 300.108C292.801 300.263 292.935 300.398 293.106 300.511C293.276 300.621 293.473 300.718 293.697 300.801C293.92 300.881 294.159 300.949 294.413 301.006L295.458 301.256C295.966 301.369 296.431 301.521 296.856 301.71C297.28 301.9 297.647 302.133 297.958 302.409C298.269 302.686 298.509 303.011 298.68 303.386C298.854 303.761 298.943 304.191 298.947 304.676C298.943 305.388 298.761 306.006 298.401 306.528C298.045 307.047 297.53 307.451 296.856 307.739C296.185 308.023 295.377 308.165 294.43 308.165C293.49 308.165 292.672 308.021 291.975 307.733C291.282 307.445 290.74 307.019 290.35 306.455C289.964 305.886 289.761 305.184 289.742 304.347H292.123C292.149 304.737 292.261 305.062 292.458 305.324C292.659 305.581 292.926 305.777 293.259 305.909C293.596 306.038 293.977 306.102 294.401 306.102C294.818 306.102 295.18 306.042 295.486 305.92C295.797 305.799 296.038 305.631 296.208 305.415C296.378 305.199 296.464 304.951 296.464 304.67C296.464 304.409 296.386 304.189 296.231 304.011C296.079 303.833 295.856 303.682 295.56 303.557C295.269 303.432 294.911 303.318 294.486 303.216L293.219 302.898C292.238 302.659 291.464 302.286 290.895 301.778C290.327 301.271 290.045 300.587 290.049 299.727C290.045 299.023 290.233 298.407 290.611 297.881C290.994 297.354 291.519 296.943 292.185 296.648C292.852 296.352 293.609 296.205 294.458 296.205C295.322 296.205 296.075 296.352 296.719 296.648C297.367 296.943 297.871 297.354 298.231 297.881C298.591 298.407 298.776 299.017 298.788 299.71H296.43ZM300.425 308V296.364H305.016C305.899 296.364 306.651 296.532 307.272 296.869C307.893 297.203 308.367 297.667 308.692 298.261C309.022 298.852 309.187 299.534 309.187 300.307C309.187 301.08 309.02 301.761 308.687 302.352C308.353 302.943 307.871 303.403 307.238 303.733C306.609 304.062 305.848 304.227 304.954 304.227H302.028V302.256H304.556C305.03 302.256 305.42 302.174 305.727 302.011C306.037 301.845 306.268 301.616 306.42 301.324C306.575 301.028 306.653 300.689 306.653 300.307C306.653 299.92 306.575 299.583 306.42 299.295C306.268 299.004 306.037 298.778 305.727 298.619C305.416 298.456 305.022 298.375 304.545 298.375H302.886V308H300.425ZM314.068 308V306.227L318.21 302.392C318.562 302.051 318.858 301.744 319.096 301.472C319.339 301.199 319.522 300.932 319.647 300.67C319.772 300.405 319.835 300.119 319.835 299.812C319.835 299.472 319.757 299.178 319.602 298.932C319.447 298.682 319.234 298.491 318.965 298.358C318.697 298.222 318.392 298.153 318.051 298.153C317.695 298.153 317.384 298.225 317.119 298.369C316.854 298.513 316.649 298.72 316.505 298.989C316.361 299.258 316.289 299.578 316.289 299.949H313.954C313.954 299.187 314.126 298.527 314.471 297.966C314.816 297.405 315.299 296.972 315.92 296.665C316.541 296.358 317.257 296.205 318.068 296.205C318.901 296.205 319.626 296.352 320.244 296.648C320.865 296.939 321.348 297.345 321.693 297.864C322.037 298.383 322.21 298.977 322.21 299.648C322.21 300.087 322.123 300.521 321.948 300.949C321.778 301.377 321.473 301.852 321.034 302.375C320.594 302.894 319.975 303.517 319.176 304.244L317.477 305.909V305.989H322.363V308H314.068Z" fill="#222222"/>
<g clip-path="url(#clip0_0_1)">
<path d="M50.0305 197.65H31.109C29.2248 197.646 27.419 196.895 26.0867 195.563C24.7544 194.231 24.0041 192.425 24 190.541C24.0102 189.488 24.2479 188.451 24.6967 187.499C25.1454 186.547 25.7947 185.703 26.6 185.026C27.9476 183.886 29.6854 183.314 31.4465 183.431C32.2453 181.465 33.6701 179.818 35.5002 178.744C37.3303 177.67 39.4635 177.229 41.5692 177.491C43.675 177.752 45.6359 178.7 47.148 180.189C48.66 181.678 49.6389 183.624 49.933 185.725C51.39 185.66 52.8179 186.146 53.933 187.086C54.8543 187.888 55.5098 188.952 55.8124 190.136C56.115 191.319 56.0505 192.567 55.6273 193.713C55.2042 194.859 54.4424 195.849 53.4432 196.552C52.444 197.255 51.2547 197.638 50.033 197.649L50.0305 197.65ZM30.9965 185.416C29.8568 185.413 28.7534 185.817 27.886 186.557C27.3031 187.046 26.8328 187.655 26.5073 188.342C26.1818 189.03 26.0087 189.78 26 190.541C26.0021 191.892 26.539 193.189 27.4936 194.146C28.4481 195.103 29.7426 195.644 31.0945 195.65H50.03C51.0827 195.649 52.0918 195.23 52.8361 194.485C53.5804 193.741 53.9989 192.732 54 191.679C54.005 191.1 53.8859 190.526 53.6506 189.996C53.4153 189.466 53.0694 188.993 52.636 188.609C52.1558 188.226 51.5965 187.955 50.9986 187.815C50.4007 187.675 49.7791 187.67 49.179 187.8L48.052 187.982L48.0205 186.841C47.9684 185.03 47.2753 183.298 46.0646 181.951C44.854 180.604 43.2045 179.731 41.4102 179.488C39.6159 179.244 37.7932 179.645 36.2672 180.62C34.7411 181.595 33.6107 183.08 33.0775 184.81L32.8185 185.654L31.95 185.5C31.6352 185.445 31.3162 185.416 30.9965 185.416Z" fill="#6ECCE5"/>
</g>
<path d="M67.4716 182.364V194H65.0114V182.364H67.4716ZM71.6947 188.955V194H69.2743V185.273H71.5811V186.812H71.6834C71.8766 186.305 72.2004 185.903 72.655 185.608C73.1095 185.309 73.6606 185.159 74.3084 185.159C74.9144 185.159 75.4428 185.292 75.8936 185.557C76.3444 185.822 76.6947 186.201 76.9447 186.693C77.1947 187.182 77.3197 187.765 77.3197 188.443V194H74.8993V188.875C74.9031 188.341 74.7667 187.924 74.4902 187.625C74.2137 187.322 73.833 187.17 73.3481 187.17C73.0224 187.17 72.7345 187.241 72.4845 187.381C72.2383 187.521 72.0451 187.725 71.905 187.994C71.7686 188.259 71.6985 188.58 71.6947 188.955ZM83.6935 185.273V187.091H78.4378V185.273H83.6935ZM79.631 183.182H82.0514V191.318C82.0514 191.542 82.0855 191.716 82.1537 191.841C82.2219 191.962 82.3166 192.047 82.4378 192.097C82.5628 192.146 82.7067 192.17 82.8696 192.17C82.9832 192.17 83.0969 192.161 83.2105 192.142C83.3241 192.119 83.4113 192.102 83.4719 192.091L83.8525 193.892C83.7313 193.93 83.5609 193.973 83.3412 194.023C83.1215 194.076 82.8544 194.108 82.54 194.119C81.9567 194.142 81.4453 194.064 81.006 193.886C80.5703 193.708 80.2313 193.432 79.9889 193.057C79.7465 192.682 79.6272 192.208 79.631 191.636V183.182ZM88.9777 194.17C88.08 194.17 87.3072 193.989 86.6595 193.625C86.0156 193.258 85.5193 192.739 85.1709 192.068C84.8224 191.394 84.6481 190.597 84.6481 189.676C84.6481 188.778 84.8224 187.991 85.1709 187.312C85.5193 186.634 86.0099 186.106 86.6425 185.727C87.2788 185.348 88.025 185.159 88.8811 185.159C89.4568 185.159 89.9928 185.252 90.489 185.438C90.989 185.619 91.4247 185.894 91.7959 186.261C92.1709 186.629 92.4625 187.091 92.6709 187.648C92.8792 188.201 92.9834 188.848 92.9834 189.591V190.256H85.614V188.756H90.705C90.705 188.407 90.6292 188.098 90.4777 187.83C90.3262 187.561 90.1159 187.35 89.847 187.199C89.5818 187.044 89.2731 186.966 88.9209 186.966C88.5534 186.966 88.2277 187.051 87.9436 187.222C87.6633 187.388 87.4436 187.614 87.2845 187.898C87.1254 188.178 87.044 188.491 87.0402 188.835V190.261C87.0402 190.693 87.1197 191.066 87.2788 191.381C87.4417 191.695 87.6709 191.938 87.9663 192.108C88.2618 192.278 88.6122 192.364 89.0175 192.364C89.2864 192.364 89.5326 192.326 89.7561 192.25C89.9796 192.174 90.1709 192.061 90.33 191.909C90.489 191.758 90.6103 191.572 90.6936 191.352L92.9322 191.5C92.8186 192.038 92.5856 192.508 92.2334 192.909C91.8849 193.307 91.4341 193.617 90.8811 193.841C90.3318 194.061 89.6974 194.17 88.9777 194.17ZM94.3869 194V185.273H96.7335V186.795H96.8244C96.9835 186.254 97.2505 185.845 97.6255 185.568C98.0005 185.288 98.4324 185.148 98.921 185.148C99.0422 185.148 99.1729 185.155 99.313 185.17C99.4532 185.186 99.5763 185.206 99.6824 185.233V187.381C99.5687 187.347 99.4115 187.316 99.2108 187.29C99.01 187.263 98.8263 187.25 98.6596 187.25C98.3036 187.25 97.9854 187.328 97.7051 187.483C97.4286 187.634 97.2089 187.847 97.046 188.119C96.8869 188.392 96.8074 188.706 96.8074 189.062V194H94.3869ZM103.178 188.955V194H100.758V185.273H103.065V186.812H103.167C103.36 186.305 103.684 185.903 104.138 185.608C104.593 185.309 105.144 185.159 105.792 185.159C106.398 185.159 106.926 185.292 107.377 185.557C107.828 185.822 108.178 186.201 108.428 186.693C108.678 187.182 108.803 187.765 108.803 188.443V194H106.383V188.875C106.387 188.341 106.25 187.924 105.974 187.625C105.697 187.322 105.316 187.17 104.832 187.17C104.506 187.17 104.218 187.241 103.968 187.381C103.722 187.521 103.529 187.725 103.388 187.994C103.252 188.259 103.182 188.58 103.178 188.955ZM114.512 194.17C113.614 194.17 112.842 193.989 112.194 193.625C111.55 193.258 111.054 192.739 110.705 192.068C110.357 191.394 110.183 190.597 110.183 189.676C110.183 188.778 110.357 187.991 110.705 187.312C111.054 186.634 111.544 186.106 112.177 185.727C112.813 185.348 113.56 185.159 114.416 185.159C114.991 185.159 115.527 185.252 116.024 185.438C116.524 185.619 116.959 185.894 117.33 186.261C117.705 186.629 117.997 187.091 118.205 187.648C118.414 188.201 118.518 188.848 118.518 189.591V190.256H111.149V188.756H116.239C116.239 188.407 116.164 188.098 116.012 187.83C115.861 187.561 115.65 187.35 115.382 187.199C115.116 187.044 114.808 186.966 114.455 186.966C114.088 186.966 113.762 187.051 113.478 187.222C113.198 187.388 112.978 187.614 112.819 187.898C112.66 188.178 112.578 188.491 112.575 188.835V190.261C112.575 190.693 112.654 191.066 112.813 191.381C112.976 191.695 113.205 191.938 113.501 192.108C113.796 192.278 114.147 192.364 114.552 192.364C114.821 192.364 115.067 192.326 115.291 192.25C115.514 192.174 115.705 192.061 115.864 191.909C116.024 191.758 116.145 191.572 116.228 191.352L118.467 191.5C118.353 192.038 118.12 192.508 117.768 192.909C117.419 193.307 116.969 193.617 116.416 193.841C115.866 194.061 115.232 194.17 114.512 194.17ZM124.563 185.273V187.091H119.308V185.273H124.563ZM120.501 183.182H122.921V191.318C122.921 191.542 122.956 191.716 123.024 191.841C123.092 191.962 123.187 192.047 123.308 192.097C123.433 192.146 123.577 192.17 123.74 192.17C123.853 192.17 123.967 192.161 124.081 192.142C124.194 192.119 124.281 192.102 124.342 192.091L124.723 193.892C124.601 193.93 124.431 193.973 124.211 194.023C123.991 194.076 123.724 194.108 123.41 194.119C122.827 194.142 122.315 194.064 121.876 193.886C121.44 193.708 121.101 193.432 120.859 193.057C120.616 192.682 120.497 192.208 120.501 191.636V183.182Z" fill="#222222"/>
<path d="M82.017 440H79.3807L83.3977 428.364H86.5682L90.5795 440H87.9432L85.0284 431.023H84.9375L82.017 440ZM81.8523 435.426H88.0795V437.347H81.8523V435.426ZM95.2956 440.17C94.4017 440.17 93.6327 439.981 92.9888 439.602C92.3486 439.22 91.8562 438.689 91.5115 438.011C91.1706 437.333 91.0001 436.553 91.0001 435.67C91.0001 434.777 91.1725 433.992 91.5172 433.318C91.8657 432.64 92.36 432.112 93.0001 431.733C93.6403 431.35 94.4017 431.159 95.2842 431.159C96.0456 431.159 96.7123 431.297 97.2842 431.574C97.8562 431.85 98.3088 432.239 98.6422 432.739C98.9755 433.239 99.1592 433.826 99.1933 434.5H96.9092C96.8448 434.064 96.6744 433.714 96.3979 433.449C96.1251 433.18 95.7672 433.045 95.324 433.045C94.949 433.045 94.6213 433.148 94.341 433.352C94.0645 433.553 93.8486 433.847 93.6933 434.233C93.538 434.619 93.4604 435.087 93.4604 435.636C93.4604 436.193 93.5361 436.667 93.6876 437.057C93.8429 437.447 94.0607 437.744 94.341 437.949C94.6213 438.153 94.949 438.256 95.324 438.256C95.6005 438.256 95.8486 438.199 96.0683 438.085C96.2918 437.972 96.4755 437.807 96.6195 437.591C96.7672 437.371 96.8638 437.108 96.9092 436.801H99.1933C99.1554 437.468 98.9736 438.055 98.6479 438.562C98.3259 439.066 97.8808 439.46 97.3126 439.744C96.7445 440.028 96.0721 440.17 95.2956 440.17ZM105.209 431.273V433.091H99.9534V431.273H105.209ZM101.147 429.182H103.567V437.318C103.567 437.542 103.601 437.716 103.669 437.841C103.737 437.962 103.832 438.047 103.953 438.097C104.078 438.146 104.222 438.17 104.385 438.17C104.499 438.17 104.612 438.161 104.726 438.142C104.84 438.119 104.927 438.102 104.987 438.091L105.368 439.892C105.247 439.93 105.077 439.973 104.857 440.023C104.637 440.076 104.37 440.108 104.056 440.119C103.472 440.142 102.961 440.064 102.522 439.886C102.086 439.708 101.747 439.432 101.505 439.057C101.262 438.682 101.143 438.208 101.147 437.636V429.182ZM106.61 440V431.273H109.03V440H106.61ZM107.826 430.148C107.466 430.148 107.157 430.028 106.9 429.79C106.646 429.547 106.519 429.258 106.519 428.92C106.519 428.587 106.646 428.301 106.9 428.062C107.157 427.82 107.466 427.699 107.826 427.699C108.186 427.699 108.492 427.82 108.746 428.062C109.004 428.301 109.133 428.587 109.133 428.92C109.133 429.258 109.004 429.547 108.746 429.79C108.492 430.028 108.186 430.148 107.826 430.148ZM118.93 431.273L115.878 440H113.151L110.1 431.273H112.657L114.469 437.517H114.56L116.367 431.273H118.93ZM123.688 440.17C122.79 440.17 122.018 439.989 121.37 439.625C120.726 439.258 120.23 438.739 119.881 438.068C119.533 437.394 119.359 436.597 119.359 435.676C119.359 434.778 119.533 433.991 119.881 433.312C120.23 432.634 120.72 432.106 121.353 431.727C121.989 431.348 122.736 431.159 123.592 431.159C124.167 431.159 124.703 431.252 125.2 431.438C125.7 431.619 126.135 431.894 126.506 432.261C126.881 432.629 127.173 433.091 127.381 433.648C127.59 434.201 127.694 434.848 127.694 435.591V436.256H120.325V434.756H125.415C125.415 434.407 125.34 434.098 125.188 433.83C125.037 433.561 124.826 433.35 124.557 433.199C124.292 433.044 123.984 432.966 123.631 432.966C123.264 432.966 122.938 433.051 122.654 433.222C122.374 433.388 122.154 433.614 121.995 433.898C121.836 434.178 121.754 434.491 121.751 434.835V436.261C121.751 436.693 121.83 437.066 121.989 437.381C122.152 437.695 122.381 437.938 122.677 438.108C122.972 438.278 123.323 438.364 123.728 438.364C123.997 438.364 124.243 438.326 124.467 438.25C124.69 438.174 124.881 438.061 125.04 437.909C125.2 437.758 125.321 437.572 125.404 437.352L127.643 437.5C127.529 438.038 127.296 438.508 126.944 438.909C126.595 439.307 126.145 439.617 125.592 439.841C125.042 440.061 124.408 440.17 123.688 440.17Z" fill="#18B500"/>
<path d="M291.011 440V428.364H295.602C296.485 428.364 297.237 428.532 297.858 428.869C298.479 429.203 298.953 429.667 299.278 430.261C299.608 430.852 299.773 431.534 299.773 432.307C299.773 433.08 299.606 433.761 299.273 434.352C298.939 434.943 298.456 435.403 297.824 435.733C297.195 436.062 296.434 436.227 295.54 436.227H292.614V434.256H295.142C295.616 434.256 296.006 434.174 296.312 434.011C296.623 433.845 296.854 433.616 297.006 433.324C297.161 433.028 297.239 432.689 297.239 432.307C297.239 431.92 297.161 431.583 297.006 431.295C296.854 431.004 296.623 430.778 296.312 430.619C296.002 430.456 295.608 430.375 295.131 430.375H293.472V440H291.011ZM303.404 440.165C302.847 440.165 302.351 440.068 301.915 439.875C301.479 439.678 301.135 439.388 300.881 439.006C300.631 438.619 300.506 438.138 300.506 437.562C300.506 437.078 300.595 436.67 300.773 436.341C300.951 436.011 301.193 435.746 301.5 435.545C301.807 435.345 302.155 435.193 302.546 435.091C302.94 434.989 303.352 434.917 303.784 434.875C304.292 434.822 304.701 434.773 305.012 434.727C305.322 434.678 305.547 434.606 305.688 434.511C305.828 434.417 305.898 434.277 305.898 434.091V434.057C305.898 433.697 305.784 433.419 305.557 433.222C305.333 433.025 305.015 432.926 304.602 432.926C304.167 432.926 303.82 433.023 303.563 433.216C303.305 433.405 303.135 433.644 303.051 433.932L300.813 433.75C300.926 433.22 301.15 432.761 301.483 432.375C301.816 431.985 302.246 431.686 302.773 431.477C303.303 431.265 303.917 431.159 304.614 431.159C305.099 431.159 305.563 431.216 306.006 431.33C306.453 431.443 306.849 431.619 307.193 431.858C307.542 432.097 307.816 432.403 308.017 432.778C308.218 433.15 308.318 433.595 308.318 434.114V440H306.023V438.79H305.955C305.815 439.062 305.627 439.303 305.392 439.511C305.157 439.716 304.875 439.877 304.546 439.994C304.216 440.108 303.835 440.165 303.404 440.165ZM304.097 438.494C304.453 438.494 304.767 438.424 305.04 438.284C305.313 438.14 305.527 437.947 305.682 437.705C305.837 437.462 305.915 437.187 305.915 436.881V435.955C305.839 436.004 305.735 436.049 305.602 436.091C305.474 436.129 305.328 436.165 305.165 436.199C305.002 436.229 304.839 436.258 304.676 436.284C304.513 436.307 304.366 436.328 304.233 436.347C303.949 436.388 303.701 436.455 303.489 436.545C303.277 436.636 303.112 436.759 302.994 436.915C302.877 437.066 302.818 437.256 302.818 437.483C302.818 437.812 302.938 438.064 303.176 438.239C303.419 438.409 303.726 438.494 304.097 438.494ZM317.282 433.761L315.066 433.898C315.028 433.708 314.946 433.538 314.821 433.386C314.696 433.231 314.532 433.108 314.327 433.017C314.126 432.922 313.886 432.875 313.605 432.875C313.23 432.875 312.914 432.955 312.657 433.114C312.399 433.269 312.27 433.477 312.27 433.739C312.27 433.947 312.353 434.123 312.52 434.267C312.687 434.411 312.973 434.527 313.378 434.614L314.958 434.932C315.806 435.106 316.439 435.386 316.855 435.773C317.272 436.159 317.48 436.667 317.48 437.295C317.48 437.867 317.312 438.369 316.975 438.801C316.641 439.233 316.183 439.57 315.6 439.812C315.02 440.051 314.352 440.17 313.594 440.17C312.439 440.17 311.518 439.93 310.833 439.449C310.151 438.964 309.751 438.305 309.634 437.472L312.014 437.347C312.086 437.699 312.261 437.968 312.537 438.153C312.814 438.335 313.168 438.426 313.6 438.426C314.024 438.426 314.365 438.345 314.622 438.182C314.884 438.015 315.016 437.801 315.02 437.54C315.016 437.32 314.924 437.14 314.742 437C314.56 436.856 314.28 436.746 313.901 436.67L312.389 436.369C311.537 436.199 310.903 435.903 310.486 435.483C310.073 435.062 309.867 434.527 309.867 433.875C309.867 433.314 310.018 432.831 310.321 432.426C310.628 432.021 311.058 431.708 311.611 431.489C312.168 431.269 312.819 431.159 313.566 431.159C314.668 431.159 315.535 431.392 316.168 431.858C316.804 432.324 317.175 432.958 317.282 433.761ZM326.09 433.761L323.874 433.898C323.836 433.708 323.755 433.538 323.63 433.386C323.505 433.231 323.34 433.108 323.135 433.017C322.935 432.922 322.694 432.875 322.414 432.875C322.039 432.875 321.722 432.955 321.465 433.114C321.207 433.269 321.079 433.477 321.079 433.739C321.079 433.947 321.162 434.123 321.329 434.267C321.495 434.411 321.781 434.527 322.186 434.614L323.766 434.932C324.615 435.106 325.247 435.386 325.664 435.773C326.08 436.159 326.289 436.667 326.289 437.295C326.289 437.867 326.12 438.369 325.783 438.801C325.45 439.233 324.991 439.57 324.408 439.812C323.829 440.051 323.16 440.17 322.402 440.17C321.247 440.17 320.327 439.93 319.641 439.449C318.959 438.964 318.56 438.305 318.442 437.472L320.823 437.347C320.895 437.699 321.069 437.968 321.346 438.153C321.622 438.335 321.976 438.426 322.408 438.426C322.832 438.426 323.173 438.345 323.431 438.182C323.692 438.015 323.825 437.801 323.829 437.54C323.825 437.32 323.732 437.14 323.55 437C323.368 436.856 323.088 436.746 322.709 436.67L321.198 436.369C320.346 436.199 319.711 435.903 319.294 435.483C318.882 435.062 318.675 434.527 318.675 433.875C318.675 433.314 318.827 432.831 319.13 432.426C319.436 432.021 319.866 431.708 320.419 431.489C320.976 431.269 321.628 431.159 322.374 431.159C323.476 431.159 324.344 431.392 324.976 431.858C325.613 432.324 325.984 432.958 326.09 433.761ZM327.637 440V431.273H330.057V440H327.637ZM328.853 430.148C328.493 430.148 328.184 430.028 327.927 429.79C327.673 429.547 327.546 429.258 327.546 428.92C327.546 428.587 327.673 428.301 327.927 428.062C328.184 427.82 328.493 427.699 328.853 427.699C329.213 427.699 329.519 427.82 329.773 428.062C330.031 428.301 330.16 428.587 330.16 428.92C330.16 429.258 330.031 429.547 329.773 429.79C329.519 430.028 329.213 430.148 328.853 430.148ZM339.957 431.273L336.906 440H334.178L331.127 431.273H333.684L335.496 437.517H335.587L337.394 431.273H339.957ZM344.715 440.17C343.818 440.17 343.045 439.989 342.397 439.625C341.753 439.258 341.257 438.739 340.908 438.068C340.56 437.394 340.386 436.597 340.386 435.676C340.386 434.778 340.56 433.991 340.908 433.312C341.257 432.634 341.748 432.106 342.38 431.727C343.016 431.348 343.763 431.159 344.619 431.159C345.194 431.159 345.73 431.252 346.227 431.438C346.727 431.619 347.162 431.894 347.533 432.261C347.908 432.629 348.2 433.091 348.408 433.648C348.617 434.201 348.721 434.848 348.721 435.591V436.256H341.352V434.756H346.443C346.443 434.407 346.367 434.098 346.215 433.83C346.064 433.561 345.854 433.35 345.585 433.199C345.319 433.044 345.011 432.966 344.658 432.966C344.291 432.966 343.965 433.051 343.681 433.222C343.401 433.388 343.181 433.614 343.022 433.898C342.863 434.178 342.782 434.491 342.778 434.835V436.261C342.778 436.693 342.857 437.066 343.016 437.381C343.179 437.695 343.408 437.938 343.704 438.108C343.999 438.278 344.35 438.364 344.755 438.364C345.024 438.364 345.27 438.326 345.494 438.25C345.717 438.174 345.908 438.061 346.068 437.909C346.227 437.758 346.348 437.572 346.431 437.352L348.67 437.5C348.556 438.038 348.323 438.508 347.971 438.909C347.623 439.307 347.172 439.617 346.619 439.841C346.069 440.061 345.435 440.17 344.715 440.17Z" fill="#EBB103"/>
<g clip-path="url(#clip1_0_1)">
<path d="M50.0305 43.6501H31.109C29.2248 43.6458 27.419 42.8954 26.0867 41.563C24.7544 40.2306 24.0041 38.4248 24 36.5406C24.0102 35.4882 24.2479 34.4505 24.6967 33.4986C25.1454 32.5467 25.7947 31.7031 26.6 31.0256C27.9476 29.8857 29.6854 29.314 31.4465 29.4311C32.2453 27.4652 33.6701 25.8177 35.5002 24.7437C37.3303 23.6697 39.4635 23.2292 41.5692 23.4905C43.675 23.7518 45.6359 24.7003 47.148 26.189C48.66 27.6778 49.6389 29.6236 49.933 31.7251C51.39 31.6602 52.8179 32.1461 53.933 33.0861C54.8543 33.8884 55.5098 34.952 55.8124 36.1357C56.115 37.3193 56.0505 38.567 55.6273 39.7131C55.2042 40.8592 54.4424 41.8495 53.4432 42.5525C52.444 43.2555 51.2547 43.6379 50.033 43.6491L50.0305 43.6501ZM30.9965 31.4161C29.8568 31.4127 28.7534 31.8172 27.886 32.5566C27.3031 33.0455 26.8328 33.6547 26.5073 34.3423C26.1818 35.0299 26.0087 35.7798 26 36.5406C26.0021 37.8924 26.539 39.1886 27.4936 40.1459C28.4481 41.1032 29.7426 41.644 31.0945 41.6501H50.03C51.0827 41.6487 52.0918 41.2299 52.8361 40.4855C53.5804 39.741 53.9989 38.7317 54 37.6791C54.005 37.0995 53.8859 36.5257 53.6506 35.9961C53.4153 35.4664 53.0694 34.9933 52.636 34.6086C52.1558 34.2259 51.5965 33.9548 50.9986 33.8149C50.4007 33.6751 49.7791 33.67 49.179 33.8001L48.052 33.9816L48.0205 32.8406C47.9684 31.0305 47.2753 29.2977 46.0646 27.9511C44.854 26.6044 43.2045 25.7314 41.4102 25.4876C39.6159 25.2437 37.7932 25.645 36.2672 26.6197C34.7411 27.5945 33.6107 29.0795 33.0775 30.8101L32.8185 31.6536L31.95 31.5001C31.6352 31.4445 31.3162 31.4164 30.9965 31.4161Z" fill="#F6821F"/>
</g>
<path d="M75.2784 32.6194H72.7898C72.7443 32.2974 72.6515 32.0114 72.5114 31.7614C72.3712 31.5076 72.1913 31.2917 71.9716 31.1137C71.7519 30.9357 71.4981 30.7993 71.2102 30.7046C70.9261 30.6099 70.6174 30.5626 70.2841 30.5626C69.6818 30.5626 69.1572 30.7122 68.7102 31.0114C68.2633 31.3069 67.9167 31.7387 67.6705 32.3069C67.4242 32.8713 67.3011 33.5569 67.3011 34.3637C67.3011 35.1932 67.4242 35.8902 67.6705 36.4546C67.9205 37.019 68.2689 37.4451 68.7159 37.733C69.1629 38.0209 69.6799 38.1648 70.267 38.1648C70.5966 38.1648 70.9015 38.1213 71.1818 38.0342C71.4659 37.947 71.7178 37.8201 71.9375 37.6535C72.1572 37.483 72.339 37.2766 72.483 37.0342C72.6307 36.7917 72.733 36.5152 72.7898 36.2046L75.2784 36.216C75.214 36.7501 75.053 37.2652 74.7955 37.7614C74.5417 38.2539 74.1989 38.6951 73.767 39.0853C73.339 39.4717 72.8277 39.7785 72.233 40.0057C71.642 40.2292 70.9735 40.341 70.2273 40.341C69.1894 40.341 68.2614 40.1061 67.4432 39.6364C66.6288 39.1667 65.9848 38.4868 65.5114 37.5967C65.0417 36.7065 64.8068 35.6289 64.8068 34.3637C64.8068 33.0948 65.0455 32.0152 65.5227 31.1251C66 30.2349 66.6477 29.5569 67.4659 29.091C68.2841 28.6213 69.2045 28.3864 70.2273 28.3864C70.9015 28.3864 71.5265 28.4811 72.1023 28.6705C72.6818 28.8599 73.1951 29.1364 73.642 29.5001C74.089 29.8599 74.4527 30.3012 74.733 30.8239C75.017 31.3467 75.1989 31.9451 75.2784 32.6194ZM79.2416 28.5455V40.1819H76.8212V28.5455H79.2416ZM84.9477 40.3523C84.0651 40.3523 83.3019 40.1648 82.6579 39.7898C82.0178 39.4111 81.5235 38.8845 81.175 38.2103C80.8265 37.5323 80.6523 36.7463 80.6523 35.8523C80.6523 34.9508 80.8265 34.1629 81.175 33.4887C81.5235 32.8107 82.0178 32.2842 82.6579 31.9092C83.3019 31.5304 84.0651 31.341 84.9477 31.341C85.8303 31.341 86.5917 31.5304 87.2318 31.9092C87.8757 32.2842 88.372 32.8107 88.7204 33.4887C89.0689 34.1629 89.2432 34.9508 89.2432 35.8523C89.2432 36.7463 89.0689 37.5323 88.7204 38.2103C88.372 38.8845 87.8757 39.4111 87.2318 39.7898C86.5917 40.1648 85.8303 40.3523 84.9477 40.3523ZM84.9591 38.4773C85.3606 38.4773 85.6958 38.3637 85.9648 38.1364C86.2337 37.9054 86.4364 37.591 86.5727 37.1932C86.7129 36.7955 86.7829 36.3429 86.7829 35.8353C86.7829 35.3277 86.7129 34.8751 86.5727 34.4773C86.4364 34.0796 86.2337 33.7652 85.9648 33.5342C85.6958 33.3031 85.3606 33.1876 84.9591 33.1876C84.5538 33.1876 84.2129 33.3031 83.9364 33.5342C83.6636 33.7652 83.4572 34.0796 83.317 34.4773C83.1807 34.8751 83.1125 35.3277 83.1125 35.8353C83.1125 36.3429 83.1807 36.7955 83.317 37.1932C83.4572 37.591 83.6636 37.9054 83.9364 38.1364C84.2129 38.3637 84.5538 38.4773 84.9591 38.4773ZM96.2376 36.466V31.4546H98.6581V40.1819H96.3342V38.5967H96.2433C96.0463 39.108 95.7187 39.519 95.2604 39.8296C94.8058 40.1402 94.2509 40.2955 93.5956 40.2955C93.0122 40.2955 92.499 40.1629 92.0558 39.8978C91.6126 39.6326 91.266 39.2557 91.016 38.7671C90.7698 38.2785 90.6448 37.6932 90.641 37.0114V31.4546H93.0615V36.5796C93.0653 37.0948 93.2035 37.502 93.4763 37.8012C93.749 38.1004 94.1145 38.2501 94.5729 38.2501C94.8645 38.2501 95.1372 38.1838 95.391 38.0512C95.6448 37.9148 95.8494 37.7141 96.0047 37.4489C96.1638 37.1838 96.2414 36.8561 96.2376 36.466ZM103.634 40.3239C102.971 40.3239 102.371 40.1535 101.833 39.8126C101.299 39.4679 100.875 38.9622 100.56 38.2955C100.25 37.6251 100.094 36.8031 100.094 35.8296C100.094 34.8296 100.255 33.9982 100.577 33.3353C100.899 32.6686 101.327 32.1705 101.861 31.841C102.399 31.5076 102.988 31.341 103.628 31.341C104.117 31.341 104.524 31.4243 104.85 31.591C105.18 31.7539 105.445 31.9584 105.645 32.2046C105.85 32.447 106.005 32.6857 106.111 32.9205H106.185V28.5455H108.6V40.1819H106.214V38.7842H106.111C105.998 39.0266 105.837 39.2671 105.628 39.5057C105.424 39.7406 105.157 39.9357 104.827 40.091C104.501 40.2463 104.104 40.3239 103.634 40.3239ZM104.401 38.3978C104.791 38.3978 105.121 38.2917 105.39 38.0796C105.662 37.8637 105.871 37.5626 106.015 37.1762C106.162 36.7898 106.236 36.3372 106.236 35.8182C106.236 35.2993 106.164 34.8486 106.02 34.466C105.876 34.0834 105.668 33.7879 105.395 33.5796C105.123 33.3713 104.791 33.2671 104.401 33.2671C104.003 33.2671 103.668 33.3751 103.395 33.591C103.123 33.8069 102.916 34.1061 102.776 34.4887C102.636 34.8713 102.566 35.3145 102.566 35.8182C102.566 36.3258 102.636 36.7747 102.776 37.1648C102.92 37.5512 103.126 37.8542 103.395 38.0739C103.668 38.2898 104.003 38.3978 104.401 38.3978ZM115.107 31.4546V33.2728H109.721V31.4546H115.107ZM110.954 40.1819V30.8239C110.954 30.1914 111.077 29.6667 111.323 29.2501C111.573 28.8334 111.914 28.5209 112.346 28.3126C112.778 28.1042 113.268 28.0001 113.817 28.0001C114.189 28.0001 114.528 28.0285 114.834 28.0853C115.145 28.1421 115.376 28.1932 115.528 28.2387L115.096 30.0569C115.001 30.0266 114.884 29.9982 114.744 29.9717C114.607 29.9451 114.467 29.9319 114.323 29.9319C113.967 29.9319 113.719 30.0152 113.579 30.1819C113.439 30.3448 113.369 30.5739 113.369 30.8694V40.1819H110.954ZM118.83 28.5455V40.1819H116.41V28.5455H118.83ZM123.082 40.3467C122.525 40.3467 122.029 40.2501 121.593 40.0569C121.158 39.8599 120.813 39.5701 120.559 39.1876C120.309 38.8012 120.184 38.3201 120.184 37.7444C120.184 37.2595 120.273 36.8523 120.451 36.5228C120.629 36.1932 120.872 35.9281 121.179 35.7273C121.485 35.5266 121.834 35.3751 122.224 35.2728C122.618 35.1705 123.031 35.0986 123.463 35.0569C123.97 35.0039 124.379 34.9546 124.69 34.9092C125 34.8599 125.226 34.7879 125.366 34.6932C125.506 34.5986 125.576 34.4584 125.576 34.2728V34.2387C125.576 33.8789 125.463 33.6004 125.235 33.4035C125.012 33.2065 124.694 33.108 124.281 33.108C123.845 33.108 123.499 33.2046 123.241 33.3978C122.983 33.5872 122.813 33.8258 122.73 34.1137L120.491 33.9319C120.605 33.4016 120.828 32.9432 121.161 32.5569C121.495 32.1667 121.925 31.8675 122.451 31.6592C122.982 31.447 123.595 31.341 124.292 31.341C124.777 31.341 125.241 31.3978 125.684 31.5114C126.131 31.6251 126.527 31.8012 126.872 32.0398C127.22 32.2785 127.495 32.5853 127.696 32.9603C127.896 33.3315 127.997 33.7766 127.997 34.2955V40.1819H125.701V38.9717H125.633C125.493 39.2444 125.305 39.4849 125.071 39.6932C124.836 39.8978 124.554 40.0588 124.224 40.1762C123.894 40.2898 123.514 40.3467 123.082 40.3467ZM123.775 38.6762C124.131 38.6762 124.446 38.6061 124.718 38.466C124.991 38.322 125.205 38.1289 125.36 37.8864C125.516 37.644 125.593 37.3694 125.593 37.0626V36.1364C125.518 36.1857 125.413 36.2311 125.281 36.2728C125.152 36.3107 125.006 36.3467 124.843 36.3807C124.68 36.4111 124.518 36.4395 124.355 36.466C124.192 36.4887 124.044 36.5095 123.911 36.5285C123.627 36.5701 123.379 36.6364 123.167 36.7273C122.955 36.8182 122.79 36.9414 122.673 37.0967C122.555 37.2482 122.497 37.4376 122.497 37.6648C122.497 37.9944 122.616 38.2463 122.855 38.4205C123.097 38.591 123.404 38.6762 123.775 38.6762ZM129.699 40.1819V31.4546H132.045V32.9773H132.136C132.295 32.4357 132.562 32.0266 132.937 31.7501C133.312 31.4698 133.744 31.3296 134.233 31.3296C134.354 31.3296 134.485 31.3372 134.625 31.3523C134.765 31.3675 134.888 31.3883 134.994 31.4148V33.5626C134.88 33.5285 134.723 33.4982 134.522 33.4717C134.322 33.4451 134.138 33.4319 133.971 33.4319C133.615 33.4319 133.297 33.5095 133.017 33.6648C132.74 33.8164 132.521 34.0285 132.358 34.3012C132.199 34.5739 132.119 34.8883 132.119 35.2444V40.1819H129.699ZM139.64 40.3523C138.743 40.3523 137.97 40.1705 137.322 39.8069C136.678 39.4395 136.182 38.9205 135.834 38.2501C135.485 37.5758 135.311 36.7785 135.311 35.858C135.311 34.9603 135.485 34.1724 135.834 33.4944C136.182 32.8164 136.673 32.2879 137.305 31.9092C137.942 31.5304 138.688 31.341 139.544 31.341C140.12 31.341 140.656 31.4338 141.152 31.6194C141.652 31.8012 142.087 32.0758 142.459 32.4432C142.834 32.8107 143.125 33.2728 143.334 33.8296C143.542 34.3826 143.646 35.0304 143.646 35.7728V36.4376H136.277V34.9376H141.368C141.368 34.5891 141.292 34.2804 141.14 34.0114C140.989 33.7425 140.779 33.5323 140.51 33.3807C140.245 33.2254 139.936 33.1478 139.584 33.1478C139.216 33.1478 138.89 33.233 138.606 33.4035C138.326 33.5701 138.106 33.7955 137.947 34.0796C137.788 34.3599 137.707 34.6724 137.703 35.0171V36.4432C137.703 36.8751 137.782 37.2482 137.942 37.5626C138.104 37.877 138.334 38.1194 138.629 38.2898C138.925 38.4603 139.275 38.5455 139.68 38.5455C139.949 38.5455 140.195 38.5076 140.419 38.4319C140.642 38.3561 140.834 38.2425 140.993 38.091C141.152 37.9395 141.273 37.7539 141.356 37.5342L143.595 37.6819C143.481 38.2198 143.248 38.6895 142.896 39.091C142.548 39.4887 142.097 39.7993 141.544 40.0228C140.995 40.2425 140.36 40.3523 139.64 40.3523Z" fill="#222222"/>
<line x1="161" y1="495" x2="161" y2="555" stroke="#757575" stroke-width="2"/>
<line x1="257" y1="495" x2="257" y2="555" stroke="#757575" stroke-width="2"/>
<rect x="171.371" y="328.026" width="120.243" height="24" transform="rotate(89.8518 171.371 328.026)" fill="#E2F5FA" stroke="#F6821F" stroke-width="2"/>
<circle cx="159.5" cy="320.5" r="17.5" fill="white"/>
<circle cx="159.5" cy="320.5" r="17.7414" fill="white"/>
<path d="M159.5 300.594C155.563 300.594 151.714 301.761 148.441 303.948C145.167 306.136 142.616 309.245 141.109 312.882C139.602 316.519 139.208 320.522 139.976 324.383C140.744 328.245 142.64 331.792 145.424 334.576C148.208 337.36 151.755 339.256 155.616 340.024C159.478 340.792 163.48 340.398 167.118 338.891C170.755 337.384 173.864 334.833 176.051 331.559C178.239 328.286 179.406 324.437 179.406 320.5C179.386 315.227 177.282 310.175 173.554 306.446C169.825 302.718 164.773 300.614 159.5 300.594ZM159.5 337.344C156.169 337.344 152.912 336.356 150.142 334.505C147.372 332.654 145.213 330.023 143.938 326.946C142.664 323.868 142.33 320.481 142.98 317.214C143.63 313.946 145.234 310.945 147.59 308.59C149.945 306.234 152.947 304.63 156.214 303.98C159.481 303.33 162.868 303.663 165.946 304.938C169.024 306.213 171.654 308.372 173.505 311.142C175.356 313.912 176.344 317.168 176.344 320.5C176.324 324.961 174.543 329.233 171.388 332.388C168.234 335.542 163.961 337.323 159.5 337.344Z" fill="#0055DC"/>
<path d="M157.509 322.644V322.567H157.433L156.361 321.495L151.155 326.855V323.792H148.705V331.448H156.361V328.998H153.298L158.581 323.716L157.509 322.644Z" fill="#0055DC"/>
<path d="M162.486 319.734L167.769 314.298V317.361H170.219V309.705H162.563V312.155H165.625L160.266 317.591L162.486 319.734Z" fill="#0055DC"/>
<path d="M164.936 323.869H167.922V321.419H160.266V329.075H162.716V326.012L168.917 332.061L171.061 329.917L164.936 323.869Z" fill="#0055DC"/>
<path d="M156.131 315.064L150.083 308.939L147.939 311.083L153.988 317.284H150.925V319.734H158.581V312.078H156.131V315.064Z" fill="#0055DC"/>
<circle cx="256" cy="464" r="31" fill="white" stroke="#F6821F" stroke-width="2"/>
<path d="M282 462H266.09L280.76 455.9L279.23 452.2L264.5 458.28L275.77 447L272.94 444.17L261.72 455.4L267.82 440.75L264.12 439.21L258 453.93V438H254V453.86L248 439.19L244.3 440.72L250.38 455.45L239.06 444.18L236.23 447L247.45 458.23L232.8 452.14L231.26 455.83L246 462H230V466H245.91L231.24 472L232.77 475.7L247.5 469.62L236.23 480.89L239.06 483.72L250.28 472.5L244.18 487.15L247.88 488.69L254 474V489.91H258V474L264 488.67L267.7 487.15L261.67 472.45L272.94 483.72L275.77 480.89L264.55 469.67L279.2 475.77L280.74 472.07L266 466H282V462ZM266 462V466L264.48 469.68L261.67 472.49L258 473.94H254L250.33 472.42L247.52 469.61L246 465.93V462L247.52 458.32L250.33 455.51L254 454H258L261.67 455.52L264.48 458.33L266 462Z" fill="#F6821F"/>
<path d="M160.707 346.293C160.317 345.902 159.683 345.902 159.293 346.293L152.929 352.657C152.538 353.047 152.538 353.681 152.929 354.071C153.319 354.462 153.953 354.462 154.343 354.071L160 348.414L165.657 354.071C166.047 354.462 166.681 354.462 167.071 354.071C167.462 353.681 167.462 353.047 167.071 352.657L160.707 346.293ZM159.293 425.707C159.683 426.098 160.317 426.098 160.707 425.707L167.071 419.343C167.462 418.953 167.462 418.319 167.071 417.929C166.681 417.538 166.047 417.538 165.657 417.929L160 423.586L154.343 417.929C153.953 417.538 153.319 417.538 152.929 417.929C152.538 418.319 152.538 418.953 152.929 419.343L159.293 425.707ZM159 347V425H161V347H159Z" fill="#757575"/>
<rect x="260.589" y="335.432" width="151.309" height="24" transform="rotate(124.125 260.589 335.432)" fill="#E2F5FA" stroke="#F6821F" stroke-width="2"/>
<path d="M242.836 341.193C242.728 340.652 242.202 340.3 241.66 340.408L232.834 342.165C232.292 342.273 231.94 342.8 232.048 343.341C232.156 343.883 232.682 344.235 233.224 344.127L241.07 342.565L242.632 350.411C242.74 350.952 243.267 351.304 243.808 351.196C244.35 351.088 244.702 350.562 244.594 350.02L242.836 341.193ZM179.019 434.195C179.127 434.737 179.654 435.089 180.195 434.981L189.022 433.223C189.564 433.115 189.915 432.589 189.808 432.047C189.7 431.506 189.173 431.154 188.631 431.262L180.786 432.824L179.223 424.978C179.115 424.436 178.589 424.085 178.047 424.193C177.506 424.3 177.154 424.827 177.262 425.369L179.019 434.195ZM241.024 340.833L179.168 433.445L180.832 434.555L242.687 341.944L241.024 340.833Z" fill="#757575"/>
<rect x="148" y="140" width="22" height="5" fill="white"/>
<path d="M159.707 150.293C159.317 149.902 158.683 149.902 158.293 150.293L151.929 156.657C151.538 157.047 151.538 157.681 151.929 158.071C152.319 158.462 152.953 158.462 153.343 158.071L159 152.414L164.657 158.071C165.047 158.462 165.681 158.462 166.071 158.071C166.462 157.681 166.462 157.047 166.071 156.657L159.707 150.293ZM158.293 290.707C158.683 291.098 159.317 291.098 159.707 290.707L166.071 284.343C166.462 283.953 166.462 283.319 166.071 282.929C165.681 282.538 165.047 282.538 164.657 282.929L159 288.586L153.343 282.929C152.953 282.538 152.319 282.538 151.929 282.929C151.538 283.319 151.538 283.953 151.929 284.343L158.293 290.707ZM158 151L158 290L160 290L160 151L158 151Z" fill="#757575"/>
<rect x="268" y="143" width="162" height="24" transform="rotate(90 268 143)" fill="#E2F5FA" stroke="#F6821F" stroke-width="2"/>
<path d="M256.707 150.293C256.317 149.902 255.683 149.902 255.293 150.293L248.929 156.657C248.538 157.047 248.538 157.681 248.929 158.071C249.319 158.462 249.953 158.462 250.343 158.071L256 152.414L261.657 158.071C262.047 158.462 262.681 158.462 263.071 158.071C263.462 157.681 263.462 157.047 263.071 156.657L256.707 150.293ZM255.293 290.707C255.683 291.098 256.317 291.098 256.707 290.707L263.071 284.343C263.462 283.953 263.462 283.319 263.071 282.929C262.681 282.538 262.047 282.538 261.657 282.929L256 288.586L250.343 282.929C249.953 282.538 249.319 282.538 248.929 282.929C248.538 283.319 248.538 283.953 248.929 284.343L255.293 290.707ZM255 151L255 290L257 290L257 151L255 151Z" fill="#757575"/>
<circle cx="256.5" cy="320.5" r="17.5" fill="white"/>
<circle cx="256.5" cy="320.5" r="17.7414" fill="white"/>
<path d="M256.5 300.594C252.563 300.594 248.714 301.761 245.441 303.948C242.167 306.136 239.616 309.245 238.109 312.882C236.602 316.519 236.208 320.522 236.976 324.383C237.744 328.245 239.64 331.792 242.424 334.576C245.208 337.36 248.755 339.256 252.616 340.024C256.478 340.792 260.48 340.398 264.118 338.891C267.755 337.384 270.864 334.833 273.051 331.559C275.239 328.286 276.406 324.437 276.406 320.5C276.386 315.227 274.282 310.175 270.554 306.446C266.825 302.718 261.773 300.614 256.5 300.594ZM256.5 337.344C253.169 337.344 249.912 336.356 247.142 334.505C244.372 332.654 242.213 330.023 240.938 326.946C239.664 323.868 239.33 320.481 239.98 317.214C240.63 313.946 242.234 310.945 244.59 308.59C246.945 306.234 249.947 304.63 253.214 303.98C256.481 303.33 259.868 303.663 262.946 304.938C266.024 306.213 268.654 308.372 270.505 311.142C272.356 313.912 273.344 317.168 273.344 320.5C273.324 324.961 271.543 329.233 268.388 332.388C265.234 335.542 260.961 337.323 256.5 337.344Z" fill="#0055DC"/>
<path d="M254.509 322.644V322.567H254.433L253.361 321.495L248.155 326.855V323.792H245.705V331.448H253.361V328.998H250.298L255.581 323.716L254.509 322.644Z" fill="#0055DC"/>
<path d="M259.486 319.734L264.769 314.298V317.361H267.219V309.705H259.563V312.155H262.625L257.266 317.591L259.486 319.734Z" fill="#0055DC"/>
<path d="M261.936 323.869H264.922V321.419H257.266V329.075H259.716V326.012L265.917 332.061L268.061 329.917L261.936 323.869Z" fill="#0055DC"/>
<path d="M253.131 315.064L247.083 308.939L244.939 311.083L250.988 317.284H247.925V319.734H255.581V312.078H253.131V315.064Z" fill="#0055DC"/>
<rect x="245" y="140" width="22" height="5" fill="white"/>
<circle cx="160" cy="464" r="31" fill="white" stroke="#F6821F" stroke-width="2"/>
<path d="M186 462H170.09L184.76 455.9L183.23 452.2L168.5 458.28L179.77 447L176.94 444.17L165.72 455.4L171.82 440.75L168.12 439.21L162 453.93V438H158V453.86L152 439.19L148.3 440.72L154.38 455.45L143.06 444.18L140.23 447L151.45 458.23L136.8 452.14L135.26 455.83L150 462H134V466H149.91L135.24 472L136.77 475.7L151.5 469.62L140.23 480.89L143.06 483.72L154.28 472.5L148.18 487.15L151.88 488.69L158 474V489.91H162V474L168 488.67L171.7 487.15L165.67 472.45L176.94 483.72L179.77 480.89L168.55 469.67L183.2 475.77L184.74 472.07L170 466H186V462ZM170 462V466L168.48 469.68L165.67 472.49L162 473.94H158L154.33 472.42L151.52 469.61L150 465.93V462L151.52 458.32L154.33 455.51L158 454H162L165.67 455.52L168.48 458.33L170 462Z" fill="#F6821F"/>
<defs>
<clipPath id="clip0_0_1">
<rect width="32" height="32" fill="white" transform="translate(24 172)"/>
</clipPath>
<clipPath id="clip1_0_1">
<rect width="32" height="32" fill="white" transform="translate(24 18)"/>
</clipPath>
</defs>
</svg>
